<svg width="49" height="49" viewBox="0 0 49 49" fill="none" xmlns="http://www.w3.org/2000/svg">
<path d="M2.96875 10.1328V37.1199C2.96875 38.7607 4.29769 40.0896 5.93845 40.0896H43.0597C44.7004 40.0896 46.0294 38.7607 46.0294 37.1199V10.1328H2.96875Z" fill="#F4F7FD"/>
<path d="M43.0522 10.1328C43.0522 25.0333 30.973 37.1125 16.0725 37.1125H2.96875C2.96875 38.7533 4.29769 40.0822 5.93845 40.0822H43.0597C44.7004 40.0822 46.0294 38.7533 46.0294 37.1125V10.1328H43.0522Z" fill="#E3ECFE"/>
<path d="M46.0294 4.45407C46.0294 2.81331 44.7004 1.48438 43.0597 1.48438H5.93845C4.29769 1.48438 2.96875 2.81331 2.96875 4.45407V10.1336H46.0294V4.45407Z" fill="#44394A"/>
<path d="M8.67821 7.29001C9.49827 7.29001 10.1631 6.62522 10.1631 5.80516C10.1631 4.9851 9.49827 4.32031 8.67821 4.32031C7.85815 4.32031 7.19336 4.9851 7.19336 5.80516C7.19336 6.62522 7.85815 7.29001 8.67821 7.29001Z" fill="#F8CE01"/>
<path d="M14.1274 7.29001C14.9475 7.29001 15.6123 6.62522 15.6123 5.80516C15.6123 4.9851 14.9475 4.32031 14.1274 4.32031C13.3074 4.32031 12.6426 4.9851 12.6426 5.80516C12.6426 6.62522 13.3074 7.29001 14.1274 7.29001Z" fill="#F8CE01"/>
<path d="M19.5845 7.29001C20.4045 7.29001 21.0693 6.62522 21.0693 5.80516C21.0693 4.9851 20.4045 4.32031 19.5845 4.32031C18.7644 4.32031 18.0996 4.9851 18.0996 5.80516C18.0996 6.62522 18.7644 7.29001 19.5845 7.29001Z" fill="#F8CE01"/>
<path d="M24.499 47.5156C32.2445 47.5156 38.5234 41.2366 38.5234 33.4912C38.5234 25.7457 32.2445 19.4668 24.499 19.4668C16.7535 19.4668 10.4746 25.7457 10.4746 33.4912C10.4746 41.2366 16.7535 47.5156 24.499 47.5156Z" fill="#C5D2EB"/>
<path d="M35.3746 24.6484C36.464 26.683 37.0328 28.9556 37.0302 31.2634C37.0376 39.0069 30.7567 45.2878 23.0132 45.2878C18.6255 45.2878 14.7055 43.2684 12.1367 40.1057C14.4976 44.5157 19.1452 47.5151 24.4981 47.5151C32.2416 47.5151 38.5225 41.2342 38.5225 33.4907C38.5225 30.135 37.342 27.0613 35.3746 24.6484Z" fill="#8CA7D9"/>
<path d="M24.4998 43.8023C18.8128 43.8023 14.1875 39.177 14.1875 33.49C14.1875 27.803 18.8128 23.1777 24.4998 23.1777C30.1867 23.1777 34.8121 27.803 34.8121 33.49C34.8121 39.177 30.1867 43.8023 24.4998 43.8023Z" fill="#F4F7FD"/>
<path d="M15.613 15.3306H7.42406C7.01573 15.3306 6.68164 14.9965 6.68164 14.5881C6.68164 14.1798 7.01573 13.8457 7.42406 13.8457H15.613C16.0213 13.8457 16.3554 14.1798 16.3554 14.5881C16.3554 14.9965 16.0288 15.3306 15.613 15.3306ZM13.2372 18.3596H7.42406C7.01573 18.3596 6.68164 18.0256 6.68164 17.6172C6.68164 17.2089 7.01573 16.8748 7.42406 16.8748H13.2372C13.6456 16.8748 13.9797 17.2089 13.9797 17.6172C13.9797 18.0256 13.653 18.3596 13.2372 18.3596Z" fill="#A4C0D8"/>
<path d="M24.4994 26.496C24.0911 26.496 23.757 26.1619 23.757 25.7536V25.1077C23.757 24.6993 24.0911 24.3652 24.4994 24.3652C24.9077 24.3652 25.2418 24.6993 25.2418 25.1077V25.7536C25.2418 26.1619 24.9077 26.496 24.4994 26.496ZM24.4994 42.614C24.0911 42.614 23.757 42.2799 23.757 41.8716V41.2257C23.757 40.8174 24.0911 40.4833 24.4994 40.4833C24.9077 40.4833 25.2418 40.8174 25.2418 41.2257V41.8716C25.2418 42.2799 24.9077 42.614 24.4994 42.614ZM20.6314 27.5354C20.3715 27.5354 20.1265 27.4018 19.9855 27.1642L19.6588 26.6074C19.4509 26.251 19.5771 25.7981 19.9335 25.5902C20.2899 25.3824 20.7427 25.5086 20.9506 25.8649L21.2773 26.4218C21.4852 26.7781 21.3589 27.231 21.0026 27.4389C20.8838 27.4983 20.7576 27.5354 20.6314 27.5354ZM28.6941 41.493C28.4342 41.493 28.1892 41.3593 28.0482 41.1218L27.7215 40.5649C27.5136 40.2086 27.6399 39.7557 27.9962 39.5478C28.3526 39.3399 28.8055 39.4661 29.0133 39.8225L29.34 40.3793C29.4048 40.4925 29.4387 40.6207 29.4384 40.7511C29.438 40.8815 29.4034 41.0095 29.338 41.1223C29.2726 41.2351 29.1786 41.3287 29.0656 41.3938C28.9526 41.4588 28.8245 41.493 28.6941 41.493ZM17.7953 30.364C17.6691 30.364 17.5429 30.3343 17.4241 30.2675L16.8673 29.9408C16.6969 29.8415 16.5726 29.679 16.5212 29.4887C16.4698 29.2983 16.4954 29.0953 16.5926 28.9237C16.8005 28.5674 17.2533 28.4486 17.6097 28.649L18.1665 28.9757C18.5229 29.1836 18.6417 29.6364 18.4412 29.9928C18.3076 30.2304 18.0552 30.364 17.7953 30.364ZM31.7603 38.4268C31.6341 38.4268 31.5079 38.3971 31.3891 38.3302L30.8323 38.0036C30.6619 37.9042 30.5376 37.7418 30.4862 37.5514C30.4348 37.361 30.4604 37.1581 30.5576 36.9865C30.7655 36.6301 31.2183 36.5113 31.5747 36.7118L32.1315 37.0384C32.4879 37.2463 32.6067 37.6992 32.4062 38.0555C32.2652 38.2931 32.0127 38.4268 31.7603 38.4268ZM16.7633 34.2321H16.1174C15.7091 34.2321 15.375 33.898 15.375 33.4896C15.375 33.0813 15.7091 32.7472 16.1174 32.7472H16.7633C17.1717 32.7472 17.5058 33.0813 17.5058 33.4896C17.5058 33.898 17.1717 34.2321 16.7633 34.2321ZM32.8814 34.2321H32.2355C31.8271 34.2321 31.493 33.898 31.493 33.4896C31.493 33.0813 31.8271 32.7472 32.2355 32.7472H32.8814C33.2897 32.7472 33.6238 33.0813 33.6238 33.4896C33.6238 33.898 33.2897 34.2321 32.8814 34.2321ZM17.2385 38.4268C17.0747 38.4267 16.9156 38.3725 16.7857 38.2728C16.6559 38.173 16.5626 38.0332 16.5203 37.875C16.478 37.7168 16.489 37.5491 16.5518 37.3978C16.6145 37.2466 16.7254 37.1202 16.8673 37.0384L17.4241 36.7118C17.7805 36.5039 18.2333 36.6301 18.4412 36.9865C18.6491 37.3428 18.5229 37.7957 18.1665 38.0036L17.6097 38.3302C17.4909 38.3896 17.3647 38.4268 17.2385 38.4268ZM31.2035 30.364C31.0397 30.3639 30.8806 30.3098 30.7507 30.21C30.6209 30.1103 30.5276 29.9705 30.4853 29.8123C30.443 29.6541 30.454 29.4863 30.5168 29.3351C30.5795 29.1838 30.6904 29.0575 30.8323 28.9757L31.3891 28.649C31.7455 28.4411 32.1983 28.5674 32.4062 28.9237C32.6141 29.2801 32.4879 29.733 32.1315 29.9408L31.5747 30.2675C31.4559 30.3343 31.3297 30.364 31.2035 30.364ZM20.3047 41.493C20.1785 41.493 20.0523 41.4633 19.9335 41.3965C19.7632 41.2971 19.6388 41.1346 19.5874 40.9443C19.536 40.7539 19.5616 40.5509 19.6588 40.3793L19.9855 39.8225C20.1933 39.4661 20.6462 39.3474 21.0026 39.5478C21.3589 39.7483 21.4777 40.2086 21.2773 40.5649L20.9506 41.1218C20.817 41.3593 20.5645 41.493 20.3047 41.493ZM28.3674 27.5354C28.2412 27.5354 28.115 27.5057 27.9962 27.4389C27.8259 27.3395 27.7016 27.1771 27.6501 26.9867C27.5987 26.7963 27.6244 26.5934 27.7215 26.4218L28.0482 25.8649C28.2561 25.5086 28.7089 25.3898 29.0653 25.5902C29.4217 25.7981 29.5405 26.251 29.34 26.6074L29.0133 27.1642C28.8723 27.4018 28.6199 27.5354 28.3674 27.5354Z" fill="#AAB2BD"/>
<path d="M24.8849 33.8469C24.6918 33.8469 24.5062 33.7727 24.3577 33.6316C24.2889 33.5629 24.2343 33.4814 24.1971 33.3915C24.1598 33.3017 24.1406 33.2055 24.1406 33.1082C24.1406 33.011 24.1598 32.9147 24.1971 32.8249C24.2343 32.7351 24.2889 32.6535 24.3577 32.5848L28.1515 28.791C28.2203 28.7223 28.3019 28.6678 28.3917 28.6306C28.4815 28.5934 28.5777 28.5742 28.6749 28.5742C28.7721 28.5742 28.8684 28.5934 28.9582 28.6306C29.048 28.6678 29.1296 28.7223 29.1984 28.791C29.2671 28.8598 29.3216 28.9414 29.3588 29.0312C29.396 29.121 29.4152 29.2172 29.4152 29.3144C29.4152 29.4116 29.396 29.5079 29.3588 29.5977C29.3216 29.6875 29.2671 29.7691 29.1984 29.8378L25.4046 33.6316C25.2635 33.7727 25.0705 33.8469 24.8849 33.8469Z" fill="#44394A"/>
<path d="M24.4988 35.7182C23.2738 35.7182 22.2715 34.7159 22.2715 33.4909C22.2715 32.2659 23.2738 31.2637 24.4988 31.2637C25.7238 31.2637 26.726 32.2659 26.726 33.4909C26.726 34.7159 25.7238 35.7182 24.4988 35.7182Z" fill="#2C92BF"/>
<path d="M25.1521 31.375C25.2189 31.5829 25.2634 31.7982 25.2634 32.0283C25.2634 33.2533 24.2611 34.2556 23.0361 34.2556C22.806 34.2556 22.5907 34.2111 22.3828 34.1442C22.6649 35.05 23.5039 35.7182 24.4987 35.7182C25.7237 35.7182 26.726 34.7159 26.726 33.4909C26.726 32.4886 26.0578 31.6497 25.1521 31.375Z" fill="#1F81A3"/>
<path d="M9.12325 4.40234C9.1678 4.5434 9.19749 4.69189 9.19749 4.85522C9.19749 5.67189 8.52931 6.34007 7.71264 6.34007C7.55674 6.34007 7.40825 6.31037 7.25977 6.26583C7.4528 6.86719 8.00219 7.2978 8.67037 7.2978C9.48704 7.2978 10.1552 6.62962 10.1552 5.81295C10.1626 5.14477 9.72461 4.59537 9.12325 4.40234ZM14.5801 4.40234C14.6246 4.5434 14.6543 4.69189 14.6543 4.85522C14.6543 5.67189 13.9861 6.34007 13.1695 6.34007C13.0136 6.34007 12.8651 6.31037 12.7166 6.26583C12.9096 6.86719 13.459 7.2978 14.1272 7.2978C14.9439 7.2978 15.612 6.62962 15.612 5.81295C15.612 5.14477 15.1814 4.59537 14.5801 4.40234ZM20.0295 4.40234C20.074 4.5434 20.1037 4.69189 20.1037 4.85522C20.1037 5.67189 19.4355 6.34007 18.6189 6.34007C18.4629 6.34007 18.3145 6.31037 18.166 6.26583C18.359 6.86719 18.9084 7.2978 19.5766 7.2978C20.3933 7.2978 21.0614 6.62962 21.0614 5.81295C21.0689 5.14477 20.6308 4.59537 20.0295 4.40234Z" fill="#F09D00"/>
</svg>
