<svg width="38" height="48" viewBox="0 0 38 48" fill="none" xmlns="http://www.w3.org/2000/svg">
<g clip-path="url(#clip0_5655_116091)">
<g opacity="0.95">
<path d="M0.143606 0H37.8099C37.8892 0 37.9535 0.0651907 37.9535 0.14534V47.8547C37.9535 47.9349 37.8891 48 37.8099 48H0.143606C0.0643029 48 0 47.9348 0 47.8547V0.14534C0 0.0651907 0.0644132 0 0.143606 0Z" fill="#F3F6FD"/>
</g>
<path d="M28.581 39.7083C26.2748 39.7083 24.3984 37.8093 24.3984 35.475C24.3984 33.1408 26.2748 31.2422 28.581 31.2422C30.8872 31.2422 32.7635 33.1412 32.7635 35.475C32.7635 37.8088 30.8872 39.7083 28.581 39.7083ZM28.581 32.0613C26.721 32.0613 25.2078 33.5926 25.2078 35.475C25.2078 37.3574 26.721 38.8891 28.581 38.8891C30.441 38.8891 31.9536 37.3575 31.9536 35.475C31.9536 33.5925 30.441 32.0613 28.581 32.0613Z" fill="#71C687"/>
<path d="M30.4146 34.534C30.4146 34.6375 30.3757 34.7409 30.2977 34.8248L28.4376 36.7074C28.2769 36.8651 28.0188 36.8651 27.8629 36.7074L26.8744 35.707C26.7137 35.5443 26.7137 35.2831 26.8744 35.1255C26.9524 35.0466 27.0545 35.0072 27.1569 35.0072C27.2593 35.0072 27.3662 35.0465 27.4442 35.1255L28.0139 35.6971C28.0869 35.7761 28.2087 35.7761 28.2866 35.6971L29.7231 34.2433C29.8838 34.0856 30.137 34.0856 30.2977 34.2433C30.3756 34.327 30.4146 34.4305 30.4146 34.5341V34.534Z" fill="#71C687"/>
<path d="M15.0193 33.3125H5.61328V34.5842H15.0193V33.3125Z" fill="#D1DCF8"/>
<path d="M19.5386 36.3672H5.61328V37.6391H19.5386V36.3672Z" fill="#D1DCF8"/>
<path d="M12.9868 24.0892L10.1406 13.2695L27.7114 13.2768L25.4406 24.0942L12.9869 24.0892H12.9868ZM10.6908 13.6978L13.3119 23.6611L25.0981 23.6661L27.1892 13.7047L10.6908 13.6978Z" fill="#014385"/>
<path d="M11.0307 15.5954L11.0273 16.0234L26.9368 16.1499L26.9401 15.7218L11.0307 15.5954Z" fill="#014385"/>
<path d="M11.7642 18.3844L11.7617 18.8125L26.1857 18.8991L26.1882 18.471L11.7642 18.3844Z" fill="#014385"/>
<path d="M25.7537 21.3516H12.6641V21.7797H25.7537V21.3516Z" fill="#014385"/>
<path d="M8.02107 12.1681C8.72454 12.1683 9.4279 12.1686 10.1314 12.169C10.2258 12.169 10.3148 12.2367 10.3395 12.3294C10.4296 12.6666 10.5196 13.0038 10.6097 13.3411C10.8332 14.1774 11.0567 15.0138 11.28 15.8502C11.5689 16.9317 11.8578 18.0131 12.1467 19.0946C12.4343 20.1709 12.7218 21.2473 13.0093 22.3237C13.2252 23.1316 13.441 23.9396 13.6568 24.7474C13.7172 24.9736 13.7776 25.1997 13.838 25.4259C13.8834 25.5961 13.9244 25.7693 13.9985 25.9296C14.3239 26.6338 15.018 27.0869 15.7863 27.0928C15.9302 27.094 16.0743 27.093 16.2182 27.0931C17.0908 27.0934 17.9634 27.0937 18.836 27.0942C19.9477 27.0946 21.0593 27.0951 22.171 27.0955C22.8743 27.0959 23.5775 27.0961 24.2809 27.0964C24.3153 27.0964 24.3498 27.0964 24.3842 27.0964C24.662 27.0965 24.6624 27.5334 24.3842 27.5332C23.8726 27.533 23.3609 27.5328 22.8493 27.5325C21.7667 27.5321 20.6841 27.5317 19.6014 27.5312C18.6119 27.5308 17.6222 27.5304 16.6326 27.53C16.3797 27.53 16.1268 27.5298 15.8739 27.5296C15.3818 27.5294 14.9021 27.4159 14.4861 27.1408C13.9833 26.8084 13.6262 26.3016 13.4684 25.7165C13.4309 25.5775 13.3942 25.4384 13.357 25.2994C13.1715 24.605 12.986 23.9106 12.8004 23.2161C12.5233 22.1783 12.246 21.1405 11.9687 20.1027C11.6716 18.9906 11.3745 17.8783 11.0774 16.766C10.8289 15.836 10.5805 14.906 10.332 13.9759C10.2017 13.4881 10.0714 13.0003 9.94111 12.5125C9.93516 12.49 9.9292 12.4677 9.92314 12.4453C9.99251 12.4987 10.0619 12.5522 10.1313 12.6057C9.42779 12.6053 8.72443 12.6051 8.02096 12.6048C7.74323 12.6047 7.74279 12.1677 8.02096 12.168L8.02107 12.1681Z" fill="#003567"/>
<path d="M21.4883 28.5107C21.4881 29.1404 21.9922 29.651 22.6143 29.6512C23.2364 29.6514 23.741 29.1413 23.7412 28.5116C23.7414 27.8819 23.2374 27.3713 22.6152 27.3711C21.9931 27.3709 21.4885 27.881 21.4883 28.5107Z" fill="#003567"/>
<path d="M22.2734 28.5102C22.2734 28.7014 22.4265 28.8566 22.6155 28.8567C22.8044 28.8567 22.9577 28.7018 22.9578 28.5106C22.9578 28.3193 22.8047 28.1642 22.6158 28.1641C22.4269 28.1641 22.2735 28.319 22.2734 28.5102Z" fill="#FFFEFF"/>
<path d="M15.3281 28.5068C15.3279 29.1364 15.832 29.6471 16.4541 29.6473C17.0762 29.6475 17.5808 29.1374 17.581 28.5077C17.5813 27.8781 17.0771 27.3674 16.455 27.3672C15.833 27.367 15.3283 27.8771 15.3281 28.5068Z" fill="#003567"/>
<path d="M16.0898 28.5063C16.0898 28.6975 16.2429 28.8527 16.4319 28.8528C16.6209 28.8528 16.7741 28.6979 16.7742 28.5066C16.7742 28.3154 16.6211 28.1603 16.4322 28.1602C16.2432 28.1602 16.09 28.3151 16.0898 28.5063Z" fill="#FFFEFF"/>
<path d="M22.4873 23.9014L23.5182 13.5116L23.0972 13.4688L22.0664 23.8587L22.4873 23.9014Z" fill="#014385"/>
<path d="M15.9016 23.8979L16.3225 23.8557L15.2999 13.4648L14.8789 13.5073L15.9016 23.8979Z" fill="#014385"/>
<path d="M19.423 23.8787L19.4272 13.4885L19.0042 13.4883L19 23.8787H19.423Z" fill="#014385"/>
</g>
<defs>
<clipPath id="clip0_5655_116091">
<rect width="37.9535" height="48" fill="white"/>
</clipPath>
</defs>
</svg>
