<svg width="32" height="32" viewBox="0 0 32 32" fill="none" xmlns="http://www.w3.org/2000/svg">
<path d="M23.8255 11.487V24.174C23.8255 24.3779 23.6607 24.5432 23.4573 24.5432H7.98101C7.77763 24.5432 7.61279 24.3779 7.61279 24.174V11.487C7.61279 10.8941 7.66526 10.3023 7.76956 9.71863L8.4237 6.0582H23.0146L23.6688 9.71863C23.7731 10.3025 23.8255 10.8942 23.8255 11.487Z" fill="#EBB28E"/>
<path d="M23.6689 9.71863L23.0147 6.0582H21.0493L21.7035 9.71863C21.8078 10.3025 21.8602 10.8942 21.8602 11.487V24.174C21.8602 24.3779 21.6954 24.5431 21.492 24.5431H23.4574C23.6608 24.5431 23.8256 24.3779 23.8256 24.174V11.487C23.8256 10.894 23.7732 10.3023 23.6689 9.71863Z" fill="#D6A37F"/>
<path d="M23.4593 6.53118H7.97758C7.86192 6.53118 7.75101 6.48603 7.66923 6.40566C7.58745 6.32529 7.5415 6.21628 7.5415 6.10263V3.74536C7.5415 3.6317 7.58745 3.52269 7.66923 3.44232C7.75101 3.36195 7.86192 3.3168 7.97758 3.3168H23.4593C23.5749 3.3168 23.6859 3.36195 23.7677 3.44232C23.8494 3.52269 23.8954 3.63169 23.8954 3.74536V6.10256C23.8954 6.15885 23.8841 6.21459 23.8622 6.2666C23.8403 6.3186 23.8082 6.36586 23.7677 6.40566C23.7272 6.44546 23.6791 6.47703 23.6262 6.49857C23.5733 6.52011 23.5166 6.53119 23.4593 6.53118Z" fill="#D6A37F"/>
<path d="M30.0653 1.80121C27.5596 -0.614683 23.5218 -0.600308 21.0342 1.84427C19.0789 3.76592 18.6517 6.62912 19.7525 8.96232C20.0607 9.61562 20.0776 10.3655 19.7882 11.0271L19.178 12.4218C19.1258 12.5412 19.2494 12.6617 19.3704 12.6095L20.7675 12.0068C21.1003 11.8633 21.4604 11.7909 21.8238 11.7944C22.1873 11.7979 22.5458 11.8772 22.8758 12.027C25.2891 13.1221 28.2569 12.6674 30.2094 10.6629C32.6505 8.15684 32.5852 4.23079 30.0653 1.80121Z" fill="#7EDBB0"/>
<path d="M30.0661 1.80046C28.568 0.356049 26.5223 -0.218815 24.5876 0.0741795C25.8714 0.267676 27.1067 0.842102 28.1007 1.80046C30.6206 4.23004 30.6859 8.15609 28.2448 10.6621C27.2279 11.7061 25.9356 12.3286 24.5898 12.5319C26.5867 12.8338 28.7015 12.2111 30.2103 10.6621C32.6513 8.15609 32.586 4.23004 30.0661 1.80046Z" fill="#51D39E"/>
<path d="M25.5323 24.782C25.5323 25.4255 25.0044 25.947 24.3531 25.947H18.2446C16.7905 25.9472 15.3577 26.2906 14.0669 26.9484L7.00384 30.5464C6.42877 30.8393 5.80929 31.039 5.16937 31.1375L-0.41023 31.9971C-0.42894 32 -0.448061 31.9988 -0.466277 31.9937C-0.484493 31.9886 -0.501371 31.9797 -0.515749 31.9676C-0.530128 31.9555 -0.541665 31.9405 -0.549567 31.9236C-0.557469 31.9067 -0.561548 31.8883 -0.561523 31.8697V26.2689C-0.561523 26.2037 -0.51211 26.1488 -0.446416 26.1409L2.74168 25.7564C3.3223 25.6864 3.88631 25.5186 4.40896 25.2603L6.70017 24.1284C7.38519 23.7899 8.00245 23.3327 8.5223 22.7788L12.3399 18.7128C12.7327 18.2945 13.38 18.2287 13.8514 18.559C14.375 18.9259 14.4943 19.6448 14.1165 20.1577L12.059 22.9511C11.8549 23.2282 12.0553 23.6171 12.4023 23.6171H24.353C25.0044 23.6171 25.5323 24.1386 25.5323 24.782Z" fill="#FFD8CA"/>
<path d="M12.1511 20.16L10.0936 22.9533C9.88947 23.2305 10.0899 23.6193 10.4368 23.6193H12.4023C12.0553 23.6193 11.8549 23.2305 12.059 22.9533L14.1165 20.16C14.4943 19.6471 14.375 18.9282 13.8513 18.5612C13.3795 18.2306 12.7327 18.2967 12.3394 18.7156L12.189 18.8758C12.4375 19.259 12.439 19.7692 12.1511 20.16ZM24.3531 23.6193H22.3877C23.0389 23.6193 23.5669 24.1409 23.5669 24.7843C23.5669 25.4277 23.0389 25.9493 22.3877 25.9493H24.3531C25.0044 25.9493 25.5323 25.4277 25.5323 24.7843C25.5323 24.1409 25.0044 23.6193 24.3531 23.6193ZM12.1014 26.9507L5.03836 30.5486C4.4635 30.8415 3.84423 31.0412 3.20453 31.1398L-0.561523 31.7199V31.8719C-0.561548 31.8905 -0.557469 31.9089 -0.549567 31.9258C-0.541665 31.9428 -0.530128 31.9578 -0.515749 31.9699C-0.501371 31.982 -0.484493 31.9909 -0.466277 31.996C-0.448061 32.0011 -0.42894 32.0022 -0.41023 31.9994L5.17 31.1398C5.80971 31.0412 6.42898 30.8415 7.00384 30.5486L14.0669 26.9507C15.3577 26.2929 16.7905 25.9494 18.2446 25.9493H16.2791C14.8256 25.9493 13.3932 26.2927 12.1014 26.9507Z" fill="#FFBEAD"/>
<path d="M29.1618 4.23112C29.12 4.1853 29.0694 4.14802 29.0129 4.12143C28.9564 4.09483 28.8951 4.07943 28.8326 4.07612C28.77 4.0728 28.7074 4.08164 28.6483 4.10211C28.5893 4.12258 28.5349 4.1543 28.4883 4.19544L24.5236 7.69306L22.6839 5.92816C22.5934 5.84131 22.4715 5.79337 22.345 5.79487C22.2185 5.79637 22.0978 5.84719 22.0094 5.93615C21.9211 6.02512 21.8723 6.14493 21.8738 6.26924C21.8753 6.39355 21.9271 6.51218 22.0176 6.59902L24.1768 8.67048C24.2658 8.75605 24.3855 8.80391 24.51 8.80379C24.6276 8.8039 24.7411 8.76117 24.8286 8.68385L29.1254 4.89311C29.1721 4.852 29.21 4.80226 29.237 4.74673C29.2641 4.69121 29.2798 4.631 29.2831 4.56952C29.2865 4.50805 29.2775 4.44653 29.2567 4.38846C29.2359 4.3304 29.2037 4.27694 29.1618 4.23112Z" fill="#F8F7F7"/>
</svg>
