<svg width="46" height="45" viewBox="0 0 46 45" fill="none" xmlns="http://www.w3.org/2000/svg">
<path d="M22.5322 45C34.9764 45 45.0644 34.9264 45.0644 22.5C45.0644 10.0736 34.9764 0 22.5322 0C10.088 0 0 10.0736 0 22.5C0 34.9264 10.088 45 22.5322 45Z" fill="#5ED37C"/>
<path d="M16.3196 32.7917L11.3897 27.8682C10.0639 26.5424 10.0639 24.3864 11.3833 23.0542C12.7091 21.7284 14.8715 21.7284 16.1973 23.0477L18.7202 25.5706L28.8632 15.4533C30.189 14.1275 32.3451 14.1275 33.6709 15.4533C34.9967 16.7791 34.9967 18.9416 33.6709 20.261L21.1337 32.7853C19.8079 34.1111 17.6583 34.1175 16.3196 32.7917Z" fill="white"/>
</svg>
