<svg width="35" height="48" viewBox="0 0 35 48" fill="none" xmlns="http://www.w3.org/2000/svg">
<path d="M28.4399 3.40234H5.79538C2.59468 3.40234 0 5.99703 0 9.19772V42.2056C0 45.4063 2.59468 48.001 5.79538 48.001H28.4399C31.6406 48.001 34.2353 45.4063 34.2353 42.2056V9.19772C34.2353 5.99703 31.6406 3.40234 28.4399 3.40234Z" fill="#D9E5F1"/>
<path d="M31.5577 45.3224L31.5577 6.08203L2.6793 6.08203L2.6793 45.3224H31.5577Z" fill="white"/>
<path d="M25.4351 2.99759V7.16316C25.4351 7.47435 25.1833 7.72332 24.8721 7.72332H11.9715C11.6603 7.72332 11.4084 7.47435 11.4084 7.16316V2.99759C11.4084 2.68929 11.6603 2.43743 11.9715 2.43743H15.9836C15.9836 1.0928 17.0764 0 18.4211 0C19.7657 0 20.8585 1.0928 20.8585 2.43743H24.8707C25.1819 2.43743 25.4337 2.68929 25.4337 2.99759H25.4351Z" fill="#393982"/>
<path d="M19.6962 2.12723C19.6962 2.83211 19.126 3.40091 18.4225 3.40091C17.7191 3.40091 17.1488 2.83067 17.1488 2.12723C17.1488 1.4238 17.7191 0.853516 18.4225 0.853516C19.126 0.853516 19.6962 1.42524 19.6962 2.12723Z" fill="white"/>
<path d="M11.2377 18.5579C12.5954 17.2002 12.5954 14.999 11.2377 13.6412C9.87999 12.2835 7.67875 12.2835 6.32103 13.6412C4.96332 14.999 4.96329 17.2002 6.32101 18.5579C7.67872 19.9157 9.88001 19.9157 11.2377 18.5579Z" fill="#03C88B"/>
<path d="M7.79985 17.6851L6.93572 16.821C6.75914 16.6444 6.75914 16.3578 6.93572 16.1813C7.1123 16.0047 7.39891 16.0047 7.57549 16.1813L8.11972 16.7255L10.162 14.6832C10.3386 14.5066 10.6252 14.5066 10.8017 14.6832C10.9783 14.8598 10.9783 15.1464 10.8017 15.323L8.43958 17.6851C8.263 17.8617 7.97643 17.8617 7.79985 17.6851Z" fill="white"/>
<path d="M22.1293 13.1187L13.7289 13.041L13.706 15.5232L22.1063 15.6009L22.1293 13.1187Z" fill="#EFF6FF"/>
<path d="M28.985 17.5372L13.66 17.3693L13.6686 16.4922L28.9937 16.6601L28.985 17.5372Z" fill="#EFF6FF"/>
<path d="M13.6246 18.0526L13.6165 18.9297L23.0936 19.0174L23.1017 18.1403L13.6246 18.0526Z" fill="#EFF6FF"/>
<path d="M8.7792 30.2775C10.6993 30.2775 12.2558 28.721 12.2558 26.8009C12.2558 24.8808 10.6993 23.3242 8.7792 23.3242C6.8591 23.3242 5.30255 24.8808 5.30255 26.8009C5.30255 28.721 6.8591 30.2775 8.7792 30.2775Z" fill="#03C88B"/>
<path d="M7.79911 28.3863L6.93499 27.5222C6.75841 27.3456 6.75841 27.059 6.93499 26.8824C7.11157 26.7058 7.39818 26.7058 7.57476 26.8824L8.11898 27.4266L10.1612 25.3844C10.3378 25.2078 10.6244 25.2078 10.801 25.3844C10.9776 25.561 10.9776 25.8475 10.801 26.0241L8.43885 28.3863C8.26227 28.5629 7.9757 28.5629 7.79911 28.3863Z" fill="white"/>
<path d="M22.1304 23.8218L13.7301 23.7441L13.7071 26.2263L22.1075 26.304L22.1304 23.8218Z" fill="#EFF6FF"/>
<path d="M28.9856 28.2384L13.6606 28.0705L13.6692 27.1934L28.9943 27.3612L28.9856 28.2384Z" fill="#EFF6FF"/>
<path d="M13.6246 28.7538L13.6165 29.6309L23.0936 29.7185L23.1017 28.8414L13.6246 28.7538Z" fill="#EFF6FF"/>
<path d="M8.7792 40.9806C10.6993 40.9806 12.2558 39.4241 12.2558 37.504C12.2558 35.5839 10.6993 34.0273 8.7792 34.0273C6.8591 34.0273 5.30255 35.5839 5.30255 37.504C5.30255 39.4241 6.8591 40.9806 8.7792 40.9806Z" fill="#03C88B"/>
<path d="M7.79911 39.0875L6.93499 38.2234C6.75841 38.0468 6.75841 37.7602 6.93499 37.5836C7.11157 37.407 7.39818 37.407 7.57476 37.5836L8.11898 38.1279L10.1612 36.0856C10.3378 35.909 10.6244 35.909 10.801 36.0856C10.9776 36.2621 10.9776 36.5487 10.801 36.7253L8.43885 39.0875C8.26227 39.264 7.9757 39.264 7.79911 39.0875Z" fill="white"/>
<path d="M22.1304 34.525L13.7301 34.4473L13.7071 36.9294L22.1075 37.0071L22.1304 34.525Z" fill="#EFF6FF"/>
<path d="M28.985 38.942L13.66 38.7756L13.6687 37.8984L28.9937 38.0649L28.985 38.942Z" fill="#EFF6FF"/>
<path d="M13.6235 39.4549L13.6154 40.332L23.0925 40.4197L23.1006 39.5426L13.6235 39.4549Z" fill="#EFF6FF"/>
</svg>
