<svg width="24" height="24" viewBox="0 0 24 24" fill="none" xmlns="http://www.w3.org/2000/svg">
<path d="M17.9419 4.56134V11.0346C17.9419 11.2648 17.8505 11.4856 17.6877 11.6483C17.5249 11.8111 17.3042 11.9026 17.074 11.9026H6.24689C6.01668 11.9026 5.79591 11.8111 5.63313 11.6483C5.47035 11.4856 5.37891 11.2648 5.37891 11.0346V4.56134C5.37891 4.44735 5.40136 4.33449 5.44498 4.22918C5.4886 4.12387 5.55253 4.02818 5.63313 3.94758C5.71373 3.86699 5.80942 3.80305 5.91472 3.75943C6.02003 3.71581 6.1329 3.69336 6.24689 3.69336H17.074C17.555 3.69685 17.9419 4.08378 17.9419 4.56134Z" fill="#9A93D1"/>
<path d="M5.37891 9.16968H17.9419V10.6512H5.37891V9.16968Z" fill="#343434"/>
<path d="M8.50909 4.99688V6.61084C8.50909 6.72936 8.41149 6.82696 8.29297 6.82696H6.67901C6.56049 6.82696 6.46289 6.72936 6.46289 6.61084V4.99688C6.46289 4.87837 6.56049 4.78076 6.67901 4.78076H8.29297C8.41149 4.78076 8.50909 4.87488 8.50909 4.99688Z" fill="#FFE200"/>
<path d="M8.29308 6.87943H6.67912C6.52923 6.87943 6.40723 6.75742 6.40723 6.60753V4.99358C6.40723 4.84368 6.52923 4.72168 6.67912 4.72168H8.29308C8.44297 4.72168 8.56497 4.84368 8.56497 4.99358V6.60753C8.56497 6.75742 8.44297 6.87943 8.29308 6.87943ZM6.67912 4.83323C6.63567 4.83323 6.594 4.85049 6.56327 4.88121C6.53255 4.91194 6.51529 4.95361 6.51529 4.99706V6.61102C6.51529 6.70165 6.58849 6.77485 6.67912 6.77485H8.29308C8.38371 6.77485 8.45691 6.70165 8.45691 6.61102V4.99706C8.45691 4.95361 8.43965 4.91194 8.40893 4.88121C8.3782 4.85049 8.33653 4.83323 8.29308 4.83323H6.67912Z" fill="#FFB000"/>
<path d="M7.19492 5.71497H6.46289V5.60691H7.08686V4.78076H7.19492V5.71497ZM8.50909 5.71497H7.70386V4.78076H7.81192V5.60691H8.50909V5.71497ZM7.54002 6.82696H7.43196V6.26225H6.46289V6.15419H7.54002V6.82696Z" fill="#FFB000"/>
<path d="M12.6817 5.363C12.6817 5.25494 12.7689 5.16431 12.8735 5.16431H16.307C16.4151 5.16431 16.5057 5.25494 16.5057 5.363C16.5057 5.47106 16.4151 5.55472 16.307 5.55472H12.8735C12.7689 5.55472 12.6817 5.47106 12.6817 5.363ZM14.7175 8.27718C14.7175 8.16912 14.8046 8.075 14.9127 8.075H16.5336C16.6417 8.075 16.7358 8.16912 16.7358 8.27718C16.7358 8.38524 16.6417 8.47239 16.5336 8.47239H14.9127C14.887 8.47272 14.8614 8.46789 14.8376 8.4582C14.8138 8.4485 14.7921 8.43414 14.7739 8.41594C14.7557 8.39775 14.7414 8.3761 14.7317 8.35227C14.722 8.32844 14.7172 8.30291 14.7175 8.27718ZM12.0055 8.27718C12.0055 8.16912 12.0926 8.075 12.2007 8.075H13.8216C13.9297 8.075 14.0238 8.16912 14.0238 8.27718C14.0238 8.38524 13.9297 8.47239 13.8216 8.47239H12.2007C12.175 8.47272 12.1494 8.46789 12.1256 8.4582C12.1018 8.4485 12.0801 8.43414 12.0619 8.41594C12.0437 8.39775 12.0294 8.3761 12.0197 8.35227C12.01 8.32844 12.0052 8.30291 12.0055 8.27718ZM9.29349 8.27718C9.29349 8.16912 9.38064 8.075 9.4887 8.075H11.1096C11.2177 8.075 11.3118 8.16912 11.3118 8.27718C11.3118 8.38524 11.2177 8.47239 11.1096 8.47239H9.4887C9.38412 8.47587 9.29349 8.38524 9.29349 8.27718ZM6.58498 8.27718C6.58498 8.16912 6.67212 8.075 6.78018 8.075H8.40111C8.50917 8.075 8.60329 8.16912 8.60329 8.27718C8.60329 8.38524 8.50917 8.47239 8.40111 8.47239H6.78018C6.75446 8.47272 6.72893 8.46789 6.7051 8.4582C6.68126 8.4485 6.65961 8.43414 6.64142 8.41594C6.62323 8.39775 6.60886 8.3761 6.59917 8.35227C6.58947 8.32844 6.58465 8.30291 6.58498 8.27718ZM16.5057 6.45408C16.5057 6.56214 16.4151 6.6458 16.307 6.6458H10.9249C10.8168 6.6458 10.7332 6.55865 10.7332 6.45408C10.7332 6.34253 10.8203 6.25538 10.9249 6.25538H16.307C16.4151 6.25538 16.5057 6.34253 16.5057 6.45408Z" fill="#E6E6E6"/>
<path d="M17.0743 4.12891H16.8024V6.69799C16.8024 8.97425 14.9549 10.8218 12.6787 10.8218H5.81152V11.0344C5.81152 11.2749 6.00673 11.4666 6.24377 11.4666H17.0709C17.3114 11.4666 17.5031 11.2714 17.5031 11.0344V4.56115C17.5101 4.32411 17.3149 4.12891 17.0743 4.12891Z" fill="black" fill-opacity="0.063"/>
<path opacity="0.15" d="M17.9459 4.56476V5.28982C17.6426 5.80572 17.3881 6.34603 17.179 6.90726C17.0326 7.30116 16.8583 7.76129 16.4609 7.89027C16.053 8.01924 15.5755 7.74735 15.2095 7.95999C14.7423 8.22491 14.8922 8.97786 14.5437 9.3857C14.0068 10.0132 12.8112 9.3857 12.2221 9.96087C11.992 10.1805 11.9327 10.5256 11.7515 10.787C11.5075 11.1426 11.0683 11.3169 10.6325 11.3726C10.2038 11.4249 9.77151 11.3866 9.33578 11.4249C8.90353 11.4598 8.46083 11.5888 8.1715 11.906H6.25079C6.13681 11.906 6.02394 11.8835 5.91863 11.8399C5.81332 11.7963 5.71764 11.7324 5.63704 11.6518C5.55644 11.5712 5.4925 11.4755 5.44888 11.3702C5.40526 11.2649 5.38281 11.152 5.38281 11.038V4.56476C5.38281 4.08371 5.76974 3.69678 6.25079 3.69678H17.0814C17.5554 3.69678 17.9459 4.08371 17.9459 4.56476Z" fill="white"/>
<path opacity="0.15" d="M14.8814 3.69685C13.8636 4.23367 12.8108 4.69729 11.6884 4.91341C11.1655 5.0145 10.5485 5.10862 10.2836 5.57572C10.1058 5.89294 10.1476 6.30776 9.94197 6.60754C9.50624 7.23499 8.36636 6.90384 7.90274 7.50689C7.59598 7.90428 7.75982 8.48642 7.6413 8.98141C7.52278 9.46594 7.14282 9.83893 6.73846 10.1387C6.34107 10.4385 5.90186 10.7034 5.5951 11.0904C5.53584 11.167 5.48355 11.2507 5.43475 11.3379C5.39654 11.2414 5.37759 11.1383 5.37898 11.0346V4.56134C5.37898 4.08029 5.76591 3.69336 6.24696 3.69336L14.8814 3.69685Z" fill="white"/>
<path d="M4.71638 14.4473L6.38959 13.513C7.6933 12.7845 9.24451 12.6555 10.6493 13.154L12.1447 13.6873C12.584 13.8442 13.0441 13.9244 13.5077 13.9244H14.8289C15.77 13.9244 16.4568 14.8202 16.2093 15.7301C16.1268 16.0331 15.9471 16.3007 15.6976 16.4916C15.4482 16.6824 15.1429 16.786 14.8289 16.7863H10.7295H14.543C15.4424 16.7863 16.3208 16.5213 17.0703 16.0264L21.337 13.2098C22.0585 12.7322 23.0346 12.9658 23.4599 13.7187C23.6451 14.0465 23.6999 14.432 23.6133 14.7984C23.5267 15.1648 23.3051 15.485 22.9927 15.6952L15.411 20.788C14.6078 21.3275 13.6854 21.6634 12.7234 21.7667C11.7614 21.8699 10.7887 21.7374 9.88939 21.3806L9.40137 21.1889C8.47705 20.8228 7.49184 20.6348 6.49765 20.6347H4.71289V14.4473H4.71638Z" fill="#FCC397"/>
<path opacity="0.1" d="M23.6555 14.4576C23.6555 14.9421 23.4219 15.4092 22.9967 15.6951L15.4149 20.7914C14.6104 21.3294 13.6875 21.6643 12.7253 21.7675C11.763 21.8707 10.7901 21.7391 9.88981 21.384L9.35648 21.1749C8.44655 20.8197 7.47832 20.6377 6.50156 20.638H4.7168V14.4471L6.74557 13.3177V17.2742C6.74557 18.6127 7.60309 19.7666 8.84754 20.2616C8.85451 20.265 8.86149 20.2685 8.86846 20.2685L9.35299 20.4637C11.1831 21.1818 13.2432 20.9657 14.8781 19.8677L22.4598 14.7783C22.663 14.6405 22.8292 14.455 22.9441 14.2381C23.059 14.0211 23.1189 13.7793 23.1187 13.5338C23.1187 13.4572 23.1117 13.377 23.0977 13.3003C23.2441 13.4118 23.3662 13.5513 23.4603 13.7256C23.5927 13.9556 23.6555 14.2066 23.6555 14.4576Z" fill="black"/>
<path d="M15.1535 16.7373C15.3487 16.7164 15.5369 16.6745 15.7286 16.6257C15.5892 16.7443 15.4289 16.8384 15.2441 16.8941C15.1151 16.9395 14.9757 16.9604 14.8363 16.9673L14.4633 16.9848L13.7173 16.9952C12.7238 16.9883 11.7269 16.9499 10.7334 16.7826L15.1535 16.7373Z" fill="#EFB289"/>
<path d="M13.8427 16.3017L14.8257 16.2285C15.2579 16.1971 15.6379 15.8799 15.6937 15.4512C15.7634 14.9004 15.3381 14.4368 14.8083 14.4368H13.8113C13.5429 14.4368 13.3233 14.6564 13.3233 14.9248V15.8137C13.3198 16.0995 13.5603 16.3226 13.8427 16.3017Z" fill="white"/>
<path opacity="0.15" d="M23.6553 14.4577C23.6553 14.6146 23.6344 14.7714 23.5821 14.9143C22.7738 15.3186 22.0067 15.8008 21.2919 16.354C20.9294 16.6329 20.546 16.9396 20.0928 16.9571C19.6849 16.9745 19.3015 16.7514 18.9006 16.7897C18.1581 16.856 17.7398 17.7379 17.0287 17.9436C16.6453 18.0551 16.2165 17.961 15.8644 18.1388C15.4357 18.3514 15.2719 18.8743 14.9616 19.2368C14.5642 19.7004 13.9472 19.8887 13.3895 20.1327C12.5389 20.5099 11.7704 21.0499 11.1272 21.7222C10.7089 21.656 10.2975 21.5445 9.89665 21.3806L9.41212 21.1924C8.48488 20.8229 7.49838 20.6346 6.50839 20.6346H4.72363V14.4472L6.39685 13.5165C7.70056 12.7845 9.25177 12.659 10.6566 13.154L12.1555 13.6908C12.5912 13.8477 13.0514 13.9244 13.515 13.9244H14.8361C15.7773 13.9244 16.464 14.8202 16.22 15.73C16.0736 16.2494 15.6692 16.6259 15.1603 16.7375C15.847 16.6468 16.5024 16.4098 17.0845 16.0228L21.3512 13.2063C21.522 13.094 21.7141 13.018 21.9155 12.983C22.1169 12.948 22.3233 12.9547 22.522 13.0027C22.7207 13.0508 22.9075 13.1391 23.0706 13.2623C23.2338 13.3854 23.3699 13.5408 23.4706 13.7187C23.5926 13.9557 23.6553 14.2067 23.6553 14.4577Z" fill="white"/>
<path opacity="0.15" d="M16.0942 14.6738C15.5923 14.8865 15.1286 15.2385 14.7173 15.5976C14.0201 16.2111 13.3334 16.9013 12.441 17.1418C11.9739 17.2708 11.465 17.2603 11.0362 17.4869C10.7643 17.6333 10.5517 17.8599 10.3216 18.0656C9.81968 18.5327 9.24102 18.9231 8.62054 19.2194C7.83622 19.5924 6.98567 19.812 6.22227 20.2233C6.00963 20.3418 5.79699 20.4743 5.60876 20.6312H4.71289V14.4472L6.3861 13.5165C7.68982 12.7845 9.24102 12.659 10.6458 13.154L12.1447 13.6908C12.5805 13.8477 13.0406 13.9244 13.5042 13.9244H14.8254C15.3866 13.9209 15.8467 14.2346 16.0942 14.6738Z" fill="white"/>
<path d="M1.3457 13.642V21.4398C1.3457 21.7466 1.59669 21.9976 1.90344 21.9976H5.23592C5.54268 21.9976 5.79366 21.7466 5.79366 21.4398V13.642C5.79366 13.3352 5.54268 13.0842 5.23592 13.0842H1.90344C1.59669 13.0842 1.3457 13.3352 1.3457 13.642Z" fill="#F393A9"/>
<path d="M4.30544 19.892C4.30544 20.2929 3.97777 20.6206 3.56992 20.6206C3.37577 20.6206 3.18958 20.5434 3.0523 20.4061C2.91502 20.2689 2.83789 20.0827 2.83789 19.8885C2.83789 19.6944 2.91502 19.5082 3.0523 19.3709C3.18958 19.2336 3.37577 19.1565 3.56992 19.1565C3.97777 19.1565 4.30544 19.4842 4.30544 19.892Z" fill="#E6E6E6"/>
<path opacity="0.1" d="M5.23635 13.363H5.076V18.3896C5.076 19.1422 4.77705 19.8639 4.24492 20.3961C3.71279 20.9282 2.99106 21.2271 2.23851 21.2271H1.625V21.4433C1.625 21.5966 1.75049 21.7221 1.90387 21.7221H5.23635C5.38973 21.7221 5.51522 21.5966 5.51522 21.4433V13.6419C5.51522 13.4885 5.38973 13.363 5.23635 13.363Z" fill="black"/>
<path opacity="0.1" d="M5.7906 13.6141V13.6211C5.67905 13.994 5.6163 14.3845 5.60585 14.7749C5.58842 15.2001 5.62328 15.6603 5.36532 15.9949C5.22589 16.1797 5.02022 16.3017 4.86336 16.462C4.57403 16.7618 4.45551 17.215 4.5566 17.6158C4.67512 18.0795 5.06554 18.5152 4.91216 18.9649C4.8285 19.2159 4.59843 19.3902 4.50083 19.6272C4.29865 20.1117 4.67861 20.6346 4.73089 21.161C4.75878 21.4573 4.67512 21.7466 4.52523 21.9976H1.90735C1.59362 21.9976 1.34961 21.7466 1.34961 21.4398V13.642C1.34961 13.3352 1.59362 13.0842 1.90735 13.0842H5.23634C5.52916 13.0842 5.77317 13.3178 5.7906 13.6141Z" fill="white"/>
<path opacity="0.1" d="M3.10258 18.9823C3.3187 19.798 3.00149 20.6869 2.46118 21.3422C2.26597 21.5828 2.04288 21.7954 1.80235 21.9906C1.54091 21.9453 1.3457 21.7187 1.3457 21.4433V13.642C1.3457 13.3352 1.58971 13.0842 1.90344 13.0842H3.30824C3.13046 13.5478 3.03983 14.0533 3.07818 14.5518C3.11303 15.0154 3.23853 15.493 3.06075 15.9217C2.93874 16.2285 2.66336 16.469 2.54833 16.7792C2.40889 17.1418 2.50301 17.5531 2.64942 17.9121C2.80279 18.2712 3.00497 18.6058 3.10258 18.9823Z" fill="white"/>
<path d="M21.3545 4.08717H21.7728V6.42269C21.7728 6.5203 21.8495 6.59699 21.9471 6.59699H22.7558C22.8534 6.59699 22.9301 6.5203 22.9301 6.42269V4.08717H23.3554C23.4878 4.08717 23.575 3.94076 23.5052 3.82573L22.5048 2.08628C22.4892 2.05999 22.467 2.03821 22.4404 2.02308C22.4138 2.00795 22.3838 2 22.3532 2C22.3226 2 22.2925 2.00795 22.2659 2.02308C22.2394 2.03821 22.2172 2.05999 22.2015 2.08628L21.2011 3.82573C21.1857 3.8524 21.1776 3.88268 21.1777 3.91349C21.1778 3.94429 21.1861 3.97452 21.2017 4.00109C21.2173 4.02765 21.2396 4.04962 21.2665 4.06474C21.2933 4.07986 21.3237 4.0876 21.3545 4.08717Z" fill="#F393A9"/>
<path d="M18.7508 8.00172H19.1691V10.3372C19.1691 10.4348 19.2458 10.5115 19.3434 10.5115H20.1521C20.2497 10.5115 20.3264 10.4348 20.3264 10.3372V8.00172H20.7517C20.8841 8.00172 20.9713 7.85531 20.9016 7.74028L19.9011 6.00083C19.8855 5.97454 19.8633 5.95276 19.8367 5.93763C19.8101 5.9225 19.7801 5.91455 19.7495 5.91455C19.7189 5.91455 19.6888 5.9225 19.6623 5.93763C19.6357 5.95276 19.6135 5.97454 19.5979 6.00083L18.5974 7.74028C18.5347 7.8588 18.6183 8.00172 18.7508 8.00172Z" fill="#FFE200"/>
</svg>
