<svg width="40" height="48" viewBox="0 0 40 48" fill="none" xmlns="http://www.w3.org/2000/svg">
<path d="M24.6728 45.5195H0V47.9868H24.6728V45.5195Z" fill="#FAA763"/>
<path d="M24.6738 47.9844H39.5362V45.5171H24.6738V47.9844Z" fill="#DD7D33"/>
<path d="M24.6728 43.0527H0V45.52H24.6728V43.0527Z" fill="#FFD5A9"/>
<path d="M24.6738 45.5156H39.5362V43.0483H24.6738V45.5156Z" fill="#FAA763"/>
<path d="M24.6728 40.584H0V43.0513H24.6728V40.584Z" fill="#FAA763"/>
<path d="M24.6738 43.0527H39.5362V40.5855H24.6738V43.0527Z" fill="#DD7D33"/>
<path d="M24.6728 38.1172H0V40.5845H24.6728V38.1172Z" fill="#FFD5A9"/>
<path d="M24.6738 40.584H39.5362V38.1167H24.6738V40.584Z" fill="#FAA763"/>
<path d="M24.6728 35.6523H0V38.1196H24.6728V35.6523Z" fill="#FAA763"/>
<path d="M24.6738 38.1172H39.5362V35.6499H24.6738V38.1172Z" fill="#DD7D33"/>
<path d="M24.6728 33.1855H0V35.6528H24.6728V33.1855Z" fill="#FFD5A9"/>
<path d="M24.6738 35.6504H39.5362V33.1831H24.6738V35.6504Z" fill="#FAA763"/>
<path d="M24.6728 30.7168H0V33.1841H24.6728V30.7168Z" fill="#FAA763"/>
<path d="M24.6738 33.1855H39.5362V30.7183H24.6738V33.1855Z" fill="#DD7D33"/>
<path d="M24.6728 28.25H0V30.7173H24.6728V28.25Z" fill="#FFD5A9"/>
<path d="M24.6738 30.7207L39.5362 30.7207V28.2534H24.6738V30.7207Z" fill="#FAA763"/>
<path d="M13.227 28.25H12.2097V47.9989H13.227V28.25Z" fill="#393982"/>
<path d="M33.4909 28.25H32.4736V47.9989H33.4909V28.25Z" fill="#393982"/>
<path d="M28.4397 9.49798C28.4397 18.04 18.9418 25.4952 18.9418 25.4952C18.9418 25.4952 9.44385 18.04 9.44385 9.49798C9.44385 4.251 13.6975 0 18.9418 0C24.1861 0 28.4397 4.25367 28.4397 9.49798Z" fill="#03C88B"/>
<path d="M25.9984 9.49812C25.9984 13.3966 22.8422 16.5528 18.9437 16.5528C15.0452 16.5528 11.8916 13.3966 11.8916 9.49812C11.8916 5.5996 15.0478 2.44336 18.9437 2.44336C22.8395 2.44336 25.9984 5.60494 25.9984 9.49812Z" fill="#02B07E"/>
<path d="M18.943 15.233C22.1107 15.233 24.6786 12.665 24.6786 9.49734C24.6786 6.32964 22.1107 3.76172 18.943 3.76172C15.7753 3.76172 13.2073 6.32964 13.2073 9.49734C13.2073 12.665 15.7753 15.233 18.943 15.233Z" fill="white"/>
</svg>
