<svg width="50" height="50" viewBox="0 0 50 50" fill="none" xmlns="http://www.w3.org/2000/svg">
<path d="M18.377 22.8893C18.377 22.8893 20.6069 25.9436 22.0317 24.9648L27.2299 20.9462L26.2573 18.0762L22.3361 20.1555L20.9692 18.2931L18.377 22.8893Z" fill="#FDBBAD"/>
<path d="M19.0567 24.4314C18.9676 24.4832 18.8999 24.4938 18.8588 24.4466L18.8436 24.4573L15.5107 22.2083V13.665H15.7238C17.8222 13.665 19.4205 15.0449 20.4046 16.8981L21.8422 19.1472C22.41 19.5171 19.8741 23.9314 19.0567 24.4314Z" fill="#D0DAF6"/>
<path d="M19.0563 20.0654V24.4288C18.9672 24.4805 18.8995 24.4912 18.8584 24.444V20.0662L19.0563 20.0654Z" fill="#234BBA"/>
<path d="M26.2578 18.0781L26.5759 16.3992C26.5875 16.336 26.6115 16.2756 26.6464 16.2217C26.6813 16.1677 26.7265 16.1211 26.7794 16.0846C26.8323 16.0481 26.8918 16.0224 26.9547 16.0089C27.0175 15.9955 27.0824 15.9945 27.1456 16.0061C27.2088 16.0177 27.2692 16.0416 27.3231 16.0765C27.3771 16.1114 27.4237 16.1566 27.4602 16.2095C27.4967 16.2624 27.5224 16.322 27.5359 16.3848C27.5493 16.4477 27.5503 16.5125 27.5387 16.5758L27.3926 17.3977L29.8037 16.7127C29.9181 16.6818 30.0398 16.6952 30.1447 16.7501C30.2496 16.8051 30.33 16.8976 30.3696 17.0092C30.4093 17.1207 30.4055 17.2432 30.3588 17.352C30.3122 17.4609 30.2262 17.5481 30.1181 17.5964L27.9588 18.5241L28.2762 19.2708C28.3407 19.4223 28.3727 19.5856 28.37 19.7503C28.3672 19.9149 28.3299 20.0771 28.2605 20.2264C28.191 20.3757 28.0909 20.5087 27.9667 20.6168C27.8425 20.7249 27.6969 20.8056 27.5395 20.8538L27.2305 20.9482L26.2578 18.0781Z" fill="#FDBBAD"/>
<path d="M8.24524 31.8438L6.40569 31.9001L6.14844 42.6999H19.4675L18.9751 31.8438H8.24524Z" fill="#222333"/>
<path d="M9.35822 15.4244C8.32085 15.4244 7.46311 14.4959 7.47833 13.3527C7.48975 12.479 7.42277 11.5101 7.16704 10.7041C6.52849 8.688 7.04451 0.376141 11.7366 2.61907C11.7366 2.61907 12.4064 1.33283 14.9104 2.46838C19.2851 4.4533 17.3413 8.62788 16.7575 10.5892C16.2461 12.2895 15.3465 14.7973 15.1197 15.4236L9.35822 15.4244Z" fill="#0E0F16"/>
<path d="M6.37129 31.9918H18.997L18.7991 17.2746C18.7827 16.3014 18.3805 15.3745 17.6809 14.6977C16.9813 14.0209 16.0415 13.6497 15.0683 13.6655H9.33954C7.14227 13.7013 5.46787 15.7661 5.76089 17.9444L6.37129 31.9918Z" fill="#D0DAF6"/>
<path d="M9.99805 9.45166H13.7046V13.662H9.99805V9.45166Z" fill="#FDBBAD"/>
<path d="M10 13.6489L13.8633 15.6026L13.7202 13.6489H10Z" fill="#FDBBAD"/>
<path d="M13.7046 8.6875V12.1428C13.7046 12.1428 12.0667 12.9899 9.99805 12.6718V8.6875H13.7046Z" fill="#ECA090"/>
<path d="M16.4837 6.97306V9.20305C16.484 9.62891 16.4004 10.0507 16.2375 10.4442C16.0747 10.8377 15.8359 11.1952 15.5348 11.4963C15.2336 11.7975 14.8761 12.0363 14.4826 12.1991C14.0891 12.3619 13.6673 12.4456 13.2415 12.4453C12.3817 12.4451 11.5572 12.1034 10.9494 11.4954C10.3415 10.8874 10 10.0628 10 9.20305V6.97306C9.99993 6.33152 10.1902 5.70439 10.5467 5.17102C10.9032 4.63766 11.4099 4.22204 12.0027 3.97678C12.5955 3.73151 13.2477 3.66761 13.8768 3.79318C14.506 3.91875 15.0837 4.22813 15.5369 4.68218C16.1435 5.29025 16.484 6.11417 16.4837 6.97306Z" fill="#FDBBAD"/>
<path d="M15.2387 8.45585C15.4055 8.45585 15.5408 8.27423 15.5408 8.05019C15.5408 7.82615 15.4055 7.64453 15.2387 7.64453C15.0718 7.64453 14.9365 7.82615 14.9365 8.05019C14.9365 8.27423 15.0718 8.45585 15.2387 8.45585Z" fill="#0E0F16"/>
<path d="M13.0453 8.45585C13.2122 8.45585 13.3475 8.27423 13.3475 8.05019C13.3475 7.82615 13.2122 7.64453 13.0453 7.64453C12.8784 7.64453 12.7432 7.82615 12.7432 8.05019C12.7432 8.27423 12.8784 8.45585 13.0453 8.45585Z" fill="#0E0F16"/>
<path d="M12.8797 9.87646C12.879 9.89397 12.8744 9.91071 12.8744 9.92974C12.8703 10.0938 12.8991 10.257 12.9591 10.4097C13.019 10.5625 13.1089 10.7017 13.2235 10.8191C13.3381 10.9366 13.475 11.0299 13.6262 11.0937C13.7774 11.1574 13.9399 11.1903 14.1039 11.1903C14.268 11.1903 14.4305 11.1574 14.5817 11.0937C14.7329 11.0299 14.8698 10.9366 14.9844 10.8191C15.099 10.7017 15.1889 10.5625 15.2488 10.4097C15.3088 10.257 15.3376 10.0938 15.3335 9.92974C15.3335 9.91071 15.3289 9.89397 15.3282 9.87646H12.8797Z" fill="white"/>
<path d="M9.99941 7.604C9.71704 7.61149 9.44875 7.72892 9.25168 7.93128C9.05461 8.13364 8.94434 8.40495 8.94434 8.68742C8.94434 8.96988 9.05461 9.24119 9.25168 9.44355C9.44875 9.64591 9.71704 9.76334 9.99941 9.77083V7.604Z" fill="#FDBBAD"/>
<path d="M10 6.41009C10 6.41009 14.8421 6.85457 16.3551 6.0676C17.8681 5.28063 16.3551 3.98678 16.3551 3.98678L15.0932 3.43119L12.1706 2.69141L10 3.43119V6.41009Z" fill="#0E0F16"/>
<path d="M14.1562 18.5385V19.5508C14.1562 19.6931 14.2727 19.8095 14.415 19.8095H17.4289C17.4632 19.8098 17.4972 19.8034 17.529 19.7905C17.5608 19.7777 17.5897 19.7587 17.6142 19.7347C17.6387 19.7107 17.6581 19.682 17.6715 19.6505C17.6849 19.6189 17.692 19.585 17.6923 19.5508V18.5378C17.6919 18.468 17.664 18.4013 17.6147 18.352C17.5654 18.3027 17.4987 18.2748 17.4289 18.2744H14.415C14.2727 18.2744 14.1562 18.3962 14.1562 18.5385Z" fill="#E2EAFF"/>
<path d="M7.46678 22.2163C7.32598 23.0817 7.21866 23.8443 7.17528 24.3801C6.90205 27.7053 7.03905 27.7091 7.29553 33.3937H3.95739C3.95739 33.3937 3.19783 26.7631 3.13389 24.5407C3.11943 24.0376 3.14607 23.122 3.18184 22.2163H7.46678Z" fill="#FDBBAD"/>
<path d="M2.98438 23.2548C3.02243 21.5712 3.16323 19.052 3.16323 19.052C3.21187 17.6577 3.78361 16.3327 4.76472 15.3408C5.74583 14.3488 7.0644 13.7625 8.45813 13.6985L9.18269 13.665C9.18269 13.665 8.24579 20.0727 7.82643 23.2548C7.82643 23.5607 2.98438 23.5607 2.98438 23.2548Z" fill="#D0DAF6"/>
<path d="M7.29693 23.5324L7.21777 23.2843L7.63028 23.1541C7.75358 22.218 7.988 21.0573 8.23535 19.832C8.34343 19.2939 8.45454 18.7436 8.56034 18.1934L8.81606 18.2421C8.70951 18.7931 8.59915 19.3449 8.49032 19.883C8.23687 21.1411 7.99713 22.3284 7.8784 23.2698L7.86774 23.3528L7.29693 23.5324Z" fill="#234BBA"/>
<path d="M5.81386 36.7851C5.99814 36.7967 6.18285 36.7705 6.35658 36.7079C6.53031 36.6453 6.68936 36.5478 6.82389 36.4213C6.95843 36.2948 7.06559 36.1421 7.13876 35.9726C7.21193 35.803 7.24954 35.6203 7.24927 35.4356L7.24699 33.7574L7.50424 34.2483C7.53792 34.3105 7.58352 34.3654 7.63843 34.41C7.69334 34.4545 7.75648 34.4878 7.82426 34.508C7.89203 34.5281 7.96311 34.5347 8.03344 34.5274C8.10376 34.52 8.17196 34.4989 8.23412 34.4653C8.29629 34.4316 8.35122 34.386 8.39576 34.3311C8.44031 34.2762 8.4736 34.213 8.49374 34.1452C8.51389 34.0775 8.52048 34.0064 8.51315 33.9361C8.50583 33.8657 8.48472 33.7975 8.45103 33.7354L7.84521 32.6523H4.58318L4.54893 35.4212C4.54473 35.7673 4.67365 36.1019 4.90905 36.3557C5.14446 36.6095 5.46837 36.7632 5.81386 36.7851Z" fill="#FDBBAD"/>
<path d="M1.52539 31.9165H30.513V47.6383H1.52539V31.9165Z" fill="#E5AC47"/>
<path d="M3.2373 31.9165H32.2249V47.6383H3.2373V31.9165Z" fill="#FDF6DA"/>
<path d="M0.645508 31.9165H32.2216V34.2919H0.645508V31.9165Z" fill="#4D5D77"/>
<path d="M1.71094 31.9165H32.9712V34.2919H1.71094V31.9165Z" fill="#6B7994"/>
<path d="M18.5368 20.7779L18.071 23.3397C17.9512 23.9987 17.6551 24.6129 17.2142 25.1172C16.7733 25.6215 16.2041 25.9969 15.567 26.2037C14.9329 26.4096 14.3803 26.8111 13.9885 27.3505C13.5966 27.8899 13.3856 28.5395 13.3857 29.2062V31.9187H20.1952V20.7779H18.5368ZM23.627 19.1758H25.6652V22.38H23.627V19.1758Z" fill="#ADBADB"/>
<path d="M26.2623 17.5708H23.0314C22.9984 17.5708 22.9657 17.5773 22.9351 17.59C22.9046 17.6027 22.8769 17.6212 22.8536 17.6446C22.8302 17.668 22.8118 17.6958 22.7992 17.7264C22.7866 17.7569 22.7802 17.7897 22.7803 17.8227V19.2444C22.7803 19.383 22.8922 19.4956 23.0314 19.4956H26.2623C26.2953 19.4957 26.328 19.4893 26.3586 19.4767C26.3892 19.4641 26.4169 19.4456 26.4403 19.4223C26.4638 19.399 26.4823 19.3713 26.495 19.3407C26.5077 19.3102 26.5142 19.2775 26.5142 19.2444V17.822C26.5142 17.7553 26.4877 17.6915 26.4406 17.6444C26.3935 17.5973 26.3289 17.5708 26.2623 17.5708Z" fill="#ADBADB"/>
<path d="M20.1582 31.8816L20.2138 20.7407L30.4786 20.7925L30.423 31.9333L20.1582 31.8816Z" fill="#E2E6F0"/>
<path d="M36.6729 47.6407H43.7129L44.7876 30.2749L36.6729 30.6836V47.6407Z" fill="#A29C8A"/>
<path d="M48.8464 47.6407H41.8063L40.7324 30.2749L48.8472 30.6836L48.8464 47.6407Z" fill="#969181"/>
<path d="M38.1354 5.60645C38.1217 5.63917 36.3461 10.0855 36.9367 11.4973C37.2936 12.352 39.7527 13.6306 40.9187 13.0385C42.0847 12.4464 42.2202 7.17962 42.2202 7.17962L41.3982 6.20694L38.1354 5.60645Z" fill="#222333"/>
<path d="M40.8232 9.96924H44.1096V13.9589H40.8232V9.96924Z" fill="#FDBBAD"/>
<path d="M40.8213 9.29395V12.3581C40.8213 12.3581 42.275 13.1093 44.1077 12.8269V9.29395H40.8213Z" fill="#ECA090"/>
<path d="M38.3574 7.76973V9.74781C38.3573 10.1253 38.4316 10.4991 38.5761 10.8479C38.7205 11.1967 38.9322 11.5135 39.1992 11.7804C39.4662 12.0473 39.7831 12.259 40.1319 12.4033C40.4807 12.5477 40.8546 12.6219 41.2321 12.6217C41.9943 12.6215 42.7252 12.3187 43.2642 11.7798C43.8033 11.2409 44.1063 10.51 44.1067 9.74781V7.76973C44.1066 7.20095 43.9377 6.64498 43.6216 6.17216C43.3054 5.69934 42.8562 5.3309 42.3306 5.11345C41.805 4.896 41.2267 4.83931 40.6689 4.95055C40.1111 5.06179 39.5989 5.33596 39.1969 5.73839C38.6589 6.27775 38.3569 7.00789 38.3574 7.76973Z" fill="#FDBBAD"/>
<path d="M41.2831 9.1823C41.4306 9.16987 41.536 8.99239 41.5186 8.7859C41.5012 8.57941 41.3675 8.42209 41.2201 8.43452C41.0726 8.44695 40.9672 8.62443 40.9847 8.83092C41.0021 9.03742 41.1357 9.19473 41.2831 9.1823Z" fill="#222333"/>
<path d="M39.3808 9.34002C39.5282 9.32758 39.6336 9.15011 39.6162 8.94361C39.5988 8.73712 39.4652 8.5798 39.3177 8.59224C39.1703 8.60467 39.0649 8.78214 39.0823 8.98864C39.0997 9.19513 39.2334 9.35245 39.3808 9.34002Z" fill="#222333"/>
<path d="M41.425 10.418C41.4266 10.4317 41.4311 10.4446 41.4326 10.4583C41.4536 10.7092 41.3741 10.9582 41.2115 11.1504C41.131 11.2456 41.0326 11.324 40.9218 11.3812C40.811 11.4383 40.69 11.4731 40.5658 11.4835C40.3149 11.5045 40.0659 11.4249 39.8736 11.2624C39.6814 11.0998 39.5616 10.8675 39.5406 10.6166C39.5391 10.6029 39.5413 10.59 39.5406 10.5763L41.425 10.418Z" fill="white"/>
<path d="M41.0295 19.1714L39.0674 24.4732L36.6075 25.4793L36.1958 25.6468L29.3642 28.4323L27.7637 25.1581L34.7862 20.7484L35.2246 17.1941C35.3638 16.3778 35.7668 15.6295 36.3717 15.064C36.9767 14.4985 37.7503 14.1469 38.5742 14.063L39.0674 14.012L39.2957 13.9922L41.0295 19.1714Z" fill="#FAE8AC"/>
<path d="M48.9605 32.3937C48.9453 32.5763 48.4064 32.7034 47.5624 32.7697C47.1864 32.8001 46.7442 32.8305 46.2609 32.861C42.6069 33.0893 36.5525 33.2415 36.6088 32.6121V17.0524C36.6088 15.5835 36.6035 14.2013 39.2977 13.9928C39.4043 13.9822 39.6836 13.9723 39.9941 13.9723C40.2377 13.9669 40.5124 13.9669 40.7514 13.9723L40.7461 13.9776L46.5562 13.9723C46.8667 13.9721 47.1742 14.0331 47.4611 14.1518C47.748 14.2705 48.0087 14.4446 48.2282 14.6642C48.4478 14.8837 48.6219 15.1444 48.7406 15.4313C48.8594 15.7182 48.9204 16.0257 48.9202 16.3362L48.94 22.6342V23.3907L48.9605 32.3937Z" fill="#FAE8AC"/>
<path d="M48.9607 32.3962C48.9455 32.5788 48.4067 32.7059 47.5626 32.7722C47.1866 32.8026 46.7444 32.833 46.2611 32.8635C46.1348 32.7265 46.0077 32.5941 45.8753 32.467C45.3909 31.9994 44.8394 31.6069 44.2389 31.3025C43.1717 30.7575 41.9854 30.487 40.7874 30.5155C40.3399 30.5254 39.4707 30.7948 39.8573 30.0474C40.1466 29.4835 40.6451 29.02 41.0979 28.5839C42.9894 26.7756 44.978 25.0718 47.055 23.48C47.5832 23.0736 48.1624 22.6618 48.8283 22.6367H48.9402V23.3932L48.9607 32.3962Z" fill="#E9D285"/>
<path d="M40.8232 13.96L41.0516 16.3437L44.1073 13.96H40.8232Z" fill="#FDBBAD"/>
<path d="M48.5391 11.4434C48.5657 13.1809 44.0182 13.9527 43.9025 13.4504L44.0593 8.30693C43.404 7.98651 43.1353 7.75362 43.1422 7.40123C41.6573 8.0375 37.6052 7.96063 37.2848 7.56715C36.7216 6.88293 38.0946 4.27848 40.2637 3.30276C41.8559 2.57973 43.0303 3.55088 43.0303 3.55088C46.166 2.7015 48.5147 9.60459 48.5391 11.4434Z" fill="#222333"/>
<path d="M44.0117 8.29932C44.2407 8.30605 44.458 8.40174 44.6176 8.56607C44.7772 8.73041 44.8664 8.95045 44.8664 9.17952C44.8664 9.40858 44.7772 9.62863 44.6176 9.79296C44.458 9.9573 44.2407 10.053 44.0117 10.0597V8.29932Z" fill="#FDBBAD"/>
<path d="M46.2042 13.96H46.603C47.3329 13.96 48.0329 14.2499 48.549 14.766C49.0652 15.2822 49.3551 15.9822 49.3551 16.7121V23.5543C49.3552 24.051 49.2372 24.5406 49.0107 24.9827C48.7843 25.4249 48.456 25.8068 48.0529 26.0971L39.4686 30.8455L38.1709 27.6383L44.6348 23.0565L46.2042 13.96Z" fill="#FAE8AC"/>
<path d="M38.1709 27.6395C39.2177 26.8337 40.2745 26.0409 41.3408 25.2611C42.4163 24.4955 43.4772 23.7085 44.5648 22.9596L44.5161 23.0372C44.8586 21.0949 45.2239 19.1557 45.641 17.2271C45.3822 19.1829 45.0864 21.1337 44.7536 23.0783L44.7452 23.1263L44.7041 23.1567C43.637 23.9338 42.5441 24.6751 41.4649 25.4362C40.375 26.182 39.2806 26.9203 38.1709 27.6395Z" fill="#E9D285"/>
<path d="M35.7683 26.32V31.5764C35.7683 31.6608 35.7012 31.7293 35.6183 31.7293H29.3169C29.2341 31.7293 29.167 31.6608 29.167 31.5764V26.32C29.167 26.0744 29.1884 25.8292 29.2308 25.5874L29.4972 24.0708H35.4381L35.7044 25.5874C35.7469 25.8293 35.7683 26.0744 35.7683 26.32Z" fill="#EBB28E"/>
<path d="M35.7062 25.5874L35.4399 24.0708H34.6396L34.906 25.5874C34.9485 25.8293 34.9698 26.0744 34.9698 26.32V31.5764C34.9698 31.6608 34.9027 31.7293 34.8199 31.7293H35.6201C35.703 31.7293 35.7701 31.6608 35.7701 31.5764V26.32C35.7701 26.0743 35.7487 25.8292 35.7062 25.5874Z" fill="#D6A37F"/>
<path d="M35.6218 24.2663H29.3182C29.2711 24.2663 29.2259 24.2476 29.1926 24.2143C29.1593 24.181 29.1406 24.1359 29.1406 24.0888V23.1121C29.1406 23.065 29.1593 23.0199 29.1926 22.9866C29.2259 22.9533 29.2711 22.9346 29.3182 22.9346H35.6218C35.6689 22.9346 35.7141 22.9533 35.7474 22.9866C35.7807 23.0199 35.7994 23.065 35.7994 23.1121V24.0887C35.7994 24.1121 35.7948 24.1352 35.7859 24.1567C35.777 24.1782 35.7639 24.1978 35.7474 24.2143C35.7309 24.2308 35.7113 24.2439 35.6898 24.2528C35.6682 24.2617 35.6451 24.2663 35.6218 24.2663Z" fill="#D6A37F"/>
<path d="M39.4199 30.7258L36.7713 31.7624C36.3886 31.9102 35.9628 31.9 35.5876 31.7342C35.2123 31.5684 34.9181 31.2605 34.7696 30.878C34.626 30.5014 34.6349 30.0836 34.7943 29.7134C34.9538 29.3432 35.2512 29.0498 35.6236 28.8954L36.6754 28.4639L36.2127 28.2401C36.0788 28.1724 35.9724 28.0607 35.9114 27.9237C35.8504 27.7867 35.8385 27.6329 35.8778 27.4881C35.9019 27.4009 35.9441 27.3198 36.0016 27.25C36.0591 27.1802 36.1307 27.1233 36.2117 27.083C36.2927 27.0427 36.3813 27.0199 36.4717 27.0162C36.5621 27.0124 36.6522 27.0277 36.7363 27.0612L38.1694 27.635L39.4199 30.7258Z" fill="#FDBBAD"/>
<path d="M36.608 19.8066V25.479L36.1963 25.6465V19.8066H36.608Z" fill="#E9D285"/>
<path d="M29.3653 28.4334L27.4017 29.8049C27.0551 30.0383 26.6314 30.1282 26.2199 30.0556C25.8083 29.983 25.441 29.7536 25.1953 29.4156C24.9495 29.0776 24.8444 28.6574 24.9022 28.2436C24.96 27.8297 25.1761 27.4544 25.505 27.1966L26.7913 26.2635L26.3879 26.0808C26.2425 26.0154 26.1272 25.8975 26.0652 25.7507C26.0031 25.6038 25.9989 25.439 26.0533 25.2891C26.1077 25.1393 26.2167 25.0156 26.3585 24.9428C26.5004 24.87 26.6644 24.8535 26.8179 24.8966L27.7639 25.1599L29.3653 28.4334Z" fill="#FDBBAD"/>
</svg>
