<svg width="58" height="34" viewBox="0 0 58 34" fill="none" xmlns="http://www.w3.org/2000/svg">
<path d="M44.9331 11.1172H42.637V13.1571H44.9331V11.1172Z" fill="#FEB630"/>
<path d="M7.13787 33.9996C11.08 33.9996 14.2757 30.8045 14.2757 26.8631C14.2757 22.9217 11.08 19.7266 7.13787 19.7266C3.19573 19.7266 0 22.9217 0 26.8631C0 30.8045 3.19573 33.9996 7.13787 33.9996Z" fill="#15144F"/>
<path d="M7.14696 31.2511C9.55709 31.2482 11.5085 29.2926 11.5056 26.8832C11.5026 24.4738 9.54643 22.523 7.1363 22.5259C4.72616 22.5289 2.77473 24.4845 2.77767 26.8939C2.78061 29.3033 4.73682 31.2541 7.14696 31.2511Z" fill="#D9E5F1"/>
<path d="M7.14939 30.4101C9.09919 30.407 10.6774 28.8245 10.6743 26.8754C10.6712 24.9264 9.0881 23.3488 7.1383 23.3519C5.18849 23.3549 3.61033 24.9375 3.61339 26.8865C3.61645 28.8356 5.19958 30.4132 7.14939 30.4101Z" fill="#EFF6FF"/>
<path d="M51.7793 26.867C51.7793 30.8076 48.5833 34.0022 44.6414 34.0022C41.2211 34.0022 38.3636 31.5986 37.6654 28.3893C37.5579 27.8996 37.5022 27.3899 37.5022 26.867C37.5022 26.5339 37.5248 26.2047 37.5699 25.8848C37.5991 25.6605 37.6415 25.4402 37.6933 25.2226C37.7729 24.8748 37.8818 24.5377 38.0119 24.2125C38.0517 24.1117 38.0955 24.0121 38.1393 23.9152C39.2634 21.4466 41.752 19.7305 44.6401 19.7305C47.5281 19.7305 50.2131 21.5859 51.2669 24.2125C51.5961 25.0328 51.7779 25.9286 51.7779 26.867H51.7793Z" fill="#15144F"/>
<path d="M44.6415 31.2551C47.0517 31.2521 49.0031 29.2965 49.0001 26.8871C48.9972 24.4777 47.041 22.5269 44.6309 22.5298C42.2207 22.5328 40.2693 24.4884 40.2722 26.8978C40.2752 29.3072 42.2314 31.258 44.6415 31.2551Z" fill="#D9E5F1"/>
<path d="M44.6364 30.4042C46.5862 30.4012 48.1643 28.8187 48.1613 26.8696C48.1582 24.9205 46.5751 23.343 44.6253 23.346C42.6755 23.3491 41.0973 24.9316 41.1004 26.8807C41.1035 28.8297 42.6866 30.4073 44.6364 30.4042Z" fill="#EFF6FF"/>
<path d="M44.6391 28.8807C45.743 28.8776 46.6353 27.9802 46.6323 26.8763C46.6292 25.7724 45.7318 24.88 44.6279 24.8831C43.524 24.8862 42.6316 25.7836 42.6347 26.8875C42.6378 27.9914 43.5352 28.8838 44.6391 28.8807Z" fill="#15144F"/>
<path d="M49.3713 25.2116C49.3713 25.8022 49.143 26.3384 48.7687 26.7393C48.7515 26.7579 48.7316 26.7778 48.7143 26.795C48.4396 27.0697 48.0905 27.2755 47.7003 27.379C47.5184 27.4241 47.3274 27.4507 47.1322 27.4507H37.1342C36.0671 27.4507 35.1752 26.7034 34.9509 25.704C34.6403 24.2892 35.7114 22.9766 37.1342 22.9766H47.1322C47.3566 22.9766 47.5742 23.0097 47.7786 23.0721C47.9445 23.1212 48.1011 23.1889 48.2471 23.2739C48.9174 23.6588 49.3713 24.3834 49.3713 25.213V25.2116Z" fill="#393982"/>
<path d="M44.3732 12.5292L38.6542 22.3135L37.4557 23.9128L37.2327 24.2101L36.1842 25.6104C35.3613 26.7106 34.0553 27.3955 32.6378 27.4061C28.9362 27.4406 21.7359 27.4911 19.9813 27.3835C18.382 27.2853 17.0455 26.3974 16.3381 25.8214C15.9877 25.536 15.7913 25.3263 15.7913 25.3263L9.28516 18.1234L9.34222 17.4957L9.39666 16.9117C9.45904 16.2202 9.80677 15.5831 10.3562 15.1571C14.6392 11.8523 15.847 5.54525 15.847 5.54525L18.8837 4.63477C18.8837 4.63477 16.6195 11.2218 16.1271 13.4874C14.5941 20.5443 18.747 22.851 19.972 22.9678C19.972 22.9678 26.4848 23.3952 28.5991 22.9678C35.7754 21.5145 30.9509 16.0543 29.268 14.1351C28.8778 13.6892 28.6641 13.1184 28.6641 12.5265H44.3732V12.5292Z" fill="#EFF6FF"/>
<path d="M40.5264 12.4208V12.5283H28.6649V11.9828C28.6649 10.134 30.2403 8.67937 32.0825 8.82669L37.6105 9.26335C39.2576 9.39209 40.5277 10.7671 40.5277 12.4195L40.5264 12.4208Z" fill="#15144F"/>
<g opacity="0.15">
<path d="M47.6072 25.2126H37.8587C37.5694 25.2126 37.3345 24.9777 37.3345 24.6883C37.3345 24.399 37.5694 24.1641 37.8587 24.1641H47.6072C47.8966 24.1641 48.1315 24.399 48.1315 24.6883C48.1315 24.9777 47.8966 25.2126 47.6072 25.2126Z" fill="white"/>
</g>
<path d="M16.4936 25.7893C16.4936 25.7893 14.5558 26.2578 13.3534 25.4841C12.1496 24.7089 12.2239 23.4215 9.8654 22.5071C7.52283 21.5992 4.31887 23.4653 0.687557 20.998C0.63314 20.3556 5.83725 15.8961 10.8648 17.9188C13.4702 18.9673 14.597 22.6491 16.4936 25.788V25.7893Z" fill="#D9E5F1"/>
<path d="M20.566 3.0894C20.566 3.78487 20.282 4.41531 19.8281 4.87188C19.3715 5.32845 18.7384 5.60982 18.0456 5.60982H15.8477V0.570312H18.0456C19.4352 0.570312 20.566 1.69846 20.566 3.09073V3.0894Z" fill="#D9E5F1"/>
<path d="M14.7764 0.932968V5.23984C13.6881 5.1257 12.84 4.2046 12.84 3.08574C12.84 1.96688 13.6881 1.04711 14.7764 0.931641V0.932968Z" fill="#FEB630"/>
<path d="M15.8551 0.567733V5.60857H14.9074C14.707 5.60857 14.5451 5.44664 14.5451 5.24623V0.92874C14.5451 0.728328 14.707 0.566406 14.9074 0.566406H15.8551V0.567733Z" fill="#29265D"/>
<path d="M23.9633 3.61896C23.9633 3.85255 23.869 4.06491 23.715 4.21754C23.5624 4.37018 23.3501 4.46574 23.1165 4.46574H19.5568C19.0883 4.46574 18.7074 4.08747 18.7074 3.61896C18.7074 3.38271 18.8016 3.17036 18.9583 3.01772C19.1109 2.86509 19.3233 2.76953 19.5568 2.76953H23.1165C23.585 2.76953 23.9633 3.14779 23.9633 3.61896Z" fill="#29265D"/>
<path d="M55.5524 18.1583C55.5736 18.4755 55.1423 18.717 54.5822 18.8643C53.592 17.1628 52.1586 15.4029 50.1107 14.1699C50.1824 14.1752 51.8242 14.2987 52.7572 14.957C53.7115 15.6299 55.5179 17.6446 55.5524 18.1583Z" fill="#EFF6FF"/>
<path d="M57.8684 10.5185C57.8684 10.6831 57.8007 10.8357 57.6919 10.9406C57.5831 11.0494 57.4371 11.1171 57.2699 11.1171H41.9138C41.5846 11.1171 41.3152 10.8503 41.3152 10.5185C41.3152 10.1867 41.5846 9.91992 41.9138 9.91992H57.2699C57.6017 9.91992 57.8684 10.1893 57.8684 10.5185Z" fill="#29265D"/>
<path d="M55.3863 13.1054C54.8196 13.1054 54.3604 12.6462 54.3604 12.0794V11.1172H56.4122V12.0794C56.4122 12.6462 55.953 13.1054 55.3863 13.1054Z" fill="#FEB630"/>
<path d="M55.3883 12.7426C55.7357 12.7426 56.0174 12.4609 56.0174 12.1135C56.0174 11.766 55.7357 11.4844 55.3883 11.4844C55.0408 11.4844 54.7592 11.766 54.7592 12.1135C54.7592 12.4609 55.0408 12.7426 55.3883 12.7426Z" fill="#FC942C"/>
<path d="M49.0346 14.4409C48.9683 14.2604 49.0612 14.06 49.2417 13.9936L55.2686 11.7851C55.4491 11.7187 55.6496 11.8117 55.7159 11.9922C55.7823 12.1727 55.6894 12.3731 55.5089 12.4394L49.4819 14.648C49.3001 14.7143 49.101 14.6201 49.0346 14.4409Z" fill="#29265D"/>
<path d="M7.13687 28.8729C8.24078 28.8698 9.13318 27.9724 9.1301 26.8685C9.12702 25.7646 8.22962 24.8722 7.12571 24.8753C6.0218 24.8784 5.12939 25.7758 5.13247 26.8797C5.13556 27.9836 6.03296 28.876 7.13687 28.8729Z" fill="#15144F"/>
<path d="M54.9736 24.2092H35.6491C34.9019 24.2092 34.3046 23.5681 34.375 22.8249C34.943 16.8165 39.157 12.7512 43.4678 12.5282C43.5926 12.5229 43.716 12.5176 43.8408 12.5176C44.0213 12.5176 44.1978 12.5229 44.3757 12.5282C46.6784 12.6118 48.5644 13.2409 50.1053 14.1687C51.1273 14.7871 51.9993 15.5331 52.7372 16.34C53.4752 17.147 54.083 18.011 54.5781 18.8631C55.3705 20.2262 55.8788 21.5534 56.1894 22.5435C56.4482 23.369 55.8376 24.2092 54.9723 24.2092H54.9736Z" fill="#D9E5F1"/>
<path d="M50.5238 22.1384C50.5238 22.3746 50.3314 22.5697 50.0925 22.5697H39.7985C39.5596 22.5697 39.3671 22.3746 39.3671 22.1384C39.3671 21.9021 39.5596 21.707 39.7985 21.707H50.0925C50.3314 21.707 50.5238 21.8995 50.5238 22.1384Z" fill="#EFF6FF"/>
<path d="M50.5238 20.6013C50.5238 20.8375 50.3314 21.0326 50.0925 21.0326H39.7985C39.5596 21.0326 39.3671 20.8375 39.3671 20.6013C39.3671 20.365 39.5596 20.1699 39.7985 20.1699H50.0925C50.3314 20.1699 50.5238 20.3624 50.5238 20.6013Z" fill="#EFF6FF"/>
<path d="M50.5238 19.0642C50.5238 19.3004 50.3314 19.4955 50.0925 19.4955H39.7985C39.5596 19.4955 39.3671 19.3004 39.3671 19.0642C39.3671 18.8279 39.5596 18.6328 39.7985 18.6328H50.0925C50.3314 18.6328 50.5238 18.8253 50.5238 19.0642Z" fill="#EFF6FF"/>
</svg>
