<svg width="16" height="16" viewBox="0 0 16 16" fill="none" xmlns="http://www.w3.org/2000/svg">
<path d="M10.54 13.4537C10.3667 13.4537 10.1867 13.447 9.99338 13.427C9.64671 13.4003 9.25338 13.3337 8.84671 13.2337L7.72671 12.967C4.65338 12.2403 3.64671 10.6137 4.36671 7.547L5.02005 4.75367C5.16671 4.12034 5.34005 3.607 5.55338 3.18034C6.70005 0.813669 8.89338 1.027 10.4534 1.39367L11.5667 1.65367C13.1267 2.02034 14.1134 2.60034 14.6667 3.487C15.2134 4.37367 15.3 5.51367 14.9334 7.07367L14.28 9.86034C13.7067 12.3003 12.5134 13.4537 10.54 13.4537ZM8.74671 2.167C7.63338 2.167 6.92671 2.627 6.45338 3.61367C6.28005 3.97367 6.12671 4.42034 5.99338 4.98033L5.34005 7.77367C4.74671 10.2937 5.43338 11.3937 7.95338 11.9937L9.07338 12.2603C9.43338 12.347 9.77338 12.4003 10.08 12.427C11.8934 12.607 12.7934 11.8137 13.3 9.63367L13.9534 6.847C14.2534 5.56034 14.2134 4.66034 13.8134 4.01367C13.4134 3.367 12.6267 2.927 11.3334 2.627L10.22 2.367C9.66671 2.23367 9.17338 2.167 8.74671 2.167Z" fill="#828ABA"/>
<path d="M5.55402 14.8331C3.84069 14.8331 2.74735 13.8065 2.04735 11.6398L1.19402 9.00646C0.247352 6.07312 1.09402 4.41979 4.01402 3.47312L5.06735 3.13312C5.41402 3.02646 5.67402 2.95312 5.90735 2.91312C6.10069 2.87312 6.28735 2.94646 6.40069 3.09979C6.51402 3.25312 6.53402 3.45312 6.45402 3.62646C6.28069 3.97979 6.12735 4.42646 6.00069 4.98646L5.34735 7.77979C4.75402 10.2998 5.44069 11.3998 7.96069 11.9998L9.08069 12.2665C9.44069 12.3531 9.78069 12.4065 10.0874 12.4331C10.3007 12.4531 10.474 12.5998 10.534 12.8065C10.5874 13.0131 10.5074 13.2265 10.334 13.3465C9.89402 13.6465 9.34069 13.8998 8.64069 14.1265L7.58735 14.4731C6.82069 14.7131 6.15402 14.8331 5.55402 14.8331ZM5.18735 4.14646L4.32735 4.42646C1.94735 5.19312 1.38069 6.31312 2.14735 8.69979L3.00069 11.3331C3.77402 13.7131 4.89402 14.2865 7.27402 13.5198L8.32735 13.1731C8.36735 13.1598 8.40069 13.1465 8.44069 13.1331L7.73402 12.9665C4.66069 12.2398 3.65402 10.6131 4.37402 7.54646L5.02735 4.75312C5.07402 4.53979 5.12735 4.33312 5.18735 4.14646Z" fill="#828ABA"/>
<path d="M11.6609 7.00652C11.6209 7.00652 11.5809 6.99985 11.5342 6.99318L8.30089 6.17318C8.03423 6.10652 7.87423 5.83318 7.94089 5.56652C8.00756 5.29985 8.28089 5.13985 8.54756 5.20652L11.7809 6.02652C12.0476 6.09318 12.2076 6.36652 12.1409 6.63318C12.0876 6.85318 11.8809 7.00652 11.6609 7.00652Z" fill="#828ABA"/>
<path d="M9.7074 9.25993C9.6674 9.25993 9.6274 9.25326 9.58074 9.2466L7.64074 8.75326C7.37407 8.6866 7.21407 8.41326 7.28074 8.1466C7.3474 7.87993 7.62074 7.71993 7.8874 7.7866L9.8274 8.27993C10.0941 8.3466 10.2541 8.61993 10.1874 8.8866C10.1341 9.11326 9.93407 9.25993 9.7074 9.25993Z" fill="#828ABA"/>
</svg>
