<svg width="16" height="16" viewBox="0 0 16 16" fill="none" xmlns="http://www.w3.org/2000/svg">
<path d="M9.8 15.1667H6.2C2.90667 15.1667 1.50667 13.76 1.50667 10.4733V7.48001C1.50667 7.20668 1.73333 6.98001 2.00667 6.98001C2.28 6.98001 2.50667 7.20668 2.50667 7.48001V10.4733C2.50667 13.2 3.47333 14.1667 6.2 14.1667H9.79333C12.52 14.1667 13.4867 13.2 13.4867 10.4733V7.48001C13.4867 7.20668 13.7133 6.98001 13.9867 6.98001C14.26 6.98001 14.4867 7.20668 14.4867 7.48001V10.4733C14.4933 13.76 13.0867 15.1667 9.8 15.1667Z" fill="#828ABA"/>
<path d="M8 8.50001C7.26667 8.50001 6.6 8.21334 6.12667 7.68668C5.65333 7.16001 5.43333 6.47334 5.50667 5.74001L5.95333 1.28668C5.98 1.03334 6.19333 0.833344 6.45333 0.833344H9.56667C9.82667 0.833344 10.04 1.02668 10.0667 1.28668L10.5133 5.74001C10.5867 6.47334 10.3667 7.16001 9.89333 7.68668C9.4 8.21334 8.73333 8.50001 8 8.50001ZM6.9 1.83334L6.5 5.84001C6.45333 6.28668 6.58667 6.70668 6.86667 7.01334C7.43333 7.64001 8.56667 7.64001 9.13333 7.01334C9.41333 6.70001 9.54667 6.28001 9.5 5.84001L9.1 1.83334H6.9Z" fill="#828ABA"/>
<path d="M12.2067 8.50001C10.8533 8.50001 9.64667 7.40668 9.50667 6.06001L9.04 1.38668C9.02667 1.24668 9.07333 1.10668 9.16667 1.00001C9.26 0.893344 9.39333 0.833344 9.54 0.833344H11.5733C13.5333 0.833344 14.4467 1.65334 14.72 3.66668L14.9067 5.52001C14.9867 6.30668 14.7467 7.05334 14.2333 7.62001C13.72 8.18668 13 8.50001 12.2067 8.50001ZM10.0933 1.83334L10.5067 5.96001C10.5933 6.79334 11.3667 7.50001 12.2067 7.50001C12.7133 7.50001 13.1667 7.30668 13.4933 6.95334C13.8133 6.60001 13.96 6.12668 13.9133 5.62001L13.7267 3.78668C13.52 2.28001 13.0333 1.83334 11.5733 1.83334H10.0933Z" fill="#828ABA"/>
<path d="M3.76 8.50001C2.96667 8.50001 2.24667 8.18668 1.73333 7.62001C1.22 7.05334 0.98 6.30668 1.06 5.52001L1.24 3.68668C1.52 1.65334 2.43333 0.833344 4.39333 0.833344H6.42667C6.56667 0.833344 6.7 0.893344 6.8 1.00001C6.9 1.10668 6.94 1.24668 6.92667 1.38668L6.46 6.06001C6.32 7.40668 5.11333 8.50001 3.76 8.50001ZM4.39333 1.83334C2.93333 1.83334 2.44667 2.27334 2.23333 3.80001L2.05333 5.62001C2 6.12668 2.15333 6.60001 2.47333 6.95334C2.79333 7.30668 3.24667 7.50001 3.76 7.50001C4.6 7.50001 5.38 6.79334 5.46 5.96001L5.87333 1.83334H4.39333Z" fill="#828ABA"/>
<path d="M9.66667 15.1667H6.33333C6.06 15.1667 5.83333 14.94 5.83333 14.6667V13C5.83333 11.6 6.6 10.8333 8 10.8333C9.4 10.8333 10.1667 11.6 10.1667 13V14.6667C10.1667 14.94 9.94 15.1667 9.66667 15.1667ZM6.83333 14.1667H9.16667V13C9.16667 12.16 8.84 11.8333 8 11.8333C7.16 11.8333 6.83333 12.16 6.83333 13V14.1667Z" fill="#828ABA"/>
</svg>
