<svg width="20" height="20" viewBox="0 0 20 20" fill="none" xmlns="http://www.w3.org/2000/svg">
<g clip-path="url(#clip0_95_19557)">
<path d="M19.4843 6.29402C18.7989 5.60863 17.6838 5.60867 16.9982 6.29418C16.7873 6.50523 15.441 7.85262 15.2354 8.05848V3.41508C15.2354 2.94555 15.0525 2.50414 14.7205 2.17215L13.0632 0.514844C12.7313 0.182813 12.2898 0 11.8203 0H1.75879C0.789531 0 0.000976562 0.788555 0.000976562 1.75781V18.2422C0.000976562 19.2114 0.789531 20 1.75879 20H13.4775C14.4468 20 15.2354 19.2114 15.2354 18.2422V13.0325L19.4843 8.77996C20.1713 8.09301 20.1714 6.98105 19.4843 6.29402ZM11.7198 1.17188C11.8305 1.17188 12.0438 1.1527 12.2346 1.34348L13.8919 3.00078C14.0778 3.18676 14.0635 3.39055 14.0635 3.51562H11.7198V1.17188ZM14.0635 18.2422C14.0635 18.5653 13.8007 18.8281 13.4775 18.8281H1.75879C1.4357 18.8281 1.17285 18.5653 1.17285 18.2422V1.75781C1.17285 1.43473 1.4357 1.17188 1.75879 1.17188H10.5479V4.10156C10.5479 4.42516 10.8102 4.6875 11.1338 4.6875H14.0635V9.23137C14.0635 9.23137 12.3348 10.9615 12.3347 10.9616L11.5065 11.7898C11.4422 11.8541 11.3937 11.9326 11.3649 12.0189L10.5363 14.5048C10.4661 14.7154 10.5209 14.9475 10.6778 15.1044C10.835 15.2616 11.0672 15.3161 11.2774 15.246L13.7634 14.4173C13.8497 14.3886 13.9281 14.3401 13.9924 14.2758L14.0635 14.2047V18.2422ZM12.7494 12.2042L13.578 13.0328L13.2615 13.3493L12.0186 13.7636L12.4329 12.5207L12.7494 12.2042ZM14.4065 12.204L13.5779 11.3754C14.0191 10.9338 15.9789 8.97234 16.3945 8.55637L17.2231 9.385L14.4065 12.204ZM18.6555 7.95148L18.0514 8.55602L17.2228 7.72738L17.827 7.12266C18.0556 6.89418 18.4273 6.89422 18.6557 7.12266C18.8841 7.35117 18.8853 7.7216 18.6555 7.95148Z" fill="currentColor"/>
<path d="M11.1338 5.85938H2.93066C2.60707 5.85938 2.34473 6.12172 2.34473 6.44531C2.34473 6.76891 2.60707 7.03125 2.93066 7.03125H11.1338C11.4574 7.03125 11.7197 6.76891 11.7197 6.44531C11.7197 6.12172 11.4574 5.85938 11.1338 5.85938Z" fill="currentColor"/>
<path d="M8.79004 8.20312H2.93066C2.60707 8.20312 2.34473 8.46547 2.34473 8.78906C2.34473 9.11266 2.60707 9.375 2.93066 9.375H8.79004C9.11363 9.375 9.37598 9.11266 9.37598 8.78906C9.37598 8.46547 9.11363 8.20312 8.79004 8.20312Z" fill="currentColor"/>
<path d="M8.79004 10.5469H2.93066C2.60707 10.5469 2.34473 10.8092 2.34473 11.1328C2.34473 11.4564 2.60707 11.7188 2.93066 11.7188H8.79004C9.11363 11.7188 9.37598 11.4564 9.37598 11.1328C9.37598 10.8092 9.11363 10.5469 8.79004 10.5469Z" fill="currentColor"/>
<path d="M8.79004 12.8906H2.93066C2.60707 12.8906 2.34473 13.153 2.34473 13.4766C2.34473 13.8002 2.60707 14.0625 2.93066 14.0625H8.79004C9.11363 14.0625 9.37598 13.8002 9.37598 13.4766C9.37598 13.153 9.11363 12.8906 8.79004 12.8906Z" fill="currentColor"/>
<path d="M11.1338 16.4844H7.61816C7.29457 16.4844 7.03223 16.7467 7.03223 17.0703C7.03223 17.3939 7.29457 17.6562 7.61816 17.6562H11.1338C11.4574 17.6562 11.7197 17.3939 11.7197 17.0703C11.7197 16.7467 11.4574 16.4844 11.1338 16.4844Z" fill="currentColor"/>
</g>
<defs>
<clipPath id="clip0_95_19557">
<rect width="20" height="20" fill="white"/>
</clipPath>
</defs>
</svg>
