<svg width="16" height="16" viewBox="0 0 16 16" fill="currentColor" xmlns="http://www.w3.org/2000/svg">
<path d="M12.6666 7.16659H11.3333C9.71992 7.16659 8.83325 6.27992 8.83325 4.66659V3.33325C8.83325 1.71992 9.71992 0.833252 11.3333 0.833252H12.6666C14.2799 0.833252 15.1666 1.71992 15.1666 3.33325V4.66659C15.1666 6.27992 14.2799 7.16659 12.6666 7.16659ZM11.3333 1.83325C10.2799 1.83325 9.83325 2.27992 9.83325 3.33325V4.66659C9.83325 5.71992 10.2799 6.16659 11.3333 6.16659H12.6666C13.7199 6.16659 14.1666 5.71992 14.1666 4.66659V3.33325C14.1666 2.27992 13.7199 1.83325 12.6666 1.83325H11.3333Z" fill="currentColor"/>
<path d="M4.66659 15.1666H3.33325C1.71992 15.1666 0.833252 14.2799 0.833252 12.6666V11.3333C0.833252 9.71992 1.71992 8.83325 3.33325 8.83325H4.66659C6.27992 8.83325 7.16659 9.71992 7.16659 11.3333V12.6666C7.16659 14.2799 6.27992 15.1666 4.66659 15.1666ZM3.33325 9.83325C2.27992 9.83325 1.83325 10.2799 1.83325 11.3333V12.6666C1.83325 13.7199 2.27992 14.1666 3.33325 14.1666H4.66659C5.71992 14.1666 6.16659 13.7199 6.16659 12.6666V11.3333C6.16659 10.2799 5.71992 9.83325 4.66659 9.83325H3.33325Z" fill="currentColor"/>
<path d="M3.99992 7.16659C2.25325 7.16659 0.833252 5.74659 0.833252 3.99992C0.833252 2.25325 2.25325 0.833252 3.99992 0.833252C5.74659 0.833252 7.16659 2.25325 7.16659 3.99992C7.16659 5.74659 5.74659 7.16659 3.99992 7.16659ZM3.99992 1.83325C2.80659 1.83325 1.83325 2.80659 1.83325 3.99992C1.83325 5.19325 2.80659 6.16659 3.99992 6.16659C5.19325 6.16659 6.16659 5.19325 6.16659 3.99992C6.16659 2.80659 5.19325 1.83325 3.99992 1.83325Z" fill="currentColor"/>
<path d="M11.9999 15.1666C10.2533 15.1666 8.83325 13.7466 8.83325 11.9999C8.83325 10.2533 10.2533 8.83325 11.9999 8.83325C13.7466 8.83325 15.1666 10.2533 15.1666 11.9999C15.1666 13.7466 13.7466 15.1666 11.9999 15.1666ZM11.9999 9.83325C10.8066 9.83325 9.83325 10.8066 9.83325 11.9999C9.83325 13.1933 10.8066 14.1666 11.9999 14.1666C13.1933 14.1666 14.1666 13.1933 14.1666 11.9999C14.1666 10.8066 13.1933 9.83325 11.9999 9.83325Z" fill="currentColor"/>
</svg>
