<svg width="27" height="27" viewBox="0 0 27 27" fill="none" xmlns="http://www.w3.org/2000/svg">
<g clip-path="url(#clip0_258_10455)">
<path d="M7.3125 21.375H5.0625C4.752 21.375 4.5 21.123 4.5 20.8125C4.5 20.502 4.752 20.25 5.0625 20.25H7.3125C7.623 20.25 7.875 20.502 7.875 20.8125C7.875 21.123 7.623 21.375 7.3125 21.375Z" fill="currentColor"/>
<path d="M25.5939 21.375H24.1876C23.8771 21.375 23.6251 21.123 23.6251 20.8125C23.6251 20.502 23.8771 20.25 24.1876 20.25H25.127L25.8853 16.209C25.8751 14.1413 24.1089 12.375 21.9376 12.375H18.2443L16.4544 20.25H19.6876C19.9981 20.25 20.2501 20.502 20.2501 20.8125C20.2501 21.123 19.9981 21.375 19.6876 21.375H15.7501C15.5791 21.375 15.4171 21.2974 15.3103 21.1635C15.2034 21.0308 15.1629 20.8553 15.2011 20.6888L17.2464 11.6888C17.3049 11.4311 17.5321 11.25 17.7954 11.25H21.9376C24.7288 11.25 27.0001 13.5214 27.0001 16.3125L26.1462 20.916C26.0967 21.1826 25.865 21.375 25.5939 21.375Z" fill="currentColor"/>
<path d="M21.9375 23.625C20.3872 23.625 19.125 22.3639 19.125 20.8125C19.125 19.2611 20.3872 18 21.9375 18C23.4877 18 24.75 19.2611 24.75 20.8125C24.75 22.3639 23.4877 23.625 21.9375 23.625ZM21.9375 19.125C21.0071 19.125 20.25 19.8821 20.25 20.8125C20.25 21.7429 21.0071 22.5 21.9375 22.5C22.8679 22.5 23.625 21.7429 23.625 20.8125C23.625 19.8821 22.8679 19.125 21.9375 19.125Z" fill="currentColor"/>
<path d="M9.5625 23.625C8.01225 23.625 6.75 22.3639 6.75 20.8125C6.75 19.2611 8.01225 18 9.5625 18C11.1128 18 12.375 19.2611 12.375 20.8125C12.375 22.3639 11.1128 23.625 9.5625 23.625ZM9.5625 19.125C8.63213 19.125 7.875 19.8821 7.875 20.8125C7.875 21.7429 8.63213 22.5 9.5625 22.5C10.4929 22.5 11.25 21.7429 11.25 20.8125C11.25 19.8821 10.4929 19.125 9.5625 19.125Z" fill="currentColor"/>
<path d="M7.3125 11.25H2.8125C2.502 11.25 2.25 10.998 2.25 10.6875C2.25 10.377 2.502 10.125 2.8125 10.125H7.3125C7.623 10.125 7.875 10.377 7.875 10.6875C7.875 10.998 7.623 11.25 7.3125 11.25Z" fill="currentColor"/>
<path d="M7.3125 14.625H1.6875C1.377 14.625 1.125 14.373 1.125 14.0625C1.125 13.752 1.377 13.5 1.6875 13.5H7.3125C7.623 13.5 7.875 13.752 7.875 14.0625C7.875 14.373 7.623 14.625 7.3125 14.625Z" fill="currentColor"/>
<path d="M7.3125 18H0.5625C0.252 18 0 17.748 0 17.4375C0 17.127 0.252 16.875 0.5625 16.875H7.3125C7.623 16.875 7.875 17.127 7.875 17.4375C7.875 17.748 7.623 18 7.3125 18Z" fill="currentColor"/>
<path d="M15.75 21.375H11.8125C11.502 21.375 11.25 21.123 11.25 20.8125C11.25 20.502 11.502 20.25 11.8125 20.25H15.3011L17.8571 9H5.0625C4.752 9 4.5 8.748 4.5 8.4375C4.5 8.127 4.752 7.875 5.0625 7.875H18.5625C18.7335 7.875 18.8955 7.95263 19.0024 8.0865C19.1092 8.21925 19.1497 8.39475 19.1115 8.56125L16.299 20.9363C16.2405 21.1939 16.0121 21.375 15.75 21.375Z" fill="currentColor"/>
</g>
<defs>
<clipPath id="clip0_258_10455">
<rect width="27" height="27" fill="white"/>
</clipPath>
</defs>
</svg>
