<svg width="19" height="19" viewBox="0 0 19 19" fill="none" xmlns="http://www.w3.org/2000/svg">
<g clip-path="url(#clip0_95_20877)">
<path d="M18.9999 7.3409C18.9998 7.20739 18.9383 7.08145 18.8326 6.99975C18.8322 6.99935 17.7769 6.18151 16.4091 5.10754V3.45453C16.4091 2.50193 15.6344 1.72725 14.6818 1.72725H12.1668C11.5515 1.22473 11.0175 0.780471 10.6609 0.464259C10.3181 0.160798 9.90914 4.04906e-05 9.50034 7.63258e-09C9.09114 -4.04754e-05 8.68206 0.16096 8.33949 0.464299C7.98288 0.780512 7.44899 1.22477 6.83324 1.72729H4.3182C3.36555 1.72729 2.59091 2.50193 2.59091 3.45453V5.1075C1.22283 6.18139 0.167842 6.99935 0.167397 6.99975C0.0616556 7.08145 0.000202415 7.20739 8.0966e-05 7.3409H0V17.2727C0 18.2253 0.774642 19 1.72729 19H17.2728C18.2254 19 19 18.2254 19 17.2727V7.3409H18.9999ZM16.4091 6.20503C17.0131 6.67791 17.5257 7.07756 17.8635 7.3405C17.5262 7.60238 17.0127 8.00179 16.4091 8.47382V6.20503ZM8.91217 1.11073C9.28242 0.782658 9.71717 0.782212 10.0883 1.11114C10.2826 1.28303 10.5277 1.49192 10.8093 1.72725H8.19108C8.47268 1.49192 8.71781 1.28287 8.91217 1.11073ZM3.45453 3.45453C3.45453 2.97845 3.84208 2.59091 4.31816 2.59091H14.6818C15.1579 2.59091 15.5455 2.97845 15.5455 3.45453V9.15061C13.6125 10.6688 11.1878 12.5972 10.0883 13.5706C9.98411 13.663 9.76692 13.8182 9.4865 13.8182C9.28153 13.8182 9.08377 13.7351 8.89824 13.5706C7.792 12.5911 5.37942 10.669 3.45453 9.1545V3.45453ZM2.59091 6.20503V8.47657C1.98686 8.00349 1.47338 7.60323 1.13603 7.34094C1.47362 7.07792 1.9865 6.67823 2.59091 6.20503ZM18.1364 17.2728C18.1364 17.7488 17.7488 18.1364 17.2728 18.1364H1.72729C1.25121 18.1364 0.863664 17.7488 0.863664 17.2728V8.22258C2.66475 9.62451 6.83171 12.8942 8.32561 14.2175C8.66886 14.5212 9.07033 14.6818 9.48654 14.6818C9.9057 14.6818 10.3228 14.517 10.6609 14.2175C12.2135 12.8427 16.4631 9.52281 18.1364 8.2223V17.2728Z" fill="currentColor"/>
<path d="M8.20454 6.90911C8.44303 6.90911 8.63637 6.71577 8.63637 6.47728C8.63637 6.23878 8.44303 6.04544 8.20454 6.04544C7.96604 6.04544 7.77271 6.23878 7.77271 6.47728C7.77271 6.71577 7.96604 6.90911 8.20454 6.90911Z" fill="currentColor"/>
<path d="M10.7955 6.90911C11.034 6.90911 11.2273 6.71577 11.2273 6.47728C11.2273 6.23878 11.034 6.04544 10.7955 6.04544C10.557 6.04544 10.3636 6.23878 10.3636 6.47728C10.3636 6.71577 10.557 6.90911 10.7955 6.90911Z" fill="currentColor"/>
<path d="M10.8436 9.26639C10.9199 9.4144 11.0709 9.50002 11.2277 9.50002C11.2927 9.50002 11.3585 9.48524 11.4204 9.45448C11.6338 9.3478 11.7203 9.08843 11.6136 8.87504C11.5912 8.82995 11.0447 7.77273 9.50005 7.77273C7.95538 7.77273 7.40886 8.82995 7.38651 8.87504C7.28109 9.08588 7.36587 9.33975 7.57545 9.44812C7.78503 9.55775 8.04395 9.47512 8.15613 9.2668C8.17006 9.24109 8.5074 8.63636 9.50009 8.63636C10.4851 8.63636 10.825 9.23222 10.8436 9.26639Z" fill="currentColor"/>
</g>
<defs>
<clipPath id="clip0_95_20877">
<rect width="19" height="19" fill="white"/>
</clipPath>
</defs>
</svg>
