<svg width="25" height="25" fill="none" stroke="currentColor" stroke-linecap="round" stroke-linejoin="round" stroke-width="1.5" viewBox="0 0 24 24" xmlns="http://www.w3.org/2000/svg">
  <path d="M12 2.25A9.75 9.75 0 0 0 2.25 12c0 5.384 4.365 9.75 9.75 9.75 5.384 0 9.75-4.366 9.75-9.75 0-5.385-4.366-9.75-9.75-9.75Z"></path>
  <path d="M12 2.25c-2.722 0-5.28 4.365-5.28 9.75 0 5.384 2.56 9.75 5.281 9.75 2.722 0 5.282-4.366 5.282-9.75 0-5.385-2.56-9.75-5.282-9.75Z"></path>
  <path d="M5.5 5.5C7.293 6.773 9.55 7.532 12 7.532c2.451 0 4.708-.76 6.5-2.032"></path>
  <path d="M18.5 18.5c-1.792-1.272-4.049-2.031-6.5-2.031-2.45 0-4.707.759-6.5 2.031"></path>
  <path d="M12 2.25v19.5"></path>
  <path d="M21.75 12H2.25"></path>
</svg>