<svg width="12" height="12" viewBox="0 0 12 12" fill="none" xmlns="http://www.w3.org/2000/svg">
<path d="M5.27891 11.3553C4.73891 11.3553 4.19391 11.2003 3.77391 10.8853L1.63391 9.28536C1.06891 8.86536 0.628906 7.98036 0.628906 7.27036V3.56536C0.628906 2.80036 1.18891 1.98535 1.90891 1.71535L4.39891 0.780352C4.89391 0.595352 5.66891 0.595352 6.16391 0.780352L8.64891 1.71535C9.23391 1.93535 9.72891 2.52035 9.88891 3.17035C9.91391 3.28035 9.88891 3.40036 9.81891 3.49036C9.74891 3.58036 9.63891 3.63535 9.52391 3.63535L5.56891 3.64035C4.93391 3.68035 4.77891 3.78536 4.77891 4.71036V7.42536C4.77891 8.38036 4.90391 8.50035 5.87391 8.50035H8.83391C8.98891 8.50035 9.12891 8.59536 9.18391 8.74036C9.23891 8.88536 9.19891 9.05035 9.08391 9.15535C9.02891 9.20035 8.98391 9.24536 8.92891 9.28536L6.78891 10.8904C6.35891 11.2004 5.81891 11.3553 5.27891 11.3553ZM5.27891 1.39536C5.05391 1.39536 4.82391 1.42536 4.65891 1.49036L2.16891 2.42536C1.74891 2.58536 1.37391 3.12035 1.37391 3.57535V7.28035C1.37391 7.75035 1.70391 8.41036 2.07891 8.69036L4.21891 10.2903C4.79391 10.7153 5.75891 10.7153 6.33391 10.2903L7.71891 9.25536H5.86891C4.48891 9.25536 4.02391 8.79535 4.02391 7.43035V4.71535C4.02391 3.65035 4.27891 2.97536 5.54391 2.89536L5.86891 2.89035H8.94391C8.79391 2.67535 8.59391 2.50536 8.38391 2.42536L5.89891 1.49036C5.72891 1.42536 5.50391 1.39536 5.27891 1.39536Z" fill="#828ABA"/>
<path d="M10.9984 5.98535H4.39844C4.19344 5.98535 4.02344 5.81535 4.02344 5.61035C4.02344 5.40535 4.19344 5.23535 4.39844 5.23535H10.9984C11.2034 5.23535 11.3734 5.40535 11.3734 5.61035C11.3734 5.81535 11.2034 5.98535 10.9984 5.98535Z" fill="#828ABA"/>
<path d="M9.52843 9.24977H5.86844C4.48844 9.24977 4.02344 8.78977 4.02344 7.42477V4.70978C4.02344 3.64478 4.27843 2.96977 5.54343 2.88977L5.86844 2.88477H9.52843C10.9084 2.88477 11.3734 3.34478 11.3734 4.70978V7.48477C11.3634 8.80477 10.8984 9.24977 9.52843 9.24977ZM5.86844 3.63477L5.56344 3.63977C4.92844 3.67977 4.77344 3.78478 4.77344 4.70978V7.42477C4.77344 8.37977 4.89844 8.49977 5.86844 8.49977H9.52843C10.4834 8.49977 10.6134 8.37477 10.6234 7.48477V4.71477C10.6234 3.75977 10.4984 3.63977 9.52843 3.63977H5.86844V3.63477Z" fill="#828ABA"/>
<path d="M6.32625 8.00488H5.65625C5.45125 8.00488 5.28125 7.83488 5.28125 7.62988C5.28125 7.42488 5.45125 7.25488 5.65625 7.25488H6.32625C6.53125 7.25488 6.70125 7.42488 6.70125 7.62988C6.70125 7.83488 6.53625 8.00488 6.32625 8.00488Z" fill="#828ABA"/>
<path d="M9.01 8.00488H7.375C7.17 8.00488 7 7.83488 7 7.62988C7 7.42488 7.17 7.25488 7.375 7.25488H9.01C9.215 7.25488 9.385 7.42488 9.385 7.62988C9.385 7.83488 9.22 8.00488 9.01 8.00488Z" fill="#828ABA"/>
</svg>
