<svg width="16" height="16" viewBox="0 0 16 16" fill="none" xmlns="http://www.w3.org/2000/svg">
<path d="M12.6458 15.1663H3.3125C0.8125 15.1663 0.8125 13.7797 0.8125 12.6663V11.9997C0.8125 11.3597 1.33917 10.833 1.97917 10.833H13.9792C14.6192 10.833 15.1458 11.3597 15.1458 11.9997V12.6663C15.1458 13.7797 15.1458 15.1663 12.6458 15.1663ZM1.97917 11.833C1.88583 11.833 1.8125 11.9063 1.8125 11.9997V12.6663C1.8125 13.7597 1.8125 14.1663 3.3125 14.1663H12.6458C14.1458 14.1663 14.1458 13.7597 14.1458 12.6663V11.9997C14.1458 11.9063 14.0725 11.833 13.9792 11.833H1.97917Z" fill="#828ABA"/>
<path d="M13.813 11.833H2.17969C1.90635 11.833 1.67969 11.6063 1.67969 11.333V8.66634C1.67969 5.93301 3.61969 3.53301 6.28635 2.96634C6.67969 2.87967 7.09302 2.83301 7.51302 2.83301H8.47969C8.90635 2.83301 9.31969 2.87967 9.71302 2.96634C12.3797 3.53967 14.313 5.93967 14.313 8.66634V11.333C14.313 11.6063 14.093 11.833 13.813 11.833ZM2.67969 10.833H13.313V8.66634C13.313 6.40634 11.713 4.41967 9.49969 3.93967C9.17302 3.86634 8.83302 3.83301 8.47969 3.83301H7.51302C7.16635 3.83301 6.82635 3.86634 6.49969 3.93967C4.28635 4.41301 2.67969 6.39967 2.67969 8.66634V10.833Z" fill="#828ABA"/>
<path d="M6.39203 3.95301C6.17203 3.95301 5.97203 3.80634 5.91203 3.58634C5.8587 3.39301 5.83203 3.19967 5.83203 2.99967C5.83203 1.80634 6.80536 0.833008 7.9987 0.833008C9.19203 0.833008 10.1654 1.80634 10.1654 2.99967C10.1654 3.19967 10.1387 3.39301 10.0854 3.58634C10.0187 3.83967 9.76536 3.99967 9.4987 3.93967C9.17203 3.86634 8.83203 3.83301 8.4787 3.83301H7.51203C7.16536 3.83301 6.82536 3.86634 6.4987 3.93967C6.46536 3.94634 6.43203 3.95301 6.39203 3.95301ZM7.51203 2.83301H8.4787C8.70536 2.83301 8.9387 2.84634 9.1587 2.87301C9.0987 2.28634 8.5987 1.83301 7.9987 1.83301C7.3987 1.83301 6.90536 2.28634 6.8387 2.87301C7.06536 2.84634 7.28536 2.83301 7.51203 2.83301Z" fill="#828ABA"/>
<path d="M10 7.83301H6C5.72667 7.83301 5.5 7.60634 5.5 7.33301C5.5 7.05967 5.72667 6.83301 6 6.83301H10C10.2733 6.83301 10.5 7.05967 10.5 7.33301C10.5 7.60634 10.2733 7.83301 10 7.83301Z" fill="#828ABA"/>
<path d="M12.6458 15.1663H3.3125C0.8125 15.1663 0.8125 13.7797 0.8125 12.6663V11.9997C0.8125 11.3597 1.33917 10.833 1.97917 10.833H13.9792C14.6192 10.833 15.1458 11.3597 15.1458 11.9997V12.6663C15.1458 13.7797 15.1458 15.1663 12.6458 15.1663ZM1.97917 11.833C1.88583 11.833 1.8125 11.9063 1.8125 11.9997V12.6663C1.8125 13.7597 1.8125 14.1663 3.3125 14.1663H12.6458C14.1458 14.1663 14.1458 13.7597 14.1458 12.6663V11.9997C14.1458 11.9063 14.0725 11.833 13.9792 11.833H1.97917Z" fill="#828ABA"/>
<path d="M13.813 11.833H2.17969C1.90635 11.833 1.67969 11.6063 1.67969 11.333V8.66634C1.67969 5.93301 3.61969 3.53301 6.28635 2.96634C6.67969 2.87967 7.09302 2.83301 7.51302 2.83301H8.47969C8.90635 2.83301 9.31969 2.87967 9.71302 2.96634C12.3797 3.53967 14.313 5.93967 14.313 8.66634V11.333C14.313 11.6063 14.093 11.833 13.813 11.833ZM2.67969 10.833H13.313V8.66634C13.313 6.40634 11.713 4.41967 9.49969 3.93967C9.17302 3.86634 8.83302 3.83301 8.47969 3.83301H7.51302C7.16635 3.83301 6.82635 3.86634 6.49969 3.93967C4.28635 4.41301 2.67969 6.39967 2.67969 8.66634V10.833Z" fill="#828ABA"/>
<path d="M6.39203 3.95301C6.17203 3.95301 5.97203 3.80634 5.91203 3.58634C5.8587 3.39301 5.83203 3.19967 5.83203 2.99967C5.83203 1.80634 6.80536 0.833008 7.9987 0.833008C9.19203 0.833008 10.1654 1.80634 10.1654 2.99967C10.1654 3.19967 10.1387 3.39301 10.0854 3.58634C10.0187 3.83967 9.76536 3.99967 9.4987 3.93967C9.17203 3.86634 8.83203 3.83301 8.4787 3.83301H7.51203C7.16536 3.83301 6.82536 3.86634 6.4987 3.93967C6.46536 3.94634 6.43203 3.95301 6.39203 3.95301ZM7.51203 2.83301H8.4787C8.70536 2.83301 8.9387 2.84634 9.1587 2.87301C9.0987 2.28634 8.5987 1.83301 7.9987 1.83301C7.3987 1.83301 6.90536 2.28634 6.8387 2.87301C7.06536 2.84634 7.28536 2.83301 7.51203 2.83301Z" fill="#828ABA"/>
<path d="M10 7.83301H6C5.72667 7.83301 5.5 7.60634 5.5 7.33301C5.5 7.05967 5.72667 6.83301 6 6.83301H10C10.2733 6.83301 10.5 7.05967 10.5 7.33301C10.5 7.60634 10.2733 7.83301 10 7.83301Z" fill="#828ABA"/>
</svg>
