<svg width="16" height="16" viewBox="0 0 16 16" fill="none" xmlns="http://www.w3.org/2000/svg">
<path d="M8 10.1667C6.80667 10.1667 5.83333 9.19334 5.83333 8.00001C5.83333 6.80668 6.80667 5.83334 8 5.83334C9.19333 5.83334 10.1667 6.80668 10.1667 8.00001C10.1667 9.19334 9.19333 10.1667 8 10.1667ZM8 6.83334C7.36 6.83334 6.83333 7.36001 6.83333 8.00001C6.83333 8.64001 7.36 9.16668 8 9.16668C8.64 9.16668 9.16667 8.64001 9.16667 8.00001C9.16667 7.36001 8.64 6.83334 8 6.83334Z" fill="#828ABA"/>
<path d="M12.3333 10.1667C12.06 10.1667 11.8333 9.94001 11.8333 9.66668V6.33334C11.8333 6.06001 12.06 5.83334 12.3333 5.83334C12.6067 5.83334 12.8333 6.06001 12.8333 6.33334V9.66668C12.8333 9.94001 12.6067 10.1667 12.3333 10.1667Z" fill="#828ABA"/>
<path d="M3.33333 15.1667C2.22667 15.1667 1.18667 14.58 0.626669 13.6267C0.326669 13.1467 0.166667 12.58 0.166667 12C0.166667 10.2533 1.58667 8.83334 3.33333 8.83334C5.08 8.83334 6.5 10.2533 6.5 12C6.5 12.58 6.34 13.1467 6.04 13.6334C5.48 14.58 4.44 15.1667 3.33333 15.1667ZM3.33333 9.83334C2.14 9.83334 1.16667 10.8067 1.16667 12C1.16667 12.3933 1.27333 12.78 1.48 13.1133C1.86667 13.7667 2.58 14.1667 3.33333 14.1667C4.08667 14.1667 4.8 13.7667 5.18667 13.12C5.39333 12.78 5.5 12.4 5.5 12C5.5 10.8067 4.52667 9.83334 3.33333 9.83334Z" fill="#828ABA"/>
<path d="M2.95325 13.16C2.82658 13.16 2.69992 13.1134 2.59992 13.0134L1.93992 12.3534C1.74659 12.1601 1.74659 11.84 1.93992 11.6467C2.13326 11.4534 2.45325 11.4534 2.64659 11.6467L2.96659 11.9667L4.03324 10.98C4.23324 10.7934 4.55324 10.8067 4.73991 11.0067C4.92658 11.2067 4.91326 11.5267 4.71326 11.7134L3.29325 13.0267C3.19325 13.1134 3.07325 13.16 2.95325 13.16Z" fill="#828ABA"/>
<path d="M11.3333 13.8333H5.66667C5.39333 13.8333 5.16667 13.6067 5.16667 13.3333C5.16667 13.06 5.39333 12.8333 5.66667 12.8333H11.3333C13.24 12.8333 14.1667 11.9067 14.1667 9.99999V5.99999C14.1667 4.09332 13.24 3.16666 11.3333 3.16666H4.66667C2.76 3.16666 1.83333 4.09332 1.83333 5.99999V10.2C1.83333 10.4733 1.60667 10.7 1.33333 10.7C1.06 10.7 0.833333 10.4733 0.833333 10.2V5.99999C0.833333 3.56666 2.23333 2.16666 4.66667 2.16666H11.3333C13.7667 2.16666 15.1667 3.56666 15.1667 5.99999V9.99999C15.1667 12.4333 13.7667 13.8333 11.3333 13.8333Z" fill="#828ABA"/>
</svg>
