<svg width="21" height="21" viewBox="0 0 21 21" fill="none" xmlns="http://www.w3.org/2000/svg">
<path d="M19.6875 19.6875V4.59373C19.6875 4.52851 19.6681 4.46476 19.6317 4.41064C19.5953 4.35651 19.5436 4.31445 19.4832 4.28984L10.6238 0.680463C10.5444 0.648179 10.4556 0.648179 10.3762 0.680463L1.51682 4.28984C1.45642 4.31445 1.40472 4.35651 1.36833 4.41064C1.33194 4.46476 1.3125 4.52851 1.3125 4.59373V19.6875H0.65625V20.3437H20.3438V19.6875H19.6875ZM1.96875 4.81435L10.5 1.33868L19.0312 4.81435V19.6875H18.375V5.57811C18.375 5.49108 18.3404 5.40763 18.2789 5.34609C18.2174 5.28456 18.1339 5.24998 18.0469 5.24998H2.95312C2.8661 5.24998 2.78264 5.28456 2.72111 5.34609C2.65958 5.40763 2.625 5.49108 2.625 5.57811V19.6875H1.96875V4.81435ZM4.92188 10.1719V7.54686C4.92197 7.45986 4.95658 7.37646 5.01809 7.31495C5.0796 7.25343 5.16301 7.21883 5.25 7.21873V8.20311H5.90625V7.21873H7.875C7.96199 7.21883 8.0454 7.25343 8.10691 7.31495C8.16842 7.37646 8.20303 7.45986 8.20312 7.54686V10.1719C8.20303 10.2588 8.16842 10.3423 8.10691 10.4038C8.0454 10.4653 7.96199 10.4999 7.875 10.5H5.25C5.16301 10.4999 5.0796 10.4653 5.01809 10.4038C4.95658 10.3423 4.92197 10.2588 4.92188 10.1719ZM10.1719 8.20311V7.21873H11.8125C11.8995 7.21883 11.9829 7.25343 12.0444 7.31495C12.1059 7.37646 12.1405 7.45986 12.1406 7.54686V10.1719C12.1405 10.2588 12.1059 10.3423 12.0444 10.4038C11.9829 10.4653 11.8995 10.4999 11.8125 10.5H9.1875C9.10051 10.4999 9.0171 10.4653 8.95559 10.4038C8.89408 10.3423 8.85947 10.2588 8.85938 10.1719V7.54686C8.85947 7.45986 8.89408 7.37646 8.95559 7.31495C9.0171 7.25343 9.10051 7.21883 9.1875 7.21873H9.51562V8.20311H10.1719ZM14.1094 8.20311V7.21873H15.75C15.837 7.21883 15.9204 7.25343 15.9819 7.31495C16.0434 7.37646 16.078 7.45986 16.0781 7.54686V10.1719C16.078 10.2588 16.0434 10.3423 15.9819 10.4038C15.9204 10.4653 15.837 10.4999 15.75 10.5H13.125C13.038 10.4999 12.9546 10.4653 12.8931 10.4038C12.8316 10.3423 12.797 10.2588 12.7969 10.1719V7.54686C12.797 7.45986 12.8316 7.37646 12.8931 7.31495C12.9546 7.25343 13.038 7.21883 13.125 7.21873H13.4531V8.20311H14.1094ZM4.92188 18.0469V15.4219C4.92197 15.3349 4.95658 15.2515 5.01809 15.1899C5.0796 15.1284 5.16301 15.0938 5.25 15.0937V16.0781H5.90625V15.0937H7.875C7.96199 15.0938 8.0454 15.1284 8.10691 15.1899C8.16842 15.2515 8.20303 15.3349 8.20312 15.4219V18.0469C8.20303 18.1339 8.16842 18.2173 8.10691 18.2788C8.0454 18.3403 7.96199 18.3749 7.875 18.375H5.25C5.16301 18.3749 5.0796 18.3403 5.01809 18.2788C4.95658 18.2173 4.92197 18.1339 4.92188 18.0469ZM4.92188 14.1094V11.4844C4.92197 11.3974 4.95658 11.314 5.01809 11.2524C5.0796 11.1909 5.16301 11.1563 5.25 11.1562V12.1406H5.90625V11.1562H7.875C7.96199 11.1563 8.0454 11.1909 8.10691 11.2524C8.16842 11.314 8.20303 11.3974 8.20312 11.4844V14.1094C8.20303 14.1964 8.16842 14.2798 8.10691 14.3413C8.0454 14.4028 7.96199 14.4374 7.875 14.4375H5.25C5.16301 14.4374 5.0796 14.4028 5.01809 14.3413C4.95658 14.2798 4.92197 14.1964 4.92188 14.1094ZM10.1719 12.1406V11.1562H11.8125C11.8995 11.1563 11.9829 11.1909 12.0444 11.2524C12.1059 11.314 12.1405 11.3974 12.1406 11.4844V14.1094C12.1405 14.1964 12.1059 14.2798 12.0444 14.3413C11.9829 14.4028 11.8995 14.4374 11.8125 14.4375H9.1875C9.10051 14.4374 9.0171 14.4028 8.95559 14.3413C8.89408 14.2798 8.85947 14.1964 8.85938 14.1094V11.4844C8.85947 11.3974 8.89408 11.314 8.95559 11.2524C9.0171 11.1909 9.10051 11.1563 9.1875 11.1562H9.51562V12.1406H10.1719ZM14.1094 12.1406V11.1562H15.75C15.837 11.1563 15.9204 11.1909 15.9819 11.2524C16.0434 11.314 16.078 11.3974 16.0781 11.4844V14.1094C16.078 14.1964 16.0434 14.2798 15.9819 14.3413C15.9204 14.4028 15.837 14.4374 15.75 14.4375H13.125C13.038 14.4374 12.9546 14.4028 12.8931 14.3413C12.8316 14.2798 12.797 14.1964 12.7969 14.1094V11.4844C12.797 11.3974 12.8316 11.314 12.8931 11.2524C12.9546 11.1909 13.038 11.1563 13.125 11.1562H13.4531V12.1406H14.1094ZM8.85938 18.0469V15.4219C8.85947 15.3349 8.89408 15.2515 8.95559 15.1899C9.0171 15.1284 9.10051 15.0938 9.1875 15.0937H9.51562V16.0781H10.1719V15.0937H11.8125C11.8995 15.0938 11.9829 15.1284 12.0444 15.1899C12.1059 15.2515 12.1405 15.3349 12.1406 15.4219V18.0469C12.1405 18.1339 12.1059 18.2173 12.0444 18.2788C11.9829 18.3403 11.8995 18.3749 11.8125 18.375H9.1875C9.10051 18.3749 9.0171 18.3403 8.95559 18.2788C8.89408 18.2173 8.85947 18.1339 8.85938 18.0469ZM12.7969 18.0469V15.4219C12.797 15.3349 12.8316 15.2515 12.8931 15.1899C12.9546 15.1284 13.038 15.0938 13.125 15.0937H13.4531V16.0781H14.1094V15.0937H15.75C15.837 15.0938 15.9204 15.1284 15.9819 15.1899C16.0434 15.2515 16.078 15.3349 16.0781 15.4219V18.0469C16.078 18.1339 16.0434 18.2173 15.9819 18.2788C15.9204 18.3403 15.837 18.3749 15.75 18.375H13.125C13.038 18.3749 12.9546 18.3403 12.8931 18.2788C12.8316 18.2173 12.797 18.1339 12.7969 18.0469ZM4.92188 19.0312H16.0781V19.6875H4.92188V19.0312ZM16.6382 18.471C16.7017 18.3386 16.7345 18.1937 16.7344 18.0469V15.4219C16.7345 15.1795 16.645 14.9458 16.4829 14.7656C16.645 14.5855 16.7345 14.3517 16.7344 14.1094V11.4844C16.7345 11.242 16.645 11.0083 16.4829 10.8281C16.645 10.648 16.7345 10.4142 16.7344 10.1719V7.54686C16.7341 7.28587 16.6303 7.03567 16.4457 6.85113C16.2612 6.66659 16.011 6.56278 15.75 6.56248H13.125C12.8827 6.56232 12.6489 6.6519 12.4688 6.81394C12.2886 6.6519 12.0548 6.56232 11.8125 6.56248H9.1875C8.94519 6.56232 8.71141 6.6519 8.53125 6.81394C8.35109 6.6519 8.11731 6.56232 7.875 6.56248H5.25C4.98902 6.56278 4.73881 6.66659 4.55427 6.85113C4.36973 7.03567 4.26592 7.28587 4.26562 7.54686V10.1719C4.26546 10.4142 4.35504 10.648 4.51709 10.8281C4.35504 11.0083 4.26546 11.242 4.26562 11.4844V14.1094C4.26546 14.3517 4.35504 14.5855 4.51709 14.7656C4.35504 14.9458 4.26546 15.1795 4.26562 15.4219V18.0469C4.26547 18.1937 4.29835 18.3386 4.36184 18.471C4.33129 18.5014 4.30707 18.5376 4.29055 18.5775C4.27404 18.6173 4.26557 18.66 4.26562 18.7031V19.6875H3.28125V5.90623H17.7188V19.6875H16.7344V18.7031C16.7344 18.66 16.726 18.6173 16.7094 18.5775C16.6929 18.5376 16.6687 18.5014 16.6382 18.471Z" fill="currentColor"/>
<path d="M8.85938 4.59377H12.1406C12.2276 4.59377 12.3111 4.55919 12.3726 4.49766C12.4342 4.43613 12.4687 4.35267 12.4688 4.26565V3.28127C12.4688 3.21569 12.4491 3.15161 12.4123 3.09731C12.3756 3.043 12.3234 3.00096 12.2625 2.97662L10.6218 2.32037C10.5436 2.28904 10.4564 2.28904 10.3782 2.32037L8.73753 2.97662C8.67663 3.00096 8.62443 3.043 8.58766 3.09731C8.5509 3.15161 8.53125 3.21569 8.53125 3.28127V4.26565C8.53125 4.35267 8.56583 4.43613 8.62736 4.49766C8.68889 4.55919 8.77235 4.59377 8.85938 4.59377ZM9.1875 3.50341L10.5 2.97842L11.8125 3.50341V3.93752H9.1875V3.50341Z" fill="#1C1F2C"/>
</svg>
