<svg width="16" height="16" viewBox="0 0 16 16" fill="none" xmlns="http://www.w3.org/2000/svg">
<path d="M4.77987 15.1667C3.1932 15.1667 1.89323 14.0134 1.89323 12.5934V11.2333C1.89323 10.96 2.1199 10.7333 2.39323 10.7333C2.66656 10.7333 2.89323 10.96 2.89323 11.2333C2.89323 12.0667 3.69987 12.6933 4.77987 12.6933C5.85987 12.6933 6.66654 12.0667 6.66654 11.2333C6.66654 10.96 6.89321 10.7333 7.16654 10.7333C7.43988 10.7333 7.66654 10.96 7.66654 11.2333V12.5934C7.66654 14.0134 6.3732 15.1667 4.77987 15.1667ZM3.06653 13.2467C3.35986 13.7934 4.01987 14.1667 4.77987 14.1667C5.53987 14.1667 6.19987 13.7867 6.49321 13.2467C6.01987 13.5334 5.4332 13.7 4.77987 13.7C4.12653 13.7 3.53986 13.5334 3.06653 13.2467Z" fill="#828ABA"/>
<path d="M4.77987 11.8666C3.68653 11.8666 2.70656 11.3666 2.21989 10.5733C2.00656 10.2266 1.89323 9.81993 1.89323 9.4066C1.89323 8.7066 2.19989 8.05326 2.75989 7.56659C3.83989 6.61993 5.69987 6.61996 6.78654 7.55996C7.34654 8.05329 7.65987 8.7066 7.65987 9.4066C7.65987 9.81993 7.54654 10.2266 7.33321 10.5733C6.85321 11.3666 5.8732 11.8666 4.77987 11.8666ZM4.77987 7.83328C4.25987 7.83328 3.77988 8.0066 3.41988 8.31993C3.07988 8.61326 2.89323 8.99993 2.89323 9.4066C2.89323 9.63993 2.9532 9.85329 3.0732 10.0533C3.37987 10.56 4.0332 10.8733 4.77987 10.8733C5.52653 10.8733 6.17986 10.56 6.47986 10.06C6.59986 9.86663 6.65987 9.64661 6.65987 9.41327C6.65987 9.00661 6.47322 8.61993 6.13322 8.31993C5.77989 8.0066 5.29987 7.83328 4.77987 7.83328Z" fill="#828ABA"/>
<path d="M4.77987 13.7C3.1332 13.7 1.89323 12.64 1.89323 11.24V9.40664C1.89323 7.98664 3.18653 6.83331 4.77987 6.83331C5.5332 6.83331 6.25321 7.09333 6.79321 7.56C7.35321 8.05333 7.66654 8.70664 7.66654 9.40664V11.24C7.66654 12.64 6.42653 13.7 4.77987 13.7ZM4.77987 7.83331C3.73987 7.83331 2.89323 8.53997 2.89323 9.40664V11.24C2.89323 12.0733 3.69987 12.7 4.77987 12.7C5.85987 12.7 6.66654 12.0733 6.66654 11.24V9.40664C6.66654 8.99997 6.47989 8.61329 6.13989 8.31329C5.77989 8.00663 5.29987 7.83331 4.77987 7.83331Z" fill="#828ABA"/>
<path d="M12.6933 9.86662C11.6866 9.86662 10.8333 9.11995 10.7533 8.15995C10.6999 7.60662 10.8999 7.06663 11.2999 6.6733C11.6333 6.32663 12.1066 6.1333 12.6066 6.1333H13.9999C14.6599 6.1533 15.1666 6.67327 15.1666 7.31327V8.68665C15.1666 9.32665 14.66 9.84662 14.02 9.86662H12.6933ZM13.9799 7.1333H12.6133C12.3799 7.1333 12.1666 7.21996 12.0133 7.37996C11.82 7.56663 11.7266 7.81995 11.7533 8.07328C11.7866 8.51328 12.2133 8.86662 12.6933 8.86662H13.9999C14.0866 8.86662 14.1666 8.78665 14.1666 8.68665V7.31327C14.1666 7.21327 14.0866 7.13997 13.9799 7.1333Z" fill="#828ABA"/>
<path d="M10.6668 14.1666H9.00016C8.72683 14.1666 8.50016 13.94 8.50016 13.6666C8.50016 13.3933 8.72683 13.1666 9.00016 13.1666H10.6668C12.3868 13.1666 13.5002 12.0533 13.5002 10.3333V9.86664H12.6935C11.6868 9.86664 10.8335 9.11997 10.7535 8.15997C10.7002 7.60664 10.9002 7.06665 11.3002 6.67332C11.6335 6.32665 12.1068 6.13332 12.6068 6.13332H13.4935V5.66665C13.4935 4.10665 12.5802 3.0333 11.1002 2.85996C10.9402 2.8333 10.8002 2.83331 10.6602 2.83331H4.66016C4.50016 2.83331 4.34682 2.84664 4.19348 2.86664C2.72682 3.0533 1.82682 4.11998 1.82682 5.66665V6.99998C1.82682 7.27331 1.60016 7.49998 1.32682 7.49998C1.05349 7.49998 0.826823 7.27331 0.826823 6.99998V5.66665C0.826823 3.61331 2.09351 2.12665 4.06018 1.87998C4.24018 1.85332 4.44682 1.83331 4.66016 1.83331H10.6602C10.8202 1.83331 11.0268 1.83998 11.2402 1.87331C13.2068 2.09998 14.4935 3.59331 14.4935 5.66665V6.63332C14.4935 6.90665 14.2668 7.13332 13.9935 7.13332H12.6068C12.3735 7.13332 12.1602 7.21998 12.0068 7.37998C11.8135 7.56665 11.7202 7.81997 11.7468 8.0733C11.7802 8.5133 12.2069 8.86664 12.6868 8.86664H14.0002C14.2735 8.86664 14.5002 9.0933 14.5002 9.36664V10.3333C14.5002 12.6266 12.9602 14.1666 10.6668 14.1666Z" fill="#828ABA"/>
</svg>
