<svg width="20" height="20" viewBox="0 0 20 20" fill="none" xmlns="http://www.w3.org/2000/svg">
<g clip-path="url(#clip0_95_16506)">
<path d="M10.0009 0.000976562C4.48695 0.000976562 0.000976562 4.48695 0.000976562 10.0009C0.000976562 15.5149 4.48695 20.0009 10.0009 20.0009C15.5149 20.0009 20.0009 15.515 20.0009 10.0009C20.0009 4.48691 15.5149 0.000976562 10.0009 0.000976562ZM10.0009 18.7509C5.17621 18.7509 1.25098 14.8257 1.25098 10.0009C1.25098 5.17621 5.17621 1.25098 10.0009 1.25098C14.8257 1.25098 18.7509 5.17617 18.7509 10.0009C18.7509 14.8257 14.8257 18.7509 10.0009 18.7509ZM15.5478 10.0009C15.5478 10.3461 15.268 10.6259 14.9228 10.6259H10.6259V14.9228C10.6259 15.268 10.3461 15.5478 10.0009 15.5478C9.65578 15.5478 9.37594 15.268 9.37594 14.9228V10.6259H5.07906C4.73391 10.6259 4.45406 10.3461 4.45406 10.0009C4.45406 9.65574 4.73391 9.37594 5.07906 9.37594H9.37594V5.07906C9.37594 4.73387 9.65578 4.45406 10.0009 4.45406C10.3461 4.45406 10.6259 4.73387 10.6259 5.07906V9.37594H14.9228C15.268 9.37594 15.5478 9.65578 15.5478 10.0009Z" fill="currentColor"/>
</g>
<defs>
<clipPath id="clip0_95_16506">
<rect width="20" height="20" fill="white"/>
</clipPath>
</defs>
</svg>
