<svg width="16" height="16" viewBox="0 0 16 16" fill="none" xmlns="http://www.w3.org/2000/svg">
<path d="M6.7415 12.0991H4.21484C3.94151 12.0991 3.71484 11.8725 3.71484 11.5991V8.18579C3.71484 7.49246 4.2815 6.92578 4.97483 6.92578H6.7415C7.01483 6.92578 7.2415 7.15245 7.2415 7.42578V11.5924C7.2415 11.8724 7.01483 12.0991 6.7415 12.0991ZM4.71484 11.0991H6.2415V7.93245H4.97483C4.83483 7.93245 4.71484 8.04576 4.71484 8.19242V11.0991Z" fill="#828ABA"/>
<path d="M9.26105 12.1004H6.73438C6.46104 12.1004 6.23438 11.8738 6.23438 11.6004V5.1604C6.23438 4.46707 6.80103 3.90039 7.49436 3.90039H8.50771C9.20104 3.90039 9.7677 4.46707 9.7677 5.1604V11.6004C9.76103 11.8738 9.54105 12.1004 9.26105 12.1004ZM7.24103 11.1004H8.7677V5.1604C8.7677 5.0204 8.65438 4.90039 8.50771 4.90039H7.49436C7.35436 4.90039 7.23438 5.01373 7.23438 5.1604V11.1004H7.24103Z" fill="#828ABA"/>
<path d="M11.7884 12.0998H9.26172C8.98839 12.0998 8.76172 11.8731 8.76172 11.5998V8.56641C8.76172 8.29307 8.98839 8.06641 9.26172 8.06641H11.0284C11.7217 8.06641 12.2884 8.63308 12.2884 9.32642V11.5998C12.2884 11.8731 12.0684 12.0998 11.7884 12.0998ZM9.76172 11.0998H11.2884V9.32642C11.2884 9.18642 11.175 9.06641 11.0284 9.06641H9.76172V11.0998Z" fill="#828ABA"/>
<path d="M9.9987 15.1673H5.9987C2.3787 15.1673 0.832031 13.6207 0.832031 10.0007V6.00065C0.832031 2.38065 2.3787 0.833984 5.9987 0.833984H9.9987C13.6187 0.833984 15.1654 2.38065 15.1654 6.00065V10.0007C15.1654 13.6207 13.6187 15.1673 9.9987 15.1673ZM5.9987 1.83398C2.92536 1.83398 1.83203 2.92732 1.83203 6.00065V10.0007C1.83203 13.074 2.92536 14.1673 5.9987 14.1673H9.9987C13.072 14.1673 14.1654 13.074 14.1654 10.0007V6.00065C14.1654 2.92732 13.072 1.83398 9.9987 1.83398H5.9987Z" fill="#828ABA"/>
</svg>
