<svg width="23" height="23" viewBox="0 0 23 23" fill="none" xmlns="http://www.w3.org/2000/svg">
<path d="M10.5796 20.9679C15.285 20.9679 19.1183 17.1346 19.1183 12.4196C19.1183 12.1609 18.9075 11.9404 18.6392 11.9404H11.0588V4.36003C11.0588 4.09169 10.8383 3.88086 10.5796 3.88086C5.86458 3.88086 2.03125 7.71419 2.03125 12.4196C2.03125 17.1346 5.86458 20.9679 10.5796 20.9679ZM10.1004 4.84878V12.4196C10.1004 12.6879 10.3113 12.8988 10.5796 12.8988H18.1504C17.9013 16.8567 14.595 20.0096 10.5796 20.0096C6.39167 20.0096 2.98958 16.6075 2.98958 12.4196C2.98958 8.40419 6.1425 5.09794 10.1004 4.84878Z" fill="currentColor"/>
<path d="M12.4186 11.0588H20.4878C20.7465 11.0588 20.967 10.8383 20.967 10.5796C20.967 5.86458 17.1336 2.03125 12.4186 2.03125C12.1599 2.03125 11.9395 2.25167 11.9395 2.51042V10.5796C11.9395 10.8383 12.1599 11.0588 12.4186 11.0588ZM12.8978 3.00875C16.7024 3.24833 19.7499 6.29584 19.9895 10.1004H12.8978V3.00875Z" fill="currentColor"/>
</svg>
