<svg width="16" height="16" viewBox="0 0 16 16" fill="none" xmlns="http://www.w3.org/2000/svg">
<path d="M8 10.4999C6.62 10.4999 5.5 9.37987 5.5 7.99987C5.5 6.61987 6.62 5.49987 8 5.49987C9.38 5.49987 10.5 6.61987 10.5 7.99987C10.5 9.37987 9.38 10.4999 8 10.4999ZM8 6.49987C7.17333 6.49987 6.5 7.1732 6.5 7.99987C6.5 8.82653 7.17333 9.49987 8 9.49987C8.82667 9.49987 9.5 8.82653 9.5 7.99987C9.5 7.1732 8.82667 6.49987 8 6.49987Z" fill="#828ABA"/>
<path d="M10.14 14.7932C10 14.7932 9.86 14.7732 9.72 14.7399C9.30667 14.6265 8.96 14.3665 8.74 13.9999L8.66 13.8665C8.26667 13.1865 7.72667 13.1865 7.33333 13.8665L7.26 13.9932C7.04 14.3665 6.69333 14.6332 6.28 14.7399C5.86 14.8532 5.42667 14.7932 5.06 14.5732L3.91333 13.9132C3.50667 13.6799 3.21333 13.2999 3.08667 12.8399C2.96667 12.3799 3.02667 11.9065 3.26 11.4999C3.45333 11.1599 3.50667 10.8532 3.39333 10.6599C3.28 10.4665 2.99333 10.3532 2.6 10.3532C1.62667 10.3532 0.833333 9.55987 0.833333 8.58653V7.4132C0.833333 6.43987 1.62667 5.64653 2.6 5.64653C2.99333 5.64653 3.28 5.5332 3.39333 5.33987C3.50667 5.14653 3.46 4.83987 3.26 4.49987C3.02667 4.0932 2.96667 3.6132 3.08667 3.15987C3.20667 2.69987 3.5 2.31987 3.91333 2.08653L5.06667 1.42653C5.82 0.979865 6.81333 1.23987 7.26667 2.00653L7.34667 2.13987C7.74 2.81987 8.28 2.81987 8.67333 2.13987L8.74667 2.0132C9.2 1.23987 10.1933 0.979865 10.9533 1.4332L12.1 2.0932C12.5067 2.32653 12.8 2.70653 12.9267 3.16653C13.0467 3.62653 12.9867 4.09987 12.7533 4.50653C12.56 4.84653 12.5067 5.1532 12.62 5.34653C12.7333 5.53987 13.02 5.6532 13.4133 5.6532C14.3867 5.6532 15.18 6.44653 15.18 7.41987V8.5932C15.18 9.56653 14.3867 10.3599 13.4133 10.3599C13.02 10.3599 12.7333 10.4732 12.62 10.6665C12.5067 10.8599 12.5533 11.1665 12.7533 11.5065C12.9867 11.9132 13.0533 12.3932 12.9267 12.8465C12.8067 13.3065 12.5133 13.6865 12.1 13.9199L10.9467 14.5799C10.6933 14.7199 10.42 14.7932 10.14 14.7932ZM8 12.3265C8.59333 12.3265 9.14667 12.6999 9.52667 13.3599L9.6 13.4865C9.68 13.6265 9.81333 13.7265 9.97333 13.7665C10.1333 13.8065 10.2933 13.7865 10.4267 13.7065L11.58 13.0399C11.7533 12.9399 11.8867 12.7732 11.94 12.5732C11.9933 12.3732 11.9667 12.1665 11.8667 11.9932C11.4867 11.3399 11.44 10.6665 11.7333 10.1532C12.0267 9.63986 12.6333 9.34653 13.3933 9.34653C13.82 9.34653 14.16 9.00653 14.16 8.57987V7.40653C14.16 6.98653 13.82 6.63987 13.3933 6.63987C12.6333 6.63987 12.0267 6.34653 11.7333 5.8332C11.44 5.31987 11.4867 4.64653 11.8667 3.9932C11.9667 3.81987 11.9933 3.6132 11.94 3.4132C11.8867 3.2132 11.76 3.0532 11.5867 2.94653L10.4333 2.28653C10.1467 2.1132 9.76667 2.2132 9.59333 2.50653L9.52 2.6332C9.14 3.2932 8.58667 3.66653 7.99333 3.66653C7.4 3.66653 6.84667 3.2932 6.46667 2.6332L6.39333 2.49987C6.22667 2.21987 5.85333 2.11987 5.56667 2.28653L4.41333 2.9532C4.24 3.0532 4.10667 3.21987 4.05333 3.41987C4 3.61987 4.02667 3.82653 4.12667 3.99987C4.50667 4.6532 4.55333 5.32653 4.26 5.83987C3.96667 6.3532 3.36 6.64653 2.6 6.64653C2.17333 6.64653 1.83333 6.98653 1.83333 7.4132V8.58653C1.83333 9.00653 2.17333 9.3532 2.6 9.3532C3.36 9.3532 3.96667 9.64653 4.26 10.1599C4.55333 10.6732 4.50667 11.3465 4.12667 11.9999C4.02667 12.1732 4 12.3799 4.05333 12.5799C4.10667 12.7799 4.23333 12.9399 4.40667 13.0465L5.56 13.7065C5.7 13.7932 5.86667 13.8132 6.02 13.7732C6.18 13.7332 6.31333 13.6265 6.4 13.4865L6.47333 13.3599C6.85333 12.7065 7.40667 12.3265 8 12.3265Z" fill="#828ABA"/>
</svg>
