<svg width="20" height="20" viewBox="0 0 20 20" fill="none" xmlns="http://www.w3.org/2000/svg">
<g clip-path="url(#clip0_258_10466)">
<path d="M18.4461 7.87898C18.8083 7.52598 18.9361 7.00789 18.7799 6.52691C18.6236 6.04594 18.2156 5.70199 17.7152 5.6293L13.339 4.9934C13.2531 4.98094 13.1788 4.92699 13.1404 4.8491L11.1833 0.883672C10.9595 0.430156 10.5063 0.148438 10.0006 0.148438C9.49484 0.148438 9.04164 0.430156 8.81785 0.883672L6.86078 4.84914C6.82231 4.92699 6.74809 4.98094 6.66215 4.99344L2.28605 5.6293C1.78559 5.70199 1.37766 6.04594 1.22133 6.52691C1.065 7.00789 1.19289 7.52598 1.55508 7.87898L4.72168 10.9657C4.78383 11.0263 4.81223 11.1136 4.79754 11.1992L4.05 15.5576C3.96453 16.0561 4.16555 16.5504 4.57469 16.8476C4.98383 17.145 5.51617 17.1834 5.96375 16.9481L9.87785 14.8903C9.95473 14.8499 10.0465 14.8499 10.1234 14.8903L14.0375 16.9481C14.2322 17.0504 14.4429 17.101 14.6525 17.101C14.9248 17.101 15.1954 17.0157 15.4265 16.8476C15.8356 16.5503 16.0367 16.056 15.9512 15.5576L15.2036 11.1991C15.189 11.1136 15.2173 11.0263 15.2795 10.9656L18.4461 7.87898ZM14.1638 11.3776L14.9113 15.7361C14.9363 15.882 14.8463 15.9651 14.8064 15.9941C14.7664 16.023 14.6595 16.083 14.5286 16.0141L10.6144 13.9563C10.4223 13.8554 10.2115 13.8048 10.0007 13.8048C9.78984 13.8048 9.57902 13.8554 9.38691 13.9563L5.47281 16.014C5.3418 16.0829 5.23488 16.0229 5.195 15.994C5.15512 15.965 5.06504 15.8819 5.09008 15.736L5.83762 11.3776C5.91102 10.9496 5.76926 10.5132 5.45828 10.2102L2.29168 7.12348C2.1857 7.02012 2.20969 6.89992 2.22496 6.85305C2.24016 6.80613 2.29145 6.69477 2.43789 6.67352L6.81395 6.03762C7.24359 5.9752 7.61488 5.70551 7.80707 5.31609L9.76414 1.35062C9.82965 1.21793 9.95137 1.20359 10.0007 1.20359C10.05 1.20359 10.1717 1.21789 10.2372 1.35062V1.35066L12.1943 5.31613C12.3864 5.70555 12.7577 5.97523 13.1873 6.03766L17.5635 6.67355C17.7099 6.6948 17.7612 6.80617 17.7764 6.85309C17.7916 6.9 17.8157 7.02023 17.7096 7.12352L14.543 10.2102C14.2321 10.5132 14.0904 10.9496 14.1638 11.3776Z" fill="currentColor"/>
<path d="M16.1629 0.883985C15.9271 0.712735 15.5972 0.765001 15.426 1.0007L14.8659 1.77149C14.6947 2.00719 14.7469 2.33715 14.9826 2.5084C15.0764 2.57641 15.1848 2.60918 15.2923 2.60918C15.4555 2.60918 15.6164 2.53375 15.7196 2.39172L16.2796 1.62094C16.4509 1.3852 16.3986 1.05524 16.1629 0.883985Z" fill="currentColor"/>
<path d="M5.13116 1.7685L4.57112 0.997719C4.39991 0.762093 4.06998 0.709828 3.8342 0.881C3.5985 1.05225 3.54623 1.38221 3.71748 1.61792L4.27752 2.3887C4.38077 2.53085 4.54163 2.60624 4.70483 2.60624C4.81237 2.60624 4.92089 2.57346 5.01448 2.50542C5.25018 2.33421 5.30245 2.00424 5.13116 1.7685Z" fill="currentColor"/>
<path d="M1.93562 11.9858C1.84558 11.7087 1.54796 11.557 1.27081 11.6471L0.36468 11.9415C0.0875312 12.0315 -0.0640704 12.3292 0.0259687 12.6063C0.0983905 12.8293 0.305226 12.971 0.527609 12.971C0.581633 12.971 0.636594 12.9626 0.690773 12.945L1.59691 12.6506C1.87402 12.5605 2.02566 12.2629 1.93562 11.9858Z" fill="currentColor"/>
<path d="M10.0002 17.8428C9.70887 17.8428 9.47266 18.079 9.47266 18.3704V19.3232C9.47266 19.6145 9.70887 19.8507 10.0002 19.8507C10.2916 19.8507 10.5278 19.6145 10.5278 19.3232V18.3704C10.5278 18.0789 10.2916 17.8428 10.0002 17.8428Z" fill="currentColor"/>
<path d="M19.6355 11.9425L18.7294 11.648C18.4523 11.558 18.1546 11.7096 18.0645 11.9868C17.9745 12.2639 18.1261 12.5615 18.4033 12.6516L19.3094 12.946C19.3636 12.9636 19.4185 12.972 19.4725 12.972C19.6949 12.972 19.9018 12.8302 19.9742 12.6072C20.0642 12.3301 19.9126 12.0325 19.6355 11.9425Z" fill="currentColor"/>
</g>
<defs>
<clipPath id="clip0_258_10466">
<rect width="20" height="20" fill="white"/>
</clipPath>
</defs>
</svg>
