<svg width="16" height="16" viewBox="0 0 16 16" fill="none" xmlns="http://www.w3.org/2000/svg">
<path d="M8.0013 12.3333C6.4413 12.3333 5.16797 11.06 5.16797 9.5C5.16797 9.22667 5.39464 9 5.66797 9C5.9413 9 6.16797 9.22667 6.16797 9.5C6.16797 10.5133 6.98797 11.3333 8.0013 11.3333C9.01464 11.3333 9.83464 10.5133 9.83464 9.5C9.83464 9.22667 10.0613 9 10.3346 9C10.608 9 10.8346 9.22667 10.8346 9.5C10.8346 11.06 9.5613 12.3333 8.0013 12.3333Z" fill="#828ABA"/>
<path d="M3.45927 4.25427C3.3326 4.25427 3.19927 4.20094 3.10594 4.1076C2.9126 3.91427 2.9126 3.59427 3.10594 3.40094L5.52594 0.980938C5.71927 0.787604 6.03927 0.787604 6.2326 0.980938C6.42594 1.17427 6.42594 1.49427 6.2326 1.6876L3.8126 4.1076C3.7126 4.20094 3.58594 4.25427 3.45927 4.25427Z" fill="#828ABA"/>
<path d="M12.5394 4.25427C12.4128 4.25427 12.2861 4.2076 12.1861 4.1076L9.76609 1.6876C9.57276 1.49427 9.57276 1.17427 9.76609 0.980938C9.95943 0.787604 10.2794 0.787604 10.4728 0.980938L12.8928 3.40094C13.0861 3.59427 13.0861 3.91427 12.8928 4.1076C12.7994 4.20094 12.6661 4.25427 12.5394 4.25427Z" fill="#828ABA"/>
<path d="M13.472 7.0651C13.4254 7.0651 13.3787 7.0651 13.332 7.0651H13.1787H2.66536C2.1987 7.07177 1.66536 7.07177 1.2787 6.6851C0.972031 6.3851 0.832031 5.91844 0.832031 5.23177C0.832031 3.39844 2.17203 3.39844 2.81203 3.39844H13.1854C13.8254 3.39844 15.1654 3.39844 15.1654 5.23177C15.1654 5.9251 15.0254 6.3851 14.7187 6.6851C14.372 7.03177 13.9054 7.0651 13.472 7.0651ZM2.81203 6.0651H13.3387C13.6387 6.07177 13.9187 6.07177 14.012 5.97844C14.0587 5.93177 14.1587 5.77177 14.1587 5.23177C14.1587 4.47844 13.972 4.39844 13.1787 4.39844H2.81203C2.0187 4.39844 1.83203 4.47844 1.83203 5.23177C1.83203 5.77177 1.9387 5.93177 1.9787 5.97844C2.07203 6.0651 2.3587 6.0651 2.65203 6.0651H2.81203Z" fill="#828ABA"/>
<path d="M9.92585 15.1685H5.90585C3.51919 15.1685 2.98585 13.7485 2.77919 12.5151L1.83919 6.74846C1.79252 6.47512 1.97919 6.22179 2.25252 6.17512C2.51919 6.12846 2.77919 6.31512 2.82585 6.58846L3.76585 12.3485C3.95919 13.5285 4.35919 14.1685 5.90585 14.1685H9.92585C11.6392 14.1685 11.8325 13.5685 12.0525 12.4085L13.1725 6.57512C13.2259 6.30179 13.4859 6.12179 13.7592 6.18179C14.0325 6.23512 14.2059 6.49512 14.1525 6.76846L13.0325 12.6018C12.7725 13.9551 12.3392 15.1685 9.92585 15.1685Z" fill="#828ABA"/>
</svg>
