<svg width="16" height="16" viewBox="0 0 16 16" fill="currentColor" xmlns="http://www.w3.org/2000/svg">
<path d="M8 10.1666C6.80667 10.1666 5.83333 9.19331 5.83333 7.99998C5.83333 6.80665 6.80667 5.83331 8 5.83331C9.19333 5.83331 10.1667 6.80665 10.1667 7.99998C10.1667 9.19331 9.19333 10.1666 8 10.1666ZM8 6.83331C7.36 6.83331 6.83333 7.35998 6.83333 7.99998C6.83333 8.63998 7.36 9.16665 8 9.16665C8.64 9.16665 9.16667 8.63998 9.16667 7.99998C9.16667 7.35998 8.64 6.83331 8 6.83331Z" fill="currentColor"/>
<path d="M12.3333 10.1666C12.06 10.1666 11.8333 9.93998 11.8333 9.66665V6.33331C11.8333 6.05998 12.06 5.83331 12.3333 5.83331C12.6067 5.83331 12.8333 6.05998 12.8333 6.33331V9.66665C12.8333 9.93998 12.6067 10.1666 12.3333 10.1666Z" fill="currentColor"/>
<path d="M3.33333 15.1666C2.22667 15.1666 1.18667 14.58 0.626669 13.6266C0.326669 13.1466 0.166667 12.58 0.166667 12C0.166667 10.2533 1.58667 8.83331 3.33333 8.83331C5.08 8.83331 6.5 10.2533 6.5 12C6.5 12.58 6.34 13.1467 6.04 13.6333C5.48 14.58 4.44 15.1666 3.33333 15.1666ZM3.33333 9.83331C2.14 9.83331 1.16667 10.8066 1.16667 12C1.16667 12.3933 1.27333 12.78 1.48 13.1133C1.86667 13.7666 2.58 14.1666 3.33333 14.1666C4.08667 14.1666 4.8 13.7666 5.18667 13.12C5.39333 12.78 5.5 12.4 5.5 12C5.5 10.8066 4.52667 9.83331 3.33333 9.83331Z" fill="currentColor"/>
<path d="M2.95325 13.16C2.82658 13.16 2.69992 13.1134 2.59992 13.0134L1.93992 12.3534C1.74659 12.16 1.74659 11.84 1.93992 11.6467C2.13326 11.4533 2.45325 11.4533 2.64659 11.6467L2.96659 11.9667L4.03324 10.98C4.23324 10.7933 4.55324 10.8067 4.73991 11.0067C4.92658 11.2067 4.91326 11.5267 4.71326 11.7134L3.29325 13.0267C3.19325 13.1133 3.07325 13.16 2.95325 13.16Z" fill="currentColor"/>
<path d="M11.3333 13.8334H5.66667C5.39333 13.8334 5.16667 13.6067 5.16667 13.3334C5.16667 13.06 5.39333 12.8334 5.66667 12.8334H11.3333C13.24 12.8334 14.1667 11.9067 14.1667 10V6.00002C14.1667 4.09335 13.24 3.16669 11.3333 3.16669H4.66667C2.76 3.16669 1.83333 4.09335 1.83333 6.00002V10.2C1.83333 10.4733 1.60667 10.7 1.33333 10.7C1.06 10.7 0.833333 10.4733 0.833333 10.2V6.00002C0.833333 3.56669 2.23333 2.16669 4.66667 2.16669H11.3333C13.7667 2.16669 15.1667 3.56669 15.1667 6.00002V10C15.1667 12.4334 13.7667 13.8334 11.3333 13.8334Z" fill="currentColor"/>
</svg>
