<svg width="21" height="22" viewBox="0 0 21 22" fill="none" xmlns="http://www.w3.org/2000/svg">
<path d="M10.5 4.15216C8.73782 4.15216 7.30432 5.58562 7.30432 7.34783C7.30432 9.11003 8.73778 10.5435 10.5 10.5435C12.2622 10.5435 13.6956 9.10999 13.6956 7.34783C13.6956 5.58567 12.2622 4.15216 10.5 4.15216ZM10.5 9.63042C9.24182 9.63042 8.21739 8.60599 8.21739 7.34783C8.21739 6.08967 9.24182 5.06523 10.5 5.06523C11.7581 5.06523 12.7826 6.08967 12.7826 7.34783C12.7826 8.60599 11.7582 9.63042 10.5 9.63042Z" fill="#1C1F2C"/>
<path d="M16.8911 7.80435C15.633 7.80435 14.6085 8.82879 14.6085 10.0869C14.6085 11.3451 15.633 12.3695 16.8911 12.3695C18.1493 12.3695 19.1737 11.3451 19.1737 10.0869C19.1737 8.82879 18.1493 7.80435 16.8911 7.80435ZM16.8911 11.4565C16.136 11.4565 15.5215 10.842 15.5215 10.0869C15.5215 9.33184 16.136 8.71738 16.8911 8.71738C17.6462 8.71738 18.2607 9.33184 18.2607 10.0869C18.2607 10.842 17.6462 11.4565 16.8911 11.4565Z" fill="#1C1F2C"/>
<path d="M4.17359 7.80435C2.91448 7.80435 1.89099 8.82879 1.89099 10.0869C1.89099 11.3451 2.91543 12.3695 4.17359 12.3695C5.43175 12.3695 6.45618 11.3451 6.45618 10.0869C6.45618 8.82879 5.43265 7.80435 4.17359 7.80435ZM4.17359 11.4565C3.41848 11.4565 2.80402 10.842 2.80402 10.0869C2.80402 9.33184 3.41848 8.71738 4.17359 8.71738C4.92869 8.71738 5.54315 9.33184 5.54315 10.0869C5.54315 10.842 4.92864 11.4565 4.17359 11.4565Z" fill="#1C1F2C"/>
<path d="M10.5 11.4565C7.22762 11.4565 4.56519 14.119 4.56519 17.3913C4.56519 17.6433 4.76972 17.8478 5.02172 17.8478C5.27372 17.8478 5.47826 17.6433 5.47826 17.3913C5.47826 14.6221 7.73072 12.3696 10.5 12.3696C13.2692 12.3696 15.5217 14.6221 15.5217 17.3913C15.5217 17.6433 15.7262 17.8478 15.9782 17.8478C16.2302 17.8478 16.4348 17.6433 16.4348 17.3913C16.4348 14.119 13.7723 11.4565 10.5 11.4565Z" fill="#1C1F2C"/>
<path d="M16.8913 13.2826C16.1398 13.2826 15.4039 13.488 14.763 13.8761C14.5484 14.0076 14.479 14.2879 14.6096 14.5034C14.7419 14.7189 15.0213 14.7873 15.2368 14.6568C15.7344 14.3545 16.306 14.1956 16.8913 14.1956C18.6534 14.1956 20.0869 15.6291 20.0869 17.3913C20.0869 17.6433 20.2915 17.8478 20.5435 17.8478C20.7955 17.8478 21 17.6433 21 17.3913C21 15.126 19.1565 13.2826 16.8913 13.2826Z" fill="#1C1F2C"/>
<path d="M6.2361 13.8752C5.59604 13.488 4.86016 13.2826 4.10869 13.2826C1.84343 13.2826 0 15.126 0 17.3913C0 17.6433 0.204536 17.8478 0.456536 17.8478C0.708536 17.8478 0.913071 17.6433 0.913071 17.3913C0.913029 15.6291 2.34653 14.1956 4.10869 14.1956C4.69397 14.1956 5.2655 14.3545 5.76223 14.6558C5.97678 14.7864 6.25801 14.7179 6.38949 14.5024C6.52097 14.2869 6.45155 14.0066 6.2361 13.8752Z" fill="#1C1F2C"/>
</svg>
