<svg width="25" height="25" fill="none" stroke="currentColor" stroke-linejoin="round" stroke-width="1.5" viewBox="0 0 24 24" xmlns="http://www.w3.org/2000/svg">
  <path d="M19.5 6.75h-15A2.25 2.25 0 0 0 2.25 9v9a2.25 2.25 0 0 0 2.25 2.25h15A2.25 2.25 0 0 0 21.75 18V9a2.25 2.25 0 0 0-2.25-2.25Z"></path>
  <path d="M19.282 6.75V5.342A2.344 2.344 0 0 0 16.5 3.041L4.155 5.148A2.344 2.344 0 0 0 2.25 7.452V9.75"></path>
  <path fill="currentColor" stroke="none" d="M17.25 15a1.5 1.5 0 1 1 0-3 1.5 1.5 0 0 1 0 3Z"></path>
</svg>