<svg width="19" height="19" viewBox="0 0 19 19" fill="none" xmlns="http://www.w3.org/2000/svg">
<g clip-path="url(#clip0_258_8431)">
<path d="M16.2292 5.104H2.77085C1.2429 5.104 0 6.34691 0 7.87481V15.7915C0 17.3194 1.2429 18.5623 2.77085 18.5623H16.2292C17.7571 18.5623 19 17.3194 19 15.7915V7.87481C19 6.34691 17.7571 5.104 16.2292 5.104ZM18.2083 15.7915C18.2083 16.8824 17.3209 17.7707 16.2292 17.7707H2.77085C1.67912 17.7707 0.791691 16.8824 0.791691 15.7915V7.87481C0.791691 6.78391 1.67916 5.89566 2.77085 5.89566H16.2292C17.3209 5.89566 18.2083 6.78391 18.2083 7.87481V15.7915Z" fill="currentColor"/>
<path d="M15.4375 10.6455C14.7828 10.6455 14.25 11.1783 14.25 11.833C14.25 12.4877 14.7828 13.0205 15.4375 13.0205C16.0922 13.0205 16.625 12.4877 16.625 11.833C16.625 11.1783 16.0922 10.6455 15.4375 10.6455ZM15.4375 12.2289C15.2198 12.2289 15.0417 12.0515 15.0417 11.833C15.0417 11.6145 15.2198 11.4372 15.4375 11.4372C15.6552 11.4372 15.8333 11.6145 15.8333 11.833C15.8333 12.0515 15.6552 12.2289 15.4375 12.2289Z" fill="currentColor"/>
<path d="M18.6045 9.06201H15.4378C13.9099 9.06201 12.667 10.3049 12.667 11.8329C12.667 13.3608 13.9099 14.6037 15.4378 14.6037H18.6045C18.823 14.6037 19.0003 14.4264 19.0003 14.2079V9.45786C19.0003 9.23936 18.823 9.06201 18.6045 9.06201ZM18.2087 13.812H15.4378C14.3461 13.812 13.4587 12.9238 13.4587 11.8329C13.4587 10.742 14.3462 9.8537 15.4378 9.8537H18.2087V13.812Z" fill="currentColor"/>
<path d="M16.1871 5.32236L14.5112 1.97041C14.1731 1.29432 13.5897 0.796385 12.8693 0.568385C12.1489 0.341164 11.3857 0.412415 10.7191 0.77026L2.58314 5.15136C2.39076 5.25426 2.31873 5.49495 2.42242 5.68733C2.52614 5.8797 2.76679 5.95173 2.95839 5.84805L11.0959 1.46851C11.5709 1.21201 12.1179 1.16054 12.6309 1.32364C13.1455 1.48591 13.5619 1.84216 13.8034 2.32511L15.4794 5.67701C15.549 5.81554 15.6884 5.89551 15.8333 5.89551C15.8926 5.89551 15.9528 5.88204 16.0098 5.85354C16.2053 5.75539 16.2845 5.51789 16.1871 5.32236Z" fill="currentColor"/>
<path d="M14.5988 2.14605C14.4943 1.95289 14.2537 1.88164 14.0621 1.98455L8.18079 5.1512C7.98842 5.25492 7.91639 5.4948 8.02007 5.68717C8.09132 5.82017 8.22748 5.89539 8.36842 5.89539C8.43176 5.89539 8.49667 5.88036 8.55682 5.84867L14.4381 2.68202C14.6305 2.5783 14.7025 2.33842 14.5988 2.14605Z" fill="currentColor"/>
<path d="M7.125 2.729H4.35415C1.95385 2.729 0 4.68203 0 7.08316V7.87481C0 8.09331 0.177346 8.27066 0.395846 8.27066C0.614346 8.27066 0.791691 8.09331 0.791691 7.87481V7.08316C0.791691 5.11903 2.39007 3.52066 4.35419 3.52066H7.125C7.3435 3.52066 7.52085 3.34331 7.52085 3.12481C7.52085 2.90631 7.3435 2.729 7.125 2.729Z" fill="currentColor"/>
<path d="M14.6458 2.729C14.4273 2.729 14.25 2.90635 14.25 3.12485C14.25 3.34335 14.4273 3.5207 14.6458 3.5207C16.61 3.5207 18.2083 5.11907 18.2083 7.08319V7.87485C18.2083 8.09335 18.3857 8.27069 18.6042 8.27069C18.8227 8.27069 19 8.09335 19 7.87485V7.08319C19 4.68203 17.0462 2.729 14.6458 2.729Z" fill="currentColor"/>
</g>
<defs>
<clipPath id="clip0_258_8431">
<rect width="19" height="19" fill="white"/>
</clipPath>
</defs>
</svg>
