<svg width="48" height="83" viewBox="0 0 48 83" fill="none" xmlns="http://www.w3.org/2000/svg">
<path d="M0.437046 65.981C0.159575 66.29 0.0210815 66.6584 0.0210815 67.0861V72.2914H0.839441L1.68513 71.5926V67.3287C1.68513 67.0908 1.79863 66.9721 2.02613 66.9721H5.5178C5.88155 66.9721 6.19981 66.8438 6.4727 66.587C6.81819 66.2829 6.99094 65.8883 6.99094 65.4034V62.8793C6.99094 62.1662 6.79087 61.5864 6.39081 61.1394C5.89062 60.5405 5.1722 60.2409 4.23575 60.2409C3.37172 60.2505 2.6534 60.5167 2.08059 61.0396C1.41673 61.6386 1.08022 62.4562 1.07124 63.4923C1.07124 64.2816 1.26214 64.9565 1.64404 65.5175H1.42581C1.04391 65.5175 0.714419 65.6721 0.437046 65.981ZM3.13104 62.216C3.40373 61.8691 3.76728 61.6956 4.22219 61.6956C4.51312 61.6956 4.75868 61.7907 4.95886 61.9807C5.20441 62.19 5.32699 62.4895 5.32699 62.8792V65.1609C5.32699 65.3986 5.21319 65.5175 4.98608 65.5175H4.3313C3.83111 65.5175 3.43779 65.3441 3.15134 64.9969C2.86489 64.65 2.72181 64.1819 2.72181 63.5922C2.72181 63.0218 2.85816 62.5633 3.13104 62.216ZM11.7105 70.2521C12.3469 70.0999 12.8788 69.8337 13.3064 69.4535C14.0519 68.7974 14.4248 67.8563 14.4248 66.6299V62.8793C14.4248 61.976 14.1155 61.2916 13.4973 60.8256C13.0062 60.4359 12.397 60.2409 11.6696 60.2409C10.6876 60.2409 9.91 60.5642 9.3372 61.2107C8.78245 61.8193 8.50507 62.6132 8.50507 63.5922C8.50507 64.4861 8.75063 65.2608 9.24174 65.9168C9.84187 66.6965 10.6237 67.0861 11.5877 67.0861C11.9605 67.0861 12.3424 67.0292 12.7335 66.915C12.6152 68.2556 11.8241 68.9257 10.3601 68.9257C10.0782 68.9257 9.79171 68.9018 9.50087 68.8545V69.4678L10.1692 70.3376C10.3874 70.3566 10.5465 70.3661 10.6466 70.3661C11.0374 70.3661 11.3921 70.3281 11.7105 70.2521ZM11.8605 65.6173C11.333 65.6173 10.917 65.439 10.6124 65.0826C10.3077 64.726 10.1556 64.2388 10.1556 63.6207C10.1556 63.0217 10.2896 62.5512 10.5579 62.2089C10.826 61.8666 11.1967 61.6955 11.6696 61.6955C11.9513 61.6955 12.1832 61.7763 12.3652 61.9379C12.6288 62.1566 12.7606 62.4705 12.7606 62.8792V65.4461C12.4514 65.5602 12.1514 65.6173 11.8605 65.6173ZM31.5974 57.5457C31.7701 57.7263 31.8566 57.945 31.8566 58.2015C31.8566 58.4489 31.7701 58.6629 31.5974 58.8434C31.4246 59.0241 31.2155 59.1143 30.97 59.1143C30.7334 59.1143 30.5288 59.0241 30.3563 58.8434C30.1834 58.6629 30.0971 58.4489 30.0971 58.2015C30.0971 57.945 30.1834 57.7262 30.3563 57.5457C30.5289 57.3651 30.7334 57.2747 30.97 57.2747C31.2155 57.2747 31.4245 57.3651 31.5974 57.5457ZM46.9287 60.9967C46.3739 60.5026 45.6963 60.2552 44.8963 60.2552C44.078 60.2552 43.4322 60.4455 42.9595 60.8256C42.3594 61.2916 42.0592 61.976 42.0592 62.8793V65.161C42.0592 65.2561 42.0273 65.337 41.9638 65.4034C41.8909 65.4796 41.8046 65.5175 41.7047 65.5175H34.4073V63.7778C34.4073 62.7891 34.1025 61.9714 33.4934 61.3248C32.8204 60.6025 31.9338 60.241 30.8336 60.241C30.1243 60.241 29.3376 60.379 28.4739 60.6546V62.0379C29.3742 61.8289 30.047 61.7242 30.4926 61.7242C31.1655 61.7242 31.7087 61.9215 32.1226 62.316C32.5363 62.7106 32.7432 63.2311 32.7432 63.8776V65.161C32.7432 65.3987 32.6294 65.5175 32.4022 65.5175H21.5584C21.5674 65.4131 21.572 65.2514 21.572 65.0327V63.6636C21.572 62.7224 21.2855 61.9334 20.7127 61.2964C20.0669 60.5929 19.2212 60.241 18.1757 60.241C17.7664 60.241 17.4071 60.2696 17.0982 60.3266V61.7099C17.2528 61.672 17.4846 61.6529 17.7938 61.6529C18.4666 61.6814 18.9805 61.881 19.335 62.2519C19.7169 62.6512 19.9078 63.1789 19.9078 63.8349V65.1611C19.9078 65.3988 19.794 65.5177 19.5669 65.5177H15.7204V66.9722H20.0988C20.4353 66.9722 20.74 66.8582 21.0127 66.63C21.0946 66.554 21.1718 66.4731 21.2447 66.3875H21.2856L21.7357 66.9721H32.9342C33.3979 66.9721 33.7843 66.7775 34.0935 66.3875H34.1208L34.571 66.9721H42.2093C42.6276 66.9721 42.9821 66.8202 43.2733 66.5158C43.7097 67.1052 44.3052 67.4 45.0601 67.4C45.9147 67.4 46.6102 67.0529 47.1469 66.3589C47.7015 65.6459 47.9789 64.7474 47.9789 63.6636C47.9789 62.5134 47.6289 61.6242 46.9287 60.9967ZM45.9193 65.3392C45.6465 65.7339 45.2964 65.931 44.8691 65.931C44.4326 65.931 44.0459 65.741 43.7097 65.3606V62.8793C43.7097 62.5181 43.8187 62.2328 44.0371 62.0237C44.2281 61.805 44.4872 61.6956 44.8146 61.6956C45.2511 61.6956 45.6058 61.862 45.8785 62.1947C46.1786 62.5846 46.3287 63.1216 46.3287 63.8062C46.3287 64.4337 46.1922 64.9449 45.9193 65.3392ZM5.6638 73.3293H8.2848V82.1676H6.54921V75.2919L5.04982 82.1676H3.31433L1.79122 75.2919V82.1676H0.0557298V73.3293H2.65301L4.18793 80.3653L5.6638 73.3293ZM13.6104 78.0941L15.8891 82.1676H13.9882L12.4888 79.2791L11.8512 80.0198V82.1676H10.222V73.3294H11.8512V78.1683L13.8938 75.6254H15.7474L13.6104 78.0941ZM22.5126 77.7608V82.1676H20.8832V78.1063C20.8832 77.3246 20.5528 76.9337 19.8915 76.9337C19.5214 76.9337 19.2204 77.0531 18.9883 77.2917C18.7561 77.5305 18.6399 77.8391 18.6399 78.2175V82.1676H17.0107V73.3293H18.6399V76.551C19.0807 75.8435 19.6908 75.4894 20.47 75.4894C21.0208 75.4894 21.4854 75.6582 21.8632 75.9956C22.296 76.3658 22.5126 76.9543 22.5126 77.7608ZM28.2622 76.403C27.8766 75.794 27.3019 75.4894 26.5385 75.4894C25.8144 75.4894 25.2122 75.7653 24.7322 76.3165C24.1812 76.9503 23.9057 77.8144 23.9057 78.9088C23.9057 79.8305 24.122 80.5998 24.5551 81.2169C25.0586 81.9411 25.7238 82.3032 26.5502 82.3032C27.3137 82.3032 27.8843 82.0152 28.2621 81.4392V82.1674H29.8915V73.3292H28.2621L28.2622 76.403ZM27.9023 80.3407C27.6543 80.7031 27.3218 80.8839 26.9046 80.8839C26.4875 80.8839 26.1549 80.7008 25.907 80.3345C25.6592 79.9685 25.535 79.4889 25.535 78.8964C25.535 78.2959 25.6608 77.8102 25.9128 77.4398C26.1646 77.0696 26.4953 76.8844 26.9046 76.8844C27.314 76.8844 27.6443 77.0676 27.8964 77.4336C28.1481 77.7999 28.2742 78.2874 28.2742 78.8963C28.2742 79.4971 28.1502 79.9787 27.9023 80.3407ZM34.4844 75.4895C33.5871 75.4895 32.8668 75.757 32.3237 76.2919C31.7019 76.901 31.3909 77.7692 31.3909 78.8964C31.3909 79.8841 31.6309 80.6782 32.1112 81.2789C32.662 81.9621 33.4531 82.3034 34.4844 82.3034C35.3816 82.3034 36.1018 82.0402 36.6449 81.5134C37.2666 80.9045 37.5776 80.0321 37.5776 78.8964C37.5776 77.9089 37.3375 77.119 36.8575 76.5264C36.3064 75.8352 35.5153 75.4895 34.4844 75.4895ZM35.5528 80.3716C35.2813 80.7461 34.9249 80.9332 34.4844 80.9332C34.075 80.9332 33.7365 80.7728 33.469 80.4517C33.1697 80.0734 33.0203 79.555 33.0203 78.8964C33.0203 78.2876 33.154 77.796 33.4217 77.4213C33.6891 77.0469 34.0434 76.8596 34.4844 76.8596C34.8934 76.8596 35.2321 77.0244 35.4996 77.3535C35.8066 77.732 35.9601 78.2464 35.9601 78.8963C35.9601 79.5054 35.8243 79.9972 35.5528 80.3716ZM47.4064 76.0265C47.7567 76.3846 47.9319 76.8803 47.9319 77.514V82.1676H46.3145V77.7856C46.3145 77.2178 46.0193 76.9339 45.429 76.9339C45.0826 76.9339 44.811 77.0471 44.6144 77.2734C44.4175 77.4998 44.3192 77.8145 44.3192 78.2176V82.1676H42.69V77.7856C42.69 77.2178 42.3987 76.9339 41.8162 76.9339C41.4698 76.9339 41.1982 77.0471 41.0017 77.2734C40.8048 77.4998 40.7064 77.8145 40.7064 78.2176V82.1676H39.0772V75.6254H40.6946V76.4154C41.1747 75.7983 41.7455 75.4896 42.4067 75.4896C43.2172 75.4896 43.784 75.8106 44.1068 76.4524C44.579 75.8106 45.1889 75.4896 45.9368 75.4896C46.5664 75.4896 47.0562 75.6685 47.4064 76.0265ZM15.3554 29.7811C13.7395 24.913 12.1225 20.0452 10.5061 15.1772C10.3028 14.5649 10.1279 13.9557 10.2992 13.2897C10.5523 12.3058 11.3328 11.5908 12.3237 11.4739C13.2399 11.3657 14.2041 11.874 14.5723 12.7906C14.9939 13.84 15.3239 14.9312 15.6814 16.009C17.6497 21.9439 19.6137 27.8803 21.5808 33.8157C21.776 34.4047 21.909 34.9979 21.7504 35.6223C21.4784 36.6929 20.6136 37.4107 19.5655 37.4378C18.6126 37.4623 17.7446 36.917 17.4121 35.9597C16.7003 33.9104 16.0391 31.8413 15.3554 29.7811ZM19.402 21.6326C18.7781 19.8222 20.0333 18.178 21.6441 18.2566C22.6968 18.3081 23.3983 18.9357 23.7411 19.9665C25.0843 24.0056 26.4087 28.0518 27.7345 32.0976C27.8056 32.3146 27.8244 32.5509 27.8675 32.7783C27.8485 33.9502 27.0994 34.9412 26.0232 35.1877C24.9635 35.4303 23.8512 34.8907 23.4649 33.817C22.7959 31.9576 22.2007 30.0683 21.5778 28.1902C20.8529 26.0042 20.152 23.8089 19.402 21.6326ZM26.1208 22.1677C25.6582 20.8633 26.194 19.5303 27.3841 19.0139C28.5745 18.4973 29.8392 19.0009 30.3338 20.2924C31.1524 22.4295 31.9064 24.5943 32.6814 26.75C33.0386 27.7437 33.3856 28.7415 33.7257 29.742C33.7995 29.9591 33.8234 30.195 33.8704 30.4222C33.8724 31.62 33.1488 32.5976 32.0341 32.8723C30.985 33.1309 29.8875 32.5942 29.4763 31.5164C28.7936 29.7267 28.1715 27.9109 27.5254 26.1055C27.0559 24.7935 26.5867 23.4812 26.1208 22.1677ZM32.7673 21.7233C32.3657 20.5451 33.0211 19.2546 34.1418 18.8035C35.302 18.3365 36.5705 18.8259 37.0247 20.0161C37.7845 22.0078 38.4802 24.027 39.1957 26.0375C39.3396 26.4417 39.4752 26.8493 39.5876 27.1904C39.7747 27.7588 39.8006 28.3791 39.617 28.9487C39.3456 29.7903 38.7335 30.3186 37.8773 30.5305C36.9365 30.7634 35.8053 30.1889 35.4299 29.1776C34.5125 26.7052 33.6191 24.2218 32.7673 21.7233ZM38.6774 31.4874C39.2595 31.284 40.2953 30.9083 41.2355 30.5651C42.3887 30.1441 43.6593 30.6994 44.1832 31.8531C44.6025 32.7765 45.0726 33.8032 45.3769 34.4421C45.3891 34.4678 45.3997 34.4925 45.4101 34.519C46.1286 36.3692 47.0632 38.4938 47.5051 40.1271C48.9459 44.2264 47.1305 49.2617 43.4915 51.1667C40.9021 52.8381 36.2051 52.853 34.4357 50.3329C34.4153 50.3038 34.396 50.273 34.3778 50.2422C33.3485 48.4946 32.5454 47.2007 31.8906 45.1993C31.2561 43.2603 33.2165 42.0642 34.6423 42.3818C34.7266 42.4006 34.8082 42.4329 34.884 42.4757C37.021 43.6824 36.3214 47.4791 39.5069 47.5914C39.5627 47.5934 39.6199 47.5907 39.6753 47.584C43.4321 47.1298 44.6425 43.4619 42.7837 39.4698C42.3615 38.5631 41.9043 37.6122 41.4841 36.6745C41.2368 36.1223 40.6251 35.8637 40.0797 36.0791C36.3457 37.5539 32.5891 39.0163 28.8181 40.4666C25.0094 42.0429 21.685 43.18 17.7333 44.3979C16.7594 44.6907 15.9889 44.8004 15.081 44.6841C12.4537 44.4857 12.0603 41.895 11.2343 39.8921C10.5207 37.8781 9.80313 35.9499 9.18104 33.8493C8.93099 33.0248 9.27171 31.4957 10.3609 31.0955C11.2907 30.754 12.4131 31.4347 12.777 32.1678C13.4639 33.5514 13.8176 34.5052 14.4858 36.1788C14.655 36.6028 14.8784 37.1747 15.0978 37.7402C15.5533 38.9144 16.8087 39.5092 17.9533 39.0931C19.6345 38.4819 22.1811 37.5554 24.9434 36.5477C30.2777 34.6015 36.4162 32.3527 38.6774 31.4874ZM8.41851 19.5831H3.90978C1.75394 19.5831 0 17.7493 0 15.4953V4.59337C0 2.33939 1.75394 0.505615 3.90978 0.505615H14.337C16.4929 0.505615 18.2468 2.33939 18.2468 4.59337V10.2823C18.2468 11.3433 17.4244 12.2032 16.4096 12.2032C15.3949 12.2032 14.5724 11.3433 14.5724 10.2823V4.59337C14.5724 4.45776 14.4668 4.34735 14.3371 4.34735H3.90987C3.78016 4.34735 3.67456 4.45776 3.67456 4.59337V15.4953C3.67456 15.6309 3.78016 15.7413 3.90987 15.7413H8.4186C9.43333 15.7413 10.2558 16.6012 10.2558 17.6621C10.2558 18.7231 9.43323 19.5831 8.41851 19.5831Z" fill="url(#paint0_linear_382_9884)"/>
<defs>
<linearGradient id="paint0_linear_382_9884" x1="0" y1="0.505615" x2="51.3206" y2="80.1641" gradientUnits="userSpaceOnUse">
<stop stop-color="#71E7A4"/>
<stop offset="1" stop-color="#196BAC"/>
</linearGradient>
</defs>
</svg>
