<svg width="32" height="32" viewBox="0 0 32 32" fill="none" xmlns="http://www.w3.org/2000/svg">
<path d="M23.8257 11.4874V24.1744C23.8257 24.3783 23.6608 24.5436 23.4575 24.5436H7.98116C7.77779 24.5436 7.61295 24.3783 7.61295 24.1744V11.4874C7.61295 10.8945 7.66541 10.3027 7.76971 9.71902L8.42385 6.05859H23.0148L23.6689 9.71902C23.7732 10.3029 23.8257 10.8946 23.8257 11.4874Z" fill="#EBB28E"/>
<path d="M23.6689 9.71902L23.0148 6.05859H21.0493L21.7035 9.71902C21.8078 10.3029 21.8603 10.8946 21.8602 11.4874V24.1744C21.8602 24.3783 21.6954 24.5435 21.492 24.5435H23.4574C23.6608 24.5435 23.8257 24.3782 23.8257 24.1744V11.4874C23.8257 10.8944 23.7732 10.3027 23.6689 9.71902Z" fill="#D6A37F"/>
<path d="M23.4594 6.53078H7.97775C7.86209 6.53078 7.75117 6.48563 7.6694 6.40526C7.58762 6.32489 7.54167 6.21589 7.54167 6.10223V3.74496C7.54167 3.6313 7.58762 3.5223 7.6694 3.44193C7.75117 3.36156 7.86209 3.31641 7.97775 3.31641H23.4594C23.5751 3.31641 23.686 3.36156 23.7678 3.44192C23.8496 3.52229 23.8956 3.6313 23.8956 3.74496V6.10217C23.8956 6.15846 23.8843 6.21419 23.8624 6.2662C23.8405 6.31821 23.8084 6.36546 23.7679 6.40526C23.7274 6.44506 23.6793 6.47664 23.6264 6.49817C23.5734 6.51971 23.5167 6.53079 23.4594 6.53078Z" fill="#D6A37F"/>
<path d="M30.0655 1.80121C27.5598 -0.614683 23.5219 -0.600308 21.0344 1.84427C19.0791 3.76592 18.6519 6.62912 19.7527 8.96232C20.0609 9.61562 20.0778 10.3655 19.7884 11.0271L19.1782 12.4218C19.126 12.5412 19.2496 12.6617 19.3706 12.6095L20.7676 12.0068C21.1005 11.8633 21.4605 11.7909 21.824 11.7944C22.1874 11.7979 22.546 11.8772 22.8759 12.027C25.2893 13.1221 28.2571 12.6674 30.2096 10.6629C32.6507 8.15684 32.5854 4.23079 30.0655 1.80121Z" fill="#7EDBB0"/>
<path d="M30.0662 1.80046C28.5681 0.356049 26.5224 -0.218815 24.5877 0.0741795C25.8715 0.267676 27.1068 0.842102 28.1008 1.80046C30.6207 4.23004 30.6859 8.15609 28.2449 10.6621C27.228 11.7061 25.9357 12.3286 24.5899 12.5319C26.5868 12.8338 28.7016 12.2111 30.2104 10.6621C32.6514 8.15609 32.5861 4.23004 30.0662 1.80046Z" fill="#51D39E"/>
<path d="M25.5324 24.7825C25.5324 25.4259 25.0045 25.9475 24.3532 25.9475H18.2447C16.7906 25.9476 15.3578 26.2911 14.067 26.9489L7.00396 30.5468C6.42889 30.8398 5.80941 31.0394 5.16949 31.138L-0.410108 31.9976C-0.428818 32.0004 -0.447939 31.9993 -0.466155 31.9942C-0.484371 31.9891 -0.501249 31.9802 -0.515627 31.9681C-0.530006 31.956 -0.541543 31.9409 -0.549445 31.924C-0.557347 31.9071 -0.561426 31.8887 -0.561401 31.8701V26.2693C-0.561401 26.2042 -0.511988 26.1492 -0.446294 26.1414L2.7418 25.7569C3.32242 25.6868 3.88643 25.519 4.40908 25.2608L6.70029 24.1289C7.38531 23.7904 8.00257 23.3332 8.52242 22.7793L12.34 18.7133C12.7328 18.295 13.3801 18.2291 13.8515 18.5594C14.3752 18.9264 14.4944 19.6453 14.1166 20.1582L12.0591 22.9515C11.855 23.2287 12.0554 23.6175 12.4024 23.6175H24.3531C25.0045 23.6175 25.5324 24.1391 25.5324 24.7825Z" fill="#FFD8CA"/>
<path d="M12.1512 20.1602L10.0937 22.9536C9.8896 23.2307 10.09 23.6196 10.437 23.6196H12.4024C12.0555 23.6196 11.8551 23.2307 12.0591 22.9536L14.1166 20.1602C14.4944 19.6474 14.3752 18.9284 13.8515 18.5615C13.3796 18.2309 12.7328 18.297 12.3395 18.7159L12.1891 18.8761C12.4376 19.2593 12.4391 19.7694 12.1512 20.1602ZM24.3532 23.6196H22.3878C23.0391 23.6196 23.567 24.1412 23.567 24.7846C23.567 25.428 23.0391 25.9496 22.3878 25.9496H24.3532C25.0045 25.9496 25.5324 25.428 25.5324 24.7846C25.5324 24.1412 25.0045 23.6196 24.3532 23.6196ZM12.1015 26.951L5.03848 30.5489C4.46362 30.8418 3.84435 31.0414 3.20465 31.14L-0.561401 31.7201V31.8722C-0.561426 31.8908 -0.557347 31.9092 -0.549445 31.9261C-0.541543 31.943 -0.530006 31.9581 -0.515627 31.9702C-0.501249 31.9823 -0.484371 31.9912 -0.466155 31.9963C-0.447939 32.0014 -0.428818 32.0025 -0.410108 31.9996L5.17012 31.14C5.80983 31.0414 6.4291 30.8418 7.00396 30.5489L14.067 26.951C15.3578 26.2932 16.7906 25.9497 18.2447 25.9496H16.2793C14.8257 25.9496 13.3933 26.2929 12.1015 26.951Z" fill="#FFBEAD"/>
<path d="M29.1619 4.23088C29.1201 4.18505 29.0695 4.14778 29.013 4.12118C28.9565 4.09458 28.8952 4.07919 28.8327 4.07587C28.7701 4.07256 28.7075 4.08139 28.6485 4.10187C28.5894 4.12234 28.535 4.15405 28.4884 4.19519L24.5237 7.69281L22.6841 5.92791C22.5935 5.84107 22.4716 5.79313 22.3451 5.79463C22.2186 5.79613 22.0979 5.84695 22.0096 5.93591C21.9212 6.02487 21.8724 6.14469 21.8739 6.269C21.8755 6.39331 21.9272 6.51193 22.0177 6.59877L24.1769 8.67023C24.2659 8.75581 24.3856 8.80367 24.5101 8.80354C24.6277 8.80365 24.7412 8.76093 24.8287 8.68361L29.1256 4.89287C29.1722 4.85175 29.2101 4.80201 29.2372 4.74649C29.2642 4.69097 29.2799 4.63075 29.2833 4.56928C29.2866 4.50781 29.2777 4.44628 29.2568 4.38822C29.236 4.33016 29.2038 4.27669 29.1619 4.23088Z" fill="#F8F7F7"/>
</svg>
