<svg width="57" height="56" viewBox="0 0 57 56" fill="none" xmlns="http://www.w3.org/2000/svg">
<g clip-path="url(#clip0_5527_108332)">
<path d="M28.0117 56C43.4757 56 56.0117 43.464 56.0117 28C56.0117 12.536 43.4757 0 28.0117 0C12.5477 0 0.0117188 12.536 0.0117188 28C0.0117188 43.464 12.5477 56 28.0117 56Z" fill="#E4ECF9"/>
<path d="M28.0117 55.0317C42.9407 55.0317 55.0431 42.9293 55.0431 28.0002C55.0431 13.0711 42.9407 0.96875 28.0117 0.96875C13.0826 0.96875 0.980225 13.0711 0.980225 28.0002C0.980225 42.9293 13.0826 55.0317 28.0117 55.0317Z" fill="#BBCAEA"/>
<path d="M28.0117 52.8228C41.7214 52.8228 52.8352 41.7089 52.8352 27.9993C52.8352 14.2896 41.7214 3.17578 28.0117 3.17578C14.3021 3.17578 3.18823 14.2896 3.18823 27.9993C3.18823 41.7089 14.3021 52.8228 28.0117 52.8228Z" fill="#BBCAEA"/>
<path d="M28.0118 51.2532C40.8533 51.2532 51.2634 40.8431 51.2634 28.0016C51.2634 15.1601 40.8533 4.75 28.0118 4.75C15.1703 4.75 4.76025 15.1601 4.76025 28.0016C4.76025 40.8431 15.1703 51.2532 28.0118 51.2532Z" fill="white"/>
<path d="M28.0118 39.9195C34.5943 39.9195 39.9305 34.5833 39.9305 28.0008C39.9305 21.4182 34.5943 16.082 28.0118 16.082C21.4292 16.082 16.093 21.4182 16.093 28.0008C16.093 34.5833 21.4292 39.9195 28.0118 39.9195Z" fill="#F3F6FD"/>
<path d="M27.9642 37.7973C22.561 37.7711 18.1865 33.3541 18.2125 27.951C18.2387 22.5478 22.6558 18.1733 28.0589 18.1993C33.4621 18.2255 37.8365 22.6426 37.8103 28.0457C37.7844 33.4489 33.3674 37.8233 27.9642 37.7973ZM28.0574 18.5148C22.8281 18.4895 18.5532 22.7232 18.5279 27.9525C18.5027 33.1815 22.7364 37.4566 27.9656 37.4818C33.1947 37.5071 37.4697 33.2734 37.495 28.0443C37.5204 22.8149 33.2867 18.54 28.0574 18.5148Z" fill="#E4ECF9"/>
<path d="M26.2165 7.16083L25.7914 7.28859C25.7498 7.29979 25.6973 7.30591 25.6618 7.30552C25.4906 7.30474 25.3439 7.1624 25.3447 6.99726C25.3455 6.84411 25.4405 6.72638 25.5877 6.68587L26.2135 6.4887C26.3555 6.4482 26.462 6.42502 26.5684 6.4258H26.58C26.7868 6.42658 26.9388 6.58625 26.9372 6.78694L26.9203 10.2768C26.9195 10.4773 26.7598 10.6356 26.5591 10.6348C26.3647 10.6336 26.2004 10.4739 26.2011 10.2733L26.2165 7.16083Z" fill="#2E363A"/>
<path d="M27.9326 9.91135L29.205 8.83849C29.7729 8.36354 29.9811 8.0993 29.9827 7.72774C29.9851 7.32076 29.6965 7.08387 29.3192 7.08192C28.9889 7.08036 28.759 7.23273 28.5044 7.53786C28.4504 7.59647 28.3678 7.64934 28.2498 7.64895C28.0678 7.64778 27.9203 7.5001 27.9211 7.31712C27.9211 7.24028 27.952 7.15784 28.0045 7.09338C28.3432 6.67637 28.7282 6.43063 29.3763 6.43362C30.1842 6.43753 30.7351 6.93554 30.7321 7.67239V7.68463C30.7289 8.33319 30.3849 8.68495 29.6511 9.27686L28.7985 9.9805L30.4729 9.98858C30.6496 9.98936 30.7908 10.1313 30.79 10.3084C30.7892 10.4852 30.6465 10.6259 30.4698 10.6252L28.1295 10.6136C27.905 10.6128 27.7414 10.4824 27.7422 10.2703C27.7427 10.1286 27.8083 10.0106 27.9326 9.91135Z" fill="#2E363A"/>
<path d="M26.8417 49.2483C26.5308 48.9343 26.3449 48.5025 26.3487 47.6711V47.6596C26.3548 46.398 26.9605 45.4166 28.1279 45.4219C28.5524 45.4242 28.888 45.5377 29.1587 45.7217C29.2698 45.7931 29.3408 45.888 29.34 46.0353C29.3384 46.224 29.1788 46.3705 28.9905 46.3693C28.9256 46.3693 28.8609 46.3454 28.8076 46.3153C28.5847 46.1667 28.3778 46.0835 28.1008 46.0819C27.4882 46.0792 27.1432 46.6316 27.1047 47.3863C27.3231 47.1753 27.6078 46.9758 28.0969 46.9782C28.8932 46.9821 29.5329 47.4569 29.529 48.2822V48.2938C29.5243 49.1136 28.8562 49.6938 27.9896 49.6896C27.483 49.6873 27.118 49.5264 26.8417 49.2483ZM28.804 48.32V48.308C28.8063 47.8955 28.4776 47.5873 27.9645 47.5851C27.4514 47.5823 27.1258 47.911 27.1234 48.3062V48.3177C27.1219 48.7363 27.4622 49.0562 27.9753 49.0589C28.4884 49.0611 28.8024 48.7444 28.804 48.32Z" fill="#2E363A"/>
<path d="M6.87138 29.3147C6.77188 29.2494 6.7078 29.1488 6.70859 29.0133C6.70937 28.8246 6.86291 28.6838 7.05188 28.685C7.12833 28.6854 7.19227 28.709 7.25101 28.7448C7.49246 28.9168 7.72245 29.0006 8.00479 29.0021C8.61207 29.0049 8.9801 28.4701 9.00784 27.7097C8.79947 27.9562 8.48079 28.1434 8.03878 28.1414C7.15997 28.1371 6.57901 27.6214 6.58278 26.8254V26.8138C6.58669 26.006 7.21467 25.3899 8.12825 25.3946C8.64671 25.3969 8.98245 25.5461 9.2756 25.8363C9.57579 26.1442 9.76788 26.5991 9.76397 27.4126V27.4242C9.75707 28.7507 9.09887 29.6672 7.98473 29.6619C7.51876 29.6595 7.1769 29.5227 6.87138 29.3147ZM8.98792 26.7959L8.9887 26.7843C8.99026 26.3537 8.65608 26.0223 8.13151 26.0197C7.61839 26.0173 7.31052 26.3576 7.30896 26.7821L7.30818 26.794C7.30661 27.2242 7.63454 27.5325 8.14766 27.5348C8.67223 27.5373 8.98635 27.1971 8.98792 26.7959Z" fill="#2E363A"/>
<path d="M46.5641 29.3114C46.4992 29.2581 46.4475 29.1574 46.4475 29.0513C46.4491 28.8626 46.6087 28.7045 46.7971 28.7053C46.9036 28.706 46.9791 28.7473 47.0385 28.8006C47.2962 29.0614 47.591 29.1983 47.9745 29.2003C48.3811 29.2022 48.6882 28.9561 48.6905 28.5788V28.5672C48.6921 28.1602 48.3225 27.9283 47.7445 27.9257L47.5971 27.9249C47.4258 27.9241 47.2845 27.7822 47.2861 27.6113C47.2861 27.5168 47.3278 27.4289 47.4404 27.317L48.4126 26.29L46.9149 26.2831C46.7382 26.2819 46.597 26.1399 46.5978 25.9691C46.5986 25.7924 46.7413 25.6512 46.918 25.6524L49.0283 25.6624C49.2351 25.6636 49.3871 25.7878 49.3863 25.9822C49.3856 26.1531 49.3022 26.2531 49.178 26.3766L48.2003 27.38C48.8253 27.4598 49.4133 27.7809 49.4094 28.5413V28.5533C49.4055 29.3137 48.82 29.8591 47.9589 29.855C47.3518 29.8514 46.8989 29.6373 46.5641 29.3114Z" fill="#2E363A"/>
<path d="M27.4622 28.3578L27.9145 35.103L29.5278 40.1464L29.9672 34.8471L28.9278 28.2383L27.4622 28.3578Z" fill="#3A4146"/>
<path d="M27.6808 27.8254L17.356 17.6012L14.5662 13.0742L18.8567 16.1775L28.2007 27.2301L27.6808 27.8254Z" fill="#3A4146"/>
<path d="M29.0924 29.0811C29.6895 28.484 29.6895 27.516 29.0924 26.9189C28.4954 26.3218 27.5273 26.3218 26.9302 26.9189C26.3331 27.516 26.3331 28.484 26.9302 29.0811C27.5273 29.6782 28.4954 29.6782 29.0924 29.0811Z" fill="#8D7EA3"/>
</g>
<defs>
<clipPath id="clip0_5527_108332">
<rect width="56" height="56" fill="white" transform="translate(0.0117188)"/>
</clipPath>
</defs>
</svg>
