<svg width="101" height="65" viewBox="0 0 101 65" fill="none" xmlns="http://www.w3.org/2000/svg">
<path d="M46.753 43.5137C46.753 43.7229 46.7292 43.9322 46.7292 44.1414C46.5889 46.4907 46.1015 48.7021 45.2859 50.7731C45.2621 50.8659 45.217 50.9348 45.1932 51.0299C42.0283 58.9884 34.3266 64.4812 24.9699 64.4812C16.8711 64.4812 9.42623 60.3153 4.81805 54.0331C4.77049 53.9641 4.72529 53.9166 4.67773 53.8476C3.76941 52.5684 2.97999 51.2178 2.28092 49.7744C2.21196 49.6341 2.16439 49.5176 2.11921 49.3797C0.977867 46.8212 0.257402 44.0511 0.048155 41.1644C-0.0683574 39.2099 0.0243816 37.3243 0.350141 35.51C0.419097 35.1367 0.490421 34.7895 0.606933 34.4162C2.81829 24.8289 11.2405 17.8477 21.8075 17.8477C32.3744 17.8477 42.2851 25.2474 45.5427 35.277C45.7068 35.743 45.8684 36.2305 45.985 36.7203C46.3797 38.1636 46.6127 39.6283 46.7292 41.1644C46.7768 41.9562 46.7982 42.748 46.753 43.5137Z" fill="#DAE7F7"/>
<path d="M52.6921 42.6635C60.8236 42.6635 67.4155 36.0717 67.4155 27.9402C67.4155 19.8087 60.8236 13.2168 52.6921 13.2168C44.5606 13.2168 37.9688 19.8087 37.9688 27.9402C37.9688 36.0717 44.5606 42.6635 52.6921 42.6635Z" fill="#FDAE0E"/>
<path d="M52.6909 39.256C58.9406 39.256 64.0069 34.1896 64.0069 27.94C64.0069 21.6904 58.9406 16.624 52.6909 16.624C46.4413 16.624 41.375 21.6904 41.375 27.94C41.375 34.1896 46.4413 39.256 52.6909 39.256Z" fill="#FFC500"/>
<path d="M52.2585 34.203C52.1657 34.203 52.0873 34.1697 52.0207 34.1055C51.9565 34.039 51.9232 33.9605 51.9232 33.8701V32.8952C49.8093 32.6955 48.7773 31.459 48.7227 30.2654C48.7227 30.0918 48.8677 29.9729 49.0294 29.9729H50.2682C50.4323 29.9729 50.5821 30.0324 50.6843 30.2369C50.9958 31.0667 51.8162 31.3497 52.7031 31.3497C53.6756 31.3497 54.6791 31.081 54.6791 30.1108C54.6791 29.1407 53.4165 28.9077 52.1467 28.5938C50.3016 28.1444 48.989 27.5166 48.989 25.7119C48.989 24.4326 49.9068 23.2152 51.9232 22.9703V22.012C51.9232 21.8242 52.0706 21.6768 52.2585 21.6768H53.1073C53.2904 21.6768 53.4402 21.8218 53.4402 22.012V23.0012C55.352 23.2842 56.3221 24.5705 56.3483 25.5478C56.3483 25.6952 56.2461 25.8403 56.0558 25.8403H54.7623C54.534 25.8403 54.4152 25.7309 54.3462 25.5764C54.2273 24.8488 53.3618 24.5325 52.6199 24.5325C51.7544 24.5325 50.9649 24.8107 50.9649 25.6738C50.9649 26.6155 52.0112 26.8604 53.2738 27.1909C55.1975 27.6236 56.655 28.1729 56.655 30.0443C56.655 31.8133 55.1951 32.7098 53.4402 32.9119V33.8725C53.4402 33.9653 53.4069 34.0437 53.3427 34.1079C53.2761 34.1721 53.1977 34.2054 53.1073 34.2054H52.2585V34.203Z" fill="#ED9D0F"/>
<path d="M85.763 14.0928C87.011 8.80528 83.7362 3.50723 78.4487 2.25926C73.1612 1.01129 67.8631 4.28597 66.6151 9.5735C65.3672 14.861 68.6419 20.1591 73.9294 21.4071C79.2169 22.6551 84.515 19.3803 85.763 14.0928Z" fill="#FDAE0E"/>
<path d="M83.5491 13.5717C84.5084 9.50728 81.9912 5.43478 77.9268 4.4755C73.8625 3.51622 69.79 6.03341 68.8307 10.0978C67.8714 14.1622 70.3886 18.2347 74.453 19.194C78.5174 20.1532 82.5898 17.6361 83.5491 13.5717Z" fill="#FFC500"/>
<path d="M75.9276 16.0261C75.8016 16.0261 75.7041 15.9239 75.7041 15.8026V15.1511C74.2845 15.0179 73.6021 14.1881 73.5664 13.3939C73.5664 13.2774 73.6639 13.1989 73.7709 13.1989H74.5984C74.7078 13.1989 74.8076 13.237 74.8766 13.3749C75.0834 13.9241 75.6375 14.1191 76.2248 14.1191C76.874 14.1191 77.5445 13.9408 77.5445 13.2916C77.5445 12.6425 76.7004 12.4879 75.8515 12.2787C74.6174 11.9791 73.74 11.5582 73.74 10.3527C73.74 9.49667 74.3535 8.68346 75.7017 8.52177V7.87976C75.7017 7.75374 75.7992 7.65625 75.9252 7.65625H76.4935C76.6148 7.65625 76.717 7.75374 76.717 7.87976V8.54079C77.9939 8.72864 78.6431 9.58941 78.6597 10.2409C78.6597 10.3408 78.5907 10.4359 78.4647 10.4359H77.5992C77.447 10.4359 77.3661 10.3622 77.321 10.2599C77.2401 9.77487 76.6624 9.56325 76.1678 9.56325C75.59 9.56325 75.0621 9.74872 75.0621 10.3265C75.0621 10.959 75.7659 11.1207 76.6052 11.3395C77.8893 11.6296 78.8642 11.9957 78.8642 13.2465C78.8642 14.4306 77.8845 15.0274 76.717 15.163V15.805C76.717 15.9286 76.6171 16.0285 76.4935 16.0285H75.9252L75.9276 16.0261Z" fill="#ED9D0F"/>
<path d="M90.3097 42.4132C95.7425 42.4132 100.147 38.009 100.147 32.5762C100.147 27.1434 95.7425 22.7393 90.3097 22.7393C84.8768 22.7393 80.4727 27.1434 80.4727 32.5762C80.4727 38.009 84.8768 42.4132 90.3097 42.4132Z" fill="#FDAE0E"/>
<path d="M95.6535 37.9229C98.6064 34.97 98.6064 30.1824 95.6534 27.2295C92.7005 24.2765 87.9129 24.2765 84.96 27.2294C82.0071 30.1824 82.0071 34.97 84.96 37.9229C87.9129 40.8758 92.7006 40.8758 95.6535 37.9229Z" fill="#FFC500"/>
<path d="M90.0174 36.7615C89.8914 36.7615 89.7939 36.6592 89.7939 36.538V35.8864C88.3815 35.7533 87.6919 34.9258 87.6562 34.1292C87.6562 34.0127 87.7538 33.9343 87.8608 33.9343H88.6882C88.7976 33.9343 88.8975 33.9723 88.9664 34.1102C89.1709 34.6595 89.7225 34.8545 90.3146 34.8545C90.9638 34.8545 91.6343 34.6761 91.6343 34.027C91.6343 33.4135 90.8853 33.2471 89.9413 33.0141C88.7073 32.7144 87.8298 32.2936 87.8298 31.088C87.8298 30.232 88.4433 29.4188 89.7915 29.2571V28.6151C89.7915 28.4891 89.889 28.3916 90.0151 28.3916H90.5833C90.7046 28.3916 90.8068 28.4891 90.8068 28.6151V29.2761C92.0718 29.464 92.7329 30.32 92.7495 30.9763C92.7495 31.0761 92.6806 31.1713 92.5546 31.1713H91.689C91.5368 31.1713 91.456 31.0975 91.4108 30.9953C91.33 30.5102 90.7521 30.2986 90.2576 30.2986C89.6797 30.2986 89.1519 30.4841 89.1519 31.0619C89.1519 31.6849 89.8367 31.8513 90.6951 32.0748C92.0053 32.3697 92.954 32.743 92.954 33.9818C92.954 35.2207 91.9767 35.7628 90.8068 35.8983V36.5403C90.8068 36.664 90.707 36.7639 90.5833 36.7639H90.0151L90.0174 36.7615Z" fill="#ED9D0F"/>
<path d="M19.7031 35.0851L24.3826 34.0412C24.3826 34.0412 27.9707 30.7385 33.6347 31.1427C38.6614 31.5017 44.6225 35.5583 47.2904 35.7128C49.9607 35.8674 59.7667 34.7879 60.5371 39.5625C60.5371 39.5625 70.4312 34.2814 73.5961 37.0301C73.5961 37.0301 75.9834 37.8077 75.3604 39.6766C74.7374 41.5432 50.1842 50.8285 46.7578 50.8285C39.0014 50.8285 26.8104 46.7506 21.5697 49.2925L19.7055 35.0827L19.7031 35.0851Z" fill="#FFBFAD"/>
<path d="M60.5361 39.5635C60.8096 41.5347 59.7015 43.2895 57.036 43.7698C52.3089 44.4594 43.9604 43.1754 39.1953 43.9791C44.2695 42.5429 52.2756 43.7888 56.967 43.3299C59.4209 43.0232 60.6193 41.4419 60.5361 39.5635Z" fill="#FAAC99"/>
<path d="M54.8237 37.818C54.3053 37.9179 53.4826 40.6785 54.9925 42.0196C55.6797 42.6307 59.1227 41.6082 59.1726 39.8843C59.2226 38.1604 56.1624 37.4542 54.8237 37.8156V37.818Z" fill="white"/>
<path d="M18.4727 34.4822V34.5036C20.0658 42.8877 20.061 50.4064 20.0777 50.6394L22.6909 50.2684C22.8977 44.3002 22.4436 38.7432 21.1477 33.7617L18.4727 34.4822Z" fill="#88C4FC"/>
<path d="M19.9709 52.1003L4.68164 53.8456C3.77332 52.5664 2.9839 51.2158 2.28482 49.7725C2.21587 49.6322 2.1683 49.5157 2.12312 49.3777C0.981774 46.8192 0.261308 44.0491 0.0520613 41.1624C-0.0644512 39.2079 0.0282878 37.3223 0.354047 35.508C0.423003 35.1347 0.494327 34.7875 0.61084 34.4142L17.9712 32.5762C18.0639 32.5762 18.2494 33.2966 18.4824 34.4618V34.4855C19.279 38.9083 20.418 48.0866 19.9709 52.1003Z" fill="#746F97"/>
<path d="M19.9689 52.0999L4.67961 53.8452C3.77129 52.566 2.98187 51.2154 2.2828 49.772C2.21384 49.6318 2.16627 49.5152 2.12109 49.3773L19.9689 47.33C19.9927 47.3063 19.9927 47.2825 19.9927 47.2373C20.0807 48.4619 20.1163 50.7802 19.9689 52.0999Z" fill="#645F86"/>
</svg>
