<svg width="24" height="22" viewBox="0 0 24 22" fill="none" xmlns="http://www.w3.org/2000/svg">
<path fill-rule="evenodd" clip-rule="evenodd" d="M12.2389 4.23828L1.64435 6.26882V19.4286L12.2389 20.3803L22.8335 19.4286V6.2745L12.2389 4.23828Z" fill="#C5D2EB"/>
<path fill-rule="evenodd" clip-rule="evenodd" d="M9.85034 12.3015V19.4259H14.6296V12.3015C14.6296 12.1727 14.5249 12.0664 14.3978 12.0664H10.0821C9.95505 12.0664 9.85034 12.1726 9.85034 12.3015Z" fill="#365E7D"/>
<path fill-rule="evenodd" clip-rule="evenodd" d="M1.35376 2.75152L12.2492 4.59668L23.1446 2.75152C21.5152 2.17515 20.3103 1.24905 19.58 -0.0296755C19.5019 -0.165598 19.3971 -0.210938 19.2589 -0.210938H5.23805C5.10121 -0.210938 4.99511 -0.165598 4.91832 -0.0296755C4.1867 1.24905 2.98316 2.17519 1.35376 2.75152Z" fill="#C9DCFF"/>
<path fill-rule="evenodd" clip-rule="evenodd" d="M3.88971 12.2477V17.4277C3.88981 17.4758 3.90867 17.5218 3.94217 17.5558C3.97566 17.5898 4.02106 17.6089 4.06843 17.609H7.42635C7.47372 17.6089 7.51912 17.5898 7.55262 17.5558C7.58611 17.5218 7.60497 17.4758 7.60508 17.4277V12.2477C7.60497 12.1996 7.58611 12.1536 7.55262 12.1196C7.51912 12.0856 7.47372 12.0665 7.42635 12.0664H4.06843C4.02106 12.0665 3.97565 12.0856 3.94215 12.1196C3.90866 12.1536 3.8898 12.1996 3.88971 12.2477ZM20.5901 12.2732V17.4531C20.5901 17.5525 20.5089 17.6344 20.4113 17.6344H17.0521C16.9541 17.6344 16.8733 17.5525 16.8733 17.4531V12.2732C16.8733 12.1738 16.9541 12.0919 17.0521 12.0919H20.4113C20.5089 12.0919 20.5901 12.1738 20.5901 12.2732Z" fill="#BED8FB"/>
<path fill-rule="evenodd" clip-rule="evenodd" d="M6.81154 12.2477V17.4277C6.81154 17.5269 6.73054 17.609 6.63281 17.609H7.42726C7.47463 17.6089 7.52003 17.5898 7.55353 17.5558C7.58702 17.5218 7.60589 17.4758 7.60599 17.4277V12.2477C7.60589 12.1996 7.58702 12.1536 7.55353 12.1196C7.52003 12.0856 7.47463 12.0665 7.42726 12.0664H6.63281C6.73054 12.0664 6.81154 12.1486 6.81154 12.2477Z" fill="#9DC6FB"/>
<path d="M5.38088 17.61C5.37988 17.6016 5.37939 17.5931 5.37939 17.5846V15.7028C5.37943 15.6034 5.41836 15.5082 5.48763 15.4379C5.5569 15.3676 5.65083 15.3282 5.74879 15.3281C5.79731 15.3281 5.84536 15.3378 5.89019 15.3566C5.93502 15.3754 5.97575 15.403 6.01005 15.4378C6.04436 15.4726 6.07157 15.5139 6.09013 15.5594C6.10868 15.6048 6.11822 15.6536 6.11819 15.7028V17.5846C6.11819 17.5931 6.11772 17.6016 6.11671 17.61H5.38088Z" fill="#F9F6F6"/>
<path d="M6.44335 16.0774H5.05128C4.95331 16.0774 4.85936 16.0379 4.79008 15.9677C4.7208 15.8974 4.68188 15.8021 4.68188 15.7028C4.68188 15.6034 4.7208 15.5081 4.79008 15.4379C4.85936 15.3676 4.95331 15.3281 5.05128 15.3281H6.44335C6.54132 15.3281 6.63527 15.3676 6.70455 15.4379C6.77383 15.5081 6.81274 15.6034 6.81274 15.7028C6.81274 15.8021 6.77383 15.8974 6.70455 15.9677C6.63527 16.0379 6.54132 16.0774 6.44335 16.0774Z" fill="#E29D7B"/>
<path fill-rule="evenodd" clip-rule="evenodd" d="M13.1018 12.3015V19.4259H14.6293V12.3015C14.6293 12.1727 14.5245 12.0664 14.3975 12.0664H12.87C12.9971 12.0664 13.1018 12.1726 13.1018 12.3015Z" fill="#2B4D66"/>
<path d="M14.6296 19.8002C14.581 19.8002 14.533 19.7905 14.4882 19.7717C14.4434 19.7529 14.4026 19.7253 14.3683 19.6905C14.334 19.6557 14.3068 19.6144 14.2883 19.5689C14.2697 19.5235 14.2601 19.4747 14.2602 19.4255V12.4407H10.2198V19.4255C10.2198 19.5249 10.1808 19.6202 10.1116 19.6904C10.0423 19.7607 9.94833 19.8001 9.85036 19.8001C9.75239 19.8001 9.65843 19.7607 9.58915 19.6904C9.51988 19.6202 9.48096 19.5249 9.48096 19.4255V12.3011C9.48096 11.9649 9.75067 11.6914 10.0821 11.6914H14.3979C14.7293 11.6914 14.999 11.9649 14.999 12.3011V19.4255C14.999 19.5249 14.9601 19.6202 14.8908 19.6904C14.8215 19.7607 14.7275 19.8002 14.6296 19.8002Z" fill="#8EAADF"/>
<path fill-rule="evenodd" clip-rule="evenodd" d="M20.07 10.1663V12.0936H20.4121C20.5098 12.0936 20.5908 12.1758 20.5908 12.2749V17.455C20.5908 17.5541 20.5098 17.6362 20.4121 17.6362H20.07V19.4276H22.8345V6.27344C22.5008 6.3825 22.1057 6.44195 21.6394 6.44195H20.1216V8.23187C20.648 8.23187 21.0753 8.6652 21.0753 9.19909C21.0753 9.73439 20.648 10.1663 20.1216 10.1663H20.07Z" fill="#A4BEEE"/>
<path d="M4.35847 8.60953C4.30996 8.60954 4.26192 8.59985 4.2171 8.58103C4.17228 8.5622 4.13156 8.53461 4.09726 8.49982C4.06295 8.46503 4.03574 8.42372 4.01718 8.37827C3.99862 8.33281 3.98907 8.28409 3.98907 8.23489V6.44496C3.98907 6.3456 4.02799 6.2503 4.09727 6.18004C4.16655 6.10978 4.2605 6.07031 4.35847 6.07031C4.45644 6.07031 4.5504 6.10978 4.61968 6.18004C4.68895 6.2503 4.72787 6.3456 4.72787 6.44496V8.23489C4.72788 8.28409 4.71833 8.33281 4.69977 8.37827C4.68121 8.42372 4.654 8.46503 4.61969 8.49982C4.58539 8.53461 4.54467 8.5622 4.49984 8.58103C4.45502 8.59985 4.40699 8.60954 4.35847 8.60953ZM8.29861 8.60953C8.25009 8.60954 8.20206 8.59985 8.15724 8.58103C8.11242 8.5622 8.07169 8.53461 8.03739 8.49982C8.00308 8.46503 7.97588 8.42372 7.95731 8.37827C7.93875 8.33281 7.9292 8.28409 7.92921 8.23489V6.44496C7.92921 6.3456 7.96813 6.2503 8.0374 6.18004C8.10668 6.10978 8.20064 6.07031 8.29861 6.07031C8.39658 6.07031 8.49054 6.10978 8.55981 6.18004C8.62909 6.2503 8.66801 6.3456 8.66801 6.44496V8.23489C8.66801 8.28409 8.65846 8.33281 8.6399 8.37827C8.62134 8.42372 8.59413 8.46503 8.55983 8.49982C8.52552 8.53461 8.4848 8.5622 8.43998 8.58103C8.39516 8.59985 8.34712 8.60954 8.29861 8.60953ZM12.2387 8.60953C12.1902 8.60954 12.1422 8.59985 12.0974 8.58103C12.0525 8.5622 12.0118 8.53461 11.9775 8.49982C11.9432 8.46503 11.916 8.42372 11.8974 8.37827C11.8789 8.33281 11.8693 8.28409 11.8693 8.23489V6.44496C11.8693 6.3456 11.9083 6.2503 11.9775 6.18004C12.0468 6.10978 12.1408 6.07031 12.2387 6.07031C12.3367 6.07031 12.4307 6.10978 12.4999 6.18004C12.5692 6.2503 12.6081 6.3456 12.6081 6.44496V8.23489C12.6081 8.28409 12.5986 8.33281 12.58 8.37827C12.5615 8.42372 12.5343 8.46503 12.5 8.49982C12.4657 8.53461 12.4249 8.5622 12.3801 8.58103C12.3353 8.59985 12.2873 8.60954 12.2387 8.60953ZM16.1789 8.60953C16.1304 8.60954 16.0823 8.59985 16.0375 8.58103C15.9927 8.5622 15.952 8.53461 15.9177 8.49982C15.8833 8.46503 15.8561 8.42372 15.8376 8.37827C15.819 8.33281 15.8095 8.28409 15.8095 8.23489V6.44496C15.8095 6.3456 15.8484 6.2503 15.9177 6.18004C15.9869 6.10978 16.0809 6.07031 16.1789 6.07031C16.2768 6.07031 16.3708 6.10978 16.4401 6.18004C16.5094 6.2503 16.5483 6.3456 16.5483 6.44496V8.23489C16.5483 8.28409 16.5387 8.33281 16.5202 8.37827C16.5016 8.42372 16.4744 8.46503 16.4401 8.49982C16.4058 8.53461 16.3651 8.5622 16.3202 8.58103C16.2754 8.59985 16.2274 8.60954 16.1789 8.60953ZM20.1204 8.60953C20.0719 8.60954 20.0239 8.59985 19.9791 8.58103C19.9342 8.5622 19.8935 8.53461 19.8592 8.49982C19.8249 8.46503 19.7977 8.42372 19.7791 8.37827C19.7606 8.33281 19.751 8.28409 19.751 8.23489V6.44496C19.751 6.3456 19.79 6.2503 19.8592 6.18004C19.9285 6.10978 20.0225 6.07031 20.1204 6.07031C20.2184 6.07031 20.3124 6.10978 20.3816 6.18004C20.4509 6.2503 20.4898 6.3456 20.4898 6.44496V8.23489C20.4898 8.28409 20.4803 8.33281 20.4617 8.37827C20.4432 8.42372 20.416 8.46503 20.3817 8.49982C20.3474 8.53461 20.3066 8.5622 20.2618 8.58103C20.217 8.59985 20.169 8.60954 20.1204 8.60953ZM19.1007 15.7318V17.6136C19.1007 17.6221 19.1003 17.6306 19.0993 17.6391H18.3634C18.3624 17.6306 18.3619 17.6221 18.3619 17.6136V15.7318C18.3619 15.6826 18.3714 15.6339 18.39 15.5884C18.4085 15.5429 18.4357 15.5016 18.47 15.4668C18.5043 15.432 18.5451 15.4044 18.5899 15.3856C18.6347 15.3668 18.6828 15.3571 18.7313 15.3572C18.8293 15.3572 18.9232 15.3966 18.9925 15.4669C19.0618 15.5372 19.1007 15.6324 19.1007 15.7318Z" fill="#F9F6F6"/>
<path d="M19.4263 16.1048H18.0357C17.9377 16.1048 17.8437 16.0653 17.7745 15.995C17.7052 15.9248 17.6663 15.8295 17.6663 15.7301C17.6663 15.6308 17.7052 15.5355 17.7745 15.4652C17.8437 15.3949 17.9377 15.3555 18.0357 15.3555H19.4263C19.6304 15.3555 19.7957 15.5232 19.7957 15.7301C19.7957 15.937 19.6304 16.1048 19.4263 16.1048Z" fill="#9FBCE2"/>
<path fill-rule="evenodd" clip-rule="evenodd" d="M19.3064 1.69086H3.38527C2.80721 2.12418 2.12866 2.47681 1.35376 2.75152H23.1446C21.5152 2.17515 20.3103 1.24905 19.5801 -0.0296755C19.5019 -0.165598 19.3972 -0.210938 19.259 -0.210938H17.9326C18.0512 0.827076 19.3064 1.69086 19.3064 1.69086Z" fill="#AEC4EF"/>
<path fill-rule="evenodd" clip-rule="evenodd" d="M0.240162 21.3329H24.2385C24.3711 21.3329 24.48 21.2239 24.48 21.0894V19.6747C24.48 19.5402 24.3711 19.4297 24.2385 19.4297H0.240162C0.10753 19.4297 0 19.5402 0 19.6747V21.0894C0 21.154 0.0253027 21.2159 0.0703419 21.2616C0.115381 21.3073 0.176467 21.3329 0.240162 21.3329Z" fill="#89A1CF"/>
<path fill-rule="evenodd" clip-rule="evenodd" d="M21.5617 19.6747V21.0894C21.5617 21.1214 21.5555 21.153 21.5434 21.1826C21.5313 21.2121 21.5137 21.239 21.4914 21.2616C21.4691 21.2842 21.4426 21.3022 21.4134 21.3144C21.3843 21.3266 21.3531 21.3329 21.3215 21.3329H24.2382C24.3709 21.3329 24.4798 21.2239 24.4798 21.0894V19.6747C24.4798 19.5402 24.3709 19.4297 24.2382 19.4297H21.3244C21.4556 19.4325 21.5617 19.5416 21.5617 19.6747Z" fill="#BED8FB"/>
<path fill-rule="evenodd" clip-rule="evenodd" d="M3.40502 9.19746C3.40502 9.73276 3.83089 10.1647 4.35864 10.1647C4.88501 10.1647 5.31226 9.73276 5.31226 9.19746C5.31226 8.66362 4.88501 8.23025 4.35864 8.23025C3.83084 8.23025 3.40502 8.66362 3.40502 9.19746ZM8.29878 10.1647C8.82514 10.1647 9.2524 9.73276 9.2524 9.19746C9.2524 8.66362 8.82514 8.23025 8.29878 8.23025C7.77241 8.23025 7.34516 8.66357 7.34516 9.19746C7.34516 9.73276 7.77241 10.1647 8.29878 10.1647ZM11.2853 9.19746C11.2853 9.73276 11.7125 10.1647 12.2389 10.1647C12.7653 10.1647 13.1925 9.73276 13.1925 9.19746C13.1925 8.66362 12.7653 8.23025 12.2389 8.23025C11.7125 8.23025 11.2853 8.66362 11.2853 9.19746ZM15.2255 9.19746C15.2255 9.73276 15.6527 10.1647 16.1791 10.1647C16.7068 10.1647 17.1327 9.73276 17.1327 9.19746C17.1327 8.66362 16.7068 8.23025 16.1791 8.23025C15.6527 8.23025 15.2255 8.66362 15.2255 9.19746ZM19.167 9.19746C19.167 9.73276 19.5929 10.1647 20.1206 10.1647C20.647 10.1647 21.0742 9.73276 21.0742 9.19746C21.0742 8.66362 20.647 8.23025 20.1206 8.23025C19.5929 8.23025 19.167 8.66362 19.167 9.19746ZM0.0205685 3.05302C-0.0101271 4.59797 0.337518 5.82714 1.64438 6.26614C1.98227 6.37941 2.38437 6.44032 2.8591 6.44032H21.6383C22.1046 6.44032 22.4998 6.38082 22.8334 6.27181C24.1571 5.83849 24.5089 4.60646 24.4768 3.05302C24.4712 2.77832 24.4531 2.75 24.178 2.75H0.320735C0.0442835 2.74995 0.0261626 2.77827 0.0205685 3.05302Z" fill="#92ADCF"/>
<path fill-rule="evenodd" clip-rule="evenodd" d="M19.794 12.275V17.4551C19.794 17.5542 19.713 17.6364 19.6153 17.6364H20.4111C20.5089 17.6364 20.5899 17.5542 20.5899 17.4551V12.275C20.5899 12.1759 20.5089 12.0938 20.4111 12.0938H19.6153C19.713 12.0938 19.794 12.1758 19.794 12.275Z" fill="#9DC6FB"/>
<g clip-path="url(#clip0_6772_84057)">
<path d="M11.9432 15.9514L10.4933 15.8146L9.0581 14.6056C8.74404 14.3408 8.34529 14.1954 7.93311 14.1953H2.64047L1.86503 15.8244L1.54501 17.3875H1.16345L1.34316 18.6576H13.5212V17.6733C13.5212 16.7818 12.8368 16.0369 11.9432 15.9514Z" fill="#F37787"/>
<path d="M12.2947 16.9426H12.056C11.9132 16.9426 11.7975 16.8278 11.7975 16.6861C11.7975 16.5445 11.9132 16.4297 12.056 16.4297H12.2947C12.4375 16.4297 12.5532 16.5445 12.5532 16.6861C12.5532 16.8278 12.4375 16.9426 12.2947 16.9426Z" fill="#EBEADF"/>
<path d="M12.295 16.9426C12.1523 16.9426 12.0366 16.8278 12.0366 16.6861C12.0366 16.5445 12.1523 16.4297 12.295 16.4297C12.4378 16.4297 12.5535 16.5445 12.5535 16.6861C12.5535 16.8278 12.4378 16.9426 12.295 16.9426Z" fill="white"/>
<path d="M13.5211 18.1194H13.1764C13.0263 18.1194 12.9056 17.9997 12.9056 17.8507C12.9056 17.7017 13.0263 17.582 13.1764 17.582H13.5211V18.1194Z" fill="#EBEADF"/>
<path d="M1.63129 16.9749H2.12363V16.1445H1.80114L1.63129 16.9749Z" fill="#DB3328"/>
<path d="M2.02058 16.1406V16.3922C2.02058 16.5778 1.87042 16.7268 1.68333 16.7268L1.63409 16.971H2.12643V16.1406H2.02058Z" fill="#365E7D"/>
<path d="M1.80096 16.1456H12.5856C12.3912 16.0479 12.1745 15.9796 11.9431 15.9576L10.5597 15.8281H1.86497L1.80096 16.1456Z" fill="#FFA1B1"/>
<path d="M9.97632 18.1201V15.8242H9.73015V18.1201H5.70774L5.44926 15.8242H5.20063L5.45911 18.1201H1.87734V17.6633C1.87734 17.5095 1.7518 17.3873 1.59917 17.3873H1.16345L1.34316 18.6574H13.5212V18.1201H9.97632Z" fill="#353739"/>
<path d="M10.4929 15.8205L9.05775 14.6066C8.74512 14.3404 8.34632 14.1914 7.93522 14.1914H2.64012L1.86469 15.8278H10.5594L10.4929 15.8205Z" fill="#323D2C"/>
<path d="M9.08729 14.6289H2.43087L1.86469 15.8257H10.5594L10.4929 15.8183L9.08729 14.6289Z" fill="#1C2617"/>
<path d="M3.35444 14.6299L2.83748 15.8267H5.12686L5.00377 14.6299H3.35444ZM7.73625 14.625H5.52073L5.64381 15.8218H9.70561L8.92525 15.0939C8.60523 14.7935 8.17936 14.625 7.73625 14.625ZM2.83502 14.625H2.4313L1.86511 15.8218H2.27622L2.83502 14.625Z" fill="#485143"/>
<path d="M9.0878 14.625H8.74316L10.1119 15.8218H10.4934L9.0878 14.625Z" fill="#747E6C"/>
<path d="M6.03754 16.4141H6.9976V16.6583H6.03754V16.4141Z" fill="#323D2C"/>
<path d="M4.51119 14.6289H3.64221L4.64412 15.8257H5.12661L5.07246 15.3006L4.51119 14.6289ZM5.52048 14.6289L5.60911 15.4886L5.8922 15.8257H7.30029L6.29838 14.6289H5.52048Z" fill="#747E6C"/>
<path d="M11.3126 19.6094C11.9747 19.6094 12.5115 19.0768 12.5115 18.4199C12.5115 17.763 11.9747 17.2305 11.3126 17.2305C10.6505 17.2305 10.1138 17.763 10.1138 18.4199C10.1138 19.0768 10.6505 19.6094 11.3126 19.6094Z" fill="#323D2C"/>
<path d="M3.33263 19.6094C3.99474 19.6094 4.53148 19.0768 4.53148 18.4199C4.53148 17.763 3.99474 17.2305 3.33263 17.2305C2.67053 17.2305 2.13379 17.763 2.13379 18.4199C2.13379 19.0768 2.67053 19.6094 3.33263 19.6094Z" fill="#323D2C"/>
<path d="M3.38604 17.2319C3.28757 17.227 3.1891 17.2344 3.09556 17.2539C2.9897 17.2735 3.0094 17.4273 3.11525 17.4273H3.13248C3.78975 17.4273 4.33133 17.9647 4.33133 18.6168V18.6339C4.32886 18.7389 4.48395 18.7584 4.50611 18.6534C4.52334 18.5606 4.53318 18.4653 4.52826 18.3652C4.50118 17.7546 4.00146 17.2588 3.38604 17.2319Z" fill="#485143"/>
<path d="M3.86872 18.9958C3.27053 18.9592 2.78803 18.478 2.74865 17.8845V17.8699C2.73634 17.6525 2.45571 17.5768 2.33262 17.7575C2.19477 17.9602 2.12092 18.2094 2.13322 18.4731C2.16276 19.0813 2.66003 19.5771 3.27545 19.6064C3.54377 19.6186 3.79241 19.5429 3.99673 19.4086C4.17889 19.2865 4.10258 19.008 3.88349 18.9958H3.86872ZM11.8495 18.9958C11.2513 18.9592 10.7688 18.478 10.7295 17.8845V17.8699C10.7172 17.6525 10.4365 17.5768 10.3134 17.7575C10.1756 17.9602 10.1017 18.2094 10.114 18.4731C10.1436 19.0813 10.6408 19.5771 11.2563 19.6064C11.5246 19.6186 11.7732 19.5429 11.9775 19.4086C12.1597 19.2865 12.0834 19.008 11.8643 18.9958H11.8495Z" fill="#1C2617"/>
<path d="M3.33151 19.0034C3.65644 19.0034 3.91985 18.7421 3.91985 18.4197C3.91985 18.0973 3.65644 17.8359 3.33151 17.8359C3.00658 17.8359 2.74316 18.0973 2.74316 18.4197C2.74316 18.7421 3.00658 19.0034 3.33151 19.0034Z" fill="#747E6C"/>
<path d="M3.37813 17.8339C3.34613 17.8314 3.31413 17.8314 3.28213 17.8339C3.22058 17.8387 3.22305 17.9267 3.28459 17.9316H3.29197C3.56768 17.9584 3.7917 18.1807 3.81878 18.4542V18.4616C3.8237 18.5226 3.91232 18.5226 3.91724 18.464C3.91971 18.4322 3.91971 18.4005 3.91724 18.3687C3.89509 18.0879 3.66369 17.8558 3.37813 17.8339Z" fill="#C4C1AB"/>
<path d="M3.53391 18.7301C3.26313 18.7008 3.0465 18.4859 3.01696 18.2172V18.2099C3.00465 18.0951 2.84956 18.0658 2.79787 18.1684C2.75602 18.2563 2.73633 18.3564 2.74371 18.4614C2.7634 18.7472 2.99973 18.9817 3.28775 19.0012C3.3936 19.0085 3.49453 18.989 3.58069 18.9475C3.68654 18.8986 3.65454 18.7423 3.53884 18.7301H3.53391Z" fill="#485143"/>
<path d="M11.3077 19.0034C11.6326 19.0034 11.896 18.7421 11.896 18.4197C11.896 18.0973 11.6326 17.8359 11.3077 17.8359C10.9828 17.8359 10.7194 18.0973 10.7194 18.4197C10.7194 18.7421 10.9828 19.0034 11.3077 19.0034Z" fill="#747E6C"/>
<path d="M11.3623 17.2319C11.2638 17.227 11.1654 17.2344 11.0718 17.2539C10.966 17.2735 10.9857 17.4273 11.0915 17.4273H11.1087C11.766 17.4273 12.3076 17.9647 12.3076 18.6168V18.6339C12.3051 18.7389 12.4602 18.7584 12.4824 18.6534C12.4996 18.5606 12.5094 18.4653 12.5045 18.3652C12.4774 17.7546 11.9777 17.2588 11.3623 17.2319Z" fill="#485143"/>
<path d="M11.3544 17.8339C11.3224 17.8314 11.2904 17.8314 11.2584 17.8339C11.1968 17.8387 11.1993 17.9267 11.2608 17.9316H11.2682C11.5439 17.9584 11.768 18.1807 11.795 18.4542V18.4616C11.8 18.5226 11.8886 18.5226 11.8935 18.464C11.896 18.4322 11.896 18.4005 11.8935 18.3687C11.8713 18.0879 11.6399 17.8558 11.3544 17.8339Z" fill="#C4C1AB"/>
<path d="M11.5102 18.7301C11.2394 18.7008 11.0228 18.4859 10.9932 18.2172V18.2099C10.9809 18.0951 10.8258 18.0658 10.7741 18.1684C10.7323 18.2563 10.7126 18.3564 10.72 18.4614C10.7397 18.7472 10.976 18.9817 11.264 19.0012C11.3699 19.0085 11.4708 18.989 11.5569 18.9475C11.6628 18.8986 11.6308 18.7423 11.5151 18.7301H11.5102Z" fill="#485143"/>
</g>
<defs>
<clipPath id="clip0_6772_84057">
<rect width="12.6039" height="5.55779" fill="white" transform="translate(1.04065 13.8945)"/>
</clipPath>
</defs>
</svg>
