<svg width="16" height="16" viewBox="0 0 16 16" fill="none" xmlns="http://www.w3.org/2000/svg">
<path d="M8.00008 0.666672C3.95941 0.666672 0.666748 3.95934 0.666748 8.00001C0.666748 12.0407 3.95941 15.3333 8.00008 15.3333C12.0407 15.3333 15.3334 12.0407 15.3334 8.00001C15.3334 3.95934 12.0407 0.666672 8.00008 0.666672ZM11.5054 6.31334L7.34741 10.4713C7.24475 10.574 7.10541 10.6327 6.95875 10.6327C6.81208 10.6327 6.67275 10.574 6.57008 10.4713L4.49475 8.39601C4.28208 8.18334 4.28208 7.83134 4.49475 7.61867C4.70741 7.406 5.05941 7.406 5.27208 7.61867L6.95875 9.30534L10.7281 5.53601C10.9407 5.32334 11.2927 5.32334 11.5054 5.53601C11.7181 5.74867 11.7181 6.09334 11.5054 6.31334Z" fill="#06D6A0"/>
</svg>
