<svg width="89" height="57" viewBox="0 0 89 57" fill="none" xmlns="http://www.w3.org/2000/svg">
<path d="M41.0546 38.6835C41.0546 38.8653 41.0339 39.047 41.0339 39.2287C40.9121 41.2688 40.4888 43.1892 39.7805 44.9878C39.7599 45.0683 39.7206 45.1282 39.7 45.2108C36.9515 52.1222 30.2632 56.8922 22.1376 56.8922C15.1044 56.8922 8.63909 53.2744 4.63723 47.8188C4.59593 47.759 4.55668 47.7177 4.51538 47.6578C3.72658 46.5468 3.04102 45.374 2.43393 44.1205C2.37405 43.9987 2.33274 43.8975 2.2935 43.7778C1.30233 41.5559 0.676659 39.1502 0.494944 36.6434C0.393762 34.946 0.474299 33.3085 0.757196 31.7329C0.817079 31.4087 0.879018 31.1073 0.980201 30.7831C2.9006 22.4572 10.2146 16.3945 19.3912 16.3945C28.5679 16.3945 37.1746 22.8206 40.0035 31.5306C40.146 31.9353 40.2864 32.3586 40.3876 32.784C40.7304 34.0374 40.9328 35.3094 41.0339 36.6434C41.0752 37.331 41.0938 38.0186 41.0546 38.6835Z" fill="#DAE7F7"/>
<path d="M46.2109 37.9434C53.2725 37.9434 58.9971 32.2188 58.9971 25.1572C58.9971 18.0956 53.2725 12.3711 46.2109 12.3711C39.1493 12.3711 33.4248 18.0956 33.4248 25.1572C33.4248 32.2188 39.1493 37.9434 46.2109 37.9434Z" fill="#FDAE0E"/>
<path d="M46.2069 34.9862C51.6343 34.9862 56.034 30.5864 56.034 25.1591C56.034 19.7318 51.6343 15.332 46.2069 15.332C40.7796 15.332 36.3799 19.7318 36.3799 25.1591C36.3799 30.5864 40.7796 34.9862 46.2069 34.9862Z" fill="#FFC500"/>
<path d="M45.8406 30.5969C45.7601 30.5969 45.6919 30.568 45.6341 30.5122C45.5784 30.4544 45.5494 30.3863 45.5494 30.3078V29.4612C43.7137 29.2877 42.8175 28.2139 42.77 27.1773C42.77 27.0266 42.896 26.9233 43.0364 26.9233H44.1122C44.2547 26.9233 44.3848 26.975 44.4736 27.1525C44.7441 27.8732 45.4565 28.1189 46.2267 28.1189C47.0713 28.1189 47.9427 27.8856 47.9427 27.0431C47.9427 26.2006 46.8462 25.9982 45.7436 25.7257C44.1412 25.3354 43.0013 24.7903 43.0013 23.223C43.0013 22.112 43.7984 21.0548 45.5494 20.8421V20.0099C45.5494 19.8468 45.6775 19.7188 45.8406 19.7188H46.5778C46.7368 19.7188 46.8669 19.8447 46.8669 20.0099V20.8689C48.5271 21.1147 49.3696 22.2318 49.3923 23.0805C49.3923 23.2085 49.3035 23.3345 49.1383 23.3345H48.015C47.8168 23.3345 47.7135 23.2395 47.6536 23.1053C47.5504 22.4734 46.7988 22.1987 46.1545 22.1987C45.4029 22.1987 44.7172 22.4403 44.7172 23.1899C44.7172 24.0076 45.6259 24.2203 46.7224 24.5074C48.3929 24.8832 49.6587 25.3602 49.6587 26.9853C49.6587 28.5216 48.3908 29.3001 46.8669 29.4756V30.3098C46.8669 30.3904 46.8379 30.4585 46.7822 30.5143C46.7244 30.57 46.6562 30.5989 46.5778 30.5989H45.8406V30.5969Z" fill="#ED9D0F"/>
<path d="M74.937 13.1339C76.0208 8.54203 73.1769 3.94108 68.5851 2.85731C63.9933 1.77354 59.3923 4.61735 58.3085 9.20918C57.2248 13.801 60.0686 18.402 64.6604 19.4858C69.2523 20.5695 73.8532 17.7257 74.937 13.1339Z" fill="#FDAE0E"/>
<path d="M73.0085 12.6805C73.8416 9.15093 71.6556 5.61427 68.126 4.78121C64.5964 3.94814 61.0597 6.13414 60.2267 9.66375C59.3936 13.1934 61.5796 16.73 65.1092 17.5631C68.6388 18.3961 72.1755 16.2102 73.0085 12.6805Z" fill="#FFC500"/>
<path d="M66.3909 14.8116C66.2814 14.8116 66.1967 14.7228 66.1967 14.6175V14.0517C64.9639 13.936 64.3713 13.2154 64.3403 12.5257C64.3403 12.4245 64.425 12.3564 64.5179 12.3564H65.2365C65.3315 12.3564 65.4182 12.3894 65.4781 12.5092C65.6578 12.9862 66.1389 13.1555 66.649 13.1555C67.2127 13.1555 67.795 13.0006 67.795 12.4369C67.795 11.8732 67.062 11.7389 66.3248 11.5572C65.2531 11.297 64.4911 10.9315 64.4911 9.88462C64.4911 9.14124 65.0238 8.43502 66.1946 8.29461V7.73707C66.1946 7.62763 66.2793 7.54297 66.3888 7.54297H66.8823C66.9876 7.54297 67.0764 7.62763 67.0764 7.73707V8.31113C68.1853 8.47426 68.749 9.22177 68.7635 9.78756C68.7635 9.87429 68.7036 9.95689 68.5941 9.95689H67.8425C67.7103 9.95689 67.6401 9.89288 67.6009 9.80408C67.5307 9.38283 67.0289 9.19905 66.5994 9.19905C66.0976 9.19905 65.6392 9.36012 65.6392 9.8619C65.6392 10.4112 66.2504 10.5516 66.9793 10.7416C68.0944 10.9935 68.941 11.3115 68.941 12.3977C68.941 13.426 68.0903 13.9443 67.0764 14.062V14.6195C67.0764 14.7269 66.9897 14.8136 66.8823 14.8136H66.3888L66.3909 14.8116Z" fill="#ED9D0F"/>
<path d="M78.8869 37.726C83.6049 37.726 87.4296 33.9013 87.4296 29.1833C87.4296 24.4653 83.6049 20.6406 78.8869 20.6406C74.1689 20.6406 70.3442 24.4653 70.3442 29.1833C70.3442 33.9013 74.1689 37.726 78.8869 37.726Z" fill="#FDAE0E"/>
<path d="M83.5215 33.8268C86.0859 31.2624 86.0859 27.1048 83.5215 24.5404C80.9571 21.976 76.7994 21.976 74.235 24.5404C71.6707 27.1047 71.6706 31.2624 74.235 33.8268C76.7994 36.3912 80.9571 36.3912 83.5215 33.8268Z" fill="#FFC500"/>
<path d="M78.6315 32.8194C78.5221 32.8194 78.4374 32.7306 78.4374 32.6253V32.0595C77.2109 31.9438 76.612 31.2252 76.5811 30.5335C76.5811 30.4323 76.6657 30.3642 76.7587 30.3642H77.4773C77.5722 30.3642 77.659 30.3972 77.7188 30.517C77.8964 30.994 78.3755 31.1633 78.8896 31.1633C79.4534 31.1633 80.0357 31.0084 80.0357 30.4447C80.0357 29.9119 79.3853 29.7674 78.5655 29.565C77.4938 29.3048 76.7318 28.9394 76.7318 27.8924C76.7318 27.149 77.2645 26.4428 78.4354 26.3024V25.7449C78.4354 25.6354 78.5201 25.5508 78.6295 25.5508H79.123C79.2283 25.5508 79.3171 25.6354 79.3171 25.7449V26.3189C80.4157 26.4821 80.9897 27.2255 81.0042 27.7954C81.0042 27.8821 80.9443 27.9647 80.8349 27.9647H80.0832C79.951 27.9647 79.8808 27.9007 79.8416 27.8119C79.7714 27.3906 79.2696 27.2069 78.8401 27.2069C78.3383 27.2069 77.8799 27.3679 77.8799 27.8697C77.8799 28.4107 78.4746 28.5553 79.2201 28.7494C80.3578 29.0054 81.1818 29.3296 81.1818 30.4055C81.1818 31.4813 80.3331 31.9521 79.3171 32.0698V32.6273C79.3171 32.7347 79.2304 32.8214 79.123 32.8214H78.6295L78.6315 32.8194Z" fill="#ED9D0F"/>
<path d="M17.5635 31.3636L21.6273 30.4571C21.6273 30.4571 24.7433 27.5889 29.662 27.9399C34.0273 28.2517 39.2041 31.7745 41.5209 31.9088C43.8399 32.043 52.3557 31.1055 53.0247 35.2519C53.0247 35.2519 61.617 30.6657 64.3654 33.0527C64.3654 33.0527 66.4386 33.728 65.8976 35.351C65.3566 36.972 44.034 45.0356 41.0584 45.0356C34.3225 45.0356 23.7356 41.4942 19.1845 43.7017L17.5655 31.3616L17.5635 31.3636Z" fill="#FFBFAD"/>
<path d="M53.0255 35.25C53.263 36.9618 52.3008 38.4858 49.986 38.9029C45.8808 39.5017 38.6308 38.3866 34.4927 39.0846C38.8993 37.8374 45.8519 38.9194 49.9261 38.5209C52.0571 38.2545 53.0978 36.8813 53.0255 35.25Z" fill="#FAAC99"/>
<path d="M48.0657 33.7382C47.6156 33.8249 46.9011 36.2223 48.2123 37.387C48.8091 37.9177 51.7991 37.0297 51.8425 35.5327C51.8859 34.0356 49.2283 33.4223 48.0657 33.7362V33.7382Z" fill="white"/>
<path d="M16.4917 30.8366V30.8552C17.8752 38.1362 17.8711 44.6655 17.8855 44.8679L20.1549 44.5458C20.3346 39.3628 19.9402 34.537 18.8148 30.2109L16.4917 30.8366Z" fill="#88C4FC"/>
<path d="M17.7969 46.1388L4.51929 47.6545C3.73048 46.5436 3.04493 45.3707 2.43784 44.1173C2.37795 43.9954 2.33664 43.8943 2.29741 43.7745C1.30624 41.5526 0.680565 39.1469 0.49885 36.6401C0.397668 34.9427 0.478205 33.3052 0.761102 31.7297C0.820986 31.4055 0.882925 31.104 0.984107 30.7798L16.0603 29.1836C16.1408 29.1836 16.3019 29.8093 16.5042 30.8211V30.8417C17.196 34.6825 18.1851 42.6532 17.7969 46.1388Z" fill="#746F97"/>
<path d="M17.7925 46.1369L4.51485 47.6525C3.72604 46.5416 3.04049 45.3687 2.4334 44.1153C2.37351 43.9935 2.3322 43.8923 2.29297 43.7725L17.7925 41.9946C17.8131 41.9739 17.8131 41.9533 17.8131 41.9141C17.8895 42.9775 17.9205 44.9908 17.7925 46.1369Z" fill="#645F86"/>
</svg>
