<svg width="58" height="58" viewBox="0 0 58 58" fill="none" xmlns="http://www.w3.org/2000/svg">
<path d="M28.8943 57.7026C44.605 57.7026 57.3409 44.9848 57.3409 29.2966C57.3409 13.6084 44.605 0.890625 28.8943 0.890625C13.1837 0.890625 0.447754 13.6084 0.447754 29.2966C0.447754 44.9848 13.1837 57.7026 28.8943 57.7026Z" fill="#5ED37C"/>
<path d="M21.0438 42.2816L14.8198 36.0657C13.146 34.3919 13.146 31.67 14.8117 29.988C16.4855 28.3142 19.2156 28.3142 20.8894 29.9799L24.0745 33.165L36.88 20.3921C38.5538 18.7183 41.2757 18.7183 42.9496 20.3921C44.6234 22.0659 44.6234 24.796 42.9496 26.4617L27.1215 42.2734C25.4477 43.9473 22.7339 43.9554 21.0438 42.2816Z" fill="white"/>
</svg>
