<svg width="40" height="24" viewBox="0 0 40 24" fill="none" xmlns="http://www.w3.org/2000/svg">
<path d="M8.86608 8.31055H10.4397V9.70861H8.86608V8.31055Z" fill="#FEB630"/>
<path d="M34.7685 23.9889C32.0668 23.9889 29.8767 21.7992 29.8767 19.098C29.8767 16.3968 32.0668 14.207 34.7685 14.207C37.4702 14.207 39.6604 16.3968 39.6604 19.098C39.6604 21.7992 37.4702 23.9889 34.7685 23.9889Z" fill="#15144F"/>
<path d="M34.7619 22.1069C33.1102 22.1049 31.7728 20.7647 31.7748 19.1134C31.7768 17.4622 33.1175 16.1252 34.7692 16.1272C36.421 16.1292 37.7584 17.4695 37.7564 19.1207C37.7543 20.772 36.4137 22.109 34.7619 22.1069Z" fill="#D9E5F1"/>
<path d="M34.7606 21.5307C33.4243 21.5286 32.3427 20.4441 32.3448 19.1083C32.3469 17.7725 33.4319 16.6914 34.7682 16.6935C36.1045 16.6956 37.186 17.7801 37.1839 19.1159C37.1818 20.4517 36.0969 21.5328 34.7606 21.5307Z" fill="#EFF6FF"/>
<path d="M4.17265 19.1097C4.17265 21.8103 6.36298 23.9997 9.06451 23.9997C11.4086 23.9997 13.3669 22.3524 13.8454 20.153C13.9191 19.8174 13.9573 19.4681 13.9573 19.1097C13.9573 18.8814 13.9418 18.6558 13.9109 18.4366C13.8909 18.2829 13.8618 18.1319 13.8263 17.9827C13.7717 17.7444 13.6971 17.5133 13.608 17.2905C13.5807 17.2214 13.5507 17.1531 13.5207 17.0867C12.7502 15.3949 11.0447 14.2188 9.06542 14.2188C7.08612 14.2188 5.24599 15.4904 4.52377 17.2905C4.29819 17.8526 4.17356 18.4666 4.17356 19.1097H4.17265Z" fill="#15144F"/>
<path d="M9.06489 22.1187C7.41313 22.1166 6.07576 20.7764 6.07778 19.1251C6.0798 17.4739 7.42044 16.1369 9.0722 16.1389C10.724 16.1409 12.0614 17.4812 12.0593 19.1324C12.0573 20.7837 10.7167 22.1207 9.06489 22.1187Z" fill="#D9E5F1"/>
<path d="M9.06845 21.5346C7.73217 21.5325 6.65062 20.448 6.65272 19.1122C6.65482 17.7764 7.73977 16.6953 9.07605 16.6974C10.4123 16.6995 11.4939 17.784 11.4918 19.1198C11.4897 20.4556 10.4047 21.5367 9.06845 21.5346Z" fill="#EFF6FF"/>
<path d="M9.06584 20.4976C8.30929 20.4955 7.69771 19.8805 7.69983 19.1239C7.70194 18.3674 8.31694 17.7558 9.07349 17.7579C9.83005 17.76 10.4416 18.375 10.4395 19.1316C10.4374 19.8881 9.8224 20.4997 9.06584 20.4976Z" fill="#15144F"/>
<path d="M5.82336 17.9849C5.82336 18.3897 5.97982 18.7572 6.23633 19.0319C6.24815 19.0446 6.26179 19.0582 6.27361 19.0701C6.4619 19.2583 6.70114 19.3993 6.96856 19.4703C7.09318 19.5012 7.22414 19.5194 7.35785 19.5194H14.2099C14.9412 19.5194 15.5525 19.0073 15.7062 18.3224C15.9191 17.3527 15.185 16.4531 14.2099 16.4531H7.35785C7.20413 16.4531 7.05497 16.4759 6.91489 16.5186C6.80119 16.5523 6.69385 16.5987 6.59379 16.6569C6.13444 16.9207 5.82336 17.4173 5.82336 17.9858V17.9849Z" fill="#393982"/>
<path d="M9.24818 9.28533L13.1677 15.9909L13.9891 17.087L14.1419 17.2908L14.8605 18.2504C15.4244 19.0045 16.3195 19.4738 17.2909 19.4811C19.8278 19.5047 24.7624 19.5393 25.9649 19.4656C27.061 19.3983 27.9769 18.7898 28.4618 18.395C28.7019 18.1995 28.8365 18.0557 28.8365 18.0557L33.2954 13.1193L33.2563 12.6891L33.219 12.2888C33.1762 11.8149 32.9379 11.3783 32.5614 11.0863C29.6261 8.82143 28.7983 4.49899 28.7983 4.49899L26.7171 3.875C26.7171 3.875 28.2689 8.38937 28.6064 9.94206C29.657 14.7784 26.8108 16.3593 25.9713 16.4394C25.9713 16.4394 21.5078 16.7323 20.0588 16.4394C15.1406 15.4434 18.447 11.7012 19.6004 10.386C19.8678 10.0803 20.0143 9.6892 20.0143 9.28351H9.24818V9.28533Z" fill="#EFF6FF"/>
<path d="M11.8848 9.20658V9.28026H20.0139V8.90641C20.0139 7.63934 18.9342 6.64241 17.6717 6.74337L13.8832 7.04264C12.7544 7.13087 11.8839 8.07322 11.8839 9.20568L11.8848 9.20658Z" fill="#15144F"/>
<g opacity="0.15">
<path d="M7.03218 17.9764H13.7132C13.9115 17.9764 14.0725 17.8154 14.0725 17.6171C14.0725 17.4188 13.9115 17.2578 13.7132 17.2578H7.03218C6.83388 17.2578 6.67289 17.4188 6.67289 17.6171C6.67289 17.8154 6.83388 17.9764 7.03218 17.9764Z" fill="white"/>
</g>
<path d="M28.3555 18.373C28.3555 18.373 29.6835 18.6941 30.5076 18.1638C31.3326 17.6326 31.2816 16.7503 32.898 16.1236C34.5035 15.5014 36.6993 16.7803 39.1879 15.0894C39.2252 14.6491 35.6587 11.5928 32.2131 12.9791C30.4275 13.6977 29.6553 16.2209 28.3555 18.3721V18.373Z" fill="#D9E5F1"/>
<path d="M25.5657 2.81627C25.5657 3.29291 25.7603 3.72497 26.0714 4.03787C26.3843 4.35078 26.8182 4.54361 27.293 4.54361H28.7993V1.08984H27.293C26.3406 1.08984 25.5657 1.86301 25.5657 2.81718V2.81627Z" fill="#D9E5F1"/>
<path d="M29.5332 1.33489V4.28656C30.2791 4.20834 30.8604 3.57707 30.8604 2.81027C30.8604 2.04348 30.2791 1.41312 29.5332 1.33398V1.33489Z" fill="#FEB630"/>
<path d="M28.7936 1.08685V4.54153H29.4431C29.5804 4.54153 29.6914 4.43055 29.6914 4.2932V1.33426C29.6914 1.19691 29.5804 1.08594 29.4431 1.08594H28.7936V1.08685Z" fill="#29265D"/>
<path d="M23.2368 3.1798C23.2368 3.33989 23.3014 3.48543 23.4069 3.59004C23.5115 3.69464 23.6571 3.76013 23.8172 3.76013H26.2567C26.5778 3.76013 26.8389 3.50089 26.8389 3.1798C26.8389 3.01789 26.7743 2.87236 26.6669 2.76775C26.5623 2.66315 26.4168 2.59766 26.2567 2.59766H23.8172C23.4961 2.59766 23.2368 2.85689 23.2368 3.1798Z" fill="#29265D"/>
<path d="M1.58751 13.1396C1.57296 13.357 1.86859 13.5226 2.25244 13.6235C2.93101 12.4574 3.91337 11.2513 5.31689 10.4062C5.26778 10.4099 4.1426 10.4945 3.50315 10.9456C2.84914 11.4068 1.61116 12.7876 1.58751 13.1396Z" fill="#EFF6FF"/>
<path d="M0.000137329 7.90632C0.000137329 8.01912 0.0465345 8.12372 0.121121 8.19558C0.195709 8.27017 0.295759 8.31656 0.41037 8.31656H10.9345C11.1601 8.31656 11.3447 8.13373 11.3447 7.90632C11.3447 7.67892 11.1601 7.49609 10.9345 7.49609H0.41037C0.182969 7.49609 0.000137329 7.68074 0.000137329 7.90632Z" fill="#29265D"/>
<path d="M1.70142 9.6829C2.08982 9.6829 2.40454 9.36818 2.40454 8.97978V8.32031H0.998296V8.97978C0.998296 9.36818 1.31302 9.6829 1.70142 9.6829Z" fill="#FEB630"/>
<path d="M1.7002 9.42676C1.46208 9.42676 1.26904 9.23373 1.26904 8.99561C1.26904 8.75749 1.46208 8.56445 1.7002 8.56445C1.93831 8.56445 2.13135 8.75749 2.13135 8.99561C2.13135 9.23373 1.93831 9.42676 1.7002 9.42676Z" fill="#FC942C"/>
<path d="M6.0544 10.5907C6.09988 10.467 6.0362 10.3296 5.9125 10.2841L1.78199 8.77055C1.65828 8.72507 1.52092 8.78874 1.47544 8.91245C1.42996 9.03615 1.49364 9.17351 1.61735 9.21899L5.74785 10.7326C5.87247 10.778 6.00892 10.7135 6.0544 10.5907Z" fill="#29265D"/>
<path d="M34.7692 20.4722C34.0127 20.4701 33.4011 19.8551 33.4032 19.0985C33.4053 18.342 34.0203 17.7304 34.7769 17.7325C35.5334 17.7346 36.145 18.3496 36.1429 19.1062C36.1408 19.8627 35.5258 20.4743 34.7692 20.4722Z" fill="#15144F"/>
<path d="M1.98479 17.2803H15.2286C15.7407 17.2803 16.1501 16.841 16.1018 16.3316C15.7125 12.2138 12.8245 9.42767 9.87015 9.27486C9.78465 9.27122 9.70005 9.26758 9.61454 9.26758C9.49084 9.26758 9.36986 9.27122 9.24797 9.27486C7.66981 9.33216 6.37726 9.76331 5.32121 10.3991C4.62082 10.823 4.0232 11.3342 3.51746 11.8872C3.01172 12.4403 2.59513 13.0324 2.25585 13.6164C1.71282 14.5506 1.36443 15.4602 1.15158 16.1387C0.974207 16.7045 1.39264 17.2803 1.9857 17.2803H1.98479Z" fill="#D9E5F1"/>
<path d="M5.03454 15.8601C5.03454 16.022 5.16644 16.1557 5.33016 16.1557H12.385C12.5488 16.1557 12.6807 16.022 12.6807 15.8601C12.6807 15.6982 12.5488 15.5645 12.385 15.5645H5.33016C5.16644 15.5645 5.03454 15.6963 5.03454 15.8601Z" fill="#EFF6FF"/>
<path d="M5.03454 14.8054C5.03454 14.9673 5.16644 15.101 5.33016 15.101H12.385C12.5488 15.101 12.6807 14.9673 12.6807 14.8054C12.6807 14.6435 12.5488 14.5098 12.385 14.5098H5.33016C5.16644 14.5098 5.03454 14.6417 5.03454 14.8054Z" fill="#EFF6FF"/>
<path d="M5.03454 13.7527C5.03454 13.9146 5.16644 14.0483 5.33016 14.0483H12.385C12.5488 14.0483 12.6807 13.9146 12.6807 13.7527C12.6807 13.5907 12.5488 13.457 12.385 13.457H5.33016C5.16644 13.457 5.03454 13.5889 5.03454 13.7527Z" fill="#EFF6FF"/>
<path d="M0.1634 0H3.65356V7.48332H0.1634V0Z" fill="#FAA763"/>
<path d="M2.38189 0H10.6575V7.48332H2.38189V0Z" fill="#FFD5A9"/>
<path d="M3.50441 2.66211H9.53418V5.30906H3.50441V2.66211Z" fill="#FAA763"/>
<path d="M4.21926 3.29297H8.81641V3.54129H4.21926V3.29297Z" fill="#DD7D33"/>
<path d="M4.21926 3.86328H8.81641V4.1116H4.21926V3.86328Z" fill="#DD7D33"/>
<path d="M7.21369 4.43359H8.81641V4.68192H7.21369V4.43359Z" fill="#DD7D33"/>
<path d="M5.79156 0H7.21875V1.2789H5.79156V0Z" fill="#FAA763"/>
</svg>
