<svg width="40" height="32" viewBox="0 0 40 32" fill="none" xmlns="http://www.w3.org/2000/svg">
<path d="M22.0123 11.0926C21.9429 11.0125 21.857 10.9482 21.7606 10.9041C21.6641 10.86 21.5592 10.8372 21.4531 10.8371H17.0156C16.6071 10.8331 16.2728 11.1603 16.2688 11.5681C16.2684 11.6051 16.2709 11.642 16.2761 11.6787L17.7552 22.0141C17.7803 22.1915 17.8692 22.3537 18.0053 22.4706C18.1414 22.5874 18.3154 22.6508 18.4948 22.649H19.974C20.1534 22.6508 20.3274 22.5873 20.4635 22.4705C20.5996 22.3537 20.6885 22.1915 20.7136 22.0141L22.1928 11.6787C22.2065 11.5738 22.1975 11.4672 22.1663 11.3661C22.1352 11.2649 22.0827 11.1717 22.0123 11.0926Z" fill="#90A4AE"/>
<path d="M22.9327 21.1737H15.5368C13.4945 21.1737 11.8388 22.8263 11.8388 24.8649C11.8388 25.2726 12.17 25.6031 12.5784 25.6031H25.8911C26.2995 25.6031 26.6307 25.2726 26.6307 24.8649C26.6306 22.8263 24.975 21.1737 22.9327 21.1737Z" fill="#455A64"/>
<path d="M8.14162 7.88457H30.3293C30.7378 7.88457 31.069 8.21512 31.069 8.62284V11.5758C31.069 11.9836 30.7378 12.3141 30.3293 12.3141H8.14162C7.73316 12.3141 7.40201 11.9836 7.40201 11.5758V8.62284C7.40208 8.21512 7.73316 7.88457 8.14162 7.88457Z" fill="#ECBD2E"/>
<path d="M2.2244 25.6009C2.17472 25.6012 2.12515 25.5963 2.07651 25.5862C1.6763 25.5047 1.41795 25.1148 1.49956 24.7154L1.49963 24.7151L2.95368 17.4566L1.48479 7.24813C1.42419 6.84491 1.7025 6.46903 2.10646 6.40854L2.12081 6.40653C2.52837 6.35289 2.90369 6.63555 2.96395 7.0414L4.4431 17.3768C4.45683 17.4589 4.45683 17.5428 4.4431 17.6249L2.96401 25.0074C2.93005 25.1772 2.83737 25.3297 2.70216 25.4382C2.56696 25.5467 2.39785 25.6043 2.2244 25.6009Z" fill="#8CA6D9"/>
<path d="M9.62013 25.6011C9.21167 25.6011 8.88052 25.2706 8.88052 24.8629V18.2187H3.70336C3.2949 18.2187 2.96375 17.8881 2.96375 17.4804C2.96375 17.0727 3.2949 16.7421 3.70336 16.7421H9.62006C10.0285 16.7421 10.3597 17.0727 10.3597 17.4804V24.8629C10.3597 25.2706 10.0286 25.6011 9.62013 25.6011ZM28.8495 25.6011C28.441 25.6011 28.1099 25.2706 28.1099 24.8629V17.4805C28.1099 17.0727 28.441 16.7422 28.8495 16.7422H34.7662C35.1746 16.7422 35.5058 17.0727 35.5058 17.4805C35.5058 17.8882 35.1746 18.2187 34.7662 18.2187H29.589V24.8629C29.5891 25.2706 29.2579 25.6011 28.8495 25.6011Z" fill="#8CA6D9"/>
<path d="M36.2456 25.5995C36.0753 25.5992 35.9104 25.5403 35.7786 25.4327C35.6468 25.3251 35.5563 25.1754 35.5222 25.0089L34.0431 17.6265C34.0293 17.5443 34.0293 17.4605 34.0431 17.3784L35.5222 7.04298C35.5782 6.64128 35.9455 6.35794 36.3491 6.40514C36.7541 6.45774 37.0398 6.82808 36.9871 7.23241L36.9851 7.24674L35.5237 17.4581L36.9703 24.7136C37.0501 25.1135 36.7899 25.5022 36.3893 25.5817L36.389 25.5818C36.3419 25.5926 36.2939 25.5985 36.2456 25.5995Z" fill="#8CA6D9"/>
</svg>
