<svg width="57" height="30" viewBox="0 0 57 30" fill="none" xmlns="http://www.w3.org/2000/svg">
<path d="M32.831 7.3328C32.7228 7.20763 32.5889 7.1072 32.4384 7.03833C32.2879 6.96946 32.1244 6.93376 31.9589 6.93365H25.0379C24.4008 6.92738 23.8794 7.43867 23.8731 8.07573C23.8726 8.13359 23.8763 8.19134 23.8845 8.24865L26.1914 24.3977C26.2306 24.6749 26.3692 24.9284 26.5815 25.1109C26.7937 25.2934 27.0651 25.3925 27.345 25.3897H29.652C29.9319 25.3925 30.2032 25.2934 30.4155 25.1109C30.6277 24.9284 30.7663 24.6749 30.8055 24.3977L33.1125 8.24865C33.1339 8.08474 33.1199 7.91814 33.0713 7.76013C33.0227 7.60212 32.9408 7.45639 32.831 7.3328Z" fill="#90A4AE"/>
<path d="M34.2675 23.084H22.7324C19.547 23.084 16.9648 25.6662 16.9648 28.8515C16.9648 29.4886 17.4813 30.005 18.1184 30.005H38.8816C39.5186 30.005 40.0351 29.4886 40.0351 28.8515C40.035 25.6662 37.4528 23.084 34.2675 23.084Z" fill="#455A64"/>
<path d="M11.1985 2.32031H45.8037C46.4408 2.32031 46.9573 2.8368 46.9573 3.47386V8.08793C46.9573 8.72499 46.4408 9.24148 45.8037 9.24148H11.1985C10.5614 9.24148 10.0449 8.72499 10.0449 8.08793V3.47386C10.045 2.8368 10.5614 2.32031 11.1985 2.32031Z" fill="#ECBD2E"/>
<path d="M1.9692 30.0014C1.89172 30.0019 1.8144 29.9941 1.73854 29.9784C1.11434 29.8511 0.711409 29.2419 0.838692 28.6177L0.8388 28.6173L3.10664 17.276L0.815658 1.3252C0.721142 0.695169 1.15522 0.107853 1.78525 0.0133373L1.80764 0.0102012C2.4433 -0.0736084 3.02867 0.368041 3.12264 1.00218L5.42962 17.1513C5.45103 17.2796 5.45103 17.4105 5.42962 17.5389L3.12275 29.074C3.06978 29.3393 2.92522 29.5776 2.71435 29.7471C2.50348 29.9167 2.23972 30.0067 1.9692 30.0014Z" fill="#8CA6D9"/>
<path d="M13.5047 30.0024C12.8677 30.0024 12.3512 29.4859 12.3512 28.8488V18.4672H4.27659C3.63953 18.4672 3.12305 17.9508 3.12305 17.3137C3.12305 16.6766 3.63953 16.1602 4.27659 16.1602H13.5046C14.1417 16.1602 14.6582 16.6766 14.6582 17.3137V28.8488C14.6582 29.4859 14.1418 30.0024 13.5047 30.0024ZM43.4959 30.0024C42.8589 30.0024 42.3424 29.4859 42.3424 28.8488V17.3138C42.3424 16.6767 42.8589 16.1603 43.4959 16.1603H52.724C53.361 16.1603 53.8775 16.6767 53.8775 17.3138C53.8775 17.9509 53.361 18.4674 52.724 18.4674H44.6494V28.8489C44.6495 29.4859 44.133 30.0024 43.4959 30.0024Z" fill="#8CA6D9"/>
<path d="M55.0313 29.9992C54.7657 29.9988 54.5085 29.9067 54.303 29.7386C54.0974 29.5705 53.9562 29.3366 53.9031 29.0765L51.5961 17.5413C51.5747 17.413 51.5747 17.2821 51.5961 17.1537L53.9031 1.00466C53.9904 0.377002 54.5633 -0.0657287 55.1927 0.00802378C55.8245 0.0902113 56.27 0.668876 56.1878 1.30064L56.1847 1.32302L53.9054 17.2783L56.1617 28.615C56.286 29.2399 55.8803 29.8472 55.2554 29.9714L55.255 29.9715C55.1816 29.9884 55.1066 29.9977 55.0313 29.9992Z" fill="#8CA6D9"/>
</svg>
