<svg width="110" height="53" viewBox="0 0 110 53" fill="none" xmlns="http://www.w3.org/2000/svg">
<path d="M93.544 14.6023L91.3354 14.2984C93.0851 13.6441 97.7405 11.4511 97.7477 9.30808C97.7501 8.71453 97.3556 8.18535 96.7298 8.18416C96.0707 8.18177 95.6726 8.8075 95.6715 9.43323C95.6703 9.92785 96.1959 10.5226 96.5236 10.8539L94.8395 11.4415C94.3473 10.8134 93.8884 10.0864 93.8908 9.29497C93.8968 7.61325 95.1864 6.23307 96.9015 6.23903C98.4843 6.2438 99.6666 7.50122 99.6618 9.08401C99.6511 12.1161 95.9527 13.7859 93.544 14.6023Z" fill="#4E5356"/>
<path d="M14.5891 44.1629C16.8068 44.1629 18.6045 42.3651 18.6045 40.1475C18.6045 37.9298 16.8068 36.1321 14.5891 36.1321C12.3715 36.1321 10.5737 37.9298 10.5737 40.1475C10.5737 42.3651 12.3715 44.1629 14.5891 44.1629Z" fill="#47ada9"/>
<path d="M66.391 33.5778C64.2087 33.6088 62.465 35.4025 62.496 37.5848C62.527 39.7671 64.3637 44.5418 66.546 44.5108C68.7283 44.4798 70.4291 39.6551 70.3993 37.4728C70.3671 35.2905 68.5733 33.5468 66.391 33.5778ZM66.4864 40.3154C64.9477 40.3369 63.6831 39.1069 63.6605 37.5682C63.6378 36.0295 64.869 34.7649 66.4077 34.7422C67.9464 34.7208 69.211 35.9508 69.2336 37.4895C69.2551 39.0282 68.0251 40.2939 66.4864 40.3154Z" fill="#4E5356"/>
<path d="M24.3394 44.1617C26.5564 44.1617 28.3536 42.3645 28.3536 40.1475C28.3536 37.9305 26.5564 36.1333 24.3394 36.1333C22.1224 36.1333 20.3252 37.9305 20.3252 40.1475C20.3252 42.3645 22.1224 44.1617 24.3394 44.1617Z" fill="#47ada9"/>
<path d="M49.6597 0.957764L34.8282 25.9535C34.4634 26.5733 35.7661 34.9056 36.871 35.9175V35.9163C37.4884 36.809 38.517 37.3942 39.685 37.3942H43.5812C42.5097 36.8257 41.8137 36.1416 41.6337 35.3025H39.6612C38.9329 35.3025 38.3418 34.7125 38.3418 33.9831V33.9641C38.3418 33.2358 38.9329 32.6447 39.6612 32.6447H43.5288C44.257 32.6447 44.8481 33.2346 44.8481 33.9641L46.9244 33.9736C46.9244 32.0845 45.3928 30.5529 43.5037 30.5529H40.1141L51.1674 12.2697C53.0899 9.12322 52.6906 2.89573 49.6597 0.957764Z" fill="#47ada9"/>
<path d="M106.631 16.0039L98.5677 29.5733C98.203 30.1931 97.5367 30.5745 96.818 30.5745H94.1363L95.2901 28.59C97.2137 25.4423 95.8514 20.9871 92.8193 19.0492L86.8564 29.5745C86.4917 30.1943 85.8255 30.5757 85.1056 30.5757H82.4239L83.5776 28.5912C85.5013 25.4435 84.139 20.9883 81.1069 19.0503L75.144 29.5757C74.7793 30.1955 74.113 30.5769 73.3943 30.5769H68.2526L69.4064 28.5924C71.33 25.4447 69.9677 20.9895 66.9356 19.0515L60.9727 29.5769C60.608 30.1967 59.9418 30.5781 59.2231 30.5781H54.2494L65.3147 12.2746C67.2384 9.12689 66.8391 2.8994 63.807 0.961426L46.8277 29.5781C46.5106 30.1168 45.9695 30.4899 45.3581 30.559C45.2878 30.5673 45.1221 30.5792 45.0768 30.5792C45.0768 30.5792 45.3677 30.6698 45.4594 30.7127C46.4236 31.1585 46.9731 31.8843 47.1376 32.6507H49.1101C49.8383 32.6507 50.4295 33.2407 50.4295 33.9701V33.9892C50.4295 34.7174 49.8383 35.3086 49.1101 35.3086H45.2711C44.5429 35.3086 43.9517 34.7186 43.9517 33.9892L41.8755 33.9796C41.8755 35.8687 43.407 37.4003 45.2961 37.4003H49.0851C49.1125 37.4003 49.1387 37.3967 49.1661 37.3967L49.1637 37.4003C49.1804 37.4003 49.1971 37.3943 49.2138 37.3943C51.0433 37.3264 52.5057 35.8258 52.5057 33.9808C52.5057 33.9248 52.4998 33.8712 52.4974 33.8163L54.2697 36.6101C54.582 37.1035 55.1254 37.4015 55.7095 37.4015H61.6175C61.6175 37.3943 61.6163 37.3872 61.6163 37.38C61.6163 34.715 63.7772 32.5542 66.4422 32.5542C69.0881 32.5542 71.2347 34.684 71.2645 37.3228C71.4218 37.3705 71.5839 37.4015 71.7519 37.4015H77.4812C78.0748 37.4015 78.6266 37.0928 78.9365 36.585L80.4061 34.0571L82.0258 36.6101C82.3381 37.1035 82.8816 37.4015 83.4656 37.4015H89.1949C89.7884 37.4015 90.3403 37.0928 90.6501 36.585L92.1197 34.0571L93.7394 36.6101C94.0517 37.1035 94.5952 37.4015 95.1792 37.4015H100.909C101.502 37.4015 102.054 37.0928 102.364 36.585L108.143 27.3243C110.061 24.1706 109.663 17.9419 106.631 16.0039Z" fill="#4E5356"/>
<path d="M16.3554 7.52262C14.1731 7.55361 12.4294 9.34737 12.4604 11.5297C12.4914 13.712 14.328 18.4866 16.5103 18.4556C18.6926 18.4246 20.3934 13.5999 20.3636 11.4176C20.3326 9.23533 18.5377 7.49164 16.3554 7.52262ZM16.4507 14.2602C14.912 14.2817 13.6475 13.0517 13.6248 11.513C13.6034 9.97429 14.8334 8.70972 16.3721 8.68707C17.9108 8.66562 19.1753 9.89562 19.198 11.4343C19.2194 12.973 17.9894 14.2376 16.4507 14.2602Z" fill="#47ada9"/>
<path d="M35.9126 19.7904C31.7625 12.5105 29.3597 8.50582 28.7054 7.77759C27.3669 8.05052 22.7187 18.1373 21.5482 20.7212C21.3778 21.0967 21.3993 21.5305 21.6007 21.8904C23.3515 25.0155 24.2276 26.8272 24.2276 27.3253V27.435C24.2276 27.8533 23.8628 28.6543 23.1358 29.8378C22.8259 30.3467 21.9892 30.6018 20.6245 30.6018H12.8715C12.0539 30.6018 11.4579 30.4647 11.073 30.1989L17.4971 19.3709C17.1848 19.5413 16.8606 19.6378 16.5281 19.6426C14.7594 19.6676 13.179 17.1015 12.3077 14.5986L1.60478 32.3014C-0.318883 35.4491 0.0803912 41.6766 3.11249 43.6146L8.94071 33.7912C9.68801 35.0784 10.4353 36.0236 11.1826 36.6159C12.0622 35.6839 13.3065 35.0987 14.6891 35.0987C16.4161 35.0987 17.9274 36.0093 18.7795 37.3728H20.2491C21.1013 36.0093 22.6126 35.0987 24.3396 35.0987C25.454 35.0987 26.4766 35.4801 27.293 36.1142C28.0737 35.0963 28.9926 33.4623 30.051 31.2096C30.1678 30.9605 30.2 30.6745 30.1404 30.4051L30.0534 30.0154C30.0272 29.8974 29.9807 29.7806 29.9199 29.6757C28.355 26.9761 27.4337 25.2527 27.156 24.5066C27.0868 24.3218 27.069 24.124 27.0916 23.9285L27.1488 23.4113C27.1667 23.2551 27.2144 23.099 27.2859 22.9596C28.6339 20.3553 29.5886 18.7415 30.1487 18.1182C30.3335 17.9132 30.66 17.9311 30.8281 18.1492C31.5682 19.1134 34.3441 24.0894 34.3441 24.0894L36.027 21.1193C36.2261 20.7677 36.2249 20.3375 36.0246 19.9882L35.9126 19.7904Z" fill="#47ada9"/>
<path d="M28.8804 49.8385H26.4049V50.6501H28.7624C29.1319 50.6501 29.3822 50.7133 29.5121 50.8396C29.642 50.966 29.7064 51.2008 29.7064 51.544V52.0625C29.7064 52.4058 29.6408 52.6406 29.5121 52.7669C29.3822 52.8932 29.1319 52.9564 28.7624 52.9564H26.4264C26.0569 52.9564 25.8066 52.8932 25.6767 52.7669C25.5468 52.6406 25.4824 52.4058 25.4824 52.0625V51.9588L26.2583 51.7979V52.2449H28.9305V51.3831H26.573C26.2059 51.3831 25.9568 51.32 25.8293 51.1936C25.7005 51.0673 25.6362 50.8325 25.6362 50.4892V50.0709C25.6362 49.7276 25.7005 49.4928 25.8293 49.3665C25.958 49.2402 26.2059 49.177 26.573 49.177H28.7195C29.0747 49.177 29.3202 49.2378 29.4549 49.3594C29.5896 49.4809 29.6575 49.6967 29.6575 50.0065V50.0852L28.8816 50.2676V49.8385H28.8804Z" fill="#4E5356"/>
<path d="M33.8769 49.176V52.2451H36.3846V49.176H37.2606V52.0627C37.2606 52.4084 37.1962 52.6443 37.0675 52.7695C36.9388 52.8946 36.6909 52.9578 36.3238 52.9578H33.9341C33.5694 52.9578 33.3215 52.8946 33.1916 52.7695C33.0616 52.6443 32.9961 52.4084 32.9961 52.0627V49.176H33.8769Z" fill="#4E5356"/>
<path d="M40.6606 52.9566V49.1748H43.9025C44.2005 49.1748 44.4162 49.2332 44.5497 49.35C44.6832 49.4668 44.7499 49.6527 44.7499 49.9078V50.369C44.7499 50.5502 44.6939 50.6956 44.5819 50.8041C44.4698 50.9125 44.3089 50.9805 44.0992 51.0067C44.3173 51.0353 44.4841 51.1128 44.6021 51.2391C44.7201 51.3655 44.7797 51.5299 44.7797 51.7325V52.2153C44.7797 52.4655 44.688 52.6515 44.5044 52.773C44.3209 52.8946 44.042 52.9554 43.6665 52.9554H40.6606V52.9566ZM43.5342 49.791H41.5271V50.692H43.5342C43.6868 50.692 43.7917 50.6718 43.8501 50.6313C43.9085 50.5907 43.9383 50.5204 43.9383 50.4203V50.0627C43.9383 49.965 43.9085 49.8959 43.8501 49.8542C43.7917 49.8113 43.6868 49.791 43.5342 49.791ZM43.5342 51.3142H41.5271V52.2772H43.5342C43.7011 52.2772 43.8131 52.2522 43.8715 52.2021C43.9299 52.1521 43.9597 52.0639 43.9597 51.9375V51.6515C43.9597 51.5252 43.9299 51.437 43.8715 51.3881C43.8131 51.3392 43.7011 51.3142 43.5342 51.3142Z" fill="#4E5356"/>
<path d="M47.8643 50.0699C47.8643 49.7267 47.9286 49.4919 48.0573 49.3655C48.1861 49.2392 48.434 49.176 48.8011 49.176H51.5841C51.9512 49.176 52.2003 49.2392 52.3278 49.3655C52.4565 49.4919 52.5209 49.7267 52.5209 50.0699V52.0627C52.5209 52.4084 52.4565 52.6443 52.3278 52.7695C52.1991 52.8946 51.9512 52.9578 51.5841 52.9578H48.8023C48.4352 52.9578 48.1861 52.8946 48.0585 52.7695C47.9298 52.6443 47.8655 52.4084 47.8655 52.0627V50.0699H47.8643ZM48.7439 52.2451H51.6449V49.8518H48.7439V52.2451Z" fill="#4E5356"/>
<path d="M55.8403 52.9566V49.1748H56.7199V52.2439H59.5566V52.9554H55.8403V52.9566Z" fill="#4E5356"/>
<path d="M61.459 52.9566L63.5984 49.1748H64.4458L66.6138 52.9566H65.6269L65.1728 52.1306H62.776L62.3362 52.9566H61.459ZM63.1514 51.4477H64.8081L63.9917 49.909L63.1514 51.4477Z" fill="#47ada9"/>
<path d="M68.312 52.9566L70.4514 49.1748H71.2988L73.4668 52.9566H72.48L72.0259 52.1306H69.629L69.1892 52.9566H68.312ZM70.0045 51.4477H71.6611L70.8447 49.909L70.0045 51.4477Z" fill="#47ada9"/>
<path d="M76.8031 52.9566V51.2641L74.8389 49.1748H76.0117L77.3108 50.6277L78.6123 49.1748H79.648L77.691 51.2427V52.9566H76.8031Z" fill="#47ada9"/>
<path d="M85.4127 49.8375H82.9371V50.6492H85.2947C85.6641 50.6492 85.9144 50.7123 86.0443 50.8387C86.1743 50.965 86.2386 51.1998 86.2386 51.5431V52.0615C86.2386 52.4048 86.1731 52.6396 86.0443 52.7659C85.9144 52.8923 85.6641 52.9554 85.2947 52.9554H82.9586C82.5891 52.9554 82.3388 52.8923 82.2089 52.7659C82.079 52.6396 82.0146 52.4048 82.0146 52.0615V51.9578L82.7906 51.7969V52.2439H85.4627V51.3822H83.1052C82.7381 51.3822 82.489 51.319 82.3615 51.1927C82.2328 51.0663 82.1684 50.8315 82.1684 50.4883V50.0699C82.1684 49.7267 82.2328 49.4919 82.3615 49.3655C82.4902 49.2392 82.7381 49.176 83.1052 49.176H85.2518C85.6069 49.176 85.8525 49.2368 85.9871 49.3584C86.1218 49.4799 86.1898 49.6957 86.1898 50.0056V50.0842L85.4138 50.2666V49.8375H85.4127Z" fill="#47ada9"/>
<path d="M20.8544 50.7576H0.430664V51.4441H20.8544V50.7576Z" fill="#4E5356"/>
<path d="M109.356 50.7576H88.9326V51.4441H109.356V50.7576Z" fill="#47ada9"/>
</svg>
