<svg width="20" height="20" viewBox="0 0 20 20" fill="none" xmlns="http://www.w3.org/2000/svg">
<g clip-path="url(#clip0_797_12946)">
<path d="M18.8423 5.66034C18.8154 5.33916 18.6685 5.0399 18.4307 4.82229C18.193 4.60468 17.8819 4.48472 17.5596 4.48634H16.0656C15.8643 -1.29432 7.5316 -1.29032 7.33227 4.48634H5.84227C5.51861 4.48519 5.20647 4.60644 4.96846 4.82578C4.73045 5.04512 4.58417 5.34633 4.55893 5.66901C4.5576 6.10501 4.2936 6.93501 4.97027 6.99634C5.64493 7.02168 5.49893 6.18234 5.5556 5.74968C5.56252 5.67829 5.59566 5.61199 5.6486 5.56361C5.70155 5.51522 5.77054 5.48817 5.84227 5.48768H7.3316V6.81368C7.3316 6.94629 7.38428 7.07346 7.47805 7.16723C7.57182 7.261 7.69899 7.31368 7.8316 7.31368C7.96421 7.31368 8.09139 7.261 8.18515 7.16723C8.27892 7.07346 8.3316 6.94629 8.3316 6.81368V5.48634H15.0703V6.81234C15.0703 6.94495 15.1229 7.07213 15.2167 7.1659C15.3105 7.25967 15.4377 7.31234 15.5703 7.31234C15.7029 7.31234 15.8301 7.25967 15.9238 7.1659C16.0176 7.07213 16.0703 6.94495 16.0703 6.81234V5.48634H17.5589C17.6294 5.48557 17.6977 5.51098 17.7505 5.55766C17.8034 5.60433 17.837 5.66896 17.8449 5.73901L18.6223 16.8763C18.7123 17.9137 17.9296 18.8543 16.8649 18.8497H6.5276C6.28638 18.8494 6.04778 18.7996 5.82661 18.7033C5.60544 18.607 5.40642 18.4663 5.24189 18.2899C5.07736 18.1135 4.95084 17.9052 4.87017 17.6778C4.7895 17.4505 4.7564 17.209 4.77293 16.9683C4.81893 16.3157 3.80893 16.2443 3.77293 16.9017C3.65693 18.4883 4.93693 19.857 6.5276 19.8497H16.8649C18.4563 19.857 19.7336 18.485 19.6169 16.899C19.6496 16.779 18.8343 5.77834 18.8423 5.66034ZM8.3376 4.48634C8.55027 0.120344 14.8549 0.122344 15.0649 4.48634H8.3376Z" fill="#BDC1DF"/>
<path d="M5.79833 11.7173C5.79833 11.5847 5.74565 11.4575 5.65189 11.3638C5.55812 11.27 5.43094 11.2173 5.29833 11.2173H0.875C0.742392 11.2173 0.615215 11.27 0.521447 11.3638C0.427678 11.4575 0.375 11.5847 0.375 11.7173C0.375 11.8499 0.427678 11.9771 0.521447 12.0709C0.615215 12.1646 0.742392 12.2173 0.875 12.2173H5.29833C5.43094 12.2173 5.55812 12.1646 5.65189 12.0709C5.74565 11.9771 5.79833 11.8499 5.79833 11.7173ZM2.80233 9.44531H6.41633C7.069 9.44265 7.071 8.44798 6.41633 8.44531H2.80233C2.14967 8.44798 2.14767 9.44265 2.80233 9.44531ZM6.91633 14.49C6.91633 14.3574 6.86366 14.2302 6.76989 14.1364C6.67612 14.0427 6.54894 13.99 6.41633 13.99H2.80233C2.66973 13.99 2.54255 14.0427 2.44878 14.1364C2.35501 14.2302 2.30233 14.3574 2.30233 14.49C2.30233 14.6226 2.35501 14.7498 2.44878 14.8435C2.54255 14.9373 2.66973 14.99 2.80233 14.99H6.41633C6.54894 14.99 6.67612 14.9373 6.76989 14.8435C6.86366 14.7498 6.91633 14.6226 6.91633 14.49Z" fill="#BDC1DF"/>
</g>
<defs>
<clipPath id="clip0_797_12946">
<rect width="20" height="20" fill="white"/>
</clipPath>
</defs>
</svg>
