<svg width="53" height="65" viewBox="0 0 53 65" fill="none" xmlns="http://www.w3.org/2000/svg">
<path d="M52.6066 4.44974L52.3322 9.32125C52.3168 9.5994 51.4975 24.6735 51.5439 23.8584L50.7555 38.6969L50.2918 47.1921V47.219L49.7198 57.5917L49.5305 61.1304C49.4223 63.089 47.7606 64.6961 45.8013 64.6961H38.8838C37.6588 64.6961 36.6231 64.0702 36.0512 63.1431C35.6686 62.5713 35.4522 61.8644 35.5063 61.1304L35.8077 55.9035L35.97 52.7163C35.9855 52.4421 37.1603 30.8893 37.0868 32.2415L37.3303 27.9689C37.3458 27.6907 38.4046 8.28205 38.3389 9.51054L38.6094 4.44587C38.6635 3.65778 38.965 2.91994 39.4249 2.34819C40.105 1.47897 41.1948 0.907227 42.3657 0.907227H49.2832C51.2193 0.907227 52.7148 2.48724 52.6066 4.44974Z" fill="#3E3860"/>
<path d="M44.9094 64.6961H38.9469C36.9488 64.6961 35.393 63.0888 35.5036 61.1338L38.6626 4.4347C38.7731 2.47969 40.5027 0.907227 42.5007 0.907227H48.4633C46.4652 0.907227 44.7357 2.47969 44.6251 4.4347L41.4661 61.1338C41.3556 63.0888 42.9114 64.6961 44.9094 64.6961Z" fill="#746F97"/>
<path d="M52.5028 9.3115C52.4874 9.58944 51.669 24.6524 51.7153 23.8378L50.9278 38.6654L50.4646 47.1542V47.1812L49.8932 57.5462C45.921 60.4298 41.2693 62.3599 36.2355 63.0973C34.7647 63.3134 33.2707 63.4254 31.7459 63.4254C14.5791 63.4254 0.705078 49.5244 0.705078 32.3846C0.705078 15.2448 14.5791 1.34375 31.7459 1.34375C34.4674 1.34375 37.104 1.69894 39.6094 2.35133C44.4772 3.62524 48.8857 6.04567 52.5028 9.3115Z" fill="#FDAE0E"/>
<path d="M51.9581 19.6783C51.9581 19.7632 51.7187 23.7548 51.7149 23.8397L50.9274 38.6672L50.4641 47.1561V47.183C49.8388 47.9165 49.2404 48.5959 48.588 49.2522C45.2411 52.6261 40.8597 54.9924 35.9918 55.8649C33.4054 56.3204 30.8692 56.332 29.298 56.1081C23.9592 55.5986 19.0604 53.1897 15.6942 50.0397C15.6672 50.0397 15.6402 50.0126 15.6132 49.9856C10.8534 45.6042 7.88867 39.3466 7.88867 32.3826C7.88867 19.1881 18.5509 8.52197 31.7493 8.52197C34.0887 8.52197 36.374 8.85011 38.5242 9.50251C41.7012 10.4328 44.5501 12.1507 44.8898 12.4943C46.9358 13.6601 50.1669 16.756 51.8538 19.5663C51.904 19.5972 51.931 19.6512 51.9581 19.6783Z" fill="#FFC500"/>
<g opacity="0.05">
<path d="M50.9226 38.667L50.4593 47.1558C49.861 47.8893 49.2356 48.5957 48.5832 49.252C45.2363 52.6259 40.8549 54.9922 35.987 55.8646C33.4006 56.3202 30.8644 56.3318 29.2932 56.1079C23.9544 55.5983 19.0557 53.1895 15.6895 50.0395C19.4185 52.4599 23.8502 53.8766 28.6678 53.8766C31.2813 53.8766 33.7828 53.4674 36.1491 52.6799C42.924 50.4486 48.34 45.2797 50.9226 38.667Z" fill="black"/>
</g>
<g opacity="0.05">
<path d="M51.9588 19.7315L51.7156 23.8388C50.5459 19.4304 48.1525 15.5122 44.8867 12.4934C47.4191 13.941 51.0169 17.8438 51.9588 19.7315Z" fill="black"/>
</g>
<path d="M32.9618 30.8031C30.2094 30.0503 28.0901 29.5369 28.0901 27.5913C28.0901 25.7576 29.7539 25.1979 31.5721 25.1979C33.1549 25.1979 34.9345 25.8117 35.2163 27.3752C35.3823 27.711 35.5598 27.9465 36.0848 27.9465H38.8334C39.2117 27.9465 39.4317 27.626 39.4317 27.3211C39.4317 25.36 37.3742 22.542 33.3093 21.963V19.8668C33.3093 19.5 32.9657 19.1604 32.6028 19.1604H30.8078C30.4449 19.1604 30.1014 19.5 30.1014 19.8668V21.9089C25.8859 22.3837 23.9248 24.9778 23.9248 27.6762C23.9248 31.4284 26.685 32.8761 30.5916 33.7447C33.2243 34.4318 35.9227 35.0301 35.9227 36.9564C35.9227 38.9908 33.7918 39.5699 31.7613 39.5699C29.2945 39.5699 27.9743 38.4851 27.4918 37.2305C27.264 36.775 26.9475 36.6592 26.6193 36.6592H24.0059C23.6237 36.6592 23.3535 36.9719 23.3535 37.2846C23.562 40.6199 26.6888 42.5114 30.1014 42.8357V44.8778C30.1014 45.2252 30.3639 45.5843 30.8078 45.5843H32.6028C33.0391 45.5843 33.3093 45.2368 33.3093 44.8778V42.8666C38.1231 42.2644 40.0841 39.7166 40.0841 36.8252C40.088 32.9109 36.8994 31.6446 32.9618 30.8031Z" fill="#ED9D0F"/>
</svg>
