<svg width="49" height="66" viewBox="0 0 49 66" fill="none" xmlns="http://www.w3.org/2000/svg">
<path d="M21.4474 13.4609H2.41455V36.1548H21.4474V13.4609Z" fill="#96D5FF"/>
<path d="M18.1699 8.64453L21.4423 13.4626H2.41846L5.69081 8.64453H18.1699Z" fill="#70C6FF"/>
<path d="M34.5744 44.3505C39.824 44.3505 44.0796 34.6251 44.0796 22.6283C44.0796 10.6315 39.824 0.90625 34.5744 0.90625C29.3249 0.90625 25.0693 10.6315 25.0693 22.6283C25.0693 34.6251 29.3249 44.3505 34.5744 44.3505Z" fill="#FEB630"/>
<path d="M39.7219 8.64562C39.7219 8.64562 37.4168 10.0061 34.5738 10.0061C31.7309 10.0061 29.4258 8.64562 29.4258 8.64562C29.4258 8.64562 31.7309 7.28516 34.5738 7.28516C37.4168 7.28516 39.7219 8.64562 39.7219 8.64562Z" fill="#FC942C"/>
<path d="M39.7219 14.2394C39.7219 14.2394 37.4168 15.5998 34.5738 15.5998C31.7309 15.5998 29.4258 14.2394 29.4258 14.2394C29.4258 14.2394 31.7309 12.8789 34.5738 12.8789C37.4168 12.8789 39.7219 14.2394 39.7219 14.2394Z" fill="#FC942C"/>
<path d="M39.7219 19.8331C39.7219 19.8331 37.4168 21.1936 34.5738 21.1936C31.7309 21.1936 29.4258 19.8331 29.4258 19.8331C29.4258 19.8331 31.7309 18.4727 34.5738 18.4727C37.4168 18.4727 39.7219 19.8331 39.7219 19.8331Z" fill="#FC942C"/>
<path d="M39.7219 25.423C39.7219 25.423 37.4168 26.7834 34.5738 26.7834C31.7309 26.7834 29.4258 25.423 29.4258 25.423C29.4258 25.423 31.7309 24.0625 34.5738 24.0625C37.4168 24.0625 39.7219 25.423 39.7219 25.423Z" fill="#FC942C"/>
<path d="M39.7219 31.0167C39.7219 31.0167 37.4168 32.3772 34.5738 32.3772C31.7309 32.3772 29.4258 31.0167 29.4258 31.0167C29.4258 31.0167 31.7309 29.6562 34.5738 29.6562C37.4168 29.6562 39.7219 31.0167 39.7219 31.0167Z" fill="#FC942C"/>
<path d="M39.7219 36.6105C39.7219 36.6105 37.4168 37.9709 34.5738 37.9709C31.7309 37.9709 29.4258 36.6105 29.4258 36.6105C29.4258 36.6105 31.7309 35.25 34.5738 35.25C37.4168 35.25 39.7219 36.6105 39.7219 36.6105Z" fill="#FC942C"/>
<path d="M23.5166 39.2803C28.4017 39.2803 32.3619 35.3201 32.3619 30.4351C32.3619 25.55 28.4017 21.5898 23.5166 21.5898C18.6315 21.5898 14.6714 25.55 14.6714 30.4351C14.6714 35.3201 18.6315 39.2803 23.5166 39.2803Z" fill="#F24E66"/>
<path d="M46.9134 27.0391L48.4321 60.246C48.536 63.0709 46.1225 65.4121 43.1078 65.4121H7.29294C4.42287 65.4121 2.06804 63.2743 1.96861 60.585L0.440918 27.0391L4.31438 29.7555L8.18785 27.0391L12.0613 29.7555L15.9348 27.0391L19.8082 29.7555L23.6817 27.0391L27.5552 29.7555L31.4286 27.0391L35.3021 29.7555L39.1755 27.0391L43.058 29.7555L46.9225 27.0391H46.9134Z" fill="#FFD5A9"/>
<path d="M22.8077 22.663C22.3738 20.0958 22.8709 17.4156 24.7376 15.4766L26.1884 17.2483C24.4619 18.4235 23.7161 20.5523 23.6212 22.5862L22.8077 22.663Z" fill="#F24E66"/>
</svg>
