<svg width="49" height="66" viewBox="0 0 49 66" fill="none" xmlns="http://www.w3.org/2000/svg">
<path d="M21.943 13.4634H2.91016V36.1572H21.943V13.4634Z" fill="#96D5FF"/>
<path d="M18.6656 8.646L21.9379 13.4641H2.91406L6.18641 8.646H18.6656Z" fill="#70C6FF"/>
<path d="M35.0696 44.3515C40.3191 44.3515 44.5747 34.6261 44.5747 22.6293C44.5747 10.6325 40.3191 0.907227 35.0696 0.907227C29.82 0.907227 25.5645 10.6325 25.5645 22.6293C25.5645 34.6261 29.82 44.3515 35.0696 44.3515Z" fill="#FEB630"/>
<path d="M40.216 8.64659C40.216 8.64659 37.9109 10.0071 35.0679 10.0071C32.225 10.0071 29.9199 8.64659 29.9199 8.64659C29.9199 8.64659 32.225 7.28613 35.0679 7.28613C37.9109 7.28613 40.216 8.64659 40.216 8.64659Z" fill="#FC942C"/>
<path d="M40.216 14.2421C40.216 14.2421 37.9109 15.6025 35.0679 15.6025C32.225 15.6025 29.9199 14.2421 29.9199 14.2421C29.9199 14.2421 32.225 12.8816 35.0679 12.8816C37.9109 12.8816 40.216 14.2421 40.216 14.2421Z" fill="#FC942C"/>
<path d="M40.216 19.8336C40.216 19.8336 37.9109 21.1941 35.0679 21.1941C32.225 21.1941 29.9199 19.8336 29.9199 19.8336C29.9199 19.8336 32.225 18.4731 35.0679 18.4731C37.9109 18.4731 40.216 19.8336 40.216 19.8336Z" fill="#FC942C"/>
<path d="M40.216 25.4239C40.216 25.4239 37.9109 26.7844 35.0679 26.7844C32.225 26.7844 29.9199 25.4239 29.9199 25.4239C29.9199 25.4239 32.225 24.0635 35.0679 24.0635C37.9109 24.0635 40.216 25.4239 40.216 25.4239Z" fill="#FC942C"/>
<path d="M40.216 31.0194C40.216 31.0194 37.9109 32.3799 35.0679 32.3799C32.225 32.3799 29.9199 31.0194 29.9199 31.0194C29.9199 31.0194 32.225 29.6589 35.0679 29.6589C37.9109 29.6589 40.216 31.0194 40.216 31.0194Z" fill="#FC942C"/>
<path d="M40.216 36.6109C40.216 36.6109 37.9109 37.9714 35.0679 37.9714C32.225 37.9714 29.9199 36.6109 29.9199 36.6109C29.9199 36.6109 32.225 35.2505 35.0679 35.2505C37.9109 35.2505 40.216 36.6109 40.216 36.6109Z" fill="#FC942C"/>
<path d="M24.0112 39.2806C28.8963 39.2806 32.8565 35.3204 32.8565 30.4353C32.8565 25.5502 28.8963 21.5901 24.0112 21.5901C19.1262 21.5901 15.166 25.5502 15.166 30.4353C15.166 35.3204 19.1262 39.2806 24.0112 39.2806Z" fill="#F24E66"/>
<path d="M47.408 27.0405L48.9267 60.2475C49.0307 63.0723 46.6171 65.4136 43.6024 65.4136H7.78757C4.9175 65.4136 2.56267 63.2757 2.46324 60.5865L0.935547 27.0405L4.80901 29.7569L8.68247 27.0405L12.5559 29.7569L16.4294 27.0405L20.3029 29.7569L24.1763 27.0405L28.0498 29.7569L31.9233 27.0405L35.7967 29.7569L39.6702 27.0405L43.5527 29.7569L47.4171 27.0405H47.408Z" fill="#FFD5A9"/>
<path d="M23.3028 22.666C22.8689 20.0987 23.366 17.4185 25.2327 15.4795L26.6836 17.2513C24.957 18.4264 24.2112 20.5552 24.1163 22.5891L23.3028 22.666Z" fill="#F24E66"/>
</svg>
