<svg width="16" height="16" viewBox="0 0 16 16" fill="none" xmlns="http://www.w3.org/2000/svg">
<path d="M7.99997 12.9134C6.80664 12.9134 5.61329 12.4601 4.69996 11.5467C2.87996 9.72673 2.87996 6.76671 4.69996 4.94671C6.51996 3.12671 9.47998 3.12671 11.3 4.94671C13.12 6.76671 13.12 9.72673 11.3 11.5467C10.3866 12.4601 9.1933 12.9134 7.99997 12.9134ZM7.99997 4.58005C7.05997 4.58005 6.11996 4.94004 5.40663 5.65338C3.97996 7.08671 3.97996 9.40673 5.40663 10.8401C6.83996 12.2734 9.16665 12.2667 10.5933 10.8401C12.02 9.40673 12.02 7.08671 10.5933 5.65338C9.87998 4.94004 8.93997 4.58005 7.99997 4.58005Z" fill="#FCC230"/>
<path d="M5.49994 14.9267C5.43994 14.9267 5.37328 14.9134 5.31328 14.8934C3.81328 14.2934 2.59994 13.2333 1.7866 11.8333C0.999937 10.4667 0.686606 8.92003 0.893273 7.34669C0.926606 7.07336 1.17994 6.88001 1.45327 6.91334C1.7266 6.94668 1.91993 7.20003 1.8866 7.47336C1.71327 8.82003 1.97995 10.1533 2.65328 11.3267C3.34662 12.5267 4.39327 13.44 5.67993 13.9533C5.93327 14.06 6.05994 14.3467 5.95994 14.6067C5.88661 14.8067 5.69328 14.9267 5.49994 14.9267Z" fill="#FCC230"/>
<path d="M3.89998 3.48663C3.75332 3.48663 3.60665 3.41998 3.50665 3.29331C3.33332 3.07331 3.37332 2.75999 3.59332 2.59332C4.86666 1.59999 6.38665 1.0733 7.99998 1.0733C9.57331 1.0733 11.0733 1.57998 12.3333 2.53998C12.5533 2.70664 12.5933 3.01997 12.4267 3.23997C12.26 3.45997 11.9466 3.49998 11.7266 3.33331C10.6466 2.50665 9.35998 2.0733 7.99998 2.0733C6.61331 2.0733 5.29998 2.52665 4.20665 3.37998C4.11331 3.45332 4.00665 3.48663 3.89998 3.48663Z" fill="#FCC230"/>
<path d="M10.5001 14.9267C10.3001 14.9267 10.1134 14.8067 10.0334 14.6133C9.93338 14.36 10.0534 14.0667 10.3134 13.96C11.6001 13.44 12.6467 12.5334 13.3401 11.3334C14.0201 10.16 14.2867 8.82667 14.1067 7.48C14.0734 7.20667 14.2667 6.95336 14.5401 6.92003C14.8067 6.88669 15.0667 7.08004 15.1001 7.35338C15.3001 8.92004 14.9934 10.4734 14.2067 11.84C13.4001 13.24 12.1801 14.2933 10.6801 14.9C10.6267 14.9133 10.5667 14.9267 10.5001 14.9267Z" fill="#FCC230"/>
</svg>
