<svg width="24" height="23" viewBox="0 0 24 23" fill="none" xmlns="http://www.w3.org/2000/svg">
<path d="M8.82129 10.9866C8.82129 10.9866 9.89169 12.4526 10.5756 11.9828L13.0707 10.0539L12.6038 8.67627L10.7217 9.67433L10.0656 8.78039L8.82129 10.9866Z" fill="#FDBBAD"/>
<path d="M9.14735 11.7269C9.10461 11.7518 9.0721 11.7569 9.05237 11.7342L9.04506 11.7394L7.44531 10.6598V6.55908H7.5476C8.5548 6.55908 9.32198 7.22141 9.79434 8.11097L10.4844 9.1905C10.757 9.36805 9.53971 11.4869 9.14735 11.7269Z" fill="#D0DAF6"/>
<path d="M9.14674 9.63135V11.7257C9.104 11.7506 9.07149 11.7557 9.05176 11.7331V9.63171L9.14674 9.63135Z" fill="#234BBA"/>
<path d="M12.6035 8.67716L12.7562 7.87125C12.7618 7.84091 12.7733 7.81196 12.79 7.78605C12.8068 7.76015 12.8285 7.7378 12.8539 7.72028C12.8793 7.70276 12.9078 7.69041 12.938 7.68394C12.9682 7.67747 12.9993 7.677 13.0297 7.68256C13.06 7.68813 13.089 7.69962 13.1149 7.71637C13.1408 7.73312 13.1631 7.75482 13.1806 7.78021C13.1982 7.8056 13.2105 7.83419 13.217 7.86436C13.2235 7.89452 13.2239 7.92567 13.2184 7.95601L13.1482 8.35056L14.3056 8.02177C14.3604 8.00693 14.4189 8.01334 14.4692 8.03971C14.5196 8.06609 14.5581 8.11049 14.5772 8.16404C14.5962 8.2176 14.5944 8.27637 14.572 8.32862C14.5496 8.38087 14.5083 8.42276 14.4564 8.44591L13.42 8.89124L13.5724 9.24962C13.6033 9.32233 13.6187 9.40075 13.6173 9.47977C13.616 9.5588 13.5981 9.63667 13.5648 9.70832C13.5314 9.77998 13.4834 9.84382 13.4238 9.89571C13.3642 9.94759 13.2943 9.98636 13.2187 10.0095L13.0704 10.0548L12.6035 8.67716Z" fill="#FDBBAD"/>
<path d="M3.95764 15.2847L3.07465 15.3117L2.95117 20.4956H9.34433L9.10796 15.2847H3.95764Z" fill="#222333"/>
<path d="M4.4912 7.40368C3.99327 7.40368 3.58155 6.95798 3.58886 6.40927C3.59434 5.98988 3.56219 5.52482 3.43944 5.13794C3.13293 4.1702 3.38062 0.180508 5.63284 1.25712C5.63284 1.25712 5.95432 0.63972 7.15624 1.18478C9.25611 2.13754 8.32308 4.14134 8.04288 5.08278C7.79738 5.89891 7.36557 7.10265 7.2567 7.40331L4.4912 7.40368Z" fill="#0E0F16"/>
<path d="M3.05802 15.3559H9.11837L9.02338 8.29168C9.0155 7.82452 8.82243 7.37961 8.48662 7.05475C8.15081 6.7299 7.69973 6.5517 7.23257 6.55932H4.48278C3.42809 6.57649 2.62438 7.56761 2.76503 8.61316L3.05802 15.3559Z" fill="#D0DAF6"/>
<path d="M4.79883 4.53662H6.57795V6.55759H4.79883V4.53662Z" fill="#FDBBAD"/>
<path d="M4.7998 6.55127L6.65418 7.48905L6.5855 6.55127H4.7998Z" fill="#FDBBAD"/>
<path d="M6.57795 4.16992V5.82849C6.57795 5.82849 5.79178 6.23509 4.79883 6.08239V4.16992H6.57795Z" fill="#ECA090"/>
<path d="M7.91199 3.34697V4.41737C7.91214 4.62178 7.87198 4.82422 7.79382 5.0131C7.71566 5.20198 7.60103 5.3736 7.45649 5.51814C7.31195 5.66268 7.14033 5.77731 6.95145 5.85547C6.76257 5.93363 6.56013 5.97379 6.35572 5.97364C5.94303 5.97355 5.54728 5.80954 5.2555 5.51769C4.96372 5.22584 4.7998 4.83005 4.7998 4.41737V3.34697C4.79977 3.03903 4.89109 2.73801 5.06221 2.48199C5.23333 2.22598 5.47655 2.02648 5.76109 1.90875C6.04564 1.79103 6.35871 1.76036 6.66069 1.82063C6.96267 1.8809 7.23998 2.02941 7.45753 2.24735C7.74869 2.53922 7.91213 2.9347 7.91199 3.34697Z" fill="#FDBBAD"/>
<path d="M7.31398 4.05887C7.39408 4.05887 7.45901 3.97169 7.45901 3.86415C7.45901 3.75661 7.39408 3.66943 7.31398 3.66943C7.23388 3.66943 7.16895 3.75661 7.16895 3.86415C7.16895 3.97169 7.23388 4.05887 7.31398 4.05887Z" fill="#0E0F16"/>
<path d="M6.26124 4.05887C6.34134 4.05887 6.40628 3.97169 6.40628 3.86415C6.40628 3.75661 6.34134 3.66943 6.26124 3.66943C6.18115 3.66943 6.11621 3.75661 6.11621 3.86415C6.11621 3.97169 6.18115 4.05887 6.26124 4.05887Z" fill="#0E0F16"/>
<path d="M6.18243 4.74072C6.18206 4.74913 6.17987 4.75716 6.17987 4.7663C6.17791 4.84503 6.19173 4.92337 6.22051 4.99669C6.24928 5.07 6.29244 5.13682 6.34744 5.1932C6.40244 5.24959 6.46816 5.29439 6.54074 5.32499C6.61332 5.35558 6.69129 5.37134 6.77005 5.37134C6.84881 5.37134 6.92678 5.35558 6.99936 5.32499C7.07194 5.29439 7.13766 5.24959 7.19266 5.1932C7.24766 5.13682 7.29081 5.07 7.31959 4.99669C7.34837 4.92337 7.36219 4.84503 7.36023 4.7663C7.36023 4.75716 7.35804 4.74913 7.35767 4.74072H6.18243Z" fill="white"/>
<path d="M4.7994 3.6499C4.66387 3.65349 4.53509 3.70986 4.4405 3.807C4.3459 3.90413 4.29297 4.03436 4.29297 4.16994C4.29297 4.30552 4.3459 4.43575 4.4405 4.53288C4.53509 4.63002 4.66387 4.68638 4.7994 4.68998V3.6499Z" fill="#FDBBAD"/>
<path d="M4.7998 3.07696C4.7998 3.07696 7.12399 3.29031 7.85025 2.91257C8.57651 2.53482 7.85025 1.91377 7.85025 1.91377L7.24455 1.64709L5.84171 1.29199L4.7998 1.64709V3.07696Z" fill="#0E0F16"/>
<path d="M6.79492 8.89825V9.38413C6.79492 9.45245 6.85082 9.50834 6.91913 9.50834H8.36581C8.38227 9.50849 8.39859 9.50539 8.41385 9.49922C8.42911 9.49306 8.443 9.48395 8.45474 9.47242C8.46648 9.46088 8.47583 9.44715 8.48226 9.432C8.48869 9.41685 8.49207 9.40059 8.49221 9.38413V8.89789C8.49202 8.86442 8.47864 8.83238 8.45498 8.80872C8.43132 8.78506 8.39928 8.77168 8.36581 8.77148H6.91913C6.85082 8.77148 6.79492 8.82994 6.79492 8.89825Z" fill="#E2EAFF"/>
<path d="M3.58366 10.6641C3.51608 11.0794 3.46457 11.4455 3.44374 11.7027C3.31259 13.2988 3.37835 13.3006 3.50147 16.0292H1.89916C1.89916 16.0292 1.53457 12.8465 1.50388 11.7798C1.49694 11.5383 1.50972 11.0988 1.52689 10.6641H3.58366Z" fill="#FDBBAD"/>
<path d="M1.43262 11.1622C1.45088 10.3541 1.51847 9.14484 1.51847 9.14484C1.54181 8.47555 1.81625 7.83958 2.28718 7.36343C2.75811 6.88729 3.39103 6.60587 4.06002 6.57516L4.40781 6.55908C4.40781 6.55908 3.9581 9.63474 3.7568 11.1622C3.7568 11.309 1.43262 11.309 1.43262 11.1622Z" fill="#D0DAF6"/>
<path d="M3.50186 11.2957L3.46387 11.1766L3.66187 11.1141C3.72105 10.6647 3.83357 10.1076 3.9523 9.51945C4.00418 9.26117 4.05752 8.99704 4.1083 8.73291L4.23105 8.75629C4.1799 9.02079 4.12693 9.28564 4.07469 9.54393C3.95303 10.1478 3.83796 10.7177 3.78097 11.1696L3.77585 11.2094L3.50186 11.2957Z" fill="#234BBA"/>
<path d="M2.79081 17.6566C2.87926 17.6622 2.96793 17.6495 3.05132 17.6195C3.13471 17.5895 3.21105 17.5427 3.27563 17.482C3.3402 17.4212 3.39164 17.3479 3.42676 17.2666C3.46188 17.1852 3.47993 17.0975 3.47981 17.0088L3.47871 16.2033L3.60219 16.4389C3.61836 16.4688 3.64025 16.4951 3.6666 16.5165C3.69296 16.5379 3.72327 16.5539 3.7558 16.5636C3.78833 16.5732 3.82245 16.5764 3.85621 16.5729C3.88996 16.5693 3.9227 16.5592 3.95254 16.5431C3.98238 16.5269 4.00874 16.505 4.03012 16.4786C4.0515 16.4523 4.06749 16.422 4.07715 16.3894C4.08682 16.3569 4.08999 16.3228 4.08647 16.289C4.08295 16.2553 4.07282 16.2225 4.05665 16.1927L3.76586 15.6729H2.20008L2.18364 17.0019C2.18162 17.1681 2.24351 17.3286 2.3565 17.4505C2.4695 17.5723 2.62497 17.6461 2.79081 17.6566Z" fill="#FDBBAD"/>
<path d="M0.731445 15.3198H14.6455V22.8663H0.731445V15.3198Z" fill="#E5AC47"/>
<path d="M1.55371 15.3198H15.4678V22.8663H1.55371V15.3198Z" fill="#FDF6DA"/>
<path d="M0.30957 15.3198H15.4661V16.46H0.30957V15.3198Z" fill="#4D5D77"/>
<path d="M0.821289 15.3198H15.8262V16.46H0.821289V15.3198Z" fill="#6B7994"/>
<path d="M8.89731 9.9736L8.67373 11.2033C8.6162 11.5196 8.47408 11.8144 8.26246 12.0565C8.05084 12.2985 7.77763 12.4787 7.47182 12.578C7.16745 12.6768 6.9022 12.8695 6.71411 13.1284C6.52602 13.3873 6.42474 13.6992 6.4248 14.0192V15.3212H9.69335V9.9736H8.89731ZM11.3406 9.20459H12.3189V10.7426H11.3406V9.20459Z" fill="#ADBADB"/>
<path d="M12.6059 8.43408H11.0551C11.0393 8.43408 11.0236 8.43721 11.0089 8.44329C10.9943 8.44938 10.981 8.45829 10.9698 8.46952C10.9586 8.48075 10.9497 8.49409 10.9436 8.50876C10.9376 8.52343 10.9345 8.53914 10.9346 8.555V9.23743C10.9346 9.30392 10.9883 9.35798 11.0551 9.35798H12.6059C12.6218 9.35803 12.6375 9.35495 12.6522 9.34891C12.6668 9.34288 12.6802 9.334 12.6914 9.3228C12.7026 9.3116 12.7116 9.2983 12.7176 9.28365C12.7237 9.269 12.7268 9.25329 12.7268 9.23743V8.55464C12.7268 8.52267 12.7141 8.492 12.6915 8.46939C12.6689 8.44678 12.6379 8.43408 12.6059 8.43408Z" fill="#ADBADB"/>
<path d="M9.67578 15.3032L9.70245 9.95557L14.6296 9.98041L14.6029 15.328L9.67578 15.3032Z" fill="#E2E6F0"/>
<path d="M17.6025 22.8673H20.9818L21.4976 14.5317L17.6025 14.7279V22.8673Z" fill="#A29C8A"/>
<path d="M23.4465 22.8673H20.0672L19.5518 14.5317L23.4468 14.7279L23.4465 22.8673Z" fill="#969181"/>
<path d="M18.305 2.69092C18.2984 2.70663 17.4461 4.84084 17.7296 5.51852C17.9009 5.92878 19.0813 6.54252 19.641 6.2583C20.2007 5.97408 20.2657 3.44604 20.2657 3.44604L19.8711 2.97916L18.305 2.69092Z" fill="#222333"/>
<path d="M19.5947 4.78516H21.1722V6.70018H19.5947V4.78516Z" fill="#FDBBAD"/>
<path d="M19.5938 4.46094V5.93173C19.5938 5.93173 20.2915 6.2923 21.1712 6.15677V4.46094H19.5938Z" fill="#ECA090"/>
<path d="M18.4111 3.72947V4.67895C18.4111 4.86015 18.4467 5.03958 18.5161 5.20699C18.5854 5.37439 18.687 5.5265 18.8152 5.65461C18.9433 5.78272 19.0955 5.88432 19.2629 5.95361C19.4303 6.02289 19.6098 6.0585 19.791 6.05841C20.1568 6.05831 20.5077 5.91296 20.7664 5.65429C21.0251 5.39562 21.1706 5.04481 21.1708 4.67895V3.72947C21.1707 3.45646 21.0897 3.18959 20.9379 2.96264C20.7862 2.73568 20.5705 2.55883 20.3182 2.45445C20.066 2.35008 19.7884 2.32287 19.5207 2.37626C19.2529 2.42966 19.007 2.56126 18.8141 2.75443C18.5558 3.01332 18.4109 3.36379 18.4111 3.72947Z" fill="#FDBBAD"/>
<path d="M19.8156 4.4077C19.8864 4.40173 19.937 4.31654 19.9286 4.21743C19.9203 4.11831 19.8561 4.0428 19.7854 4.04877C19.7146 4.05473 19.664 4.13992 19.6724 4.23904C19.6807 4.33815 19.7449 4.41367 19.8156 4.4077Z" fill="#222333"/>
<path d="M18.9025 4.48338C18.9733 4.47742 19.0239 4.39223 19.0156 4.29311C19.0072 4.19399 18.943 4.11848 18.8723 4.12445C18.8015 4.13042 18.7509 4.2156 18.7593 4.31472C18.7676 4.41384 18.8318 4.48935 18.9025 4.48338Z" fill="#222333"/>
<path d="M19.8833 5.00049C19.884 5.00706 19.8862 5.01327 19.887 5.01985C19.897 5.14028 19.8589 5.25979 19.7808 5.35207C19.7422 5.39777 19.6949 5.4354 19.6417 5.46283C19.5886 5.49027 19.5305 5.50695 19.4709 5.51194C19.3504 5.52202 19.2309 5.48384 19.1386 5.4058C19.0464 5.32777 18.9888 5.21627 18.9788 5.09584C18.978 5.08926 18.9791 5.08305 18.9788 5.07648L19.8833 5.00049Z" fill="white"/>
<path d="M19.6938 9.20233L18.752 11.7472L17.5712 12.2301L17.3736 12.3105L14.0944 13.6476L13.3262 12.076L16.697 9.95928L16.9074 8.25322C16.9742 7.86138 17.1677 7.50224 17.458 7.23079C17.7484 6.95935 18.1198 6.79056 18.5152 6.75028L18.752 6.72581L18.8615 6.71631L19.6938 9.20233Z" fill="#FAE8AC"/>
<path d="M23.5013 15.5488C23.494 15.6365 23.2353 15.6975 22.8302 15.7293C22.6497 15.7439 22.4375 15.7585 22.2055 15.7731C20.4516 15.8827 17.5454 15.9558 17.5725 15.6536V8.18497C17.5725 7.4799 17.5699 6.81647 18.8631 6.71637C18.9143 6.71126 19.0484 6.70651 19.1974 6.70651C19.3143 6.70395 19.4462 6.70395 19.5609 6.70651L19.5583 6.70907L22.3472 6.70651C22.4963 6.70641 22.6439 6.7357 22.7816 6.79269C22.9193 6.84968 23.0444 6.93325 23.1498 7.03864C23.2552 7.14402 23.3388 7.26915 23.3957 7.40686C23.4527 7.54457 23.482 7.69216 23.4819 7.8412L23.4914 10.8643V11.2274L23.5013 15.5488Z" fill="#FAE8AC"/>
<path d="M23.501 15.5503C23.4937 15.6379 23.235 15.6989 22.8299 15.7307C22.6494 15.7453 22.4371 15.76 22.2052 15.7746C22.1445 15.7088 22.0835 15.6452 22.0199 15.5842C21.7874 15.3598 21.5227 15.1714 21.2345 15.0253C20.7222 14.7637 20.1528 14.6339 19.5778 14.6475C19.3629 14.6523 18.9457 14.7816 19.1313 14.4229C19.2702 14.1522 19.5094 13.9297 19.7268 13.7204C20.6347 12.8524 21.5892 12.0346 22.5862 11.2705C22.8397 11.0754 23.1177 10.8778 23.4374 10.8657H23.4911V11.2289L23.501 15.5503Z" fill="#E9D285"/>
<path d="M19.5947 6.70068L19.7043 7.84488L21.1711 6.70068H19.5947Z" fill="#FDBBAD"/>
<path d="M23.2988 5.49298C23.3115 6.32701 21.1287 6.69745 21.0732 6.45633L21.1485 3.98748C20.8339 3.83368 20.705 3.72189 20.7082 3.55275C19.9955 3.85816 18.0505 3.82126 17.8967 3.63239C17.6264 3.30396 18.2854 2.05383 19.3266 1.58548C20.0908 1.23843 20.6545 1.70458 20.6545 1.70458C22.1597 1.29688 23.2871 4.61036 23.2988 5.49298Z" fill="#222333"/>
<path d="M21.125 3.98389C21.2349 3.98712 21.3392 4.03305 21.4158 4.11193C21.4924 4.19081 21.5353 4.29643 21.5353 4.40638C21.5353 4.51633 21.4924 4.62196 21.4158 4.70084C21.3392 4.77972 21.2349 4.82565 21.125 4.82888V3.98389Z" fill="#FDBBAD"/>
<path d="M22.1783 6.70068H22.3697C22.72 6.70068 23.056 6.83986 23.3038 7.0876C23.5515 7.33533 23.6907 7.67134 23.6907 8.02169V11.3059C23.6907 11.5444 23.6341 11.7794 23.5254 11.9916C23.4167 12.2038 23.2591 12.3872 23.0656 12.5265L18.9451 14.8057L18.3223 13.2663L21.425 11.067L22.1783 6.70068Z" fill="#FAE8AC"/>
<path d="M18.3223 13.267C18.8248 12.8803 19.332 12.4997 19.8438 12.1254C20.36 11.7579 20.8693 11.3801 21.3913 11.0207L21.368 11.0579C21.5324 10.1256 21.7077 9.19477 21.9079 8.26904C21.7837 9.20786 21.6417 10.1442 21.4819 11.0776L21.4779 11.1007L21.4582 11.1153C20.946 11.4883 20.4214 11.8441 19.9034 12.2094C19.3802 12.5674 18.8549 12.9218 18.3223 13.267Z" fill="#E9D285"/>
<path d="M17.1686 12.6338V15.1569C17.1686 15.1974 17.1364 15.2303 17.0967 15.2303H14.072C14.0322 15.2303 14 15.1974 14 15.1569V12.6338C14 12.5159 14.0103 12.3982 14.0306 12.2821L14.1585 11.5542H17.0101L17.138 12.2821C17.1584 12.3983 17.1686 12.5159 17.1686 12.6338Z" fill="#EBB28E"/>
<path d="M17.1389 12.2821L17.0111 11.5542H16.627L16.7548 12.2821C16.7752 12.3983 16.7854 12.5159 16.7854 12.6338V15.1569C16.7854 15.1974 16.7532 15.2303 16.7135 15.2303H17.0976C17.1373 15.2303 17.1696 15.1974 17.1696 15.1569V12.6338C17.1696 12.5159 17.1593 12.3982 17.1389 12.2821Z" fill="#D6A37F"/>
<path d="M17.0983 11.648H14.0725C14.0499 11.648 14.0282 11.639 14.0123 11.6231C13.9963 11.6071 13.9873 11.5854 13.9873 11.5628V11.094C13.9873 11.0714 13.9963 11.0497 14.0123 11.0338C14.0282 11.0178 14.0499 11.0088 14.0725 11.0088H17.0983C17.1209 11.0088 17.1426 11.0178 17.1585 11.0338C17.1745 11.0497 17.1835 11.0714 17.1835 11.094V11.5628C17.1835 11.574 17.1813 11.5851 17.177 11.5954C17.1727 11.6058 17.1665 11.6152 17.1586 11.6231C17.1506 11.631 17.1412 11.6373 17.1309 11.6415C17.1206 11.6458 17.1095 11.648 17.0983 11.648Z" fill="#D6A37F"/>
<path d="M18.9216 14.7487L17.6502 15.2462C17.4665 15.3172 17.2622 15.3123 17.082 15.2327C16.9019 15.1531 16.7607 15.0053 16.6894 14.8217C16.6205 14.641 16.6247 14.4404 16.7013 14.2627C16.7778 14.085 16.9206 13.9442 17.0993 13.8701L17.6042 13.6629L17.3821 13.5555C17.3178 13.523 17.2668 13.4694 17.2375 13.4037C17.2082 13.3379 17.2025 13.2641 17.2213 13.1946C17.2329 13.1527 17.2531 13.1138 17.2808 13.0803C17.3084 13.0468 17.3427 13.0194 17.3816 13.0001C17.4205 12.9808 17.463 12.9698 17.5064 12.968C17.5498 12.9662 17.5931 12.9736 17.6334 12.9896L18.3213 13.2651L18.9216 14.7487Z" fill="#FDBBAD"/>
<path d="M17.5717 9.50732V12.2301L17.374 12.3104V9.50732H17.5717Z" fill="#E9D285"/>
<path d="M14.095 13.6479L13.1525 14.3062C12.9861 14.4183 12.7828 14.4614 12.5852 14.4266C12.3877 14.3917 12.2114 14.2816 12.0934 14.1194C11.9754 13.9571 11.925 13.7555 11.9528 13.5568C11.9805 13.3581 12.0842 13.178 12.2421 13.0543L12.8595 12.6064L12.6659 12.5187C12.5961 12.4873 12.5408 12.4307 12.511 12.3602C12.4812 12.2897 12.4792 12.2106 12.5053 12.1387C12.5314 12.0668 12.5837 12.0074 12.6518 11.9724C12.7199 11.9375 12.7986 11.9296 12.8723 11.9503L13.3264 12.0767L14.095 13.6479Z" fill="#FDBBAD"/>
</svg>
