<svg width="65" height="64" viewBox="0 0 65 64" fill="none" xmlns="http://www.w3.org/2000/svg">
<path d="M64.8369 2.17554V5.71663H0.980469V2.17554C0.980469 0.973542 1.95661 0 3.15601 0H62.6588C63.8608 0 64.8369 0.973542 64.8369 2.17554Z" fill="#D9E5F1"/>
<path d="M4.5752 3.01743C4.5752 3.51069 4.1754 3.90788 3.68474 3.90788C3.19408 3.90788 2.79688 3.5081 2.79688 3.01743C2.79688 2.52677 3.19667 2.12695 3.68474 2.12695C4.17281 2.12695 4.5752 2.52677 4.5752 3.01743Z" fill="white"/>
<path d="M7.14551 3.01743C7.14551 3.51069 6.74572 3.90788 6.25505 3.90788C5.76439 3.90788 5.36719 3.5081 5.36719 3.01743C5.36719 2.52677 5.76698 2.12695 6.25505 2.12695C6.74312 2.12695 7.14551 2.52677 7.14551 3.01743Z" fill="white"/>
<path d="M9.71583 3.01743C9.71583 3.51069 9.31603 3.90788 8.82536 3.90788C8.3347 3.90788 7.9375 3.5081 7.9375 3.01743C7.9375 2.52677 8.3373 2.12695 8.82536 2.12695C9.31343 2.12695 9.71583 2.52677 9.71583 3.01743Z" fill="white"/>
<path d="M64.8369 5.7207V61.8226C64.8369 63.0246 63.8608 64.0007 62.6588 64.0007H3.15601C1.95661 64.0007 0.980469 63.0246 0.980469 61.8226V5.7207H64.8369Z" fill="#EFF6FF"/>
<path d="M31.1939 15.8418H20.2617V28.8768H31.1939V15.8418Z" fill="#96D5FF"/>
<path d="M29.3131 13.0742L31.1926 15.8417H20.2656L22.1452 13.0742H29.3131Z" fill="#70C6FF"/>
<path d="M38.7291 33.5837C41.7444 33.5837 44.1888 27.9976 44.1888 21.1068C44.1888 14.216 41.7444 8.62988 38.7291 8.62988C35.7139 8.62988 33.2695 14.216 33.2695 21.1068C33.2695 27.9976 35.7139 33.5837 38.7291 33.5837Z" fill="#FEB630"/>
<path d="M41.6874 13.0744C41.6874 13.0744 40.3633 13.8558 38.7304 13.8558C37.0974 13.8558 35.7734 13.0744 35.7734 13.0744C35.7734 13.0744 37.0974 12.293 38.7304 12.293C40.3633 12.293 41.6874 13.0744 41.6874 13.0744Z" fill="#FC942C"/>
<path d="M41.6874 16.2892C41.6874 16.2892 40.3633 17.0707 38.7304 17.0707C37.0974 17.0707 35.7734 16.2892 35.7734 16.2892C35.7734 16.2892 37.0974 15.5078 38.7304 15.5078C40.3633 15.5078 41.6874 16.2892 41.6874 16.2892Z" fill="#FC942C"/>
<path d="M41.6874 19.5002C41.6874 19.5002 40.3633 20.2816 38.7304 20.2816C37.0974 20.2816 35.7734 19.5002 35.7734 19.5002C35.7734 19.5002 37.0974 18.7188 38.7304 18.7188C40.3633 18.7188 41.6874 19.5002 41.6874 19.5002Z" fill="#FC942C"/>
<path d="M41.6874 22.7111C41.6874 22.7111 40.3633 23.4925 38.7304 23.4925C37.0974 23.4925 35.7734 22.7111 35.7734 22.7111C35.7734 22.7111 37.0974 21.9297 38.7304 21.9297C40.3633 21.9297 41.6874 22.7111 41.6874 22.7111Z" fill="#FC942C"/>
<path d="M41.6874 25.925C41.6874 25.925 40.3633 26.7064 38.7304 26.7064C37.0974 26.7064 35.7734 25.925 35.7734 25.925C35.7734 25.925 37.0974 25.1436 38.7304 25.1436C40.3633 25.1436 41.6874 25.925 41.6874 25.925Z" fill="#FC942C"/>
<path d="M41.6874 29.1349C41.6874 29.1349 40.3633 29.9164 38.7304 29.9164C37.0974 29.9164 35.7734 29.1349 35.7734 29.1349C35.7734 29.1349 37.0974 28.3535 38.7304 28.3535C40.3633 28.3535 41.6874 29.1349 41.6874 29.1349Z" fill="#FC942C"/>
<path d="M32.3814 30.6719C35.1873 30.6719 37.462 28.3972 37.462 25.5913C37.462 22.7854 35.1873 20.5107 32.3814 20.5107C29.5754 20.5107 27.3008 22.7854 27.3008 25.5913C27.3008 28.3972 29.5754 30.6719 32.3814 30.6719Z" fill="#F24E66"/>
<path d="M45.8221 23.6406L46.6944 42.7143C46.7541 44.3368 45.3678 45.6816 43.6362 45.6816H23.0646C21.4161 45.6816 20.0635 44.4536 20.0064 42.909L19.1289 23.6406L21.3538 25.2009L23.5786 23.6406L25.8035 25.2009L28.0284 23.6406L30.2532 25.2009L32.4781 23.6406L34.703 25.2009L36.9278 23.6406L39.1527 25.2009L41.3776 23.6406L43.6076 25.2009L45.8273 23.6406H45.8221Z" fill="#FFD5A9"/>
<path d="M31.9748 21.1278C31.7256 19.6532 32.0111 18.1137 33.0833 17L33.9167 18.0177C32.925 18.6927 32.4966 19.9154 32.4421 21.0837L31.9748 21.1278Z" fill="#F24E66"/>
<path d="M45.8697 53.8597C45.8697 56.3493 43.8473 58.3847 41.3446 58.3847H26.4378C23.9403 58.3847 21.918 56.3571 21.918 53.8597C21.918 51.3622 23.9455 49.3398 26.4378 49.3398H41.3446C43.8421 49.3398 45.8697 51.3622 45.8697 53.8597Z" fill="#F24E66"/>
<path d="M26.7454 52.1182C25.6472 52.1182 24.8632 52.8736 24.8398 54.0652C24.8632 55.2257 25.6239 56.0071 26.7454 56.0071C27.8669 56.0071 28.6276 55.2023 28.6509 54.06C28.6276 52.9437 27.9007 52.1182 26.7454 52.1182ZM26.7454 55.2802C26.0107 55.2802 25.5979 54.7558 25.5979 54.0626C25.5979 53.3695 26.0107 52.8451 26.7454 52.8451C27.4801 52.8451 27.8929 53.3487 27.8929 54.0626C27.8929 54.7766 27.4697 55.2802 26.7454 55.2802Z" fill="white"/>
<path d="M32.1533 53.3326C32.1533 52.7018 31.7068 52.167 30.6424 52.167H29.4793C29.2664 52.167 29.1055 52.3384 29.1055 52.546V55.6042C29.1055 55.8613 29.308 55.9859 29.5053 55.9755C29.687 55.9651 29.8609 55.8431 29.8609 55.6042V54.5943H30.7462C31.2602 54.5943 31.3693 54.9396 31.3693 55.4537C31.3849 55.5913 31.3277 55.7237 31.4757 55.8716C31.5458 55.9417 31.6393 55.9781 31.7483 55.9781C31.8496 55.9781 31.943 55.9417 32.0157 55.869C32.1715 55.7133 32.1092 55.5341 32.1247 55.3732C32.1247 55.0149 32.0157 54.4698 31.6912 54.2309C31.9716 54.0388 32.1533 53.7065 32.1533 53.33V53.3326ZM31.3978 53.3664C31.3978 53.7506 30.9902 53.8649 30.6138 53.8649H29.8609V52.8965H30.5905C31.0084 52.8965 31.4004 52.951 31.4004 53.3664H31.3978Z" fill="white"/>
<path d="M34.0465 52.1657H33.0418C32.8289 52.1657 32.668 52.337 32.668 52.5447V55.577C32.668 55.7847 32.8315 55.9534 33.0418 55.9534H34.0465C35.2589 55.9534 35.9598 55.0448 35.9598 54.0583C35.9598 53.0717 35.2485 52.1631 34.0465 52.1631V52.1657ZM35.2096 54.0609C35.2096 54.7852 34.7059 55.2291 33.992 55.2291H33.4234V52.8926H33.992C34.7085 52.8926 35.2096 53.3365 35.2096 54.0609Z" fill="white"/>
<path d="M38.796 52.89C38.9959 52.89 39.1621 52.7368 39.1621 52.5291C39.1621 52.3215 39.0011 52.1631 38.796 52.1631H36.7918C36.5789 52.1631 36.418 52.3345 36.418 52.5421V55.5744C36.418 55.7821 36.5815 55.9508 36.7918 55.9508H38.796C38.9959 55.9508 39.1621 55.7977 39.1621 55.59C39.1621 55.3823 39.0011 55.2239 38.796 55.2239H37.1734V54.4139H38.6169C38.8142 54.4139 38.9829 54.2633 38.9829 54.0531C38.9829 53.8428 38.8246 53.687 38.6169 53.687H37.1734V52.8822H38.796V52.89Z" fill="white"/>
<path d="M42.6546 53.3346C42.6546 52.7037 42.2081 52.1689 41.1463 52.1689H39.9832C39.7703 52.1689 39.6094 52.3403 39.6094 52.548V55.6062C39.6094 55.8632 39.8119 55.9878 40.0092 55.9774C40.1909 55.9671 40.3649 55.845 40.3649 55.6062V54.5963H41.2501C41.7641 54.5963 41.8732 54.9416 41.8732 55.4556C41.8888 55.5932 41.8316 55.7256 41.9796 55.8736C42.0497 55.9437 42.1432 55.98 42.2522 55.98C42.3535 55.98 42.4469 55.9437 42.5196 55.871C42.6754 55.7152 42.6131 55.5361 42.6286 55.3751C42.6286 55.0169 42.5196 54.4717 42.1951 54.2329C42.4755 54.0408 42.6572 53.7084 42.6572 53.332L42.6546 53.3346ZM41.8991 53.3683C41.8991 53.7526 41.4915 53.8668 41.1151 53.8668H40.3623V52.8985H41.0918C41.5097 52.8985 41.9017 52.953 41.9017 53.3683H41.8991Z" fill="white"/>
</svg>
