<svg width="16" height="14" viewBox="0 0 16 14" fill="none" xmlns="http://www.w3.org/2000/svg">
<path d="M15.2352 9.76745H14.952C15.0603 9.56212 15.1179 9.33385 15.1195 9.10185V3.34132C15.1187 2.6697 14.8515 2.02582 14.3766 1.55091C13.9017 1.07601 13.2578 0.80883 12.5862 0.807983H3.41283C2.74121 0.80883 2.09734 1.07601 1.62243 1.55091C1.14752 2.02582 0.880344 2.6697 0.879497 3.34132V8.59998C0.88483 9.12318 1.67523 9.12372 1.6795 8.59998V3.34132C1.68006 2.88178 1.86286 2.44123 2.1878 2.11629C2.51274 1.79135 2.9533 1.60855 3.41283 1.60798H12.5862C13.0457 1.60855 13.4863 1.79135 13.8112 2.11629C14.1361 2.44123 14.3189 2.88178 14.3195 3.34132V9.10132C14.3194 9.27804 14.2491 9.44747 14.124 9.57238C13.999 9.69729 13.8295 9.76745 13.6528 9.76745H0.76323C0.429364 9.78558 0.130164 10.0528 0.13283 10.3984V11.5232C0.133395 11.9656 0.309395 12.3897 0.622234 12.7026C0.935072 13.0154 1.35921 13.1914 1.80163 13.192H14.1968C14.6393 13.1916 15.0636 13.0156 15.3766 12.7028C15.6895 12.3899 15.8656 11.9657 15.8662 11.5232V10.3984C15.8659 10.2311 15.7993 10.0708 15.6811 9.95256C15.5628 9.8343 15.4025 9.76773 15.2352 9.76745ZM15.0662 11.5232C15.066 11.7537 14.9744 11.9746 14.8114 12.1376C14.6483 12.3005 14.4273 12.392 14.1968 12.392H1.80163C1.5713 12.3917 1.35048 12.3001 1.18761 12.1372C1.02474 11.9743 0.933113 11.7535 0.93283 11.5232V10.5675H15.0662V11.5232Z" fill="#828ABA"/>
<path d="M8.0019 2.39417C7.56937 2.39417 7.5683 3.0523 8.00083 3.05337C8.4307 3.05123 8.43177 2.3979 8.0019 2.39417ZM7.4547 11.88H8.54643C9.0691 11.8779 9.06963 11.0822 8.54643 11.08H7.4547C6.93203 11.0822 6.9315 11.8779 7.4547 11.88Z" fill="#828ABA"/>
</svg>
