<svg width="111" height="98" viewBox="0 0 111 98" fill="none" xmlns="http://www.w3.org/2000/svg">
<g clip-path="url(#clip0_4791_100455)">
<path d="M77.8968 61.8536C77.8973 61.9748 77.7855 62.0873 77.567 62.1427L77.0015 62.1545C76.772 62.1088 76.6362 62.0039 76.6098 61.8822C76.5833 61.7607 76.6783 61.6529 76.9134 61.5929L77.5312 61.5756C77.7783 61.6225 77.8965 61.7264 77.8971 61.8536H77.8968Z" fill="#D1DCF8"/>
<path d="M83.461 61.8463C83.461 61.9675 83.2117 62.0769 82.7079 62.1267L81.4278 62.1256C80.9248 62.075 80.6758 61.9651 80.6758 61.8408C80.6758 61.7165 80.925 61.6102 81.4283 61.5575L82.7082 61.5585C83.2117 61.6123 83.4607 61.7191 83.4607 61.8463H83.461Z" fill="#D1DCF8"/>
<path d="M89.0318 61.8649C89.0313 61.9861 88.7818 62.0947 88.2777 62.143L86.9973 62.138C86.4943 62.0858 86.2456 61.9751 86.2461 61.851C86.2466 61.7267 86.4961 61.6212 86.9997 61.5698L88.2801 61.5748C88.7836 61.6302 89.0324 61.7377 89.0318 61.8649Z" fill="#D1DCF8"/>
<path d="M93.1116 60.6153C93.2349 60.6153 93.3465 60.8419 93.3977 61.3002V62.1681L92.5149 62.1634C92.0495 62.1107 91.8198 61.9997 91.8203 61.8757C91.8211 61.7513 92.0522 61.6462 92.5181 61.5955L92.8197 61.5971V61.3004C92.8739 60.8422 92.9822 60.6156 93.1119 60.6156L93.1116 60.6153Z" fill="#D1DCF8"/>
<path d="M93.1142 56.0552C93.2375 56.0552 93.349 56.259 93.4003 56.6716V57.7195C93.349 58.1316 93.2378 58.3354 93.1113 58.3354C92.9848 58.3354 92.8764 58.1316 92.8223 57.7195V56.6716C92.8764 56.2593 92.9848 56.0552 93.1145 56.0552H93.1142Z" fill="#D1DCF8"/>
<path d="M91.8203 52.5048C91.8203 52.3836 92.0509 52.274 92.5171 52.2236H93.3982V53.0903C93.347 53.548 93.2357 53.7749 93.1092 53.7749C92.9827 53.7749 92.8744 53.5483 92.8202 53.0903V52.7918H92.5171C92.0509 52.7385 91.8203 52.632 91.8203 52.5048Z" fill="#D1DCF8"/>
<path d="M88.2324 52.5048C88.2324 52.3836 88.3928 52.274 88.7173 52.2236H89.5419C89.8661 52.274 90.0265 52.3834 90.0265 52.5077C90.0265 52.632 89.8661 52.7385 89.5419 52.7918H88.7173C88.3928 52.7385 88.2324 52.632 88.2324 52.5048Z" fill="#D1DCF8"/>
<path d="M85.1455 53.7749C85.0222 53.7749 84.9106 53.5483 84.8594 53.09V52.2239H85.7411C86.2067 52.2742 86.4376 52.3836 86.4376 52.508C86.4376 52.6323 86.207 52.7388 85.7411 52.792H85.4374V53.09C85.3832 53.5483 85.2749 53.7749 85.1452 53.7749H85.1455Z" fill="#D1DCF8"/>
<path d="M85.1455 58.3301C85.0222 58.3301 84.9106 58.1263 84.8594 57.7145V56.6676C84.9106 56.256 85.0219 56.0525 85.1484 56.0525C85.2749 56.0525 85.3832 56.2563 85.4374 56.6676V57.7145C85.3832 58.1263 85.2749 58.3301 85.1452 58.3301H85.1455Z" fill="#D1DCF8"/>
<path d="M85.1455 62.885C85.0222 62.885 84.9106 62.6812 84.8594 62.2694V61.2225C84.9106 60.811 85.0219 60.6074 85.1484 60.6074C85.2749 60.6074 85.3832 60.8112 85.4374 61.2225V62.2694C85.3832 62.6812 85.2749 62.885 85.1452 62.885H85.1455Z" fill="#D1DCF8"/>
<path d="M86.4373 66.4327C86.4373 66.5539 86.2067 66.6636 85.7405 66.7139H84.8594V65.8473C84.9106 65.3896 85.0219 65.1627 85.1484 65.1627C85.2749 65.1627 85.3832 65.3893 85.4374 65.8473V66.1458H85.7405C86.2067 66.199 86.4373 66.3055 86.4373 66.4327Z" fill="#D1DCF8"/>
<path d="M90.8064 66.4327C90.8064 66.5539 90.6111 66.6635 90.2158 66.7139H89.2114C88.8164 66.6635 88.6211 66.5542 88.6211 66.4298C88.6211 66.3055 88.8164 66.199 89.2114 66.1458H90.2158C90.6111 66.199 90.8064 66.3055 90.8064 66.4327Z" fill="#D1DCF8"/>
<path d="M95.1772 66.4328C95.1772 66.554 94.9819 66.6636 94.5867 66.714H93.5822C93.1873 66.6636 92.9919 66.5542 92.9919 66.4299C92.9919 66.3056 93.1873 66.1991 93.5822 66.1458H94.5867C94.9819 66.1991 95.1772 66.3056 95.1772 66.4328Z" fill="#D1DCF8"/>
<path d="M98.6571 65.1627C98.7804 65.1627 98.8919 65.3893 98.9432 65.8475V66.7137H98.0615C97.5958 66.6633 97.365 66.5539 97.365 66.4296C97.365 66.3053 97.5956 66.1988 98.0615 66.1455H98.3652V65.8475C98.4193 65.3893 98.5277 65.1627 98.6574 65.1627H98.6571Z" fill="#D1DCF8"/>
<path d="M98.655 60.0574C98.7783 60.0574 98.8898 60.2856 98.941 60.7472V61.9205C98.8898 62.3817 98.7785 62.6101 98.652 62.6101C98.5256 62.6101 98.4172 62.3819 98.363 61.9205V60.7472C98.4172 60.2856 98.5256 60.0574 98.6552 60.0574H98.655Z" fill="#D1DCF8"/>
<path d="M98.655 54.9524C98.7783 54.9524 98.8898 55.1806 98.941 55.6423V56.8153C98.8898 57.2764 98.7785 57.5049 98.652 57.5049C98.5256 57.5049 98.4172 57.2767 98.363 56.8153V55.6423C98.4172 55.1806 98.5256 54.9524 98.6552 54.9524H98.655Z" fill="#D1DCF8"/>
<path d="M98.655 49.8471C98.7783 49.8471 98.8898 50.0753 98.941 50.537V51.7103C98.8898 52.1714 98.7785 52.3999 98.652 52.3999C98.5256 52.3999 98.4172 52.1717 98.363 51.7103V50.537C98.4172 50.0753 98.5256 49.8471 98.6552 49.8471H98.655Z" fill="#D1DCF8"/>
<path d="M98.655 44.7418C98.7783 44.7418 98.8898 44.97 98.941 45.4317V46.605C98.8898 47.0661 98.7785 47.2946 98.652 47.2946C98.5256 47.2946 98.4172 47.0664 98.363 46.605V45.4317C98.4172 44.97 98.5256 44.7418 98.6552 44.7418H98.655Z" fill="#D1DCF8"/>
<path d="M98.655 39.6368C98.7783 39.6368 98.8898 39.865 98.941 40.3267V41.5C98.8898 41.9611 98.7785 42.1896 98.652 42.1896C98.5256 42.1896 98.4172 41.9614 98.363 41.5V40.3267C98.4172 39.865 98.5256 39.6368 98.6552 39.6368H98.655Z" fill="#D1DCF8"/>
<path d="M98.655 34.5316C98.7783 34.5316 98.8898 34.7598 98.941 35.2214V36.3947C98.8898 36.8559 98.7785 37.0843 98.652 37.0843C98.5256 37.0843 98.4172 36.8561 98.363 36.3947V35.2214C98.4172 34.7598 98.5256 34.5316 98.6552 34.5316H98.655Z" fill="#D1DCF8"/>
<path d="M98.655 29.4266C98.7783 29.4266 98.8898 29.6548 98.941 30.1164V31.2897C98.8898 31.7509 98.7785 31.9793 98.652 31.9793C98.5256 31.9793 98.4172 31.7511 98.363 31.2897V30.1164C98.4172 29.6548 98.5256 29.4266 98.6552 29.4266H98.655Z" fill="#D1DCF8"/>
<path d="M98.655 24.3213C98.7783 24.3213 98.8898 24.5495 98.941 25.0112V26.1845C98.8898 26.6456 98.7785 26.8741 98.652 26.8741C98.5256 26.8741 98.4172 26.6458 98.363 26.1845V25.0112C98.4172 24.5495 98.5256 24.3213 98.6552 24.3213H98.655Z" fill="#D1DCF8"/>
<path d="M98.655 19.2163C98.7783 19.2163 98.8898 19.4445 98.941 19.9062V21.0795C98.8898 21.5406 98.7785 21.7691 98.652 21.7691C98.5256 21.7691 98.4172 21.5409 98.363 21.0795V19.9062C98.4172 19.4445 98.5256 19.2163 98.6552 19.2163H98.655Z" fill="#D1DCF8"/>
<path d="M98.655 14.111C98.7783 14.111 98.8898 14.3392 98.941 14.8009V15.9742C98.8898 16.4353 98.7785 16.6638 98.652 16.6638C98.5256 16.6638 98.4172 16.4356 98.363 15.9742V14.8009C98.4172 14.3392 98.5256 14.111 98.6552 14.111H98.655Z" fill="#D1DCF8"/>
<path d="M98.655 9.00574C98.7783 9.00574 98.8898 9.23394 98.941 9.6956V10.8689C98.8898 11.33 98.7785 11.5585 98.652 11.5585C98.5256 11.5585 98.4172 11.3303 98.363 10.8689V9.6956C98.4172 9.23394 98.5256 9.00574 98.6552 9.00574H98.655Z" fill="#D1DCF8"/>
<path d="M97.365 5.18317C97.365 5.06198 97.5956 4.95234 98.0618 4.90198H98.9429V5.76864C98.8917 6.22636 98.7804 6.45326 98.6539 6.45326C98.5274 6.45326 98.4191 6.22662 98.3649 5.76864V5.47013H98.0618C97.5956 5.41688 97.365 5.31039 97.365 5.18317Z" fill="#D1DCF8"/>
<path d="M92.2012 5.18317C92.2012 5.06198 92.432 4.95234 92.8987 4.90198H94.0852C94.5517 4.95234 94.7825 5.06172 94.7825 5.18606C94.7825 5.31039 94.5517 5.41688 94.0852 5.47013H92.8987C92.432 5.41688 92.2012 5.31039 92.2012 5.18317Z" fill="#D1DCF8"/>
<path d="M87.0391 5.18317C87.0391 5.06198 87.2699 4.95234 87.7369 4.90198H88.9233C89.3898 4.95234 89.6206 5.06172 89.6206 5.18606C89.6206 5.31039 89.3898 5.41688 88.9233 5.47013H87.7369C87.2702 5.41688 87.0391 5.31039 87.0391 5.18317Z" fill="#D1DCF8"/>
<path d="M81.875 5.18317C81.875 5.06198 82.1058 4.95234 82.5728 4.90198H83.7593C84.2257 4.95234 84.4566 5.06172 84.4566 5.18606C84.4566 5.31039 84.2257 5.41688 83.7593 5.47013H82.5728C82.1061 5.41688 81.875 5.31039 81.875 5.18317Z" fill="#D1DCF8"/>
<path d="M76.7129 5.18317C76.7129 5.06198 76.9437 4.95234 77.4107 4.90198H78.5972C79.0636 4.95234 79.2945 5.06172 79.2945 5.18606C79.2945 5.31039 79.0636 5.41688 78.5972 5.47013H77.4107C76.944 5.41688 76.7129 5.31039 76.7129 5.18317Z" fill="#D1DCF8"/>
<path d="M71.5527 5.18317C71.5527 5.06198 71.7836 4.95234 72.2506 4.90198H73.437C73.9035 4.95234 74.1343 5.06172 74.1343 5.18606C74.1343 5.31039 73.9035 5.41688 73.437 5.47013H72.2506C71.7838 5.41688 71.5527 5.31039 71.5527 5.18317Z" fill="#D1DCF8"/>
<path d="M66.3887 5.18317C66.3887 5.06198 66.6195 4.95234 67.0865 4.90198H68.273C68.7394 4.95234 68.9703 5.06172 68.9703 5.18606C68.9703 5.31039 68.7394 5.41688 68.273 5.47013H67.0865C66.6198 5.41688 66.3887 5.31039 66.3887 5.18317Z" fill="#D1DCF8"/>
<path d="M61.2246 5.18317C61.2246 5.06198 61.4554 4.95234 61.9224 4.90198H63.1089C63.5754 4.95234 63.8062 5.06172 63.8062 5.18606C63.8062 5.31039 63.5754 5.41688 63.1089 5.47013H61.9224C61.4557 5.41688 61.2246 5.31039 61.2246 5.18317Z" fill="#D1DCF8"/>
<path d="M56.0625 5.18317C56.0625 5.06198 56.2933 4.95234 56.7603 4.90198H57.9468C58.4132 4.95234 58.6441 5.06172 58.6441 5.18606C58.6441 5.31039 58.4132 5.41688 57.9468 5.47013H56.7603C56.2936 5.41688 56.0625 5.31039 56.0625 5.18317Z" fill="#D1DCF8"/>
<path d="M50.8983 5.18317C50.8983 5.06198 51.1291 4.95234 51.5962 4.90198H52.7826C53.2491 4.95234 53.4799 5.06172 53.4799 5.18606C53.4799 5.31039 53.2491 5.41688 52.7826 5.47013H51.5962C51.1294 5.41688 50.8983 5.31039 50.8983 5.18317Z" fill="#D1DCF8"/>
<path d="M45.7362 5.18317C45.7362 5.06198 45.967 4.95234 46.434 4.90198H47.6205C48.087 4.95234 48.3178 5.06172 48.3178 5.18606C48.3178 5.31039 48.087 5.41688 47.6205 5.47013H46.434C45.9673 5.41688 45.7362 5.31039 45.7362 5.18317Z" fill="#D1DCF8"/>
<path d="M40.576 5.18317C40.576 5.06198 40.8069 4.95234 41.2739 4.90198H42.4603C42.9268 4.95234 43.1576 5.06172 43.1576 5.18606C43.1576 5.31039 42.9268 5.41688 42.4603 5.47013H41.2739C40.8071 5.41688 40.576 5.31039 40.576 5.18317Z" fill="#D1DCF8"/>
<path d="M35.412 5.18317C35.412 5.06198 35.6428 4.95234 36.1096 4.90198H37.296C37.7625 4.95234 37.9933 5.06172 37.9933 5.18606C37.9933 5.31039 37.7625 5.41688 37.296 5.47013H36.1096C35.6428 5.41688 35.412 5.31039 35.412 5.18317Z" fill="#D1DCF8"/>
<path d="M30.2479 5.18317C30.2479 5.06198 30.4788 4.95234 30.9458 4.90198H32.1322C32.5987 4.95234 32.8295 5.06172 32.8295 5.18606C32.8295 5.31039 32.5987 5.41688 32.1322 5.47013H30.9458C30.479 5.41688 30.2479 5.31039 30.2479 5.18317Z" fill="#D1DCF8"/>
<path d="M25.0878 5.18317C25.0878 5.06198 25.3186 4.95234 25.7856 4.90198H26.9721C27.4385 4.95234 27.6694 5.06172 27.6694 5.18606C27.6694 5.31039 27.4385 5.41688 26.9721 5.47013H25.7856C25.3189 5.41688 25.0878 5.31039 25.0878 5.18317Z" fill="#D1DCF8"/>
<path d="M19.9237 5.18317C19.9237 5.06198 20.1545 4.95234 20.6215 4.90198H21.808C22.2745 4.95234 22.5053 5.06172 22.5053 5.18606C22.5053 5.31039 22.2745 5.41688 21.808 5.47013H20.6215C20.1548 5.41688 19.9237 5.31039 19.9237 5.18317Z" fill="#D1DCF8"/>
<path d="M16.0496 6.45367C15.9263 6.45367 15.8148 6.22703 15.7635 5.76878V4.90265H16.6453C17.1109 4.95301 17.3417 5.06239 17.3417 5.18673C17.3417 5.31106 17.1112 5.41756 16.6453 5.4708H16.3416V5.76878C16.2874 6.22703 16.179 6.45367 16.0496 6.45367Z" fill="#D1DCF8"/>
<path d="M16.0496 11.7198C15.9263 11.7198 15.8148 11.4843 15.7635 11.0082V9.79792C15.8148 9.3221 15.9261 9.08655 16.0526 9.08655C16.179 9.08655 16.2874 9.3221 16.3416 9.79792V11.0082C16.2874 11.4846 16.179 11.7198 16.0496 11.7198Z" fill="#D1DCF8"/>
<path d="M16.0496 16.9864C15.9263 16.9864 15.8148 16.7509 15.7635 16.2748V15.0645C15.8148 14.5887 15.9261 14.3531 16.0526 14.3531C16.179 14.3531 16.2874 14.5887 16.3416 15.0645V16.2748C16.2874 16.7512 16.179 16.9864 16.0496 16.9864Z" fill="#D1DCF8"/>
<path d="M16.0496 22.253C15.9263 22.253 15.8148 22.0175 15.7635 21.5414V20.3311C15.8148 19.8553 15.9261 19.6198 16.0526 19.6198C16.179 19.6198 16.2874 19.8553 16.3416 20.3311V21.5414C16.2874 22.0178 16.179 22.253 16.0496 22.253Z" fill="#D1DCF8"/>
<path d="M16.0496 26.1535C15.9263 26.1535 15.8148 26.0402 15.7635 25.8109V25.2286C15.8148 24.9996 15.9261 24.8863 16.0526 24.8863C16.179 24.8863 16.2874 24.9996 16.3416 25.2286V25.8109C16.2874 26.0402 16.179 26.1535 16.0496 26.1535Z" fill="#D1DCF8"/>
<path d="M76.6354 11.5504H33.2915C30.9591 11.5504 29.0682 13.409 29.0682 15.7017V93.8477C29.0682 96.1404 30.9591 97.999 33.2915 97.999H76.6354C78.9679 97.999 80.8587 96.1404 80.8587 93.8477V15.7017C80.8587 13.409 78.9679 11.5504 76.6354 11.5504Z" fill="#BBCAEA"/>
<path d="M33.2916 96.2523C31.9426 96.2523 30.8456 95.1737 30.8456 93.848V19.7098C30.8456 18.3838 31.9429 17.3049 33.2916 17.3049H76.6358C77.9847 17.3049 79.0818 18.3838 79.0818 19.7098V93.848C79.0818 95.174 77.9845 96.2523 76.6358 96.2523H33.2916Z" fill="white"/>
<path d="M49.9524 14.6446C50.0734 14.1407 49.7559 13.6358 49.2433 13.5169C48.7306 13.3979 48.2169 13.71 48.0959 14.2139C47.9749 14.7178 48.2924 15.2228 48.8051 15.3417C49.3177 15.4606 49.8314 15.1485 49.9524 14.6446Z" fill="white"/>
<path d="M62.1768 14.4306C62.1768 14.7889 61.876 15.0845 61.5115 15.0845H52.212C51.8411 15.0845 51.5468 14.7892 51.5468 14.4306C51.5468 14.072 51.8408 13.7767 52.212 13.7767H61.5115C61.876 13.7767 62.1768 14.0657 62.1768 14.4306Z" fill="white"/>
<path d="M70.0304 83.3113V91.32C70.0304 91.8659 69.5818 92.3113 69.0219 92.3113H40.6509C40.091 92.3113 39.6425 91.8659 39.6425 91.32V83.3113C39.6425 82.7654 40.091 82.32 40.6509 82.32H69.0217C69.5815 82.32 70.0301 82.7654 70.0301 83.3113H70.0304Z" fill="#06D6A0"/>
<path d="M34.8168 24.683H43.7106C44.2251 24.683 44.6428 25.0936 44.6428 25.5993V32.9585C44.6428 33.4643 44.2251 33.8748 43.7106 33.8748H34.8168C34.3023 33.8748 33.8846 33.4643 33.8846 32.9585V25.5993C33.8846 25.0936 34.3023 24.683 34.8168 24.683Z" fill="#E4ECF9"/>
<path d="M76.6115 25.5151H46.6698V26.1137H76.6115V25.5151Z" fill="#E4ECF9"/>
<path d="M76.6115 28.0439H46.6698V28.6425H76.6115V28.0439Z" fill="#E4ECF9"/>
<path d="M76.6115 30.5729H46.6698V31.1715H76.6115V30.5729Z" fill="#E4ECF9"/>
<path d="M76.6115 33.1018H46.6698V33.7004H76.6115V33.1018Z" fill="#E4ECF9"/>
<path d="M34.8168 37.5471H43.7106C44.2251 37.5471 44.6428 37.9576 44.6428 38.4633V45.8226C44.6428 46.3283 44.2251 46.7388 43.7106 46.7388H34.8168C34.3023 46.7388 33.8846 46.3283 33.8846 45.8226V38.4633C33.8846 37.9576 34.3023 37.5471 34.8168 37.5471Z" fill="#E4ECF9"/>
<path d="M76.6115 38.3792H46.6698V38.9777H76.6115V38.3792Z" fill="#E4ECF9"/>
<path d="M76.6115 40.908H46.6698V41.5065H76.6115V40.908Z" fill="#E4ECF9"/>
<path d="M76.6115 43.4369H46.6698V44.0355H76.6115V43.4369Z" fill="#E4ECF9"/>
<path d="M76.6115 45.9658H46.6698V46.5644H76.6115V45.9658Z" fill="#E4ECF9"/>
<path d="M34.8168 50.4111H43.7106C44.2251 50.4111 44.6428 50.8216 44.6428 51.3273V58.6866C44.6428 59.1923 44.2251 59.6028 43.7106 59.6028H34.8168C34.3023 59.6028 33.8846 59.1923 33.8846 58.6866V51.3273C33.8846 50.8216 34.3023 50.4111 34.8168 50.4111Z" fill="#E4ECF9"/>
<path d="M76.6115 51.2432H46.6698V51.8417H76.6115V51.2432Z" fill="#E4ECF9"/>
<path d="M76.6115 53.772H46.6698V54.3706H76.6115V53.772Z" fill="#E4ECF9"/>
<path d="M76.6115 56.3009H46.6698V56.8995H76.6115V56.3009Z" fill="#E4ECF9"/>
<path d="M76.6115 58.8298H46.6698V59.4284H76.6115V58.8298Z" fill="#E4ECF9"/>
<path d="M34.8168 63.2751H43.7106C44.2251 63.2751 44.6428 63.6856 44.6428 64.1913V71.5506C44.6428 72.0563 44.2251 72.4668 43.7106 72.4668H34.8168C34.3023 72.4668 33.8846 72.0563 33.8846 71.5506V64.1913C33.8846 63.6856 34.3023 63.2751 34.8168 63.2751Z" fill="#E4ECF9"/>
<path d="M76.6115 64.1072H46.6698V64.7058H76.6115V64.1072Z" fill="#E4ECF9"/>
<path d="M76.6115 66.636H46.6698V67.2346H76.6115V66.636Z" fill="#E4ECF9"/>
<path d="M76.6115 69.1649H46.6698V69.7635H76.6115V69.1649Z" fill="#E4ECF9"/>
<path d="M76.6115 71.6938H46.6698V72.2924H76.6115V71.6938Z" fill="#E4ECF9"/>
<path d="M7.1101 95.0739L9.45578 96.6559L10.8194 96.066C10.8194 96.066 10.8536 94.9601 10.8808 93.3181C10.8944 92.0781 10.915 90.9723 10.915 90.9051C10.915 90.7375 7.41005 90.9387 7.24646 90.9925C7.17841 91.0127 7.14426 91.7699 7.13065 92.6815C7.09649 94.0355 7.1101 94.9535 7.1101 95.0742V95.0739Z" fill="#FEC9AC"/>
<g opacity="0.5">
<path d="M7.13269 92.6812C8.18278 93.1704 9.34868 93.4049 10.5079 93.3514C10.6307 93.3446 10.7601 93.338 10.8828 93.3178C10.8965 92.0779 10.917 90.972 10.917 90.9049C10.917 90.7373 7.41209 90.9384 7.24851 90.9922C7.18046 91.0124 7.1463 91.7697 7.13269 92.6812Z" fill="#FFAB90"/>
</g>
<path d="M5.93769 97.6446C5.96918 97.8529 6.15411 97.999 6.37026 97.999H16.9333C17.118 97.999 17.2802 97.8883 17.348 97.7199C17.5057 97.2991 17.7176 96.5196 17.2263 96.1872C16.5413 95.7266 15.0904 96.1518 14.0899 95.4564C13.094 94.7655 11.8998 92.4131 10.4668 94.0124C10.4668 94.0124 9.31318 95.7489 8.52915 95.3811C7.74512 95.0137 7.1591 93.1132 6.21735 93.8396C5.74421 94.2073 5.78478 96.7499 5.93795 97.6446H5.93769Z" fill="#3A4146"/>
<path d="M17.3208 95.0739L19.6665 96.6559L21.0301 96.066C21.0301 96.066 21.0643 94.9601 21.0915 93.3181C21.1051 92.0781 21.1257 90.9723 21.1257 90.9051C21.1257 90.7375 17.6207 90.9387 17.4572 90.9925C17.3891 91.0127 17.3549 91.7699 17.3413 92.6815C17.3072 94.0355 17.3208 94.9535 17.3208 95.0742V95.0739Z" fill="#FEC9AC"/>
<g opacity="0.5">
<path d="M17.3413 92.6812C18.3914 93.1704 19.5573 93.4049 20.7165 93.3514C20.8393 93.3446 20.9687 93.338 21.0915 93.3178C21.1051 92.0779 21.1256 90.972 21.1256 90.9049C21.1256 90.7373 17.6207 90.9384 17.4571 90.9922C17.3891 91.0124 17.3549 91.7697 17.3413 92.6812Z" fill="#FFAB90"/>
</g>
<path d="M16.1484 97.6446C16.1799 97.8529 16.3648 97.999 16.581 97.999H27.144C27.3287 97.999 27.4909 97.8883 27.5587 97.7199C27.7164 97.2991 27.9283 96.5196 27.437 96.1872C26.752 95.7266 25.3011 96.1518 24.3006 95.4564C23.3047 94.7655 22.1105 92.4131 20.6775 94.0124C20.6775 94.0124 19.5239 95.7489 18.7398 95.3811C17.9558 95.0137 17.3698 93.1132 16.428 93.8396C15.9549 94.2073 15.9955 96.7499 16.1486 97.6446H16.1484Z" fill="#3A4146"/>
<path d="M8.05316 49.5407V52.9667C8.05316 52.9667 1.52715 51.9327 0.636907 48.8419C0.191788 47.3135 0.902698 45.7509 1.7409 44.5579C1.8738 44.3762 2.00669 44.1999 2.13985 44.0352V44.0294C2.87985 43.1035 3.58489 42.5067 3.58489 42.5067L5.37684 43.7907C5.37684 43.7907 7.40577 45.7792 7.19175 46.3078C7.09915 46.5407 6.87392 46.9216 6.65429 47.2736C6.36529 47.7395 6.07628 48.1599 6.07628 48.1599L8.05316 49.5407Z" fill="#FEC9AC"/>
<g opacity="0.5">
<path d="M7.19239 46.3076C7.09979 46.5405 6.87457 46.9213 6.65494 47.2734C5.38897 47.2393 2.1405 44.9724 2.1405 44.0349V44.0292C2.8805 43.1032 3.58554 42.5065 3.58554 42.5065L5.37749 43.7905C5.37749 43.7905 7.40641 45.779 7.19239 46.3076Z" fill="#FFAB90"/>
</g>
<path d="M37.2077 36.4613C37.2077 36.4613 36.7278 39.0125 35.8261 41.927C34.7163 45.5235 32.9649 49.6768 30.6816 50.3019C29.5486 50.6088 28.0053 49.5066 26.936 48.5518C26.1904 47.8929 25.67 47.3019 25.67 47.3019L28.4157 42.6769L29.0052 41.677C29.1208 41.7507 30.0572 42.5235 30.3926 42.8021C30.4679 42.8645 30.5141 42.9044 30.5141 42.9044C30.5141 42.9044 34.566 35.8022 34.566 35.7114C34.566 35.6206 34.0806 32.6377 34.7971 32.7284C35.5198 32.8192 35.6583 33.9783 35.6583 33.9783C35.6583 33.9783 37.0686 30.2683 37.9936 30.4954C38.8953 30.7171 36.9472 33.2738 36.8434 33.4044C38.2711 32.6886 39.3057 35.5065 37.2077 36.4613Z" fill="#FEC9AC"/>
<g opacity="0.5">
<path d="M30.3926 42.8021C30.2944 43.0237 30.1151 43.2225 29.9937 43.4269C29.8087 43.7393 29.6758 44.0803 29.5718 44.427C29.3927 45.0178 29.2942 45.6316 29.1325 46.228C28.9649 46.8245 28.7162 47.4213 28.2943 47.8756C27.9418 48.2507 27.4447 48.5235 26.936 48.5515C26.1904 47.8926 25.67 47.3017 25.67 47.3017L28.4157 42.6767L29.0052 41.6768C29.1208 41.7505 30.0572 42.5232 30.3926 42.8018V42.8021Z" fill="#FFAB90"/>
</g>
<path d="M25.8558 48.1882L22.7288 45.5746C22.7288 45.5746 22.7346 45.5917 22.7402 45.6258C22.8617 46.3872 24.2661 52.8132 24.0812 54.37C23.8095 56.7507 8.19674 56.5802 7.01777 54.9893C6.26042 53.9668 7.38763 47.4498 7.38763 47.4498C5.74592 47.5637 2.11025 42.6203 2.90788 41.416C2.90788 41.416 4.25472 39.1943 6.6535 37.1034C8.63626 35.3819 11.3355 33.7457 14.584 33.5411C22.8787 33.007 29.0984 41.0409 29.0984 41.0409C30.133 41.9955 27.0233 48.6488 25.8555 48.1885L25.8558 48.1882Z" fill="#64D3FF"/>
<path d="M23.0388 54.62C23.0388 54.62 23.0388 55.2905 23.0273 56.4381C20.5245 57.8871 10.588 57.8472 7.43774 56.8643C7.58238 55.1087 7.70354 53.91 7.79026 53.5745C8.2642 51.6599 23.0388 54.62 23.0388 54.62Z" fill="#022E4F"/>
<path d="M23.0427 54.62C23.0427 54.62 23.0427 55.2905 23.0313 56.4381V56.512C22.9966 62.3413 22.8522 85.3597 22.4127 91.4334C22.4127 92.1608 19.3318 92.3992 17.3088 92.1492C16.3144 92.0299 15.5803 91.7854 15.5803 91.4334C15.2972 85.5187 15.0658 64.1764 15.0658 64.1764C15.0658 64.1764 15.0658 64.1934 15.0599 64.2217V64.233C14.9791 65.2445 13.6149 85.6661 12.6611 91.4331C12.6611 91.7799 11.6901 91.9955 10.5049 92.0753C8.62625 92.1946 6.19277 91.9842 6.19277 91.4331C5.9558 88.2514 6.44122 71.7046 6.95572 63.716C7.11744 61.0966 7.29089 58.7104 7.44114 56.8638C7.58577 55.1082 7.70693 53.9094 7.79366 53.5739C8.2676 51.6594 23.0422 54.6195 23.0422 54.6195L23.0427 54.62Z" fill="#003567"/>
<path d="M23.0436 54.62C23.0436 54.62 23.0436 55.2905 23.0322 56.4381V56.512C21.5583 57.5119 19.7837 58.0859 17.9976 58.0914C15.8243 58.0914 13.512 57.3302 11.5525 58.2619C9.36742 59.2959 8.59299 61.9719 6.95715 63.7163C7.11887 61.0969 7.29233 58.7107 7.44257 56.864C7.5872 55.1084 7.70836 53.9097 7.79509 53.5742C8.26903 51.6596 23.0436 54.6197 23.0436 54.6197V54.62Z" fill="#022E4F"/>
<path d="M15.061 64.2335C14.9801 65.245 13.6159 85.6666 12.6622 91.4336C12.6622 91.7804 11.6911 91.996 10.506 92.0758C12.5464 85.7235 14.899 65.2678 15.061 64.2335Z" fill="#022E4F"/>
<path d="M17.3075 92.1495C16.3132 92.0302 15.5791 91.7857 15.5791 91.4337C15.2959 85.5189 15.0646 64.1766 15.0646 64.1766C15.0646 64.1766 16.7525 85.627 17.3073 92.1495H17.3075Z" fill="#022E4F"/>
<path d="M18.9986 34.0259L18.7878 30.5406C18.7878 30.5406 21.1412 30.9805 21.3753 29.7495C21.5792 28.6767 21.3753 27.8656 21.3753 27.8656C21.3753 27.8656 22.2186 27.2628 22.0654 27.0178C21.9119 26.7728 20.5897 26.0381 20.5897 26.0381C20.5897 26.0381 20.5897 21.7429 17.8106 22.1006C15.0315 22.4587 14.2267 27.7712 14.2267 27.7712L14.8591 30.4087L14.6291 34.0256C14.6291 34.337 18.9989 34.337 18.9989 34.0256L18.9986 34.0259Z" fill="#FEC9AC"/>
<path d="M19.5708 23.2115C19.1662 23.4672 18.8481 23.7738 18.5882 24.1036C17.675 25.2795 17.5883 26.7172 17.7153 26.8877C17.877 27.1093 16.6169 28.8933 16.6169 28.8933C16.6169 28.8933 16.8827 30.2114 17.8711 31.041C18.2874 31.3933 18.53 32.1092 18.3568 32.842C18.2586 33.2567 18.0331 33.6772 17.6227 34.0353C17.0561 34.5523 16.1371 34.9442 14.7614 35.0465C10.6633 35.3478 7.1429 34.5237 6.95797 32.1262C6.77304 29.7342 9.06775 28.7456 9.51874 25.7912C9.70954 24.5243 10.3337 23.2288 11.2875 22.2003C11.5186 21.9503 11.7673 21.7174 12.0331 21.5015C13.2353 20.5299 14.8017 19.956 16.5822 20.1548C18.9234 20.4106 19.9465 21.2402 20.1197 22.007C20.2296 22.4843 20.0041 22.9389 19.5705 23.2115H19.5708Z" fill="#AD4F36"/>
<path d="M21.3905 28.4862C21.4127 28.4967 21.3753 28.6439 21.1341 28.7829C20.9206 28.8849 20.6727 28.8815 20.4579 28.8188C20.1907 28.7289 20.1387 28.5623 20.1672 28.5552C20.1966 28.5345 20.2708 28.6323 20.4982 28.6824C20.6903 28.738 20.8974 28.738 21.0714 28.6549C21.2816 28.5631 21.362 28.4629 21.3908 28.486L21.3905 28.4862Z" fill="#4F2D2B"/>
<path d="M20.0403 26.2196C20.1505 26.2099 20.2253 26.042 20.2073 25.8446C20.1893 25.6472 20.0854 25.495 19.9751 25.5048C19.8649 25.5145 19.7901 25.6824 19.8081 25.8797C19.8261 26.0771 19.93 26.2293 20.0403 26.2196Z" fill="#4F2D2B"/>
<path d="M19.4089 25.0371C19.3841 25.0335 19.3678 24.8958 19.513 24.682C19.6456 24.5115 19.8397 24.3864 20.0515 24.335C20.3085 24.2896 20.4307 24.3588 20.4241 24.3835C20.4198 24.4189 20.2994 24.4094 20.0873 24.4727C19.9053 24.5173 19.7414 24.6227 19.6275 24.7691C19.4839 24.9354 19.4447 25.0476 19.4092 25.0371H19.4089Z" fill="#4F2D2B"/>
<path d="M24.0812 54.37C23.8095 56.7507 8.19675 56.5802 7.01777 54.9893C6.26042 53.9669 7.38763 47.4499 7.38763 47.4499C5.74592 47.5637 2.11025 42.6203 2.90788 41.416C2.90788 41.416 4.25472 39.1943 6.65351 37.1035C7.8501 38.7455 9.09846 40.3592 10.5494 41.7851C12.1967 43.4101 14.1274 44.7964 16.318 45.5862C18.5087 46.3702 20.5435 46.4159 22.74 45.6261C22.8614 46.3875 24.2659 52.8135 24.0809 54.3703L24.0812 54.37Z" fill="#42C1F4"/>
<path d="M18.0266 27.9193C18.1508 27.2663 17.7257 26.6404 17.0771 26.5212C16.4285 26.402 15.8021 26.8347 15.6779 27.4876C15.5537 28.1405 15.9788 28.7664 16.6274 28.8856C17.276 29.0048 17.9024 28.5722 18.0266 27.9193Z" fill="#FEC9AC"/>
<path d="M17.6263 34.0353C17.0598 34.5523 16.1407 34.9442 14.7651 35.0465C10.667 35.3479 7.14656 34.5237 6.96163 32.1263C6.7767 29.7343 9.07141 28.7456 9.5224 25.7913C9.7132 24.5244 10.3374 23.2288 11.2911 22.2003C11.4993 22.5127 11.3837 23.2173 11.372 23.5071C11.297 24.7741 10.9383 26.0297 10.3315 27.1548C9.9846 27.7969 9.55122 28.3991 9.04819 28.9332C8.44136 29.5638 7.68989 30.223 7.68989 31.0922C7.69576 31.8763 8.33728 32.5184 9.00203 32.9502C10.4932 33.9162 12.3084 34.3026 14.0886 34.3309C15.2735 34.348 16.4527 34.2229 17.6261 34.0356L17.6263 34.0353Z" fill="#C16244"/>
<path d="M17.2189 28.0728C17.2269 28.0828 17.1943 28.1337 17.0865 28.1751C16.984 28.2155 16.7844 28.2312 16.5867 28.0998C16.4314 27.9912 16.2955 27.8058 16.3166 27.5936C16.3377 27.39 16.449 27.2276 16.5789 27.092C16.7428 26.9249 16.9667 26.911 17.0694 26.9698C17.1799 27.0246 17.1911 27.0949 17.1796 27.0989C17.1652 27.1099 17.13 27.0684 17.0411 27.0495C16.9523 27.0288 16.8106 27.0493 16.6817 27.192C16.5693 27.3071 16.4738 27.4561 16.4607 27.6051C16.4436 27.7517 16.5418 27.8923 16.6707 27.9841C16.821 28.0977 16.972 28.1045 17.0654 28.093C17.161 28.0809 17.209 28.0578 17.2189 28.0725V28.0728Z" fill="#FFAB90"/>
<path d="M93.7858 68.6078L102.923 72.5261C103.229 72.6575 103.368 73.0046 103.232 73.3015L96.5195 88.0074C96.384 88.3044 96.0258 88.4387 95.7195 88.3073L86.5823 84.3889C86.2759 84.2575 86.1374 83.9102 86.273 83.6136L92.9858 68.9076C93.1214 68.6107 93.4795 68.4764 93.7858 68.6078Z" fill="#06D6A0"/>
<path d="M96.5369 85.7994C95.6384 85.5546 94.6718 85.9169 94.1768 86.6836L88.8596 84.4068C89.1118 83.5357 88.7385 82.599 87.9475 82.1195L92.9668 71.116C93.8654 71.3607 94.8319 70.9985 95.3269 70.2318L100.647 72.5101C100.395 73.3813 100.768 74.3177 101.559 74.7975L96.5369 85.7994Z" fill="#06D6A0"/>
<path d="M94.6306 80.6298C95.8978 80.6298 96.9251 79.6341 96.9251 78.4057C96.9251 77.1774 95.8978 76.1816 94.6306 76.1816C93.3634 76.1816 92.3362 77.1774 92.3362 78.4057C92.3362 79.6341 93.3634 80.6298 94.6306 80.6298Z" fill="#64D3FF"/>
<path d="M95.8392 78.0091C95.9064 78.1112 95.9425 78.23 95.9473 78.3667C95.9523 78.5031 95.9256 78.6471 95.8669 78.7987L96.102 78.8994C96.1306 78.9117 96.1506 78.9309 96.1608 78.9571C96.1712 78.9836 96.1698 79.0117 96.1562 79.0413C96.1434 79.0694 96.1242 79.0885 96.098 79.099C96.0724 79.1095 96.0439 79.1082 96.0129 79.0951L95.7778 78.9944C95.6567 79.2189 95.5064 79.4127 95.326 79.5759C95.3031 79.5971 95.2753 79.6108 95.242 79.6168C95.2089 79.6231 95.1779 79.62 95.1491 79.6076C95.1117 79.5916 95.0845 79.5654 95.0682 79.5289C95.0517 79.4925 95.0525 79.455 95.0698 79.4167C95.0797 79.3952 95.0936 79.3768 95.1109 79.3613C95.2697 79.222 95.3967 79.0591 95.4925 78.8726L94.7309 78.5461C94.6247 78.6743 94.5257 78.7785 94.4339 78.8582C94.3421 78.938 94.2388 78.9928 94.1233 79.0224C94.008 79.0523 93.8855 79.0395 93.755 78.9836C93.6403 78.9343 93.5466 78.8619 93.4743 78.7654C93.4022 78.6691 93.3587 78.5534 93.3438 78.4178C93.3294 78.2822 93.3499 78.1358 93.406 77.9782L93.1743 77.8788C93.1458 77.8664 93.1258 77.847 93.114 77.8203C93.1026 77.7935 93.1028 77.7662 93.1156 77.7382C93.1282 77.7104 93.149 77.6912 93.1778 77.6805C93.2066 77.6697 93.2352 77.6708 93.2637 77.6828L93.4922 77.7809C93.5968 77.575 93.7182 77.4043 93.8567 77.2692C93.9061 77.2188 93.9637 77.2075 94.0302 77.2361C94.0654 77.2513 94.0921 77.2768 94.1099 77.3124C94.1278 77.3486 94.1281 77.3856 94.1105 77.4242C94.1046 77.437 94.0923 77.4523 94.0739 77.4698C93.9544 77.5929 93.8532 77.7363 93.7705 77.9003L94.5588 78.2384C94.6666 78.1004 94.7659 77.99 94.8564 77.9071C94.9468 77.8245 95.0517 77.7676 95.1702 77.7366C95.2884 77.7054 95.4194 77.7209 95.563 77.7822C95.6799 77.8323 95.7719 77.9084 95.8389 78.0099L95.8392 78.0091ZM94.1401 78.6699C94.2255 78.6211 94.3189 78.5351 94.4203 78.412L93.6915 78.0996C93.6507 78.2358 93.644 78.3556 93.6718 78.4598C93.6993 78.5636 93.7641 78.6374 93.8658 78.6809C93.9632 78.7226 94.0544 78.7189 94.1401 78.6699ZM95.4114 78.0619C95.3255 78.0249 95.2414 78.0343 95.1592 78.0899C95.077 78.1455 94.981 78.2392 94.8705 78.3711L95.5825 78.6764C95.6983 78.3651 95.6412 78.1602 95.4114 78.0619Z" fill="#64D3FF"/>
<path d="M104.289 71.0687L110.375 78.7493C110.579 79.0069 110.529 79.376 110.263 79.5737L97.1047 89.3685C96.8392 89.5663 96.4581 89.5178 96.2542 89.2604L90.1685 81.5799C89.9644 81.3223 90.0145 80.9532 90.2801 80.7554L103.439 70.9606C103.704 70.7629 104.085 70.8114 104.289 71.0687Z" fill="#06D6A0"/>
<path d="M98.2117 87.4384C97.5438 86.8065 96.5164 86.6762 95.703 87.1195L92.1599 82.6529C92.8116 82.0053 92.9466 81.0096 92.4892 80.2213L102.332 72.8909C103 73.5228 104.027 73.6532 104.84 73.2099L108.385 77.6791C107.734 78.3267 107.599 79.3224 108.056 80.1106L98.212 87.4384H98.2117Z" fill="#06D6A0"/>
<path d="M100.189 82.2871C101.456 82.2871 102.483 81.2913 102.483 80.063C102.483 78.8346 101.456 77.8389 100.189 77.8389C98.9218 77.8389 97.8945 78.8346 97.8945 80.063C97.8945 81.2913 98.9218 82.2871 100.189 82.2871Z" fill="#06D6A0"/>
<path d="M101.447 80.2757C101.455 80.3963 101.428 80.5172 101.365 80.6397C101.302 80.762 101.208 80.8758 101.081 80.9818L101.238 81.1793C101.257 81.2034 101.265 81.2294 101.261 81.2572C101.257 81.2853 101.242 81.3091 101.215 81.3291C101.19 81.3477 101.164 81.3556 101.136 81.3527C101.108 81.3501 101.084 81.3356 101.063 81.3097L100.906 81.1122C100.689 81.253 100.461 81.3535 100.222 81.413C100.192 81.4209 100.161 81.4201 100.128 81.4099C100.096 81.4002 100.071 81.3828 100.051 81.3587C100.027 81.3272 100.016 81.2916 100.019 81.2522C100.023 81.2126 100.042 81.1798 100.076 81.1544C100.095 81.1402 100.117 81.1305 100.14 81.1247C100.348 81.076 100.54 80.992 100.716 80.8727L100.209 80.2324C100.052 80.2959 99.9139 80.3412 99.7941 80.3685C99.6743 80.3958 99.5563 80.3961 99.4405 80.3685C99.3247 80.3412 99.2233 80.273 99.1363 80.1634C99.0597 80.0669 99.0136 79.9598 98.9975 79.8415C98.9818 79.7235 99.0007 79.6018 99.0549 79.4759C99.1091 79.3502 99.1995 79.2314 99.3266 79.1186L99.1723 78.9237C99.1534 78.8996 99.1454 78.8734 99.148 78.8445C99.1512 78.8157 99.1651 78.7918 99.1899 78.7732C99.2148 78.7548 99.2425 78.7475 99.2729 78.7514C99.3036 78.7553 99.3282 78.7695 99.3471 78.7934L99.4992 78.9854C99.6927 78.8532 99.8838 78.7598 100.072 78.7052C100.14 78.684 100.196 78.7008 100.241 78.7566C100.264 78.7863 100.275 78.8212 100.273 78.8608C100.271 78.9009 100.253 78.9334 100.218 78.9591C100.207 78.9678 100.189 78.9754 100.163 78.9822C99.9977 79.0347 99.8381 79.1139 99.6844 79.2194L100.209 79.8819C100.372 79.8109 100.514 79.76 100.634 79.7293C100.755 79.6988 100.875 79.6973 100.994 79.7251C101.113 79.7526 101.22 79.8269 101.316 79.9475C101.394 80.0459 101.437 80.1553 101.446 80.2754L101.447 80.2757ZM99.6287 80.0671C99.7279 80.064 99.8523 80.0317 100.002 79.9709L99.5166 79.3584C99.4133 79.4588 99.3482 79.5611 99.3215 79.6653C99.2943 79.7694 99.3148 79.8641 99.3823 79.9493C99.4472 80.0312 99.5291 80.0703 99.6287 80.0671ZM101.045 80.1235C100.988 80.0514 100.91 80.0202 100.81 80.0312C100.71 80.0419 100.579 80.0795 100.417 80.144L100.891 80.7426C101.147 80.5227 101.198 80.3166 101.045 80.1238L101.045 80.1235Z" fill="#06D6A0"/>
<path d="M98.6537 77.9236V94.3009C98.6537 96.3451 96.9701 98 94.8939 98H80.1658C78.0899 98 76.4062 96.3451 76.4062 94.3009V77.9236C76.4062 75.8794 78.0899 74.2245 80.1658 74.2245H94.8939C96.9698 74.2245 98.6537 75.8794 98.6537 77.9236Z" fill="#F0A667"/>
<path d="M93.7008 96.5405H92.3999C92.3334 96.5405 92.2795 96.4875 92.2795 96.4222C92.2795 96.3569 92.3334 96.3039 92.3999 96.3039H93.7008C93.7673 96.3039 93.8212 96.3569 93.8212 96.4222C93.8212 96.4875 93.7673 96.5405 93.7008 96.5405ZM91.0992 96.5405H89.7983C89.7318 96.5405 89.6779 96.4875 89.6779 96.4222C89.6779 96.3569 89.7318 96.3039 89.7983 96.3039H91.0992C91.1657 96.3039 91.2196 96.3569 91.2196 96.4222C91.2196 96.4875 91.1657 96.5405 91.0992 96.5405ZM88.4976 96.5405H87.1967C87.1302 96.5405 87.0763 96.4875 87.0763 96.4222C87.0763 96.3569 87.1302 96.3039 87.1967 96.3039H88.4976C88.5641 96.3039 88.618 96.3569 88.618 96.4222C88.618 96.4875 88.5641 96.5405 88.4976 96.5405ZM85.896 96.5405H84.5956C84.5292 96.5405 84.4753 96.4875 84.4753 96.4222C84.4753 96.3569 84.5292 96.3039 84.5956 96.3039H85.896C85.9625 96.3039 86.0164 96.3569 86.0164 96.4222C86.0164 96.4875 85.9625 96.5405 85.896 96.5405ZM83.2947 96.5405H81.9938C81.9273 96.5405 81.8734 96.4875 81.8734 96.4222C81.8734 96.3569 81.9273 96.3039 81.9938 96.3039H83.2947C83.3611 96.3039 83.415 96.3569 83.415 96.4222C83.415 96.4875 83.3611 96.5405 83.2947 96.5405ZM80.6931 96.5405H80.6781C80.2231 96.5405 79.7719 96.4301 79.3727 96.2213C79.3137 96.1906 79.2915 96.119 79.3228 96.0616C79.354 96.0036 79.4271 95.9816 79.4853 96.0125C79.8501 96.2035 80.2624 96.3042 80.6781 96.3042C80.7446 96.3042 80.806 96.3572 80.806 96.4225C80.806 96.4878 80.7595 96.5408 80.6931 96.5408V96.5405ZM94.9962 96.47C94.9417 96.47 94.8921 96.4332 94.879 96.3787C94.8641 96.3152 94.9038 96.2515 94.9687 96.2365C95.3703 96.1431 95.7479 95.9514 96.0609 95.682C96.1111 95.639 96.1869 95.6437 96.2306 95.693C96.2744 95.7421 96.2696 95.8168 96.2194 95.8598C95.8773 96.1547 95.4637 96.3645 95.0239 96.4668C95.0148 96.4689 95.0055 96.47 94.9964 96.47H94.9962ZM78.4702 95.3893C78.432 95.3893 78.3941 95.3712 78.3709 95.3376C78.115 94.9688 77.9543 94.5394 77.905 94.0961C77.8977 94.0313 77.9458 93.9728 78.0117 93.9657C78.0816 93.9623 78.1366 94.0061 78.1443 94.0707C78.1889 94.4754 78.3362 94.8673 78.5694 95.2043C78.6071 95.2581 78.5926 95.3318 78.5377 95.3685C78.5171 95.3824 78.4934 95.3893 78.4699 95.3893H78.4702ZM96.8764 94.8507C96.862 94.8507 96.8476 94.8484 96.8335 94.8431C96.7716 94.8198 96.7403 94.7513 96.7638 94.6905C96.8743 94.4061 96.9306 94.1063 96.9306 93.7989V93.4752C96.9306 93.4099 96.9845 93.3569 97.051 93.3569C97.1174 93.3569 97.1713 93.4099 97.1713 93.4752V93.7989C97.1713 94.1352 97.1099 94.4636 96.989 94.7747C96.9706 94.8219 96.9247 94.8507 96.8767 94.8507H96.8764ZM78.009 92.9241C77.9426 92.9241 77.8887 92.8711 77.8887 92.8058V91.5271C77.8887 91.4618 77.9426 91.4088 78.009 91.4088C78.0755 91.4088 78.1294 91.4618 78.1294 91.5271V92.8058C78.1294 92.8711 78.0755 92.9241 78.009 92.9241ZM97.051 92.3148C96.9845 92.3148 96.9306 92.2618 96.9306 92.1965V90.9177C96.9306 90.8524 96.9845 90.7994 97.051 90.7994C97.1174 90.7994 97.1713 90.8524 97.1713 90.9177V92.1965C97.1713 92.2618 97.1174 92.3148 97.051 92.3148ZM78.009 90.3669C77.9426 90.3669 77.8887 90.3139 77.8887 90.2486V88.9698C77.8887 88.9045 77.9426 88.8515 78.009 88.8515C78.0755 88.8515 78.1294 88.9045 78.1294 88.9698V90.2486C78.1294 90.3139 78.0755 90.3669 78.009 90.3669ZM97.051 89.7576C96.9845 89.7576 96.9306 89.7046 96.9306 89.6393V88.361C96.9306 88.2957 96.9845 88.2427 97.051 88.2427C97.1174 88.2427 97.1713 88.2957 97.1713 88.361V89.6393C97.1713 89.7046 97.1174 89.7576 97.051 89.7576ZM78.009 87.8097C77.9426 87.8097 77.8887 87.7567 77.8887 87.6914V86.4126C77.8887 86.3473 77.9426 86.2943 78.009 86.2943C78.0755 86.2943 78.1294 86.3473 78.1294 86.4126V87.6914C78.1294 87.7567 78.0755 87.8097 78.009 87.8097ZM97.051 87.2006C96.9845 87.2006 96.9306 87.1476 96.9306 87.0823V85.8035C96.9306 85.7382 96.9845 85.6852 97.051 85.6852C97.1174 85.6852 97.1713 85.7382 97.1713 85.8035V87.0823C97.1713 87.1476 97.1174 87.2006 97.051 87.2006ZM78.009 85.2524C77.9426 85.2524 77.8887 85.1995 77.8887 85.1341V83.8559C77.8887 83.7906 77.9426 83.7376 78.009 83.7376C78.0755 83.7376 78.1294 83.7906 78.1294 83.8559V85.1341C78.1294 85.1995 78.0755 85.2524 78.009 85.2524ZM97.051 84.6434C96.9845 84.6434 96.9306 84.5904 96.9306 84.5251V83.2463C96.9306 83.181 96.9845 83.128 97.051 83.128C97.1174 83.128 97.1713 83.181 97.1713 83.2463V84.5251C97.1713 84.5904 97.1174 84.6434 97.051 84.6434ZM78.009 82.6955C77.9426 82.6955 77.8887 82.6425 77.8887 82.5772V81.2984C77.8887 81.2331 77.9426 81.1801 78.009 81.1801C78.0755 81.1801 78.1294 81.2331 78.1294 81.2984V82.5772C78.1294 82.6425 78.0755 82.6955 78.009 82.6955ZM97.051 82.0861C96.9845 82.0861 96.9306 82.0332 96.9306 81.9678V80.6891C96.9306 80.6238 96.9845 80.5708 97.051 80.5708C97.1174 80.5708 97.1713 80.6238 97.1713 80.6891V81.9678C97.1713 82.0332 97.1174 82.0861 97.051 82.0861ZM78.009 80.1383C77.9426 80.1383 77.8887 80.0853 77.8887 80.02V78.7412C77.8887 78.6759 77.9426 78.6229 78.009 78.6229C78.0755 78.6229 78.1294 78.6759 78.1294 78.7412V80.02C78.1294 80.0853 78.0755 80.1383 78.009 80.1383ZM97.051 79.5289C96.9845 79.5289 96.9306 79.4759 96.9306 79.4106V78.4251C96.9309 78.331 96.9255 78.2376 96.9149 78.146C96.9077 78.081 96.9549 78.0225 97.0211 78.0151C97.091 78.0104 97.1468 78.0548 97.1542 78.1195C97.1654 78.2203 97.1716 78.3223 97.171 78.4254V79.4106C97.171 79.4759 97.1171 79.5289 97.0507 79.5289H97.051ZM78.1865 77.6025C78.1721 77.6025 78.1574 77.6002 78.1433 77.5944C78.0813 77.5711 78.0501 77.5026 78.0744 77.4417C78.2369 77.0273 78.5041 76.6527 78.8467 76.3587C78.8969 76.3157 78.9724 76.3201 79.0164 76.3697C79.0602 76.419 79.0548 76.4938 79.0052 76.5365C78.6917 76.8057 78.4475 77.1477 78.2988 77.5267C78.2807 77.574 78.2348 77.6025 78.1868 77.6025H78.1865ZM96.5856 77.0653C96.5474 77.0653 96.5095 77.0475 96.4863 77.0139C96.2523 76.6774 95.935 76.3988 95.5683 76.2084C95.5096 76.178 95.4872 76.1063 95.5184 76.0486C95.5491 75.9907 95.6214 75.9686 95.6809 75.9996C96.0817 76.2079 96.4286 76.5127 96.6848 76.8804C96.7225 76.9342 96.7083 77.0079 96.6536 77.0449C96.6325 77.0588 96.609 77.0656 96.5856 77.0656V77.0653ZM80.0713 75.988C80.0166 75.988 79.967 75.9511 79.9542 75.8965C79.9392 75.833 79.9792 75.7693 80.0441 75.7546C80.2509 75.7071 80.4641 75.6832 80.6779 75.6832H81.3666C81.4331 75.6832 81.487 75.7362 81.487 75.8015C81.487 75.8669 81.4331 75.9198 81.3666 75.9198H80.6779C80.4828 75.9198 80.2877 75.9416 80.0985 75.9852C80.0895 75.9873 80.0804 75.9883 80.0713 75.9883V75.988ZM94.3744 75.9196H93.0734C93.007 75.9196 92.9531 75.8666 92.9531 75.8013C92.9531 75.736 93.007 75.683 93.0734 75.683H94.3744C94.4408 75.683 94.4947 75.736 94.4947 75.8013C94.4947 75.8666 94.4408 75.9196 94.3744 75.9196ZM91.7728 75.9196H90.4718C90.4054 75.9196 90.3515 75.8666 90.3515 75.8013C90.3515 75.736 90.4054 75.683 90.4718 75.683H91.7728C91.8392 75.683 91.8931 75.736 91.8931 75.8013C91.8931 75.8666 91.8392 75.9196 91.7728 75.9196ZM89.1712 75.9196H87.8708C87.8043 75.9196 87.7504 75.8666 87.7504 75.8013C87.7504 75.736 87.8043 75.683 87.8708 75.683H89.1712C89.2376 75.683 89.2915 75.736 89.2915 75.8013C89.2915 75.8666 89.2376 75.9196 89.1712 75.9196ZM86.5698 75.9196H85.2689C85.2025 75.9196 85.1486 75.8666 85.1486 75.8013C85.1486 75.736 85.2025 75.683 85.2689 75.683H86.5698C86.6363 75.683 86.6902 75.736 86.6902 75.8013C86.6902 75.8666 86.6363 75.9196 86.5698 75.9196ZM83.9682 75.9196H82.6673C82.6009 75.9196 82.547 75.8666 82.547 75.8013C82.547 75.736 82.6009 75.683 82.6673 75.683H83.9682C84.0347 75.683 84.0886 75.736 84.0886 75.8013C84.0886 75.8666 84.0347 75.9196 83.9682 75.9196Z" fill="#EA7D20"/>
<path d="M85.5326 72.7081H89.6809C90.212 72.7081 90.6432 73.132 90.6432 73.654V82.4098C90.6432 82.9318 90.212 83.3557 89.6809 83.3557H85.5326C85.0016 83.3557 84.5703 82.9318 84.5703 82.4098V73.654C84.5703 73.132 85.0016 72.7081 85.5326 72.7081Z" fill="#EE984F"/>
<path d="M89.3835 82.53H89.0414C88.9749 82.53 88.921 82.477 88.921 82.4116C88.921 82.3463 88.9749 82.2933 89.0414 82.2933H89.3835C89.4446 82.2933 89.5009 82.2634 89.5345 82.2133C89.5716 82.1583 89.6461 82.1438 89.7013 82.1795C89.7568 82.2154 89.772 82.2889 89.7357 82.3434C89.6573 82.4604 89.5257 82.53 89.3835 82.53ZM88.4012 82.53H87.761C87.6945 82.53 87.6406 82.477 87.6406 82.4116C87.6406 82.3463 87.6945 82.2933 87.761 82.2933H88.4012C88.4676 82.2933 88.5215 82.3463 88.5215 82.4116C88.5215 82.477 88.4676 82.53 88.4012 82.53ZM87.1211 82.53H86.4814C86.415 82.53 86.3611 82.477 86.3611 82.4116C86.3611 82.3463 86.415 82.2933 86.4814 82.2933H87.1211C87.1875 82.2933 87.2414 82.3463 87.2414 82.4116C87.2414 82.477 87.1875 82.53 87.1211 82.53ZM85.8412 82.53H85.8335C85.601 82.53 85.4121 82.3442 85.4121 82.1158V81.9516C85.4121 81.8862 85.466 81.8333 85.5325 81.8333C85.5989 81.8333 85.6528 81.8862 85.6528 81.9516V82.1158C85.6528 82.2136 85.7339 82.2933 85.8335 82.2933C85.8999 82.2933 85.9576 82.3463 85.9576 82.4116C85.9576 82.477 85.9077 82.53 85.8412 82.53ZM89.6845 81.7774C89.6181 81.7774 89.5642 81.7244 89.5642 81.6591V81.0298C89.5642 80.9645 89.6181 80.9115 89.6845 80.9115C89.751 80.9115 89.8049 80.9645 89.8049 81.0298V81.6591C89.8049 81.7244 89.751 81.7774 89.6845 81.7774ZM85.5325 81.4409C85.466 81.4409 85.4121 81.3879 85.4121 81.3226V80.6938C85.4121 80.6285 85.466 80.5755 85.5325 80.5755C85.5989 80.5755 85.6528 80.6285 85.6528 80.6938V81.3226C85.6528 81.3879 85.5989 81.4409 85.5325 81.4409ZM89.6845 80.5191C89.6181 80.5191 89.5642 80.4661 89.5642 80.4008V79.7715C89.5642 79.7062 89.6181 79.6532 89.6845 79.6532C89.751 79.6532 89.8049 79.7062 89.8049 79.7715V80.4008C89.8049 80.4661 89.751 80.5191 89.6845 80.5191ZM85.5325 80.1828C85.466 80.1828 85.4121 80.1298 85.4121 80.0645V79.4353C85.4121 79.3699 85.466 79.317 85.5325 79.317C85.5989 79.317 85.6528 79.3699 85.6528 79.4353V80.0645C85.6528 80.1298 85.5989 80.1828 85.5325 80.1828ZM89.6845 79.2611C89.6181 79.2611 89.5642 79.2081 89.5642 79.1428V78.5135C89.5642 78.4482 89.6181 78.3952 89.6845 78.3952C89.751 78.3952 89.8049 78.4482 89.8049 78.5135V79.1428C89.8049 79.2081 89.751 79.2611 89.6845 79.2611ZM85.5325 78.9246C85.466 78.9246 85.4121 78.8716 85.4121 78.8063V78.1775C85.4121 78.1122 85.466 78.0592 85.5325 78.0592C85.5989 78.0592 85.6528 78.1122 85.6528 78.1775V78.8063C85.6528 78.8716 85.5989 78.9246 85.5325 78.9246ZM89.6845 78.0028C89.6181 78.0028 89.5642 77.9498 89.5642 77.8845V77.2558C89.5642 77.1904 89.6181 77.1375 89.6845 77.1375C89.751 77.1375 89.8049 77.1904 89.8049 77.2558V77.8845C89.8049 77.9498 89.751 78.0028 89.6845 78.0028ZM85.5325 77.6665C85.466 77.6665 85.4121 77.6135 85.4121 77.5482V76.919C85.4121 76.8536 85.466 76.8007 85.5325 76.8007C85.5989 76.8007 85.6528 76.8536 85.6528 76.919V77.5482C85.6528 77.6135 85.5989 77.6665 85.5325 77.6665ZM89.6845 76.7448C89.6181 76.7448 89.5642 76.6918 89.5642 76.6265V75.9972C89.5642 75.9319 89.6181 75.8789 89.6845 75.8789C89.751 75.8789 89.8049 75.9319 89.8049 75.9972V76.6265C89.8049 76.6918 89.751 76.7448 89.6845 76.7448ZM85.5325 76.4082C85.466 76.4082 85.4121 76.3553 85.4121 76.2899V75.6612C85.4121 75.5959 85.466 75.5429 85.5325 75.5429C85.5989 75.5429 85.6528 75.5959 85.6528 75.6612V76.2899C85.6528 76.3553 85.5989 76.4082 85.5325 76.4082ZM89.6845 75.4865C89.6181 75.4865 89.5642 75.4335 89.5642 75.3682V74.7395C89.5642 74.6741 89.6181 74.6212 89.6845 74.6212C89.751 74.6212 89.8049 74.6741 89.8049 74.7395V75.3682C89.8049 75.4335 89.751 75.4865 89.6845 75.4865ZM85.5325 75.1502C85.466 75.1502 85.4121 75.0972 85.4121 75.0319V74.4026C85.4121 74.3373 85.466 74.2843 85.5325 74.2843C85.5989 74.2843 85.6528 74.3373 85.6528 74.4026V75.0319C85.6528 75.0972 85.5989 75.1502 85.5325 75.1502ZM89.6845 74.2285C89.6181 74.2285 89.5642 74.1755 89.5642 74.1102V73.9502C89.5642 73.8518 89.483 73.7721 89.3835 73.7721C89.317 73.7721 89.2613 73.7191 89.2613 73.6538C89.2613 73.5884 89.3133 73.5355 89.3798 73.5355H89.3835C89.6159 73.5355 89.8049 73.7214 89.8049 73.9499V74.1099C89.8049 74.1752 89.751 74.2282 89.6845 74.2282V74.2285ZM85.584 73.9024C85.5605 73.9024 85.537 73.8959 85.5162 73.8822C85.4615 73.8455 85.4471 73.7721 85.4842 73.7178C85.5629 73.6039 85.6934 73.5357 85.8332 73.5357H86.1793C86.2458 73.5357 86.2997 73.5887 86.2997 73.654C86.2997 73.7193 86.2458 73.7723 86.1793 73.7723H85.8332C85.7734 73.7723 85.7174 73.8017 85.6835 73.8508C85.6603 73.8843 85.6224 73.9024 85.584 73.9024ZM88.7396 73.7721H88.0994C88.0329 73.7721 87.979 73.7191 87.979 73.6538C87.979 73.5884 88.0329 73.5355 88.0994 73.5355H88.7396C88.806 73.5355 88.8599 73.5884 88.8599 73.6538C88.8599 73.7191 88.806 73.7721 88.7396 73.7721ZM87.4594 73.7721H86.8198C86.7533 73.7721 86.6994 73.7191 86.6994 73.6538C86.6994 73.5884 86.7533 73.5355 86.8198 73.5355H87.4594C87.5259 73.5355 87.5798 73.5884 87.5798 73.6538C87.5798 73.7191 87.5259 73.7721 87.4594 73.7721Z" fill="#EA7D20"/>
<path d="M88.4551 81.0438C88.9391 80.5681 88.9391 79.7968 88.4551 79.3211C87.9711 78.8454 87.1865 78.8454 86.7025 79.3211C86.2185 79.7968 86.2185 80.5681 86.7025 81.0438C87.1865 81.5195 87.9711 81.5195 88.4551 81.0438Z" fill="#3A4146"/>
<path d="M99.4215 12.3717C102.3 9.54189 102.3 4.95384 99.4215 2.12402C96.5426 -0.705804 91.8749 -0.705804 88.996 2.12402C86.117 4.95384 86.117 9.54189 88.996 12.3717C91.8749 15.2015 96.5426 15.2015 99.4215 12.3717Z" fill="#F3F6FD"/>
<path d="M94.6251 6.84517C95.4941 6.70653 96.0842 5.90174 95.9431 5.04762C95.8021 4.1935 94.9833 3.6135 94.1144 3.75214C93.2454 3.89078 92.6554 4.69557 92.7964 5.54969C92.9375 6.4038 93.7562 6.98381 94.6251 6.84517Z" fill="#FE4C40"/>
<path d="M91.0868 10.4007H97.3334C97.5146 10.4007 97.6672 10.232 97.6099 10.0539C97.1904 8.60103 95.8361 7.52295 94.2146 7.52295C92.5932 7.52295 91.2296 8.60077 90.8101 10.0539C90.7623 10.232 90.9056 10.4007 91.0868 10.4007Z" fill="#FE4C40"/>
<path d="M16.8537 11.8602C20.1135 11.8602 22.756 9.26265 22.756 6.05846C22.756 2.85428 20.1135 0.256775 16.8537 0.256775C13.5939 0.256775 10.9513 2.85428 10.9513 6.05846C10.9513 9.26265 13.5939 11.8602 16.8537 11.8602Z" fill="#06D6A0"/>
<path d="M16.238 7.9337C16.1523 7.9337 16.0672 7.90432 15.9981 7.8453L14.4007 6.47685C14.2488 6.34674 14.2328 6.11985 14.3654 5.97033C14.4981 5.82108 14.7294 5.80587 14.8807 5.93571L16.2246 7.08697L19.4403 4.00907C19.5844 3.87057 19.8155 3.87372 19.9567 4.01563C20.097 4.1578 20.0944 4.38496 19.9494 4.52319L16.4926 7.83192C16.4219 7.8996 16.3301 7.9337 16.238 7.9337Z" fill="white"/>
<path d="M102.758 38.3689C105.027 36.1391 105.027 32.5238 102.758 30.2939C100.49 28.0641 96.8117 28.0641 94.5431 30.2939C92.2746 32.5238 92.2746 36.1391 94.5431 38.3689C96.8116 40.5988 100.49 40.5988 102.758 38.3689Z" fill="#FFCF3D"/>
<path d="M101.78 37.407C103.508 35.7084 103.508 32.9544 101.78 31.2558C100.051 29.5572 97.2496 29.5572 95.5216 31.2558C93.7935 32.9544 93.7935 35.7084 95.5216 37.407C97.2496 39.1056 100.051 39.1056 101.78 37.407Z" fill="#FFD964"/>
<path d="M100.086 35.7056C99.977 35.8677 99.8217 35.9968 99.6202 36.0931C99.4192 36.1891 99.186 36.2449 98.9215 36.2596V36.6615C98.9215 36.7103 98.9053 36.7509 98.8724 36.7827C98.8401 36.8149 98.7969 36.8309 98.7433 36.8309C98.6934 36.8309 98.6523 36.8157 98.6195 36.7855C98.5866 36.7554 98.5709 36.7137 98.5709 36.6615V36.2596C98.1567 36.2331 97.7695 36.145 97.409 35.9939C97.3628 35.975 97.3247 35.9441 97.294 35.9008C97.263 35.8575 97.2478 35.8113 97.2478 35.7623C97.2478 35.6983 97.2697 35.6427 97.3137 35.5957C97.3577 35.5488 97.4143 35.5249 97.4837 35.5249C97.5219 35.5249 97.5584 35.5328 97.5928 35.5475C97.9037 35.6831 98.2293 35.7586 98.5709 35.7736V34.4736C98.3099 34.4056 98.0905 34.3322 97.912 34.253C97.7338 34.1738 97.5851 34.0615 97.4664 33.9164C97.3471 33.7716 97.2881 33.5878 97.2881 33.3653C97.2881 33.1694 97.3367 32.9884 97.4346 32.8226C97.5323 32.6568 97.6785 32.5191 97.8717 32.4097C98.0655 32.3004 98.2984 32.2345 98.5709 32.2122V31.8161C98.5709 31.7671 98.5869 31.7259 98.6195 31.6916C98.6523 31.6577 98.6934 31.6409 98.7433 31.6409C98.7932 31.6409 98.8351 31.6577 98.8695 31.6916C98.9039 31.7254 98.9215 31.7671 98.9215 31.8161V32.2065C99.297 32.2214 99.6306 32.2836 99.9223 32.393C100.03 32.431 100.083 32.506 100.083 32.6193C100.083 32.6797 100.062 32.734 100.02 32.783C99.9778 32.8321 99.9225 32.8565 99.8537 32.8565C99.8307 32.8565 99.7995 32.8491 99.7613 32.8339C99.5009 32.7437 99.221 32.6928 98.9218 32.6812V34.0271C99.198 34.0911 99.427 34.1606 99.6092 34.2362C99.7912 34.3117 99.9436 34.4237 100.067 34.5727C100.189 34.7217 100.25 34.9184 100.25 35.1634C100.25 35.3636 100.196 35.544 100.087 35.7062L100.086 35.7056ZM98.0038 33.7097C98.1327 33.8 98.3214 33.8776 98.5706 33.9416V32.6978C98.3403 32.7282 98.1565 32.7967 98.0185 32.9045C97.8805 33.0117 97.8111 33.1523 97.8111 33.3255C97.8111 33.4986 97.8755 33.6195 98.0038 33.71V33.7097ZM99.7325 35.1291C99.7325 34.9819 99.6642 34.8681 99.5281 34.7868C99.3923 34.706 99.1895 34.6296 98.9213 34.5578V35.7733C99.4617 35.7358 99.7325 35.521 99.7325 35.1291Z" fill="white"/>
<path d="M49.7595 91C48.671 91 48 90.2653 48 89.0735C48 87.8816 48.671 87.1361 49.7595 87.1361C50.848 87.1361 51.5243 87.8816 51.5243 89.0735C51.5243 90.2653 50.848 91 49.7595 91ZM49.7595 90.3905C50.4094 90.3905 50.7951 89.8952 50.7951 89.0735C50.7951 88.2517 50.4094 87.7456 49.7595 87.7456C49.1096 87.7456 48.7292 88.2463 48.7292 89.0735C48.7292 89.8952 49.1096 90.3905 49.7595 90.3905Z" fill="white"/>
<path d="M52.0679 90.9184V88.0014H52.7442V88.4259C52.9291 88.0776 53.2145 87.9197 53.5209 87.9197C53.6372 87.9197 53.7429 87.9524 53.7957 88.0014V88.6054C53.7059 88.5782 53.6055 88.5673 53.4839 88.5673C52.9714 88.5673 52.7442 88.883 52.7442 89.3673V90.9184H52.0679Z" fill="white"/>
<path d="M55.163 91C54.4232 91 53.9688 90.4177 53.9688 89.4653C53.9688 88.4748 54.4338 87.9197 55.163 87.9197C55.4747 87.9197 55.7336 88.0558 55.908 88.317V87H56.5843V90.9184H55.908V90.5864C55.7283 90.8531 55.4747 91 55.163 91ZM55.2845 90.4231C55.6913 90.4231 55.908 90.0857 55.908 89.4653C55.908 88.8449 55.6808 88.4966 55.2845 88.4966C54.8829 88.4966 54.6663 88.8395 54.6663 89.4653C54.6663 90.0803 54.8882 90.4231 55.2845 90.4231Z" fill="white"/>
<path d="M59.7858 89.966C59.6326 90.6408 59.1253 91 58.449 91C57.593 91 57.0699 90.4177 57.0699 89.4653C57.0699 88.4748 57.5983 87.9197 58.4226 87.9197C59.2521 87.9197 59.7647 88.4966 59.7647 89.4381V89.6014H57.7674C57.7991 90.1347 58.0369 90.4286 58.449 90.4286C58.766 90.4286 58.9827 90.2762 59.0725 89.966H59.7858ZM58.4226 88.4912C58.0633 88.4912 57.8467 88.7252 57.7833 89.166H59.0566C58.9932 88.7306 58.7766 88.4912 58.4226 88.4912Z" fill="white"/>
<path d="M60.2722 90.9184V88.0014H60.9485V88.4259C61.1335 88.0776 61.4188 87.9197 61.7252 87.9197C61.8415 87.9197 61.9472 87.9524 62 88.0014V88.6054C61.9102 88.5782 61.8098 88.5673 61.6883 88.5673C61.1757 88.5673 60.9485 88.883 60.9485 89.3673V90.9184H60.2722Z" fill="white"/>
</g>
<defs>
<clipPath id="clip0_4791_100455">
<rect width="110" height="98" fill="white" transform="translate(0.5)"/>
</clipPath>
</defs>
</svg>
