<svg width="227" height="211" viewBox="0 0 227 211" fill="none" xmlns="http://www.w3.org/2000/svg">
<g opacity="0.18">
<mask id="mask0_177_148" style="mask-type:alpha" maskUnits="userSpaceOnUse" x="1" y="3" width="206" height="199">
<path d="M1 33.1592C1 16.5906 14.4315 3.15918 31 3.15918H207V171.159C207 187.728 193.569 201.159 177 201.159H31C14.4315 201.159 1 187.728 1 171.159V33.1592Z" fill="white"/>
</mask>
<g mask="url(#mask0_177_148)">
<path d="M173.192 60.2094L181.094 84.9929C181.539 86.3894 180.768 87.8826 179.372 88.3277L135.631 102.274L130.781 111.901C130.266 112.923 128.772 112.804 128.424 111.714L117.65 77.9195C117.204 76.5229 117.975 75.0298 119.371 74.5847L169.858 58.4878C171.254 58.0427 172.747 58.8141 173.193 60.2107L173.192 60.2094Z" fill="url(#paint0_linear_177_148)"/>
<path d="M136.816 88.5027C139.077 87.6553 140.223 85.1346 139.375 82.8726C138.528 80.6107 136.008 79.4639 133.747 80.3113C131.485 81.1587 130.34 83.6794 131.187 85.9414C132.035 88.2034 134.555 89.3501 136.816 88.5027Z" fill="white"/>
<path d="M153.104 78.7635C153.84 81.0703 152.573 83.5235 150.267 84.2587C147.961 84.9939 145.507 83.7269 144.772 81.4201C144.036 79.1132 145.312 76.6571 147.61 75.9244C149.908 75.1917 152.372 76.4658 153.104 78.7635Z" fill="white"/>
<path d="M164.115 79.7976C166.376 78.9502 167.522 76.4295 166.675 74.1676C165.827 71.9056 163.307 70.7588 161.046 71.6062C158.785 72.4537 157.639 74.9743 158.487 77.2363C159.334 79.4983 161.854 80.645 164.115 79.7976Z" fill="white"/>
<path d="M121.173 148.143C120.99 148.2 120.796 148.097 120.739 147.914L118.735 141.447C117.573 137.698 113.584 135.597 109.841 136.763L102.252 139.127C102.069 139.184 101.875 139.082 101.818 138.899C101.761 138.715 101.863 138.52 102.046 138.463L109.635 136.099C113.742 134.819 118.123 137.126 119.398 141.24L121.402 147.707C121.459 147.891 121.357 148.085 121.173 148.143Z" fill="url(#paint1_linear_177_148)"/>
<path d="M124.883 185.243L117.295 187.608C117.112 187.665 116.917 187.562 116.86 187.379C116.803 187.195 116.906 187 117.089 186.943L124.678 184.579C128.42 183.413 130.519 179.415 129.357 175.666L127.353 169.199C127.296 169.016 127.398 168.821 127.581 168.764C127.765 168.707 127.959 168.809 128.016 168.993L130.02 175.459C131.295 179.574 128.991 183.963 124.883 185.243Z" fill="url(#paint2_linear_177_148)"/>
<path d="M52.6031 207.725L45.0144 210.089C40.9071 211.369 36.527 209.062 35.2518 204.948L33.2475 198.481C33.1906 198.297 33.293 198.102 33.4761 198.045C33.6593 197.988 33.8537 198.09 33.9106 198.274L35.9149 204.741C37.0769 208.49 41.066 210.591 44.8086 209.425L52.3972 207.06C52.5804 207.003 52.7749 207.106 52.8317 207.289C52.8886 207.473 52.7862 207.668 52.6031 207.725Z" fill="url(#paint3_linear_177_148)"/>
<path d="M27.0681 177.424C26.885 177.481 26.6905 177.379 26.6336 177.195L24.6293 170.728C23.3541 166.614 25.6588 162.224 29.7661 160.945L37.3548 158.58C37.5379 158.523 37.7324 158.625 37.7893 158.809C37.8461 158.992 37.7438 159.187 37.5606 159.244L29.972 161.609C26.2294 162.775 24.1304 166.772 25.2924 170.522L27.2968 176.989C27.3536 177.172 27.2513 177.367 27.0681 177.424Z" fill="url(#paint4_linear_177_148)"/>
<path d="M111.047 140.598L31.1657 165.478C29.5338 165.986 28.6218 167.724 29.1286 169.358L39.7301 203.552C40.2369 205.186 41.9707 206.1 43.6026 205.591L123.484 180.711C125.116 180.203 126.028 178.466 125.521 176.831L114.92 142.638C114.413 141.003 112.679 140.09 111.047 140.598Z" fill="url(#paint5_linear_177_148)"/>
<path d="M98.5082 157.262L78.5038 163.492C78.1242 163.61 77.9119 164.014 78.0297 164.394L78.7686 166.777C78.8864 167.157 79.2896 167.369 79.6692 167.251L99.6736 161.02C100.053 160.902 100.265 160.498 100.148 160.119L99.4087 157.735C99.291 157.356 98.8878 157.144 98.5082 157.262Z" fill="white"/>
<path d="M112.059 160.226L80.5363 170.041C80.1567 170.159 79.9444 170.563 80.0622 170.942L80.8009 173.324C80.9186 173.704 81.3218 173.916 81.7014 173.798L113.224 163.982C113.603 163.864 113.816 163.461 113.698 163.081L112.959 160.699C112.841 160.319 112.438 160.107 112.059 160.226Z" fill="white"/>
<path d="M114.091 166.771L82.5684 176.587C82.1888 176.705 81.9766 177.109 82.0943 177.488L82.833 179.87C82.9507 180.25 83.3539 180.462 83.7335 180.344L115.256 170.528C115.635 170.41 115.848 170.006 115.73 169.627L114.991 167.245C114.874 166.865 114.47 166.653 114.091 166.771Z" fill="white"/>
<path d="M70.7921 175.122C73.0612 182.441 68.9656 190.225 61.659 192.501C54.3525 194.777 46.5899 190.687 44.3208 183.367C42.0517 176.048 46.1355 168.268 53.4413 165.992C60.747 163.717 68.5227 167.801 70.7921 175.122Z" fill="white"/>
<path d="M67.5267 176.137C68.2542 178.484 68.118 180.896 67.286 183.034C66.1635 185.902 63.8084 188.257 60.6484 189.241C57.4885 190.225 54.2161 189.624 51.6696 187.898C49.7877 186.605 48.3119 184.696 47.5845 182.349C45.8754 176.836 48.9512 170.976 54.454 169.262C59.9568 167.548 65.8168 170.625 67.5259 176.138L67.5267 176.137Z" fill="url(#paint6_linear_177_148)"/>
<path d="M67.288 183.035C66.1651 185.902 63.81 188.256 60.6506 189.24C57.4912 190.225 54.2196 189.624 51.6741 187.9C52.7967 185.033 55.152 182.68 58.3122 181.695C61.4724 180.711 64.7429 181.311 67.288 183.035Z" fill="white"/>
<path d="M61.1874 177.694C61.83 179.768 60.6794 181.978 58.6094 182.623C56.5394 183.268 54.3307 182.105 53.6882 180.031C53.0457 177.958 54.1962 175.748 56.278 175.099C58.3599 174.45 60.5449 175.621 61.1874 177.694Z" fill="white"/>
<path d="M94.652 93.4991C94.4688 93.5561 94.2743 93.4537 94.2175 93.2702L92.946 89.1688C91.8356 85.5869 88.0235 83.5794 84.4476 84.6932L80.1439 86.0337C79.9608 86.0908 79.7663 85.9883 79.7094 85.8048C79.6525 85.6213 79.7548 85.4264 79.938 85.3694L84.2417 84.0289C88.1822 82.8015 92.3851 85.0142 93.609 88.9622L94.8805 93.0637C94.9374 93.2471 94.8351 93.4421 94.652 93.4991Z" fill="#ADC8F7"/>
<path d="M97.9605 128.24L93.6569 129.581C93.4737 129.638 93.2792 129.535 93.2224 129.352C93.1655 129.168 93.2678 128.973 93.4509 128.916L97.7546 127.576C101.33 126.462 103.336 122.642 102.225 119.06L100.954 114.958C100.897 114.775 100.999 114.58 101.182 114.523C101.366 114.466 101.56 114.568 101.617 114.752L102.888 118.853C104.112 122.801 101.902 127.013 97.9605 128.24Z" fill="#ADC8F7"/>
<path d="M24.1062 151.212L19.8017 152.552C15.8611 153.78 11.6582 151.567 10.4341 147.618L9.16257 143.517C9.10569 143.333 9.208 143.138 9.39114 143.081C9.57427 143.024 9.76877 143.127 9.82565 143.31L11.0971 147.412C12.2076 150.993 16.0199 153.002 19.5958 151.888L23.9002 150.547C24.0833 150.49 24.2778 150.593 24.3347 150.776C24.3916 150.96 24.2893 151.155 24.1062 151.212Z" fill="#ADC8F7"/>
<path d="M2.86066 122.057C2.67753 122.114 2.48303 122.012 2.42615 121.829L1.15465 117.727C-0.0690299 113.78 2.1415 109.569 6.08285 108.341L10.3873 107C10.5704 106.943 10.7649 107.046 10.8218 107.229C10.8787 107.413 10.7764 107.608 10.5933 107.665L6.2888 109.005C2.71293 110.119 0.707317 113.939 1.81773 117.521L3.08922 121.622C3.1461 121.805 3.0438 122 2.86066 122.057Z" fill="#ADC8F7"/>
<path d="M7.24541 112.112L85.4173 87.7654C87.3011 87.1787 89.3056 88.2344 89.8906 90.1214L99.1499 119.986C99.7349 121.873 98.6805 123.881 96.7966 124.468L18.6248 148.814C16.741 149.401 14.7365 148.345 14.1514 146.458L4.89217 116.594C4.30712 114.707 5.36159 112.698 7.24541 112.112Z" fill="url(#paint7_linear_177_148)"/>
<path d="M41.6352 121.514C43.8647 128.708 39.8368 136.36 32.6542 138.598C25.4716 140.836 17.8401 136.818 15.6104 129.623C13.3806 122.428 17.3961 114.78 24.5795 112.542C31.7629 110.304 39.4054 114.318 41.6352 121.514Z" fill="white"/>
<path d="M37.8913 122.679C38.5672 124.86 38.4402 127.102 37.6666 129.089C36.6228 131.755 34.4337 133.943 31.4961 134.859C28.5585 135.774 25.5173 135.215 23.1515 133.612C21.4019 132.411 20.0312 130.636 19.3554 128.455C17.7676 123.332 20.6274 117.886 25.7424 116.292C30.8573 114.698 36.3036 117.556 37.8913 122.679Z" fill="url(#paint8_linear_177_148)"/>
<path d="M37.6688 129.092C36.6248 131.757 34.436 133.944 31.4991 134.859C28.5621 135.775 25.5219 135.217 23.157 133.615C24.2007 130.95 26.3898 128.763 29.3267 127.848C32.2636 126.933 35.3036 127.49 37.6688 129.092Z" fill="white"/>
<path d="M31.9986 124.129C32.5956 126.056 31.5265 128.11 29.6024 128.71C27.6783 129.31 25.6256 128.228 25.0286 126.301C24.4316 124.374 25.5008 122.32 27.4359 121.717C29.3711 121.114 31.4014 122.201 31.9986 124.129Z" fill="white"/>
<path d="M88.0628 109.176L49.5039 121.177C48.9748 121.342 48.679 121.904 48.843 122.433L48.9319 122.72C49.0959 123.248 49.6578 123.544 50.1869 123.379L88.7458 111.378C89.2749 111.213 89.5708 110.651 89.4067 110.122L89.3179 109.835C89.1538 109.307 88.5919 109.011 88.0628 109.176Z" fill="#C2D5FF"/>
<path d="M62.7629 123.397C62.9272 123.927 62.6309 124.489 62.1022 124.654L51.599 127.925C51.0695 128.089 50.5078 127.793 50.3438 127.264C50.1795 126.734 50.4758 126.172 51.0045 126.007L61.5077 122.737C62.0372 122.572 62.5989 122.868 62.7629 123.397Z" fill="#C2D5FF"/>
<path d="M77.4345 118.833C77.5988 119.363 77.3024 119.925 76.7737 120.09L66.6012 123.258C66.0717 123.422 65.51 123.126 65.3459 122.597C65.1816 122.067 65.478 121.505 66.0067 121.34L76.1792 118.173C76.7087 118.008 77.2704 118.304 77.4345 118.833Z" fill="#C2D5FF"/>
<path d="M90.3896 114.803C90.5539 115.333 90.2576 115.895 89.7289 116.06L81.2726 118.693C80.7431 118.858 80.1814 118.562 80.0173 118.033C79.853 117.503 80.1493 116.941 80.678 116.776L89.1343 114.142C89.6639 113.977 90.2256 114.274 90.3896 114.803Z" fill="#C2D5FF"/>
<path d="M49.0233 109.862L50.591 111.515L52.8393 111.158C53.0357 111.127 53.1833 111.335 53.0879 111.511L52.0022 113.516L53.0352 115.547C53.1259 115.725 52.9729 115.93 52.7773 115.894L50.5384 115.48L48.928 117.093C48.7873 117.234 48.5456 117.152 48.5196 116.954L48.2224 114.693L46.1946 113.659C46.0168 113.568 46.0208 113.313 46.2001 113.227L48.2543 112.243L48.6113 109.99C48.6428 109.793 48.8859 109.717 49.0226 109.862L49.0233 109.862Z" fill="url(#paint9_linear_177_148)"/>
<path d="M58.1492 107.023L59.7168 108.676L61.9651 108.319C62.1616 108.288 62.3091 108.496 62.2137 108.672L61.128 110.677L62.161 112.708C62.2517 112.886 62.0987 113.091 61.9031 113.055L59.6643 112.641L58.0538 114.254C57.9131 114.395 57.6714 114.314 57.6454 114.115L57.3482 111.855L55.3204 110.82C55.1426 110.729 55.1466 110.474 55.3259 110.388L57.3801 109.404L57.7371 107.151C57.7686 106.954 58.0118 106.878 58.1484 107.023L58.1492 107.023Z" fill="url(#paint10_linear_177_148)"/>
<path d="M67.2741 104.184L68.8418 105.837L71.09 105.48C71.2865 105.45 71.4341 105.658 71.3387 105.833L70.253 107.838L71.286 109.869C71.3767 110.048 71.2237 110.252 71.0281 110.216L68.7892 109.802L67.1788 111.415C67.0381 111.556 66.7964 111.475 66.7704 111.276L66.4731 109.016L64.4453 107.981C64.2676 107.891 64.2716 107.635 64.4509 107.549L66.5051 106.566L66.8621 104.313C66.8936 104.115 67.1367 104.04 67.2733 104.184L67.2741 104.184Z" fill="white"/>
<path d="M76.3991 101.346L77.9668 103L80.215 102.642C80.4115 102.612 80.5591 102.82 80.4637 102.995L79.378 105L80.411 107.032C80.5017 107.21 80.3487 107.414 80.1531 107.378L77.9142 106.964L76.3038 108.578C76.1631 108.718 75.9214 108.637 75.8954 108.439L75.5981 106.178L73.5703 105.143C73.3926 105.053 73.3966 104.797 73.5759 104.711L75.6301 103.728L75.9871 101.475C76.0186 101.277 76.2617 101.202 76.3983 101.346L76.3991 101.346Z" fill="white"/>
<path d="M210.971 119.206C210.826 119.254 210.669 119.175 210.621 119.03L209.376 115.294C208.321 112.127 204.888 110.403 201.724 111.453L197.856 112.736C197.711 112.785 197.554 112.706 197.505 112.56C197.457 112.415 197.535 112.258 197.681 112.21L201.549 110.926C205.003 109.78 208.75 111.661 209.902 115.12L211.147 118.855C211.195 119.001 211.117 119.158 210.971 119.206Z" fill="#B7BCFF"/>
<path d="M135.784 144.177C135.639 144.225 135.482 144.146 135.433 144L134.189 140.265C133.036 136.807 134.909 133.061 138.363 131.915L142.231 130.631C142.376 130.583 142.533 130.662 142.582 130.807C142.63 130.953 142.552 131.11 142.406 131.158L138.538 132.442C135.375 133.491 133.659 136.923 134.715 140.091L135.959 143.826C136.008 143.971 135.929 144.128 135.784 144.177Z" fill="#B7BCFF"/>
<path d="M162.563 191.936L158.831 193.174C155.377 194.32 151.63 192.439 150.478 188.981L149.187 185.108C149.139 184.963 149.217 184.806 149.363 184.757C149.508 184.709 149.665 184.788 149.714 184.934L151.004 188.806C152.059 191.974 155.492 193.697 158.656 192.648L162.387 191.41C162.532 191.361 162.689 191.44 162.738 191.586C162.786 191.731 162.708 191.888 162.563 191.936Z" fill="#B7BCFF"/>
<path d="M202.666 114.27L139.46 135.249C137.838 135.788 136.961 137.542 137.502 139.167L153.728 187.886C154.269 189.511 156.023 190.392 157.646 189.853L220.852 168.873C222.474 168.335 223.351 166.581 222.81 164.956L206.584 116.237C206.043 114.612 204.289 113.731 202.666 114.27Z" fill="url(#paint11_linear_177_148)"/>
<path d="M206.58 116.229L208.92 123.257L160.628 139.291C160.117 139.46 159.556 139.366 159.128 139.04L156.324 136.897C155.896 136.571 155.335 136.477 154.825 136.646L148.21 138.842C147.7 139.012 147.307 139.423 147.16 139.94L146.199 143.332C146.052 143.85 145.659 144.261 145.149 144.43L139.852 146.189L137.512 139.161C136.971 137.536 137.848 135.782 139.471 135.243L202.661 114.263C204.284 113.725 206.039 114.605 206.58 116.23L206.58 116.229Z" fill="url(#paint12_linear_177_148)"/>
<path d="M201.195 117.963L166.699 129.417C165.502 129.814 164.855 131.108 165.254 132.307C165.653 133.506 166.947 134.155 168.145 133.757L202.64 122.304C203.837 121.907 204.485 120.613 204.085 119.414C203.686 118.215 202.392 117.566 201.195 117.963Z" fill="url(#paint13_linear_177_148)"/>
<path d="M201.192 117.96L199.071 118.664L200.518 123.008L202.639 122.304C203.837 121.907 204.484 120.612 204.085 119.412C203.685 118.213 202.39 117.563 201.192 117.96Z" fill="#3D79F3"/>
<path d="M201.816 120.893C201.605 120.963 201.366 120.952 201.152 120.845C200.723 120.63 200.548 120.105 200.763 119.677C200.969 119.263 201.515 119.081 201.93 119.289C202.358 119.504 202.533 120.029 202.319 120.458C202.211 120.672 202.026 120.823 201.815 120.893L201.816 120.893ZM201.353 119.504C201.202 119.554 201.08 119.659 201.01 119.8C200.864 120.093 200.983 120.449 201.276 120.597C201.567 120.743 201.925 120.624 202.071 120.333C202.217 120.041 202.098 119.683 201.806 119.536C201.665 119.466 201.504 119.454 201.353 119.504Z" fill="white"/>
<path d="M202.965 120.892C202.931 120.903 202.894 120.901 202.859 120.883L202.133 120.519C202.064 120.484 202.036 120.401 202.07 120.332C202.105 120.264 202.188 120.236 202.257 120.271L202.983 120.635C203.052 120.67 203.08 120.753 203.045 120.822C203.028 120.856 202.999 120.88 202.966 120.891L202.965 120.892Z" fill="white"/>
<path d="M177.036 137.565L146.431 147.723C145.865 147.911 145.559 148.523 145.748 149.091L152.802 170.271C152.991 170.838 153.603 171.146 154.17 170.958L184.774 160.799C185.34 160.611 185.646 159.999 185.457 159.431L178.404 138.251C178.215 137.684 177.602 137.377 177.036 137.565Z" fill="white"/>
<path d="M171.292 152.372C172.34 155.518 170.643 158.912 167.5 159.955C164.356 160.998 160.961 159.294 159.912 156.147C158.863 153 160.562 149.611 163.706 148.568C166.849 147.526 170.245 149.23 171.292 152.372Z" fill="url(#paint14_linear_177_148)"/>
<path d="M167.882 153.945L165.487 156.926C165.24 157.234 164.751 157.145 164.626 156.77L163.315 152.835C163.19 152.461 163.528 152.098 163.91 152.196L167.617 153.15C167.968 153.24 168.109 153.663 167.882 153.945L167.882 153.945Z" fill="white"/>
<path d="M185.855 163.984L155.205 174.159C154.652 174.342 154.353 174.94 154.538 175.494L157.32 183.85C157.505 184.403 158.102 184.703 158.655 184.52L189.306 174.345C189.859 174.162 190.157 173.564 189.973 173.01L187.19 164.654C187.006 164.101 186.408 163.801 185.855 163.984Z" fill="white"/>
<path d="M165.921 176.357C166.585 178.348 165.507 180.497 163.518 181.157C161.528 181.817 159.378 180.738 158.714 178.747C158.051 176.756 159.125 174.608 161.115 173.948C163.104 173.288 165.258 174.366 165.921 176.357Z" fill="url(#paint15_linear_177_148)"/>
<path d="M165.032 176.651C165.245 177.289 165.221 177.949 165.006 178.538C164.714 179.328 164.082 179.984 163.222 180.27C162.362 180.555 161.461 180.407 160.754 179.948C160.231 179.604 159.816 179.09 159.603 178.451C159.103 176.952 159.913 175.333 161.411 174.837C162.909 174.34 164.532 175.152 165.032 176.651Z" fill="url(#paint16_linear_177_148)"/>
<path d="M165.005 178.54C164.714 179.33 164.081 179.985 163.221 180.27C162.361 180.556 161.461 180.408 160.754 179.95C161.045 179.16 161.677 178.504 162.537 178.219C163.398 177.934 164.298 178.081 165.005 178.54Z" fill="url(#paint17_linear_177_148)"/>
<path d="M163.304 177.11C163.492 177.673 163.19 178.284 162.627 178.471C162.063 178.658 161.451 178.35 161.263 177.787C161.075 177.223 161.377 176.613 161.944 176.425C162.511 176.237 163.116 176.546 163.304 177.11Z" fill="url(#paint18_linear_177_148)"/>
<path d="M180.725 168.707L168.542 172.751C168.3 172.831 168.169 173.093 168.25 173.334C168.33 173.577 168.592 173.707 168.834 173.627L181.017 169.583C181.259 169.502 181.39 169.241 181.31 168.999C181.229 168.757 180.967 168.626 180.725 168.707Z" fill="url(#paint19_linear_177_148)"/>
<path d="M183.704 168.202C183.785 168.445 184.047 168.576 184.289 168.496L184.828 168.317C185.071 168.237 185.201 167.975 185.12 167.733C185.04 167.49 184.778 167.359 184.536 167.439L183.996 167.618C183.754 167.699 183.624 167.961 183.704 168.202Z" fill="url(#paint20_linear_177_148)"/>
<path d="M171.998 173.851L169.215 174.774C168.973 174.855 168.843 175.117 168.923 175.358C169.004 175.601 169.266 175.732 169.508 175.651L172.291 174.728C172.533 174.648 172.663 174.386 172.583 174.144C172.502 173.902 172.24 173.771 171.998 173.851Z" fill="url(#paint21_linear_177_148)"/>
<path d="M174.934 173.361C175.015 173.603 175.277 173.734 175.519 173.653L185.501 170.34C185.744 170.259 185.874 169.998 185.794 169.756C185.713 169.514 185.451 169.383 185.209 169.464L175.227 172.777C174.984 172.858 174.854 173.119 174.934 173.361Z" fill="url(#paint22_linear_177_148)"/>
<path d="M180.719 173.686C180.8 173.929 181.062 174.06 181.304 173.979L181.697 173.849C181.939 173.769 182.07 173.507 181.989 173.265C181.908 173.022 181.646 172.891 181.404 172.971L181.012 173.102C180.769 173.182 180.639 173.444 180.719 173.686Z" fill="url(#paint23_linear_177_148)"/>
<path d="M178.775 173.846L169.888 176.796C169.646 176.876 169.515 177.138 169.596 177.38C169.677 177.622 169.938 177.752 170.18 177.672L179.066 174.723C179.309 174.642 179.439 174.38 179.359 174.139C179.278 173.897 179.016 173.766 178.775 173.846Z" fill="url(#paint24_linear_177_148)"/>
<path d="M191.123 132.879L181.948 135.923C181.582 136.044 181.384 136.44 181.506 136.807L183.917 144.043C184.039 144.41 184.435 144.609 184.802 144.487L193.977 141.443C194.343 141.322 194.541 140.926 194.419 140.559L192.007 133.323C191.885 132.956 191.489 132.757 191.123 132.879Z" fill="white"/>
<path d="M190.405 137.872C190.855 139.223 190.126 140.679 188.777 141.126C187.428 141.573 185.97 140.842 185.52 139.492C185.07 138.142 185.799 136.687 187.148 136.24C188.497 135.793 189.955 136.524 190.405 137.872Z" fill="url(#paint25_linear_177_148)"/>
<path d="M188.941 138.546L187.913 139.826C187.807 139.958 187.597 139.92 187.543 139.759L186.98 138.07C186.927 137.91 187.072 137.754 187.236 137.796L188.828 138.205C188.978 138.244 189.039 138.425 188.941 138.546L188.941 138.546Z" fill="white"/>
<path d="M207.154 130.505C207.291 130.916 207.069 131.36 206.658 131.496L195.769 135.11C195.358 135.247 194.914 135.024 194.778 134.613C194.641 134.202 194.863 133.759 195.274 133.622L206.162 130.008C206.573 129.872 207.017 130.094 207.154 130.505Z" fill="white"/>
<path d="M204.56 134.977C204.697 135.388 204.475 135.832 204.064 135.968L196.851 138.362C196.441 138.498 195.996 138.275 195.86 137.864C195.723 137.453 195.945 137.01 196.356 136.873L203.568 134.48C203.979 134.343 204.423 134.566 204.56 134.977Z" fill="white"/>
<path d="M194.76 143.808L185.585 146.852C185.219 146.974 185.021 147.37 185.143 147.736L187.555 154.973C187.677 155.34 188.073 155.539 188.439 155.417L197.614 152.373C197.98 152.252 198.178 151.856 198.056 151.489L195.645 144.252C195.522 143.886 195.126 143.687 194.76 143.808Z" fill="white"/>
<path d="M194.042 148.801C194.492 150.151 193.763 151.607 192.414 152.055C191.065 152.502 189.607 151.77 189.157 150.421C188.707 149.071 189.436 147.616 190.785 147.169C192.134 146.721 193.592 147.453 194.042 148.801Z" fill="url(#paint26_linear_177_148)"/>
<path d="M192.578 149.476L191.55 150.756C191.444 150.887 191.234 150.849 191.181 150.689L190.618 149C190.564 148.84 190.709 148.684 190.874 148.726L192.465 149.135C192.616 149.173 192.676 149.355 192.579 149.476L192.578 149.476Z" fill="white"/>
<path d="M209.8 140.936L198.91 144.551C198.499 144.687 198.277 145.131 198.414 145.542L198.414 145.542C198.551 145.953 198.995 146.176 199.406 146.04L210.295 142.425C210.706 142.289 210.928 141.845 210.791 141.434L210.791 141.433C210.654 141.023 210.21 140.8 209.8 140.936Z" fill="white"/>
<path d="M208.197 145.906C208.334 146.317 208.112 146.76 207.701 146.897L200.488 149.29C200.078 149.427 199.634 149.204 199.497 148.793C199.36 148.382 199.582 147.938 199.993 147.802L207.205 145.408C207.616 145.272 208.06 145.495 208.197 145.906Z" fill="white"/>
<path d="M198.397 154.737L189.223 157.781C188.856 157.902 188.658 158.298 188.781 158.665L191.192 165.902C191.314 166.268 191.71 166.467 192.077 166.346L201.251 163.302C201.618 163.18 201.816 162.785 201.693 162.418L199.282 155.181C199.16 154.814 198.764 154.616 198.397 154.737Z" fill="white"/>
<path d="M197.679 159.73C198.13 161.081 197.401 162.537 196.052 162.984C194.703 163.432 193.245 162.7 192.795 161.35C192.345 160 193.074 158.546 194.423 158.098C195.772 157.651 197.23 158.382 197.679 159.73Z" fill="url(#paint27_linear_177_148)"/>
<path d="M196.216 160.406L195.188 161.685C195.082 161.817 194.872 161.779 194.818 161.618L194.255 159.93C194.202 159.769 194.347 159.613 194.511 159.656L196.103 160.064C196.253 160.103 196.314 160.285 196.216 160.406L196.216 160.406Z" fill="white"/>
<path d="M214.429 152.363C214.566 152.774 214.344 153.218 213.933 153.354L203.044 156.969C202.633 157.105 202.189 156.882 202.052 156.472C201.915 156.061 202.138 155.617 202.548 155.481L213.437 151.866C213.848 151.73 214.292 151.953 214.429 152.363Z" fill="white"/>
<path d="M211.834 156.835C211.971 157.246 211.749 157.69 211.338 157.826L204.126 160.22C203.715 160.356 203.271 160.134 203.134 159.723C202.997 159.312 203.219 158.868 203.63 158.732L210.843 156.338C211.253 156.202 211.698 156.424 211.834 156.835Z" fill="white"/>
</g>
<path d="M78.9091 46.625C78.733 46.6726 78.5517 46.5683 78.5041 46.3921L78.0802 44.8223C77.4846 42.6169 78.7939 40.3378 80.9993 39.7423L82.8153 39.2519C82.9914 39.2043 83.1727 39.3086 83.2203 39.4848C83.2678 39.661 83.1637 39.8423 82.9875 39.8898L81.1716 40.3802C79.3177 40.8809 78.2173 42.7963 78.7179 44.6501L79.1418 46.2199C79.1894 46.3961 79.0852 46.5774 78.9091 46.625Z" fill="#ADC8F7"/>
<path d="M106.714 39.3814C106.538 39.4289 106.357 39.3247 106.309 39.1485L105.819 37.3319C105.318 35.478 103.403 34.3769 101.55 34.8773L99.9815 35.3009C99.8054 35.3484 99.6241 35.2442 99.5766 35.068C99.529 34.8918 99.6331 34.7105 99.8093 34.6629L101.378 34.2394C103.582 33.644 105.861 34.9542 106.456 37.1597L106.947 38.9763C106.995 39.1525 106.89 39.3338 106.714 39.3814Z" fill="#ADC8F7"/>
<path d="M108.319 59.9454L106.504 60.4358C106.327 60.4833 106.146 60.3791 106.099 60.2029C106.051 60.0267 106.155 59.8454 106.331 59.7978L108.147 59.3074C110 58.807 111.101 56.8916 110.6 55.0377L110.176 53.4687C110.129 53.2925 110.233 53.1112 110.409 53.0636C110.585 53.0161 110.767 53.1203 110.814 53.2965L111.238 54.8655C111.833 57.071 110.524 59.35 108.319 59.9454Z" fill="#ADC8F7"/>
<path d="M89.5096 65.0247L87.9403 65.4485C85.7357 66.0438 83.4572 64.7336 82.8616 62.5282L82.371 60.7116C82.3235 60.5354 82.4276 60.354 82.6038 60.3065C82.7799 60.2589 82.9612 60.3632 83.0087 60.5393L83.4993 62.356C83.9999 64.2098 85.9149 65.3109 87.7681 64.8105L89.3373 64.3868C89.5134 64.3392 89.6947 64.4434 89.7423 64.6196C89.7898 64.7958 89.6857 64.9772 89.5096 65.0247Z" fill="#ADC8F7"/>
<path d="M101.854 35.9984L81.4745 41.5017C80.2377 41.8357 79.5059 43.1095 79.84 44.3468L84.6214 62.0529C84.9555 63.2902 86.2291 64.0225 87.4659 63.6885L107.845 58.1853C109.082 57.8512 109.814 56.5774 109.48 55.3401L104.698 37.6341C104.364 36.3967 103.091 35.6644 101.854 35.9984Z" fill="url(#paint28_linear_177_148)"/>
<path d="M98.2903 49.021L93.5892 54.4878C92.9017 55.287 91.6001 54.9915 91.325 53.9731L89.211 46.1446C88.936 45.1261 89.9127 44.2154 90.9085 44.5609L97.7236 46.9226C98.5998 47.2263 98.8945 48.3176 98.2903 49.021Z" fill="white"/>
<path d="M195.487 38.6318L193.473 39.2912C193.321 39.3408 193.158 39.2581 193.108 39.1064C193.059 38.9548 193.141 38.7916 193.293 38.742L195.308 38.0827C198.036 37.19 199.528 34.2435 198.635 31.5147L198.006 29.592C197.956 29.4403 198.039 29.2772 198.191 29.2276C198.342 29.1779 198.505 29.2606 198.555 29.4123L199.184 31.335C200.176 34.3665 198.518 37.6401 195.487 38.6318Z" fill="url(#paint29_linear_177_148)"/>
<path d="M174.168 45.6591L172.246 46.288C169.215 47.2798 165.943 45.6205 164.951 42.589L164.291 40.5734C164.242 40.4217 164.324 40.2586 164.476 40.209C164.628 40.1594 164.791 40.2421 164.84 40.3938L165.5 42.4093C166.393 45.1381 169.338 46.6316 172.066 45.7389L173.988 45.1099C174.139 45.0603 174.303 45.143 174.352 45.2947C174.402 45.4463 174.319 45.6094 174.168 45.6591Z" fill="url(#paint30_linear_177_148)"/>
<path d="M159.255 24.2593C159.104 24.3089 158.941 24.2262 158.891 24.0745L158.262 22.1525C157.27 19.121 158.928 15.8476 161.958 14.8559L163.973 14.1965C164.125 14.1469 164.288 14.2296 164.337 14.3813C164.387 14.533 164.304 14.6961 164.153 14.7457L162.138 15.405C159.41 16.2977 157.918 19.244 158.811 21.9728L159.44 23.8949C159.49 24.0465 159.407 24.2097 159.255 24.2593Z" fill="url(#paint31_linear_177_148)"/>
<path d="M192.971 13.2772C192.819 13.3268 192.656 13.2441 192.606 13.0925L191.947 11.0776C191.054 8.34876 188.108 6.85487 185.38 7.74755L183.459 8.37633C183.307 8.42595 183.144 8.34325 183.094 8.19157C183.045 8.0399 183.127 7.87678 183.279 7.82717L185.2 7.19839C188.231 6.20669 191.504 7.86641 192.496 10.8979L193.155 12.9128C193.205 13.0645 193.122 13.2276 192.971 13.2772Z" fill="url(#paint32_linear_177_148)"/>
<path d="M189.964 11.7259L196.652 32.1632C197.188 33.8009 196.295 35.563 194.658 36.0988L189.74 37.7083L186.931 46.6072C186.723 47.269 185.926 47.5297 185.366 47.1194L177.834 41.6039L171.396 43.711C169.762 44.2456 168.003 43.354 167.469 41.7196L160.779 21.277C160.243 19.6393 161.135 17.8772 162.772 17.3414L186.029 9.73048C187.666 9.19474 189.428 10.0882 189.964 11.7259Z" fill="url(#paint33_linear_177_148)"/>
<path d="M185.71 25.5274L181.516 33.8078C181.355 34.1254 180.967 34.2522 180.65 34.0912L172.371 29.8926C169.992 28.6897 169.035 25.7826 170.246 23.3995C171.448 21.0193 174.357 20.0724 176.733 21.2768C176.816 21.319 176.901 21.3658 176.979 21.4089C177.011 21.324 177.053 21.2408 177.095 21.1581C178.263 18.8537 181.032 17.8881 183.363 18.9288C183.399 18.9468 183.438 18.9587 183.475 18.9814C183.51 18.9994 183.55 19.0159 183.586 19.034C183.622 19.052 183.659 19.0746 183.694 19.0927C183.734 19.1092 183.767 19.1333 183.802 19.1513C186.025 20.4202 186.878 23.2229 185.711 25.5272L185.71 25.5274Z" fill="url(#paint34_linear_177_148)"/>
</g>
<defs>
<linearGradient id="paint0_linear_177_148" x1="122.829" y1="94.1608" x2="178.371" y2="76.4525" gradientUnits="userSpaceOnUse">
<stop stop-color="#E7ECFF"/>
<stop offset="1" stop-color="#C2D5FF"/>
</linearGradient>
<linearGradient id="paint1_linear_177_148" x1="103.925" y1="145.698" x2="119.301" y2="140.932" gradientUnits="userSpaceOnUse">
<stop stop-color="#E7ECFF"/>
<stop offset="1" stop-color="#C2D5FF"/>
</linearGradient>
<linearGradient id="paint2_linear_177_148" x1="114.753" y1="180.58" x2="130.129" y2="175.814" gradientUnits="userSpaceOnUse">
<stop stop-color="#E7ECFF"/>
<stop offset="1" stop-color="#C2D5FF"/>
</linearGradient>
<linearGradient id="paint3_linear_177_148" x1="50.7244" y1="200.49" x2="35.3474" y2="205.256" gradientUnits="userSpaceOnUse">
<stop stop-color="#E7ECFF"/>
<stop offset="1" stop-color="#C2D5FF"/>
</linearGradient>
<linearGradient id="paint4_linear_177_148" x1="39.8963" y1="165.607" x2="24.5193" y2="170.373" gradientUnits="userSpaceOnUse">
<stop stop-color="#E7ECFF"/>
<stop offset="1" stop-color="#C2D5FF"/>
</linearGradient>
<linearGradient id="paint5_linear_177_148" x1="34.4293" y1="186.455" x2="120.255" y2="159.845" gradientUnits="userSpaceOnUse">
<stop stop-color="#E7ECFF"/>
<stop offset="1" stop-color="#C2D5FF"/>
</linearGradient>
<linearGradient id="paint6_linear_177_148" x1="47.5862" y1="182.355" x2="67.5368" y2="176.17" gradientUnits="userSpaceOnUse">
<stop stop-color="#FFBB83"/>
<stop offset="1" stop-color="#FF9D45"/>
</linearGradient>
<linearGradient id="paint7_linear_177_148" x1="60.1448" y1="144.489" x2="44.4512" y2="94.0998" gradientUnits="userSpaceOnUse">
<stop stop-color="#E7ECFF"/>
<stop offset="1" stop-color="#C2D5FF"/>
</linearGradient>
<linearGradient id="paint8_linear_177_148" x1="19.3563" y1="128.461" x2="37.9019" y2="122.714" gradientUnits="userSpaceOnUse">
<stop stop-color="#78A7FF"/>
<stop offset="1" stop-color="#3D79F3"/>
</linearGradient>
<linearGradient id="paint9_linear_177_148" x1="46.3033" y1="114.255" x2="53.3397" y2="112.074" gradientUnits="userSpaceOnUse">
<stop stop-color="#78A7FF"/>
<stop offset="1" stop-color="#3D79F3"/>
</linearGradient>
<linearGradient id="paint10_linear_177_148" x1="55.4291" y1="111.416" x2="62.4647" y2="109.236" gradientUnits="userSpaceOnUse">
<stop stop-color="#78A7FF"/>
<stop offset="1" stop-color="#3D79F3"/>
</linearGradient>
<linearGradient id="paint11_linear_177_148" x1="176.335" y1="141.833" x2="189.942" y2="178.359" gradientUnits="userSpaceOnUse">
<stop stop-color="#E7ECFF"/>
<stop offset="1" stop-color="#C2D5FF"/>
</linearGradient>
<linearGradient id="paint12_linear_177_148" x1="171.015" y1="123.897" x2="175.965" y2="140.4" gradientUnits="userSpaceOnUse">
<stop stop-color="#B3B3FF"/>
<stop offset="1" stop-color="#8F8FEA"/>
</linearGradient>
<linearGradient id="paint13_linear_177_148" x1="165.254" y1="132.308" x2="204.075" y2="119.382" gradientUnits="userSpaceOnUse">
<stop stop-color="#E7ECFF"/>
<stop offset="1" stop-color="#C2D5FF"/>
</linearGradient>
<linearGradient id="paint14_linear_177_148" x1="159.913" y1="156.149" x2="171.288" y2="152.359" gradientUnits="userSpaceOnUse">
<stop stop-color="#E7ECFF"/>
<stop offset="1" stop-color="#C2D5FF"/>
</linearGradient>
<linearGradient id="paint15_linear_177_148" x1="158.714" y1="178.747" x2="165.918" y2="176.346" gradientUnits="userSpaceOnUse">
<stop stop-color="#E7ECFF"/>
<stop offset="1" stop-color="#C2D5FF"/>
</linearGradient>
<linearGradient id="paint16_linear_177_148" x1="159.604" y1="178.453" x2="165.03" y2="176.644" gradientUnits="userSpaceOnUse">
<stop stop-color="#FFBB83"/>
<stop offset="1" stop-color="#FF9D45"/>
</linearGradient>
<linearGradient id="paint17_linear_177_148" x1="160.754" y1="179.95" x2="165.003" y2="178.533" gradientUnits="userSpaceOnUse">
<stop stop-color="#E7ECFF"/>
<stop offset="1" stop-color="#C2D5FF"/>
</linearGradient>
<linearGradient id="paint18_linear_177_148" x1="161.262" y1="177.787" x2="163.303" y2="177.106" gradientUnits="userSpaceOnUse">
<stop stop-color="#E7ECFF"/>
<stop offset="1" stop-color="#C2D5FF"/>
</linearGradient>
<linearGradient id="paint19_linear_177_148" x1="168.25" y1="173.334" x2="186.678" y2="167.198" gradientUnits="userSpaceOnUse">
<stop stop-color="#E7ECFF"/>
<stop offset="1" stop-color="#C2D5FF"/>
</linearGradient>
<linearGradient id="paint20_linear_177_148" x1="177.616" y1="170.222" x2="185.117" y2="167.722" gradientUnits="userSpaceOnUse">
<stop stop-color="#E7ECFF"/>
<stop offset="1" stop-color="#C2D5FF"/>
</linearGradient>
<linearGradient id="paint21_linear_177_148" x1="168.923" y1="175.358" x2="192.228" y2="167.594" gradientUnits="userSpaceOnUse">
<stop stop-color="#E7ECFF"/>
<stop offset="1" stop-color="#C2D5FF"/>
</linearGradient>
<linearGradient id="paint22_linear_177_148" x1="171.16" y1="174.614" x2="185.789" y2="169.742" gradientUnits="userSpaceOnUse">
<stop stop-color="#E7ECFF"/>
<stop offset="1" stop-color="#C2D5FF"/>
</linearGradient>
<linearGradient id="paint23_linear_177_148" x1="166.134" y1="178.524" x2="181.982" y2="173.242" gradientUnits="userSpaceOnUse">
<stop stop-color="#E7ECFF"/>
<stop offset="1" stop-color="#C2D5FF"/>
</linearGradient>
<linearGradient id="paint24_linear_177_148" x1="169.596" y1="177.38" x2="185.44" y2="172.103" gradientUnits="userSpaceOnUse">
<stop stop-color="#E7ECFF"/>
<stop offset="1" stop-color="#C2D5FF"/>
</linearGradient>
<linearGradient id="paint25_linear_177_148" x1="185.52" y1="139.493" x2="190.403" y2="137.866" gradientUnits="userSpaceOnUse">
<stop stop-color="#E7ECFF"/>
<stop offset="1" stop-color="#C2D5FF"/>
</linearGradient>
<linearGradient id="paint26_linear_177_148" x1="189.157" y1="150.422" x2="194.04" y2="148.794" gradientUnits="userSpaceOnUse">
<stop stop-color="#E7ECFF"/>
<stop offset="1" stop-color="#C2D5FF"/>
</linearGradient>
<linearGradient id="paint27_linear_177_148" x1="192.795" y1="161.352" x2="197.677" y2="159.724" gradientUnits="userSpaceOnUse">
<stop stop-color="#E7ECFF"/>
<stop offset="1" stop-color="#C2D5FF"/>
</linearGradient>
<linearGradient id="paint28_linear_177_148" x1="82.2307" y1="53.1999" x2="107.089" y2="46.4871" gradientUnits="userSpaceOnUse">
<stop stop-color="#E7ECFF"/>
<stop offset="1" stop-color="#C2D5FF"/>
</linearGradient>
<linearGradient id="paint29_linear_177_148" x1="191.939" y1="35.533" x2="199.724" y2="32.9851" gradientUnits="userSpaceOnUse">
<stop stop-color="#E7ECFF"/>
<stop offset="1" stop-color="#C2D5FF"/>
</linearGradient>
<linearGradient id="paint30_linear_177_148" x1="168.048" y1="39.0402" x2="170.596" y2="46.8279" gradientUnits="userSpaceOnUse">
<stop stop-color="#E7ECFF"/>
<stop offset="1" stop-color="#C2D5FF"/>
</linearGradient>
<linearGradient id="paint31_linear_177_148" x1="165.507" y1="17.9541" x2="157.722" y2="20.5017" gradientUnits="userSpaceOnUse">
<stop stop-color="#E7ECFF"/>
<stop offset="1" stop-color="#C2D5FF"/>
</linearGradient>
<linearGradient id="paint32_linear_177_148" x1="189.399" y1="14.446" x2="186.851" y2="6.65838" gradientUnits="userSpaceOnUse">
<stop stop-color="#E7ECFF"/>
<stop offset="1" stop-color="#C2D5FF"/>
</linearGradient>
<linearGradient id="paint33_linear_177_148" x1="165.367" y1="35.3011" x2="194.553" y2="25.7498" gradientUnits="userSpaceOnUse">
<stop stop-color="#E7ECFF"/>
<stop offset="1" stop-color="#C2D5FF"/>
</linearGradient>
<linearGradient id="paint34_linear_177_148" x1="170.792" y1="29.6243" x2="186.823" y2="24.3779" gradientUnits="userSpaceOnUse">
<stop stop-color="#FF8888"/>
<stop offset="1" stop-color="#F24E4E"/>
</linearGradient>
</defs>
</svg>
