<svg width="227" height="211" viewBox="0 0 227 211" fill="none" xmlns="http://www.w3.org/2000/svg">
<g opacity="0.18">
<mask id="mask0_2324_38061" style="mask-type:alpha" maskUnits="userSpaceOnUse" x="1" y="3" width="206" height="199">
<path d="M1 33.1592C1 16.5906 14.4315 3.15918 31 3.15918H207V171.159C207 187.728 193.569 201.159 177 201.159H31C14.4315 201.159 1 187.728 1 171.159V33.1592Z" fill="white"/>
</mask>
<g mask="url(#mask0_2324_38061)">
<path d="M173.193 60.2098L181.094 84.9934C181.54 86.3899 180.769 87.8831 179.373 88.3282L135.632 102.274L130.782 111.902C130.267 112.923 128.772 112.804 128.425 111.714L117.65 77.9199C117.205 76.5234 117.976 75.0302 119.372 74.5852L169.859 58.4883C171.255 58.0432 172.748 58.8146 173.193 60.2112L173.193 60.2098Z" fill="url(#paint0_linear_2324_38061)"/>
<path d="M136.816 88.5034C139.077 87.656 140.223 85.1354 139.375 82.8734C138.528 80.6114 136.008 79.4646 133.746 80.3121C131.485 81.1595 130.339 83.6801 131.187 85.9421C132.035 88.2041 134.555 89.3508 136.816 88.5034Z" fill="white"/>
<path d="M153.106 78.7636C153.842 81.0704 152.575 83.5236 150.269 84.2588C147.963 84.994 145.509 83.7271 144.774 81.4202C144.038 79.1133 145.314 76.6572 147.612 75.9245C149.91 75.1918 152.374 76.466 153.106 78.7636Z" fill="white"/>
<path d="M164.117 79.7979C166.378 78.9505 167.524 76.4298 166.676 74.1678C165.828 71.9058 163.308 70.7591 161.047 71.6065C158.786 72.4539 157.64 74.9746 158.488 77.2366C159.336 79.4985 161.856 80.6453 164.117 79.7979Z" fill="white"/>
<path d="M121.173 148.144C120.99 148.201 120.796 148.099 120.739 147.915L118.735 141.448C117.573 137.699 113.584 135.599 109.841 136.765L102.252 139.129C102.069 139.186 101.875 139.084 101.818 138.9C101.761 138.717 101.863 138.522 102.046 138.465L109.635 136.1C113.742 134.821 118.122 137.127 119.398 141.242L121.402 147.709C121.459 147.892 121.357 148.087 121.173 148.144Z" fill="url(#paint1_linear_2324_38061)"/>
<path d="M124.883 185.244L117.295 187.609C117.112 187.666 116.917 187.563 116.86 187.38C116.803 187.197 116.906 187.002 117.089 186.945L124.677 184.58C128.42 183.414 130.519 179.416 129.357 175.667L127.353 169.2C127.296 169.017 127.398 168.822 127.581 168.765C127.764 168.708 127.959 168.81 128.016 168.994L130.02 175.461C131.295 179.575 128.991 183.965 124.883 185.244Z" fill="url(#paint2_linear_2324_38061)"/>
<path d="M52.6031 207.725L45.0144 210.09C40.9071 211.37 36.527 209.063 35.2518 204.948L33.2475 198.481C33.1906 198.298 33.2929 198.103 33.4761 198.046C33.6592 197.989 33.8537 198.091 33.9106 198.275L35.9149 204.742C37.0769 208.491 41.0659 210.592 44.8085 209.426L52.3972 207.061C52.5803 207.004 52.7748 207.107 52.8317 207.29C52.8885 207.473 52.7862 207.668 52.6031 207.725Z" fill="url(#paint3_linear_2324_38061)"/>
<path d="M27.0681 177.425C26.885 177.482 26.6905 177.38 26.6336 177.196L24.6293 170.73C23.3541 166.615 25.6588 162.226 29.7661 160.946L37.3548 158.581C37.5379 158.524 37.7324 158.627 37.7893 158.81C37.8461 158.994 37.7438 159.189 37.5606 159.246L29.972 161.61C26.2294 162.776 24.1304 166.774 25.2924 170.523L27.2968 176.99C27.3536 177.173 27.2513 177.368 27.0681 177.425Z" fill="url(#paint4_linear_2324_38061)"/>
<path d="M111.047 140.599L31.1657 165.479C29.5338 165.987 28.6218 167.725 29.1286 169.359L39.7301 203.553C40.2369 205.187 41.9707 206.101 43.6026 205.592L123.484 180.712C125.116 180.204 126.028 178.467 125.521 176.832L114.92 142.639C114.413 141.004 112.679 140.091 111.047 140.599Z" fill="url(#paint5_linear_2324_38061)"/>
<path d="M98.5081 157.263L78.5037 163.493C78.1241 163.611 77.9119 164.015 78.0297 164.395L78.7686 166.778C78.8863 167.158 79.2895 167.37 79.6691 167.252L99.6735 161.021C100.053 160.903 100.265 160.499 100.148 160.12L99.4087 157.737C99.2909 157.357 98.8877 157.145 98.5081 157.263Z" fill="white"/>
<path d="M112.057 160.227L80.535 170.042C80.1554 170.16 79.9431 170.564 80.0608 170.943L80.7995 173.325C80.9173 173.705 81.3205 173.917 81.7001 173.799L113.222 163.983C113.602 163.865 113.814 163.462 113.697 163.082L112.958 160.7C112.84 160.32 112.437 160.108 112.057 160.227Z" fill="white"/>
<path d="M114.093 166.773L82.5701 176.588C82.1905 176.707 81.9783 177.11 82.096 177.49L82.8347 179.872C82.9524 180.251 83.3556 180.463 83.7352 180.345L115.258 170.53C115.637 170.412 115.849 170.008 115.732 169.628L114.993 167.246C114.875 166.867 114.472 166.655 114.093 166.773Z" fill="white"/>
<path d="M70.7911 175.123C73.0602 182.442 68.9646 190.226 61.658 192.502C54.3515 194.777 46.5889 190.688 44.3198 183.368C42.0507 176.049 46.1345 168.269 53.4402 165.993C60.746 163.718 68.5217 167.802 70.7911 175.123Z" fill="white"/>
<path d="M67.5254 176.138C68.2528 178.485 68.1167 180.896 67.2847 183.035C66.1622 185.903 63.807 188.257 60.6471 189.242C57.4872 190.226 54.2148 189.624 51.6683 187.899C49.7864 186.606 48.3106 184.696 47.5831 182.35C45.874 176.837 48.9499 170.977 54.4527 169.263C59.9555 167.549 65.8155 170.625 67.5246 176.138L67.5254 176.138Z" fill="url(#paint6_linear_2324_38061)"/>
<path d="M67.287 183.036C66.1641 185.903 63.809 188.257 60.6496 189.241C57.4902 190.226 54.2187 189.625 51.6731 187.901C52.7957 185.034 55.1511 182.681 58.3112 181.696C61.4714 180.712 64.7419 181.312 67.287 183.036Z" fill="white"/>
<path d="M61.1884 177.696C61.8309 179.769 60.6804 181.979 58.6104 182.624C56.5404 183.269 54.3317 182.106 53.6891 180.033C53.0466 177.959 54.1971 175.75 56.279 175.101C58.3608 174.452 60.5459 175.623 61.1884 177.696Z" fill="white"/>
<path d="M94.6549 93.4997C94.4718 93.5568 94.2773 93.4543 94.2204 93.2708L92.9489 89.1694C91.8385 85.5875 88.0264 83.58 84.4505 84.6938L80.1469 86.0343C79.9637 86.0914 79.7692 85.9889 79.7123 85.8054C79.6555 85.6219 79.7578 85.427 79.9409 85.37L84.2446 84.0295C88.1851 82.8021 92.388 85.0148 93.612 88.9628L94.8835 93.0643C94.9403 93.2478 94.838 93.4427 94.6549 93.4997Z" fill="#ADC8F7"/>
<path d="M97.96 128.24L93.6563 129.581C93.4732 129.638 93.2787 129.535 93.2218 129.352C93.1649 129.168 93.2672 128.974 93.4504 128.916L97.754 127.576C101.33 126.462 103.335 122.642 102.225 119.06L100.953 114.959C100.896 114.775 100.999 114.58 101.182 114.523C101.365 114.466 101.56 114.569 101.616 114.752L102.888 118.853C104.112 122.801 101.901 127.013 97.96 128.24Z" fill="#ADC8F7"/>
<path d="M24.1091 151.212L19.8046 152.552C15.864 153.78 11.6611 151.567 10.437 147.618L9.16547 143.517C9.10859 143.333 9.2109 143.138 9.39404 143.081C9.57717 143.024 9.77167 143.127 9.82855 143.31L11.1 147.412C12.2105 150.994 16.0228 153.002 19.5987 151.888L23.9031 150.547C24.0862 150.49 24.2807 150.593 24.3376 150.776C24.3945 150.96 24.2922 151.155 24.1091 151.212Z" fill="#ADC8F7"/>
<path d="M2.8631 122.058C2.67997 122.115 2.48547 122.013 2.42859 121.829L1.1571 117.728C-0.0665885 113.781 2.14394 109.569 6.08529 108.342L10.3897 107.001C10.5729 106.944 10.7674 107.046 10.8243 107.23C10.8811 107.413 10.7788 107.608 10.5957 107.665L6.29124 109.006C2.71537 110.12 0.709758 113.939 1.82017 117.521L3.09166 121.623C3.14855 121.806 3.04624 122.001 2.8631 122.058Z" fill="#ADC8F7"/>
<path d="M7.24532 112.112L85.4172 87.7658C87.301 87.1791 89.3055 88.2348 89.8905 90.1218L99.1498 119.986C99.7348 121.873 98.6804 123.882 96.7965 124.468L18.6247 148.815C16.7409 149.401 14.7364 148.346 14.1514 146.459L4.89208 116.594C4.30703 114.707 5.3615 112.699 7.24532 112.112Z" fill="url(#paint7_linear_2324_38061)"/>
<path d="M41.6325 121.515C43.862 128.709 39.834 136.361 32.6515 138.599C25.4689 140.837 17.8374 136.819 15.6076 129.624C13.3779 122.429 17.3934 114.781 24.5768 112.543C31.7602 110.305 39.4027 114.319 41.6325 121.515Z" fill="white"/>
<path d="M37.8875 122.681C38.5634 124.862 38.4364 127.103 37.6628 129.09C36.619 131.756 34.4299 133.944 31.4923 134.86C28.5547 135.775 25.5135 135.216 23.1477 133.613C21.3981 132.412 20.0275 130.637 19.3516 128.456C17.7639 123.333 20.6236 117.887 25.7386 116.293C30.8536 114.699 36.2998 117.557 37.8875 122.681Z" fill="url(#paint8_linear_2324_38061)"/>
<path d="M37.6644 129.093C36.6204 131.758 34.4316 133.945 31.4947 134.86C28.5577 135.776 25.5175 135.218 23.1526 133.616C24.1963 130.951 26.3854 128.764 29.3223 127.849C32.2592 126.934 35.2992 127.491 37.6644 129.093Z" fill="white"/>
<path d="M31.9947 124.13C32.5916 126.057 31.5225 128.111 29.5984 128.711C27.6743 129.311 25.6216 128.229 25.0246 126.302C24.4277 124.375 25.4968 122.321 27.4319 121.718C29.3671 121.115 31.3974 122.202 31.9947 124.13Z" fill="white"/>
<path d="M88.0598 109.177L49.5009 121.179C48.9719 121.343 48.676 121.906 48.8401 122.434L48.9289 122.721C49.093 123.25 49.6548 123.545 50.1839 123.38L88.7428 111.379C89.2719 111.214 89.5678 110.652 89.4037 110.123L89.3149 109.837C89.1508 109.308 88.5889 109.013 88.0598 109.177Z" fill="#C2D5FF"/>
<path d="M62.7594 123.398C62.9237 123.928 62.6273 124.49 62.0986 124.655L51.5955 127.926C51.066 128.091 50.5043 127.794 50.3402 127.265C50.1759 126.736 50.4723 126.173 51.001 126.008L61.5041 122.738C62.0336 122.573 62.5953 122.869 62.7594 123.398Z" fill="#C2D5FF"/>
<path d="M77.4327 118.835C77.597 119.364 77.3006 119.927 76.7719 120.092L66.5994 123.259C66.0699 123.424 65.5082 123.128 65.3441 122.599C65.1798 122.069 65.4762 121.507 66.0049 121.342L76.1774 118.174C76.7069 118.009 77.2686 118.306 77.4327 118.835Z" fill="#C2D5FF"/>
<path d="M90.3883 114.804C90.5527 115.334 90.2563 115.897 89.7276 116.061L81.2713 118.695C80.7418 118.86 80.1801 118.564 80.016 118.034C79.8517 117.505 80.148 116.942 80.6768 116.777L89.1331 114.144C89.6626 113.979 90.2243 114.275 90.3883 114.804Z" fill="#C2D5FF"/>
<path d="M49.0199 109.862L50.5876 111.516L52.8358 111.159C53.0323 111.128 53.1799 111.336 53.0845 111.511L51.9987 113.516L53.0317 115.548C53.1224 115.726 52.9694 115.931 52.7738 115.894L50.535 115.48L48.9245 117.094C48.7838 117.235 48.5421 117.153 48.5162 116.955L48.2189 114.694L46.1911 113.659C46.0134 113.569 46.0173 113.314 46.1967 113.227L48.2508 112.244L48.6078 109.991C48.6393 109.794 48.8825 109.718 49.0191 109.863L49.0199 109.862Z" fill="url(#paint9_linear_2324_38061)"/>
<path d="M58.1449 107.024L59.7126 108.677L61.9608 108.32C62.1573 108.289 62.3049 108.497 62.2095 108.673L61.1237 110.678L62.1567 112.709C62.2474 112.887 62.0944 113.092 61.8988 113.056L59.66 112.642L58.0495 114.255C57.9088 114.396 57.6671 114.314 57.6412 114.116L57.3439 111.855L55.3161 110.821C55.1384 110.73 55.1423 110.475 55.3216 110.389L57.3758 109.405L57.7328 107.152C57.7643 106.955 58.0075 106.879 58.1441 107.024L58.1449 107.024Z" fill="url(#paint10_linear_2324_38061)"/>
<path d="M67.2699 104.185L68.8375 105.839L71.0858 105.482C71.2823 105.451 71.4299 105.659 71.3345 105.834L70.2487 107.839L71.2817 109.871C71.3724 110.049 71.2194 110.253 71.0238 110.217L68.785 109.803L67.1745 111.417C67.0338 111.558 66.7921 111.476 66.7662 111.278L66.4689 109.017L64.4411 107.982C64.2634 107.892 64.2673 107.636 64.4466 107.55L66.5008 106.567L66.8578 104.314C66.8893 104.117 67.1325 104.041 67.2691 104.186L67.2699 104.185Z" fill="white"/>
<path d="M76.3949 101.347L77.9625 103L80.2108 102.643C80.4073 102.612 80.5549 102.82 80.4595 102.996L79.3737 105.001L80.4067 107.032C80.4974 107.21 80.3444 107.415 80.1488 107.379L77.91 106.965L76.2995 108.578C76.1588 108.719 75.9171 108.637 75.8912 108.439L75.5939 106.178L73.5661 105.143C73.3884 105.053 73.3923 104.798 73.5716 104.712L75.6258 103.728L75.9828 101.475C76.0143 101.278 76.2575 101.202 76.3941 101.347L76.3949 101.347Z" fill="white"/>
<path d="M210.972 119.206C210.826 119.255 210.669 119.176 210.621 119.03L209.376 115.295C208.321 112.127 204.888 110.404 201.725 111.454L197.857 112.737C197.711 112.785 197.554 112.707 197.506 112.561C197.457 112.416 197.536 112.259 197.681 112.21L201.549 110.927C205.003 109.781 208.75 111.662 209.903 115.121L211.147 118.856C211.195 119.001 211.117 119.158 210.972 119.206Z" fill="#B7BCFF"/>
<path d="M135.783 144.177C135.637 144.226 135.48 144.147 135.432 144.001L134.187 140.266C133.035 136.807 134.908 133.062 138.362 131.916L142.229 130.632C142.375 130.584 142.532 130.663 142.58 130.808C142.629 130.954 142.55 131.111 142.405 131.159L138.537 132.442C135.373 133.492 133.658 136.924 134.713 140.091L135.958 143.827C136.006 143.972 135.928 144.129 135.783 144.177Z" fill="#B7BCFF"/>
<path d="M162.561 191.938L158.829 193.176C155.375 194.322 151.628 192.441 150.476 188.982L149.185 185.109C149.137 184.964 149.215 184.807 149.361 184.759C149.506 184.711 149.663 184.789 149.712 184.935L151.002 188.807C152.057 191.975 155.49 193.699 158.654 192.649L162.385 191.411C162.53 191.363 162.688 191.441 162.736 191.587C162.784 191.732 162.706 191.889 162.561 191.938Z" fill="#B7BCFF"/>
<path d="M202.663 114.271L139.457 135.25C137.835 135.789 136.958 137.543 137.499 139.168L153.725 187.887C154.266 189.512 156.02 190.393 157.643 189.854L220.849 168.874C222.471 168.336 223.348 166.582 222.807 164.957L206.581 116.238C206.04 114.613 204.286 113.732 202.663 114.271Z" fill="url(#paint11_linear_2324_38061)"/>
<path d="M206.579 116.229L208.919 123.258L160.627 139.291C160.117 139.461 159.555 139.366 159.128 139.04L156.323 136.898C155.896 136.571 155.334 136.477 154.824 136.647L148.21 138.843C147.699 139.012 147.306 139.423 147.159 139.94L146.198 143.333C146.051 143.85 145.658 144.261 145.148 144.43L139.851 146.189L137.511 139.161C136.97 137.537 137.847 135.782 139.47 135.243L202.66 114.264C204.283 113.725 206.038 114.606 206.579 116.23L206.579 116.229Z" fill="url(#paint12_linear_2324_38061)"/>
<path d="M201.195 117.964L166.699 129.417C165.502 129.815 164.855 131.109 165.254 132.308C165.653 133.506 166.947 134.156 168.145 133.758L202.64 122.305C203.837 121.907 204.485 120.613 204.085 119.415C203.686 118.216 202.392 117.566 201.195 117.964Z" fill="url(#paint13_linear_2324_38061)"/>
<path d="M201.192 117.96L199.07 118.665L200.517 123.009L202.638 122.305C203.836 121.907 204.483 120.612 204.084 119.413C203.684 118.213 202.389 117.563 201.192 117.96Z" fill="#3D79F3"/>
<path d="M201.813 120.893C201.602 120.963 201.364 120.953 201.149 120.845C200.721 120.63 200.546 120.105 200.76 119.677C200.967 119.264 201.513 119.082 201.927 119.29C202.356 119.505 202.53 120.029 202.316 120.458C202.209 120.673 202.024 120.823 201.813 120.893L201.813 120.893ZM201.351 119.505C201.2 119.555 201.078 119.66 201.008 119.801C200.862 120.093 200.981 120.45 201.273 120.597C201.565 120.744 201.922 120.625 202.069 120.333C202.214 120.041 202.095 119.684 201.803 119.537C201.662 119.466 201.502 119.455 201.351 119.505Z" fill="white"/>
<path d="M202.962 120.892C202.928 120.904 202.89 120.902 202.856 120.884L202.129 120.52C202.061 120.485 202.033 120.402 202.067 120.333C202.101 120.265 202.185 120.237 202.253 120.272L202.98 120.636C203.048 120.671 203.076 120.754 203.042 120.823C203.025 120.857 202.996 120.881 202.962 120.892L202.962 120.892Z" fill="white"/>
<path d="M177.032 137.565L146.428 147.724C145.862 147.912 145.556 148.524 145.744 149.092L152.798 170.272C152.987 170.839 153.6 171.146 154.166 170.958L184.77 160.8C185.337 160.612 185.643 160 185.454 159.432L178.4 138.252C178.211 137.685 177.599 137.377 177.032 137.565Z" fill="white"/>
<path d="M171.288 152.372C172.336 155.519 170.639 158.913 167.496 159.956C164.352 160.998 160.957 159.294 159.908 156.147C158.859 153.001 160.558 149.612 163.702 148.569C166.845 147.526 170.241 149.23 171.288 152.372Z" fill="url(#paint14_linear_2324_38061)"/>
<path d="M167.878 153.945L165.483 156.926C165.236 157.234 164.746 157.145 164.621 156.771L163.31 152.835C163.185 152.461 163.524 152.098 163.906 152.196L167.612 153.15C167.963 153.24 168.104 153.663 167.877 153.945L167.878 153.945Z" fill="white"/>
<path d="M185.855 163.985L155.204 174.159C154.651 174.343 154.353 174.94 154.537 175.494L157.32 183.85C157.504 184.404 158.102 184.704 158.655 184.52L189.305 174.346C189.858 174.162 190.157 173.564 189.972 173.011L187.19 164.655C187.005 164.101 186.408 163.801 185.855 163.985Z" fill="white"/>
<path d="M165.92 176.358C166.584 178.348 165.506 180.498 163.517 181.158C161.527 181.818 159.377 180.739 158.713 178.748C158.05 176.757 159.124 174.608 161.114 173.949C163.103 173.289 165.257 174.367 165.92 176.358Z" fill="url(#paint15_linear_2324_38061)"/>
<path d="M165.029 176.652C165.242 177.29 165.218 177.95 165.003 178.539C164.712 179.329 164.079 179.985 163.219 180.27C162.359 180.556 161.459 180.408 160.751 179.949C160.228 179.605 159.813 179.09 159.6 178.452C159.101 176.953 159.91 175.334 161.408 174.838C162.906 174.341 164.529 175.153 165.029 176.652Z" fill="url(#paint16_linear_2324_38061)"/>
<path d="M165.003 178.541C164.712 179.331 164.08 179.986 163.22 180.272C162.359 180.557 161.459 180.409 160.752 179.951C161.043 179.161 161.676 178.505 162.536 178.22C163.396 177.935 164.296 178.083 165.003 178.541Z" fill="url(#paint17_linear_2324_38061)"/>
<path d="M163.301 177.111C163.489 177.674 163.186 178.285 162.623 178.472C162.06 178.658 161.447 178.351 161.259 177.788C161.071 177.224 161.374 176.613 161.941 176.425C162.508 176.237 163.113 176.547 163.301 177.111Z" fill="url(#paint18_linear_2324_38061)"/>
<path d="M180.727 168.707L168.544 172.751C168.301 172.832 168.171 173.093 168.251 173.335C168.332 173.577 168.594 173.708 168.835 173.627L181.019 169.583C181.261 169.502 181.392 169.241 181.311 168.999C181.231 168.757 180.969 168.627 180.727 168.707Z" fill="url(#paint19_linear_2324_38061)"/>
<path d="M183.705 168.202C183.786 168.445 184.047 168.576 184.29 168.496L184.829 168.317C185.071 168.236 185.202 167.974 185.121 167.732C185.04 167.49 184.778 167.359 184.536 167.439L183.997 167.618C183.755 167.698 183.624 167.96 183.705 168.202Z" fill="url(#paint20_linear_2324_38061)"/>
<path d="M171.999 173.851L169.216 174.774C168.973 174.855 168.843 175.116 168.923 175.358C169.004 175.601 169.266 175.732 169.508 175.651L172.291 174.728C172.533 174.648 172.664 174.386 172.583 174.144C172.502 173.902 172.24 173.771 171.999 173.851Z" fill="url(#paint21_linear_2324_38061)"/>
<path d="M174.935 173.361C175.016 173.603 175.277 173.734 175.519 173.654L185.502 170.34C185.744 170.26 185.875 169.998 185.794 169.757C185.714 169.514 185.452 169.384 185.21 169.464L175.227 172.778C174.985 172.858 174.855 173.12 174.935 173.361Z" fill="url(#paint22_linear_2324_38061)"/>
<path d="M180.72 173.686C180.801 173.929 181.063 174.06 181.305 173.979L181.698 173.849C181.94 173.769 182.071 173.507 181.99 173.265C181.909 173.022 181.647 172.891 181.405 172.971L181.013 173.102C180.77 173.182 180.64 173.444 180.72 173.686Z" fill="url(#paint23_linear_2324_38061)"/>
<path d="M178.774 173.847L169.888 176.796C169.645 176.877 169.515 177.138 169.595 177.38C169.676 177.622 169.938 177.753 170.179 177.673L179.066 174.723C179.308 174.643 179.439 174.381 179.358 174.139C179.277 173.897 179.016 173.767 178.774 173.847Z" fill="url(#paint24_linear_2324_38061)"/>
<path d="M191.119 132.88L181.945 135.924C181.578 136.045 181.38 136.441 181.503 136.808L183.914 144.045C184.036 144.411 184.432 144.61 184.799 144.488L193.973 141.445C194.34 141.323 194.538 140.927 194.415 140.561L192.004 133.324C191.882 132.957 191.486 132.758 191.119 132.88Z" fill="white"/>
<path d="M190.402 137.873C190.852 139.224 190.123 140.68 188.774 141.127C187.425 141.574 185.967 140.843 185.517 139.493C185.067 138.143 185.796 136.688 187.145 136.241C188.494 135.794 189.952 136.525 190.402 137.873Z" fill="url(#paint25_linear_2324_38061)"/>
<path d="M188.938 138.548L187.91 139.828C187.805 139.959 187.594 139.921 187.541 139.761L186.978 138.072C186.924 137.912 187.069 137.756 187.234 137.798L188.825 138.207C188.976 138.245 189.036 138.427 188.939 138.548L188.938 138.548Z" fill="white"/>
<path d="M207.152 130.505C207.289 130.916 207.066 131.36 206.656 131.496L195.767 135.111C195.356 135.247 194.912 135.024 194.775 134.614C194.638 134.203 194.86 133.759 195.271 133.623L206.16 130.008C206.571 129.872 207.015 130.095 207.152 130.505Z" fill="white"/>
<path d="M204.557 134.977C204.694 135.388 204.472 135.832 204.061 135.969L196.849 138.362C196.438 138.499 195.994 138.276 195.857 137.865C195.72 137.454 195.942 137.01 196.353 136.874L203.566 134.48C203.976 134.344 204.421 134.567 204.557 134.977Z" fill="white"/>
<path d="M194.76 143.809L185.585 146.853C185.219 146.974 185.021 147.37 185.143 147.737L187.555 154.974C187.677 155.34 188.073 155.539 188.439 155.418L197.614 152.374C197.98 152.252 198.178 151.857 198.056 151.49L195.645 144.253C195.522 143.886 195.126 143.688 194.76 143.809Z" fill="white"/>
<path d="M194.042 148.802C194.493 150.152 193.764 151.608 192.415 152.055C191.066 152.503 189.608 151.771 189.158 150.421C188.708 149.072 189.437 147.617 190.786 147.169C192.135 146.722 193.593 147.454 194.042 148.802Z" fill="url(#paint26_linear_2324_38061)"/>
<path d="M192.579 149.477L191.551 150.756C191.445 150.888 191.235 150.85 191.181 150.689L190.619 149.001C190.565 148.84 190.71 148.684 190.874 148.727L192.466 149.135C192.616 149.174 192.677 149.356 192.579 149.477L192.579 149.477Z" fill="white"/>
<path d="M209.801 140.937L198.912 144.552C198.501 144.688 198.279 145.132 198.416 145.542L198.416 145.543C198.553 145.954 198.997 146.177 199.408 146.04L210.297 142.426C210.708 142.289 210.93 141.846 210.793 141.435L210.793 141.434C210.656 141.023 210.212 140.801 209.801 140.937Z" fill="white"/>
<path d="M208.198 145.906C208.335 146.317 208.113 146.761 207.702 146.897L200.49 149.291C200.079 149.427 199.635 149.204 199.498 148.793C199.361 148.382 199.583 147.939 199.994 147.802L207.206 145.409C207.617 145.272 208.061 145.495 208.198 145.906Z" fill="white"/>
<path d="M198.397 154.738L189.222 157.782C188.856 157.904 188.658 158.299 188.78 158.666L191.191 165.903C191.313 166.27 191.71 166.468 192.076 166.347L201.251 163.303C201.617 163.182 201.815 162.786 201.693 162.419L199.281 155.182C199.159 154.816 198.763 154.617 198.397 154.738Z" fill="white"/>
<path d="M197.679 159.732C198.129 161.082 197.4 162.538 196.052 162.986C194.703 163.433 193.244 162.702 192.795 161.352C192.345 160.002 193.074 158.547 194.423 158.1C195.772 157.652 197.23 158.384 197.679 159.732Z" fill="url(#paint27_linear_2324_38061)"/>
<path d="M196.216 160.407L195.188 161.686C195.082 161.818 194.872 161.78 194.818 161.619L194.255 159.931C194.202 159.77 194.347 159.614 194.511 159.657L196.102 160.065C196.253 160.104 196.314 160.286 196.216 160.407L196.216 160.407Z" fill="white"/>
<path d="M214.429 152.364C214.566 152.775 214.344 153.218 213.933 153.355L203.044 156.969C202.633 157.105 202.189 156.883 202.052 156.472C201.916 156.061 202.138 155.617 202.549 155.481L213.437 151.867C213.848 151.73 214.292 151.953 214.429 152.364Z" fill="white"/>
<path d="M211.835 156.836C211.972 157.247 211.75 157.691 211.339 157.827L204.126 160.221C203.716 160.357 203.271 160.134 203.135 159.723C202.998 159.313 203.22 158.869 203.631 158.732L210.843 156.339C211.254 156.202 211.698 156.425 211.835 156.836Z" fill="white"/>
</g>
<path d="M78.9091 46.6249C78.733 46.6724 78.5517 46.5682 78.5041 46.392L78.0802 44.8222C77.4846 42.6167 78.7939 40.3377 80.9993 39.7422L82.8152 39.2518C82.9914 39.2042 83.1726 39.3085 83.2202 39.4847C83.2678 39.6608 83.1636 39.8422 82.9875 39.8897L81.1716 40.3801C79.3177 40.8807 78.2173 42.7962 78.7179 44.65L79.1418 46.2198C79.1894 46.396 79.0852 46.5773 78.9091 46.6249Z" fill="#ADC8F7"/>
<path d="M106.716 39.381C106.54 39.4286 106.359 39.3243 106.311 39.1481L105.821 37.3315C105.32 35.4777 103.405 34.3765 101.552 34.877L99.9833 35.3005C99.8072 35.3481 99.6259 35.2438 99.5783 35.0676C99.5307 34.8914 99.6349 34.7101 99.811 34.6626L101.379 34.239C103.584 33.6437 105.863 34.9538 106.458 37.1593L106.949 38.9759C106.996 39.1521 106.892 39.3334 106.716 39.381Z" fill="#ADC8F7"/>
<path d="M108.319 59.945L106.503 60.4354C106.327 60.483 106.145 60.3787 106.098 60.2025C106.05 60.0263 106.154 59.845 106.33 59.7975L108.146 59.3071C109.999 58.8066 111.1 56.8912 110.599 55.0374L110.176 53.4683C110.128 53.2921 110.232 53.1108 110.408 53.0633C110.584 53.0157 110.766 53.1199 110.813 53.2961L111.237 54.8652C111.832 57.0706 110.523 59.3497 108.319 59.945Z" fill="#ADC8F7"/>
<path d="M89.5098 65.0245L87.9406 65.4482C85.736 66.0436 83.4574 64.7334 82.8619 62.5279L82.3713 60.7113C82.3237 60.5351 82.4279 60.3538 82.604 60.3062C82.7801 60.2587 82.9614 60.3629 83.009 60.5391L83.4996 62.3557C84.0002 64.2096 85.9152 65.3107 87.7683 64.8103L89.3375 64.3865C89.5137 64.339 89.6949 64.4432 89.7425 64.6194C89.7901 64.7956 89.6859 64.9769 89.5098 65.0245Z" fill="#ADC8F7"/>
<path d="M101.853 35.9982L81.4739 41.5014C80.2371 41.8354 79.5052 43.1093 79.8394 44.3466L84.6208 62.0526C84.9549 63.29 86.2284 64.0223 87.4653 63.6882L107.844 58.185C109.081 57.851 109.813 56.5772 109.479 55.3398L104.698 37.6338C104.364 36.3965 103.09 35.6642 101.853 35.9982Z" fill="url(#paint28_linear_2324_38061)"/>
<path d="M98.2896 49.0208L93.5884 54.4875C92.9009 55.2867 91.5993 54.9912 91.3243 53.9728L89.2103 46.1443C88.9353 45.1259 89.9119 44.2151 90.9077 44.5606L97.7229 46.9224C98.5991 47.226 98.8938 48.3174 98.2896 49.0208Z" fill="white"/>
<path d="M195.487 38.6319L193.473 39.2913C193.321 39.3409 193.158 39.2582 193.108 39.1066C193.059 38.9549 193.141 38.7918 193.293 38.7421L195.308 38.0828C198.035 37.1901 199.528 34.2436 198.635 31.5148L198.006 29.5921C197.956 29.4404 198.039 29.2773 198.191 29.2277C198.342 29.1781 198.505 29.2608 198.555 29.4124L199.184 31.3352C200.176 34.3667 198.518 37.6402 195.487 38.6319Z" fill="url(#paint29_linear_2324_38061)"/>
<path d="M174.169 45.6594L172.247 46.2884C169.217 47.2801 165.945 45.6208 164.953 42.5893L164.293 40.5738C164.243 40.4221 164.326 40.259 164.478 40.2094C164.629 40.1598 164.792 40.2425 164.842 40.3941L165.502 42.4097C166.395 45.1385 169.34 46.6319 172.067 45.7393L173.989 45.1103C174.141 45.0607 174.304 45.1433 174.354 45.295C174.403 45.4467 174.321 45.6098 174.169 45.6594Z" fill="url(#paint30_linear_2324_38061)"/>
<path d="M159.258 24.2592C159.106 24.3088 158.943 24.2261 158.893 24.0744L158.264 22.1523C157.272 19.1208 158.93 15.8475 161.96 14.8558L163.975 14.1964C164.127 14.1468 164.29 14.2295 164.339 14.3812C164.389 14.5328 164.306 14.6959 164.155 14.7456L162.14 15.4049C159.412 16.2976 157.92 19.2439 158.813 21.9727L159.442 23.8948C159.492 24.0464 159.409 24.2095 159.258 24.2592Z" fill="url(#paint31_linear_2324_38061)"/>
<path d="M192.974 13.277C192.822 13.3266 192.659 13.2439 192.609 13.0922L191.95 11.0773C191.057 8.34851 188.111 6.85462 185.383 7.74731L183.462 8.37608C183.31 8.4257 183.147 8.343 183.098 8.19133C183.048 8.03966 183.131 7.87654 183.282 7.82692L185.204 7.19815C188.234 6.20644 191.507 7.86617 192.499 10.8977L193.158 12.9126C193.208 13.0643 193.125 13.2274 192.974 13.277Z" fill="url(#paint32_linear_2324_38061)"/>
<path d="M189.964 11.7257L196.653 32.1631C197.189 33.8007 196.296 35.5629 194.659 36.0986L189.74 37.7082L186.932 46.607C186.723 47.2689 185.926 47.5296 185.367 47.1192L177.835 41.6038L171.396 43.7109C169.762 44.2455 168.004 43.3539 167.469 41.7194L160.779 21.2769C160.243 19.6392 161.136 17.877 162.773 17.3413L186.03 9.73036C187.667 9.19462 189.428 10.088 189.964 11.7257Z" fill="url(#paint33_linear_2324_38061)"/>
<path d="M185.712 25.5275L181.517 33.808C181.356 34.1255 180.969 34.2523 180.651 34.0913L172.373 29.8928C169.993 28.6898 169.037 25.7827 170.248 23.3996C171.45 21.0194 174.359 20.0725 176.734 21.2769C176.817 21.3192 176.902 21.366 176.981 21.409C177.012 21.3242 177.054 21.2409 177.097 21.1582C178.264 18.8538 181.033 17.8883 183.365 18.9289C183.401 18.9469 183.439 18.9589 183.476 18.9815C183.512 18.9995 183.552 19.0161 183.588 19.0341C183.623 19.0521 183.66 19.0747 183.696 19.0928C183.736 19.1093 183.768 19.1334 183.804 19.1515C186.027 20.4203 186.879 23.2231 185.712 25.5273L185.712 25.5275Z" fill="url(#paint34_linear_2324_38061)"/>
</g>
<defs>
<linearGradient id="paint0_linear_2324_38061" x1="122.83" y1="94.1613" x2="178.371" y2="76.453" gradientUnits="userSpaceOnUse">
<stop stop-color="#E7ECFF"/>
<stop offset="1" stop-color="#C2D5FF"/>
</linearGradient>
<linearGradient id="paint1_linear_2324_38061" x1="103.925" y1="145.699" x2="119.301" y2="140.934" gradientUnits="userSpaceOnUse">
<stop stop-color="#E7ECFF"/>
<stop offset="1" stop-color="#C2D5FF"/>
</linearGradient>
<linearGradient id="paint2_linear_2324_38061" x1="114.753" y1="180.581" x2="130.129" y2="175.815" gradientUnits="userSpaceOnUse">
<stop stop-color="#E7ECFF"/>
<stop offset="1" stop-color="#C2D5FF"/>
</linearGradient>
<linearGradient id="paint3_linear_2324_38061" x1="50.7244" y1="200.491" x2="35.3474" y2="205.257" gradientUnits="userSpaceOnUse">
<stop stop-color="#E7ECFF"/>
<stop offset="1" stop-color="#C2D5FF"/>
</linearGradient>
<linearGradient id="paint4_linear_2324_38061" x1="39.8963" y1="165.609" x2="24.5193" y2="170.374" gradientUnits="userSpaceOnUse">
<stop stop-color="#E7ECFF"/>
<stop offset="1" stop-color="#C2D5FF"/>
</linearGradient>
<linearGradient id="paint5_linear_2324_38061" x1="34.4293" y1="186.456" x2="120.255" y2="159.846" gradientUnits="userSpaceOnUse">
<stop stop-color="#E7ECFF"/>
<stop offset="1" stop-color="#C2D5FF"/>
</linearGradient>
<linearGradient id="paint6_linear_2324_38061" x1="47.5848" y1="182.356" x2="67.5355" y2="176.171" gradientUnits="userSpaceOnUse">
<stop stop-color="#FFBB83"/>
<stop offset="1" stop-color="#FF9D45"/>
</linearGradient>
<linearGradient id="paint7_linear_2324_38061" x1="60.1447" y1="144.49" x2="44.4511" y2="94.1002" gradientUnits="userSpaceOnUse">
<stop stop-color="#E7ECFF"/>
<stop offset="1" stop-color="#C2D5FF"/>
</linearGradient>
<linearGradient id="paint8_linear_2324_38061" x1="19.3525" y1="128.462" x2="37.8982" y2="122.715" gradientUnits="userSpaceOnUse">
<stop stop-color="#78A7FF"/>
<stop offset="1" stop-color="#3D79F3"/>
</linearGradient>
<linearGradient id="paint9_linear_2324_38061" x1="46.2998" y1="114.256" x2="53.3362" y2="112.075" gradientUnits="userSpaceOnUse">
<stop stop-color="#78A7FF"/>
<stop offset="1" stop-color="#3D79F3"/>
</linearGradient>
<linearGradient id="paint10_linear_2324_38061" x1="55.4248" y1="111.417" x2="62.4604" y2="109.237" gradientUnits="userSpaceOnUse">
<stop stop-color="#78A7FF"/>
<stop offset="1" stop-color="#3D79F3"/>
</linearGradient>
<linearGradient id="paint11_linear_2324_38061" x1="176.332" y1="141.834" x2="189.939" y2="178.36" gradientUnits="userSpaceOnUse">
<stop stop-color="#E7ECFF"/>
<stop offset="1" stop-color="#C2D5FF"/>
</linearGradient>
<linearGradient id="paint12_linear_2324_38061" x1="171.014" y1="123.897" x2="175.965" y2="140.401" gradientUnits="userSpaceOnUse">
<stop stop-color="#B3B3FF"/>
<stop offset="1" stop-color="#8F8FEA"/>
</linearGradient>
<linearGradient id="paint13_linear_2324_38061" x1="165.254" y1="132.308" x2="204.075" y2="119.383" gradientUnits="userSpaceOnUse">
<stop stop-color="#E7ECFF"/>
<stop offset="1" stop-color="#C2D5FF"/>
</linearGradient>
<linearGradient id="paint14_linear_2324_38061" x1="159.909" y1="156.15" x2="171.284" y2="152.36" gradientUnits="userSpaceOnUse">
<stop stop-color="#E7ECFF"/>
<stop offset="1" stop-color="#C2D5FF"/>
</linearGradient>
<linearGradient id="paint15_linear_2324_38061" x1="158.713" y1="178.748" x2="165.917" y2="176.347" gradientUnits="userSpaceOnUse">
<stop stop-color="#E7ECFF"/>
<stop offset="1" stop-color="#C2D5FF"/>
</linearGradient>
<linearGradient id="paint16_linear_2324_38061" x1="159.601" y1="178.454" x2="165.027" y2="176.645" gradientUnits="userSpaceOnUse">
<stop stop-color="#FFBB83"/>
<stop offset="1" stop-color="#FF9D45"/>
</linearGradient>
<linearGradient id="paint17_linear_2324_38061" x1="160.752" y1="179.951" x2="165.001" y2="178.534" gradientUnits="userSpaceOnUse">
<stop stop-color="#E7ECFF"/>
<stop offset="1" stop-color="#C2D5FF"/>
</linearGradient>
<linearGradient id="paint18_linear_2324_38061" x1="161.258" y1="177.788" x2="163.299" y2="177.107" gradientUnits="userSpaceOnUse">
<stop stop-color="#E7ECFF"/>
<stop offset="1" stop-color="#C2D5FF"/>
</linearGradient>
<linearGradient id="paint19_linear_2324_38061" x1="168.251" y1="173.335" x2="186.68" y2="167.198" gradientUnits="userSpaceOnUse">
<stop stop-color="#E7ECFF"/>
<stop offset="1" stop-color="#C2D5FF"/>
</linearGradient>
<linearGradient id="paint20_linear_2324_38061" x1="177.616" y1="170.222" x2="185.118" y2="167.722" gradientUnits="userSpaceOnUse">
<stop stop-color="#E7ECFF"/>
<stop offset="1" stop-color="#C2D5FF"/>
</linearGradient>
<linearGradient id="paint21_linear_2324_38061" x1="168.923" y1="175.358" x2="192.228" y2="167.594" gradientUnits="userSpaceOnUse">
<stop stop-color="#E7ECFF"/>
<stop offset="1" stop-color="#C2D5FF"/>
</linearGradient>
<linearGradient id="paint22_linear_2324_38061" x1="171.161" y1="174.614" x2="185.79" y2="169.742" gradientUnits="userSpaceOnUse">
<stop stop-color="#E7ECFF"/>
<stop offset="1" stop-color="#C2D5FF"/>
</linearGradient>
<linearGradient id="paint23_linear_2324_38061" x1="166.135" y1="178.524" x2="181.983" y2="173.242" gradientUnits="userSpaceOnUse">
<stop stop-color="#E7ECFF"/>
<stop offset="1" stop-color="#C2D5FF"/>
</linearGradient>
<linearGradient id="paint24_linear_2324_38061" x1="169.595" y1="177.38" x2="185.439" y2="172.103" gradientUnits="userSpaceOnUse">
<stop stop-color="#E7ECFF"/>
<stop offset="1" stop-color="#C2D5FF"/>
</linearGradient>
<linearGradient id="paint25_linear_2324_38061" x1="185.517" y1="139.495" x2="190.4" y2="137.867" gradientUnits="userSpaceOnUse">
<stop stop-color="#E7ECFF"/>
<stop offset="1" stop-color="#C2D5FF"/>
</linearGradient>
<linearGradient id="paint26_linear_2324_38061" x1="189.158" y1="150.423" x2="194.04" y2="148.795" gradientUnits="userSpaceOnUse">
<stop stop-color="#E7ECFF"/>
<stop offset="1" stop-color="#C2D5FF"/>
</linearGradient>
<linearGradient id="paint27_linear_2324_38061" x1="192.794" y1="161.353" x2="197.677" y2="159.725" gradientUnits="userSpaceOnUse">
<stop stop-color="#E7ECFF"/>
<stop offset="1" stop-color="#C2D5FF"/>
</linearGradient>
<linearGradient id="paint28_linear_2324_38061" x1="82.2301" y1="53.1996" x2="107.088" y2="46.4868" gradientUnits="userSpaceOnUse">
<stop stop-color="#E7ECFF"/>
<stop offset="1" stop-color="#C2D5FF"/>
</linearGradient>
<linearGradient id="paint29_linear_2324_38061" x1="191.939" y1="35.5331" x2="199.724" y2="32.9853" gradientUnits="userSpaceOnUse">
<stop stop-color="#E7ECFF"/>
<stop offset="1" stop-color="#C2D5FF"/>
</linearGradient>
<linearGradient id="paint30_linear_2324_38061" x1="168.049" y1="39.0406" x2="170.598" y2="46.8282" gradientUnits="userSpaceOnUse">
<stop stop-color="#E7ECFF"/>
<stop offset="1" stop-color="#C2D5FF"/>
</linearGradient>
<linearGradient id="paint31_linear_2324_38061" x1="165.509" y1="17.954" x2="157.724" y2="20.5016" gradientUnits="userSpaceOnUse">
<stop stop-color="#E7ECFF"/>
<stop offset="1" stop-color="#C2D5FF"/>
</linearGradient>
<linearGradient id="paint32_linear_2324_38061" x1="189.402" y1="14.4458" x2="186.854" y2="6.65813" gradientUnits="userSpaceOnUse">
<stop stop-color="#E7ECFF"/>
<stop offset="1" stop-color="#C2D5FF"/>
</linearGradient>
<linearGradient id="paint33_linear_2324_38061" x1="165.368" y1="35.301" x2="194.554" y2="25.7496" gradientUnits="userSpaceOnUse">
<stop stop-color="#E7ECFF"/>
<stop offset="1" stop-color="#C2D5FF"/>
</linearGradient>
<linearGradient id="paint34_linear_2324_38061" x1="170.793" y1="29.6244" x2="186.825" y2="24.378" gradientUnits="userSpaceOnUse">
<stop stop-color="#FF8888"/>
<stop offset="1" stop-color="#F24E4E"/>
</linearGradient>
</defs>
</svg>
