<svg width="80" height="71" viewBox="0 0 80 71" fill="none" xmlns="http://www.w3.org/2000/svg">
<g clip-path="url(#clip0_8062_70780)">
<path d="M79.2577 38.1846L62.037 68.0504C61.0367 69.7653 59.2058 70.8199 57.2262 70.8199H22.7738C20.7942 70.8199 18.9529 69.7655 17.963 68.0504L8.63982 51.8819L0.742326 38.1846C-0.247442 36.4697 -0.247442 34.3502 0.742326 32.6352L17.963 2.7695C18.9531 1.05436 20.7942 0 22.7738 0H57.2261C58.4607 0 59.6314 0.40458 60.5892 1.13945H60.5998C61.1745 1.57624 61.6642 2.11953 62.0368 2.76931L79.2575 32.635C80.2473 34.35 80.2473 36.4695 79.2575 38.1845L79.2577 38.1846Z" fill="#EEF3FB"/>
<path d="M79.2585 38.1856L62.0378 68.0513C61.0375 69.7663 59.2066 70.8208 57.227 70.8208H22.7746C20.795 70.8208 18.9537 69.7665 17.9638 68.0513L8.64062 51.8829C13.0894 52.7244 17.6555 52.8946 22.1575 52.3409C35.2914 50.7112 47.531 42.8721 54.5022 31.6137C60.0685 22.6241 62.2079 11.5895 60.6008 1.14062C61.1755 1.57741 61.6652 2.1207 62.0378 2.77049L79.2585 32.6362C80.2483 34.3512 80.2483 36.4707 79.2585 38.1856Z" fill="#E4ECF9"/>
<path d="M25.3977 31.5662C24.0327 29.9253 23.3516 27.8362 23.3516 25.3013C23.3516 22.7664 24.0327 20.6779 25.3977 19.0363C26.7612 17.3955 28.6939 16.5742 31.1955 16.5742C33.6971 16.5742 35.6282 17.3953 36.9919 19.0363C38.357 20.6779 39.0381 22.7664 39.0381 25.3013C39.0381 27.8362 38.357 29.9253 36.9919 31.5662C35.6284 33.2078 33.6957 34.0283 31.1955 34.0283C28.6952 34.0283 26.7612 33.2078 25.3977 31.5662ZM34.4595 29.299C35.2386 28.259 35.6282 26.9267 35.6282 25.3013C35.6282 23.6759 35.2386 22.3441 34.4595 21.3035C33.6788 20.2635 32.5914 19.7433 31.1955 19.7433C29.7996 19.7433 28.7106 20.2637 27.93 21.3035C27.1508 22.3441 26.7612 23.6766 26.7612 25.3013C26.7612 26.9259 27.1508 28.2592 27.93 29.299C28.7106 30.3396 29.7981 30.8592 31.1955 30.8592C32.5929 30.8592 33.6788 30.3396 34.4595 29.299ZM30.0744 51.4578C29.7491 51.1493 29.5867 50.7678 29.5867 50.312C29.5867 50.0195 29.668 49.744 29.8306 49.4831L49.6584 17.7438C49.9836 17.2249 50.439 16.9641 51.0234 16.9641C51.5097 16.9641 51.9077 17.0946 52.2159 17.354C52.5242 17.6148 52.6798 17.9717 52.6798 18.4269C52.6798 18.7846 52.5648 19.1423 52.3378 19.4992L32.6557 51.0435C32.4931 51.3036 32.2829 51.514 32.0223 51.6775C31.7629 51.8395 31.4868 51.9208 31.1955 51.9208C30.7722 51.9208 30.3981 51.7665 30.0744 51.458V51.4578ZM45.1765 49.8484C43.813 48.2081 43.1304 46.1191 43.1304 43.5842C43.1304 41.0493 43.8128 38.9609 45.1765 37.3193C46.5415 35.6785 48.4727 34.8572 50.9743 34.8572C53.4758 34.8572 55.407 35.6783 56.772 37.3193C58.1356 38.9609 58.8182 41.0486 58.8182 43.5842C58.8182 46.1199 58.1357 48.2083 56.772 49.8484C55.407 51.4893 53.4744 52.3105 50.9743 52.3105C48.4742 52.3105 46.5415 51.4895 45.1765 49.8484ZM54.2383 47.582C55.0174 46.542 55.407 45.2096 55.407 43.5842C55.407 41.9588 55.0174 40.6263 54.2383 39.5865C53.4591 38.5464 52.3702 38.0262 50.9743 38.0262C49.5784 38.0262 48.4894 38.5466 47.7103 39.5865C46.9311 40.6265 46.5415 41.9588 46.5415 43.5842C46.5415 45.2096 46.9311 46.5422 47.7103 47.582C48.4894 48.622 49.5771 49.1417 50.9743 49.1417C52.3715 49.1417 53.4591 48.622 54.2383 47.582Z" fill="white"/>
</g>
<defs>
<clipPath id="clip0_8062_70780">
<rect width="80" height="70.8197" fill="white"/>
</clipPath>
</defs>
</svg>
