<svg width="98" height="96" viewBox="0 0 98 96" fill="none" xmlns="http://www.w3.org/2000/svg">
<g clip-path="url(#clip0_8035_77544)">
<path d="M9.66396 90.1631H12.4989C13.2355 90.1631 13.833 90.7607 13.833 91.4972V94.5962C13.833 95.3327 13.2355 95.9303 12.4989 95.9303H9.67786C8.94132 95.9303 8.34375 95.3327 8.34375 94.5962V91.4972C8.34375 90.7607 8.94132 90.1631 9.67786 90.1631H9.66396Z" fill="#4C5155"/>
<path d="M87.5704 90.2188H84.7355C83.9989 90.2188 83.4014 90.8163 83.4014 91.5529V94.6519C83.4014 95.3884 83.9989 95.986 84.7355 95.986H87.5704C88.307 95.986 88.9046 95.3884 88.9046 94.6519V91.5529C88.9046 90.8163 88.307 90.2188 87.5704 90.2188Z" fill="#4C5155"/>
<path d="M22.3535 31.4482H16.0859V38.4384H22.3535V31.4482Z" fill="#3A4245"/>
<path d="M25.4803 26.1953H12.9453V33.1855H25.4803V26.1953Z" fill="#4C5155"/>
<path d="M3.48145 51.9883V73.0699C3.48145 76.7109 6.42759 79.6571 10.0686 79.6571H29.5938C33.2348 79.6571 36.1809 76.7109 36.1809 73.0699V51.9883H3.48145Z" fill="#EBECF0"/>
<path d="M3.48145 51.9883V73.0699C3.48145 76.7109 6.42759 79.6571 10.0686 79.6571H29.5938C33.2348 79.6571 36.1809 76.7109 36.1809 73.0699V51.9883H3.48145Z" fill="#EBECF0"/>
<path d="M29.705 76.1555H10.1798C6.53877 76.1555 3.59262 73.2094 3.59262 69.5684L3.48145 73.0704C3.48145 76.7114 6.42759 79.6575 10.0686 79.6575H29.5938C33.2348 79.6575 36.1809 76.7114 36.1809 73.0704V70.7635C35.6111 73.8208 32.9429 76.1555 29.705 76.1555Z" fill="#E2E2E2"/>
<path d="M36.292 73.7237C31.0112 73.7237 26.7031 69.4156 26.7031 64.1348C26.7031 58.8539 31.0112 54.5459 36.292 54.5459C41.5728 54.5459 45.8948 58.8539 45.8948 64.1348C45.8948 69.4156 41.5867 73.7237 36.292 73.7237ZM36.292 56.1857C31.9145 56.1857 28.3569 59.7572 28.3569 64.1348C28.3569 68.5123 31.9145 72.0838 36.292 72.0838C40.6695 72.0838 44.2411 68.5123 44.2411 64.1348C44.2411 59.7572 40.6834 56.1857 36.292 56.1857Z" fill="#EBECF0"/>
<path d="M93.6997 18.1631H55.6221V82.3808H93.6997V18.1631Z" fill="#DBEAFD"/>
<path d="M55.6221 82.3808H93.6997V18.1631L55.6221 82.3808Z" fill="#DBEAFD"/>
<path d="M90.6013 0H8.13695C4.49595 0 1.5498 2.94615 1.5498 6.58714V29.6977H55.6228V36.3405H90.6013C94.2423 36.3405 97.1885 33.3943 97.1885 29.7533V6.58714C97.1885 2.94615 94.2423 0 90.6013 0Z" fill="#EFF6FF"/>
<path d="M87.3904 1.91797H11.3464C7.99724 1.91797 5.27344 3.36325 5.27344 5.15595V6.64293C5.27344 4.85022 7.99724 3.40494 11.3464 3.40494H87.3904C90.7535 3.40494 93.4634 4.85022 93.4634 6.64293V5.15595C93.4634 3.36325 90.7396 1.91797 87.3904 1.91797Z" fill="white"/>
<path d="M81.9429 51.6131C81.9429 55.4347 78.8439 58.5337 75.0222 58.5337C71.2006 58.5337 68.1016 55.4347 68.1016 51.6131C68.1016 47.7914 71.2006 44.6924 75.0222 44.6924C78.8439 44.6924 81.9429 47.7914 81.9429 51.6131Z" fill="#6B6B6B"/>
<path d="M81.9429 50.3074C81.9429 54.129 78.8439 57.2281 75.0222 57.2281C71.2006 57.2281 68.1016 54.129 68.1016 50.3074C68.1016 46.4857 71.2006 43.3867 75.0222 43.3867C78.8439 43.3867 81.9429 46.4857 81.9429 50.3074Z" fill="white"/>
<path d="M78.9825 50.3071C78.9825 52.4889 77.2176 54.2677 75.0219 54.2677C72.8262 54.2677 71.0752 52.4889 71.0752 50.3071C71.0752 48.1253 72.8401 46.3604 75.0219 46.3604C77.2037 46.3604 78.9825 48.1253 78.9825 50.3071Z" fill="#FF3912"/>
<path d="M90.4064 21.9443H59.7637V8.43652H90.4064V21.9443ZM61.0839 20.6241H89.0862V9.74284H61.0839V20.6102V20.6241Z" fill="#C0DBFC"/>
<path d="M89.7532 8.35254H60.4307V20.5401H89.7532V8.35254Z" fill="white"/>
<path d="M90.4064 21.1931H59.7637V7.69922H90.4064V21.1931ZM61.0839 19.8729H89.0862V9.00553H61.0839V19.8729Z" fill="#EBECF0"/>
<path d="M7.39965 93.1096H90.6006C94.2416 93.1096 97.1877 90.1635 97.1877 86.5225V80.4912H0.8125V86.5225C0.8125 90.1635 3.75865 93.1096 7.39965 93.1096Z" fill="#EFF6FF"/>
<path d="M30.0112 79.6709H9.17969V80.4908H30.0112V79.6709Z" fill="#E0E0E2"/>
<path d="M63.725 26.8906H65.5594C67.3799 26.8906 68.853 28.3637 68.853 30.1842V31.8379C68.853 33.6584 67.3799 35.1315 65.5594 35.1315H63.7389C61.9184 35.1315 60.4453 33.6584 60.4453 31.8379V30.1842C60.4453 28.3637 61.9184 26.8906 63.7389 26.8906H63.725Z" fill="#C0DBFC"/>
<path d="M74.4811 26.8906H76.3016C78.1221 26.8906 79.5951 28.3637 79.5951 30.1842V31.824C79.5951 33.6445 78.1221 35.1176 76.3016 35.1176H74.4811C72.6606 35.1176 71.1875 33.6445 71.1875 31.824V30.1842C71.1875 28.3637 72.6606 26.8906 74.4811 26.8906Z" fill="#C0DBFC"/>
<path d="M85.2372 26.8906H87.0577C88.8782 26.8906 90.3512 28.3637 90.3512 30.1842V31.8379C90.3512 33.6584 88.8782 35.1315 87.0577 35.1315H85.2233C83.4028 35.1315 81.9297 33.6584 81.9297 31.8379V30.1842C81.9297 28.3637 83.4028 26.8906 85.2233 26.8906H85.2372Z" fill="#C0DBFC"/>
<path d="M63.725 25.585H65.5594C67.3799 25.585 68.853 27.058 68.853 28.8785V30.5323C68.853 32.3528 67.3799 33.8258 65.5594 33.8258H63.7389C61.9184 33.8258 60.4453 32.3528 60.4453 30.5323V28.8785C60.4453 27.058 61.9184 25.585 63.7389 25.585H63.725Z" fill="#EBECF0"/>
<path d="M74.4811 25.585H76.3016C78.1221 25.585 79.5951 27.058 79.5951 28.8785V30.5323C79.5951 32.3528 78.1221 33.8258 76.3016 33.8258H74.4811C72.6606 33.8258 71.1875 32.3528 71.1875 30.5323V28.8924C71.1875 27.0719 72.6606 25.5989 74.4811 25.5989V25.585Z" fill="#EBECF0"/>
<path d="M87.0703 25.585H85.236C83.417 25.585 81.9424 27.0595 81.9424 28.8785V30.5323C81.9424 32.3513 83.417 33.8258 85.236 33.8258H87.0703C88.8893 33.8258 90.3639 32.3513 90.3639 30.5323V28.8785C90.3639 27.0595 88.8893 25.585 87.0703 25.585Z" fill="#EBECF0"/>
<path d="M84.4313 50.5559C84.2784 50.5559 84.1533 50.4308 84.1533 50.2779C84.1533 50.1251 84.2784 50 84.4313 50H86.5158C86.6687 50 86.7937 50.1251 86.7937 50.2779C86.7937 50.4308 86.6687 50.5559 86.5158 50.5559H84.4313Z" fill="#3A4245"/>
<path d="M63.5436 50.5559C63.3907 50.5559 63.2656 50.4308 63.2656 50.2779C63.2656 50.1251 63.3907 50 63.5436 50H65.6142C65.7671 50 65.8921 50.1251 65.8921 50.2779C65.8921 50.4308 65.7671 50.5559 65.6142 50.5559H63.5436Z" fill="#3A4245"/>
<path d="M74.7441 38.7858C74.7441 38.6329 74.8692 38.5078 75.0221 38.5078C75.1749 38.5078 75.3 38.6329 75.3 38.7858V40.8703C75.3 41.0232 75.1749 41.1482 75.0221 41.1482C74.8692 41.1482 74.7441 41.0232 74.7441 40.8703V38.7858Z" fill="#3A4245"/>
<path d="M66.7113 42.3436C66.6001 42.2463 66.6001 42.0657 66.7113 41.9545C66.8225 41.8433 66.9893 41.8433 67.1004 41.9545L68.5735 43.4275C68.6847 43.5387 68.6847 43.7194 68.5735 43.8167C68.4623 43.9278 68.2956 43.9278 68.1844 43.8167L66.7113 42.3436Z" fill="#3A4245"/>
<path d="M82.9441 41.9545C83.0553 41.8433 83.2221 41.8433 83.3333 41.9545C83.4444 42.0657 83.4444 42.2463 83.3333 42.3436L81.8602 43.8167C81.749 43.9278 81.5684 43.9278 81.4711 43.8167C81.3599 43.7055 81.3599 43.5387 81.4711 43.4275L82.9441 41.9545Z" fill="#3A4245"/>
</g>
<defs>
<clipPath id="clip0_8035_77544">
<rect width="96.3752" height="96" fill="white" transform="translate(0.8125)"/>
</clipPath>
</defs>
</svg>
