<svg width="12" height="12" viewBox="0 0 12 12" fill="none" xmlns="http://www.w3.org/2000/svg">
<path d="M10.4518 11.3012H9.48662C10.2614 10.498 9.96822 9.11841 9.14822 8.45441L6.44782 6.00121L9.14822 3.54641C9.96822 2.88241 10.2614 1.50241 9.48662 0.699609H10.4518C10.8422 0.698409 10.8454 0.101209 10.4518 0.0996094H1.55182C1.16262 0.100809 1.15702 0.698009 1.55182 0.699609H2.52182C2.25862 0.961609 1.74542 1.86841 2.33582 2.00481C2.37503 2.00862 2.41461 2.00467 2.45229 1.99318C2.48998 1.98169 2.52503 1.96289 2.55545 1.93786C2.58587 1.91282 2.61107 1.88204 2.62959 1.84727C2.64811 1.8125 2.65961 1.77442 2.66342 1.73521C2.72742 1.07801 3.28182 0.701209 4.18702 0.701209H7.81622C8.56942 0.701209 9.08662 0.96641 9.27262 1.44721C9.35536 1.74449 9.34947 2.05946 9.25567 2.35344C9.16187 2.64741 8.98425 2.90759 8.74462 3.10201L6.00182 5.59561L3.25902 3.10201C3.20009 3.04849 3.12231 3.02057 3.04279 3.0244C2.96328 3.02822 2.88854 3.06348 2.83502 3.12241C2.7815 3.18134 2.75358 3.25912 2.7574 3.33863C2.76123 3.41815 2.79649 3.49289 2.85542 3.54641L5.55582 6.00121L2.85542 8.45601C2.03542 9.11961 1.74142 10.5004 2.51702 11.3028H1.55182C1.16222 11.304 1.15782 11.8996 1.55182 11.9012H10.4518C10.8406 11.9 10.8466 11.3028 10.4518 11.3012ZM9.27262 10.5552C9.08662 11.0352 8.56942 11.3012 7.81622 11.3012H4.18702C2.54542 11.3844 2.22742 9.78761 3.25902 8.90001C3.25662 8.89761 6.00182 6.40801 6.00182 6.40641L8.74462 8.90001C8.98432 9.09446 9.16199 9.35471 9.25579 9.64876C9.3496 9.94282 9.35544 10.2579 9.27262 10.5552Z" fill="#828ABA"/>
<path d="M8.07041 9.66339C7.80801 9.64539 7.12961 9.71379 7.09681 9.60659C6.82441 9.30899 6.48161 8.65219 6.00001 8.69459C5.52001 8.65099 5.17401 9.31019 4.90321 9.60659C4.88881 9.62452 4.87053 9.63895 4.84974 9.64879C4.82896 9.65863 4.80621 9.66362 4.78321 9.66339H3.93281C3.85325 9.66339 3.77694 9.695 3.72068 9.75126C3.66442 9.80752 3.63281 9.88383 3.63281 9.96339C3.63281 10.043 3.66442 10.1193 3.72068 10.1755C3.77694 10.2318 3.85325 10.2634 3.93281 10.2634H4.78481C5.26401 10.3074 5.61121 9.64739 5.88161 9.35139C5.896 9.33338 5.91426 9.31885 5.93503 9.30885C5.95581 9.29886 5.97856 9.29367 6.00161 9.29367C6.02466 9.29367 6.04742 9.29886 6.06819 9.30885C6.08897 9.31885 6.10722 9.33338 6.12161 9.35139L6.63281 9.98339C6.77561 10.161 6.99121 10.2638 7.21881 10.2634H8.07041C8.46121 10.2618 8.46361 9.66539 8.07041 9.66339ZM7.42841 3.40659C7.69601 3.12019 7.26321 2.71019 6.99201 2.99459C6.45761 3.48779 5.54401 3.48779 5.00961 2.99459C4.98281 2.965 4.95036 2.94106 4.91418 2.92416C4.878 2.90727 4.83882 2.89777 4.79892 2.89622C4.75902 2.89467 4.71921 2.9011 4.68183 2.91514C4.64445 2.92917 4.61024 2.95052 4.58122 2.97795C4.5522 3.00537 4.52895 3.03831 4.51282 3.07484C4.4967 3.11137 4.48802 3.15075 4.48732 3.19067C4.48661 3.23059 4.49387 3.27026 4.50869 3.30733C4.52351 3.34441 4.54558 3.37816 4.57361 3.40659C5.33041 4.14979 6.67081 4.14939 7.42841 3.40659Z" fill="#828ABA"/>
</svg>
