<svg width="16" height="16" viewBox="0 0 16 16" fill="none" xmlns="http://www.w3.org/2000/svg">
<g clip-path="url(#clip0_7695_65226)">
<path d="M5.87301 9.94652L9.94634 2.58853C10.0023 2.48719 10.0583 2.38719 10.109 2.28253C10.155 2.18786 10.1937 2.09253 10.219 1.98919C10.2723 1.77186 10.2577 1.54519 10.175 1.33786C10.0943 1.13387 9.94913 0.961825 9.76167 0.847859C9.57743 0.736181 9.36057 0.690786 9.14701 0.719192C8.93367 0.747859 8.73834 0.848526 8.58434 1.00586C8.51101 1.07919 8.45101 1.16253 8.39567 1.25119C8.33434 1.34853 8.27901 1.44986 8.22301 1.55119L7.96567 2.01586L7.70767 1.55053C7.65167 1.44986 7.59634 1.34853 7.53501 1.25119C7.48112 1.16267 7.41787 1.08019 7.34634 1.00519C7.1961 0.849546 6.99796 0.748834 6.78367 0.719192C6.57033 0.690941 6.35373 0.736331 6.16967 0.847859C5.98224 0.961863 5.83713 1.1339 5.75634 1.33786C5.67334 1.54489 5.65794 1.77288 5.71234 1.98919C5.73767 2.09253 5.77634 2.18786 5.82167 2.28253C5.87234 2.38719 5.92834 2.48719 5.98434 2.58853L6.81634 4.09119L3.57501 9.94586H1.35367C1.24167 9.94586 1.12967 9.94586 1.01834 9.95253C0.917006 9.95852 0.818339 9.97119 0.719673 9.99986C0.513006 10.0599 0.331673 10.1865 0.201006 10.3652C0.0704725 10.545 0.000119884 10.7615 1.53078e-07 10.9838C-0.000119578 11.206 0.0699997 11.4225 0.20034 11.6025C0.331673 11.7812 0.512339 11.9072 0.719673 11.9679C0.818339 11.9965 0.917006 12.0092 1.01834 12.0152C1.12967 12.0219 1.24167 12.0219 1.35367 12.0219H10.085C10.1117 11.9636 10.134 11.9034 10.1517 11.8419C10.4283 10.8979 9.74101 9.94586 8.79501 9.94586L5.87301 9.94652ZM2.07567 12.3612L1.54767 13.3612C1.49301 13.4652 1.43767 13.5679 1.38834 13.6752C1.34265 13.7718 1.30691 13.8727 1.28167 13.9765C1.22818 14.1986 1.24305 14.4317 1.32434 14.6452C1.40501 14.8572 1.54701 15.0339 1.72901 15.1485C1.91034 15.2632 2.12167 15.3099 2.32967 15.2799C2.53901 15.2505 2.72967 15.1479 2.88034 14.9865C2.95234 14.9099 3.01101 14.8252 3.06567 14.7345C3.12567 14.6345 3.17967 14.5305 3.23434 14.4265L4.00034 12.9759C3.94034 12.8759 3.36901 11.9959 2.07567 12.3612ZM15.7997 10.3572C15.6711 10.1831 15.4885 10.0566 15.2803 9.99719C15.1829 9.97031 15.0827 9.95443 14.9817 9.94986C14.8697 9.94319 14.7583 9.94319 14.6463 9.94319H12.4323L9.50567 4.73319C9.12168 5.13633 8.87121 5.64798 8.78834 6.19853C8.68116 6.88716 8.80941 7.59181 9.15234 8.19853L12.6683 14.4605C12.7243 14.5605 12.7797 14.6605 12.841 14.7565C12.897 14.8432 12.957 14.9252 13.0297 14.9992C13.1837 15.1539 13.379 15.2525 13.593 15.2812C13.8063 15.3092 14.0217 15.2652 14.2077 15.1545C14.3947 15.0426 14.5401 14.8727 14.6217 14.6705C14.705 14.4659 14.719 14.2425 14.6657 14.0279C14.6394 13.9278 14.6026 13.8308 14.5557 13.7385C14.5057 13.6352 14.449 13.5365 14.393 13.4365L13.5823 11.9925H14.6463C14.7583 11.9925 14.8697 11.9925 14.9817 11.9865C15.083 11.9805 15.1817 11.9679 15.2803 11.9399C15.4888 11.8804 15.6717 11.7536 15.8003 11.5792C15.9307 11.4023 16.0008 11.1882 16.0003 10.9685C16.0008 10.7488 15.9307 10.5347 15.8003 10.3579L15.7997 10.3572Z" fill="#BDC1DF"/>
</g>
<defs>
<clipPath id="clip0_7695_65226">
<rect width="16" height="16" fill="white"/>
</clipPath>
</defs>
</svg>
