<svg width="16" height="16" viewBox="0 0 16 16" fill="none" xmlns="http://www.w3.org/2000/svg">
<g clip-path="url(#clip0_797_6244)">
<path d="M15.8661 5.28376V4.07523C15.8646 3.40407 15.5971 2.76088 15.1223 2.28655C14.6474 1.81221 14.004 1.5454 13.3328 1.54456H12.2613V0.665625C12.2613 0.559538 12.2192 0.457797 12.1442 0.382782C12.0692 0.307768 11.9674 0.265625 11.8613 0.265625C11.7553 0.265625 11.6535 0.307768 11.5785 0.382782C11.5035 0.457797 11.4613 0.559538 11.4613 0.665625V1.54456H4.53761V0.665625C4.53761 0.559538 4.49547 0.457797 4.42046 0.382782C4.34544 0.307768 4.2437 0.265625 4.13761 0.265625C4.03153 0.265625 3.92978 0.307768 3.85477 0.382782C3.77976 0.457797 3.73761 0.559538 3.73761 0.665625V1.54456H2.66615C1.99499 1.5454 1.35152 1.81221 0.876684 2.28655C0.401851 2.76088 0.134364 3.40407 0.132812 4.07523V13.1952C0.132953 13.8673 0.399818 14.5119 0.874803 14.9874C1.34979 15.4628 1.99406 15.7304 2.66615 15.7312H13.3328C14.0044 15.7304 14.6483 15.4632 15.1232 14.9883C15.5981 14.5134 15.8653 13.8695 15.8661 13.1979V7.60643C15.8597 7.08323 15.0709 7.08269 15.0661 7.60643V13.1968C15.0659 13.6565 14.8832 14.0974 14.5582 14.4225C14.2332 14.7477 13.7925 14.9307 13.3328 14.9312H2.66615C2.20661 14.9307 1.76606 14.7479 1.44112 14.4229C1.11618 14.098 0.933377 13.6574 0.932813 13.1979V4.07523C0.933377 3.61569 1.11618 3.17514 1.44112 2.8502C1.76606 2.52526 2.20661 2.34246 2.66615 2.34189H3.73761V3.21816C3.73761 3.32425 3.77976 3.42599 3.85477 3.501C3.92978 3.57602 4.03153 3.61816 4.13761 3.61816C4.2437 3.61816 4.34544 3.57602 4.42046 3.501C4.49547 3.42599 4.53761 3.32425 4.53761 3.21816V2.34189H11.4613V3.21816C11.4613 3.32425 11.5035 3.42599 11.5785 3.501C11.6535 3.57602 11.7553 3.61816 11.8613 3.61816C11.9674 3.61816 12.0692 3.57602 12.1442 3.501C12.2192 3.42599 12.2613 3.32425 12.2613 3.21816V2.34189H13.3328C13.7923 2.34246 14.2329 2.52526 14.5578 2.8502C14.8828 3.17514 15.0656 3.61569 15.0661 4.07523V5.14616H2.75628C2.65019 5.14616 2.54845 5.1883 2.47344 5.26332C2.39842 5.33833 2.35628 5.44007 2.35628 5.54616C2.35628 5.65225 2.39842 5.75399 2.47344 5.829C2.54845 5.90402 2.65019 5.94616 2.75628 5.94616H15.2037C15.3793 5.94588 15.5477 5.876 15.6718 5.75183C15.796 5.62767 15.8659 5.45935 15.8661 5.28376Z" fill="currentColor"/>
<path d="M3.68408 8.60511H2.98595C2.46328 8.60725 2.46275 9.40298 2.98595 9.40511H3.68408C4.20675 9.40298 4.20728 8.60725 3.68408 8.60511ZM2.98595 11.4718C2.46328 11.4739 2.46275 12.2696 2.98595 12.2718H3.68408C4.20675 12.2696 4.20728 11.4739 3.68408 11.4718H2.98595ZM6.79288 8.60511C6.43715 8.63711 5.71235 8.44351 5.69635 9.00511C5.71235 9.56671 6.43768 9.37311 6.79288 9.40511C7.31555 9.40298 7.31608 8.60725 6.79288 8.60511ZM5.69635 11.8718C5.71235 12.4334 6.43768 12.2398 6.79288 12.2718C7.31555 12.2696 7.31608 11.4739 6.79288 11.4718C6.43715 11.5038 5.71235 11.3102 5.69635 11.8718ZM9.90222 8.60511C9.54648 8.63711 8.82168 8.44351 8.80568 9.00511C8.82168 9.56671 9.54702 9.37311 9.90222 9.40511C10.4249 9.40298 10.4254 8.60725 9.90222 8.60511ZM8.80568 11.8718C8.82168 12.4334 9.54702 12.2398 9.90222 12.2718C10.4249 12.2696 10.4254 11.4739 9.90222 11.4718C9.54648 11.5038 8.82168 11.3102 8.80568 11.8718ZM13.0126 8.60511H12.3193C11.7966 8.60725 11.7961 9.40298 12.3193 9.40511H13.0126C13.5353 9.40298 13.5358 8.60725 13.0126 8.60511ZM12.3193 11.4718C11.7966 11.4739 11.7961 12.2696 12.3193 12.2718H13.0126C13.5353 12.2696 13.5358 11.4739 13.0126 11.4718H12.3193Z" fill="currentColor"/>
</g>
<defs>
<clipPath id="clip0_797_6244">
<rect width="16" height="16" fill="white"/>
</clipPath>
</defs>
</svg>
