<svg width="47" height="47" viewBox="0 0 47 47" fill="none" xmlns="http://www.w3.org/2000/svg">
<path d="M5.43801 18.2989L3.34182 7.57608C3.22589 6.95232 3.63725 6.35247 4.26102 6.23606L17.7318 3.83008L19.9068 15.2727L5.43801 18.2989Z" fill="#FAE9E6"/>
<path d="M13.5703 17.0694L16.0706 0.971507C16.1713 0.342351 16.763 -0.0860398 17.3922 0.0146745L29.9499 2.02499C30.579 2.1257 31.0074 2.71741 30.9067 3.34657L29.2685 14.1378L13.5703 17.0694Z" fill="#7561F6"/>
<path d="M29.949 2.02518L27.1625 1.5791C27.3936 1.83008 27.5123 2.17998 27.4542 2.54293L25.5273 14.8365L29.2677 14.138L30.9059 3.34685C31.0066 2.7176 30.5782 2.12598 29.949 2.02518Z" fill="#5E48F0"/>
<path d="M10.041 17.1425V10.2953C10.041 9.65813 10.5575 9.1416 11.1947 9.1416H20.4634C21.1006 9.1416 21.6171 9.65813 21.6171 10.2953V14.9256L10.041 17.1425Z" fill="#FFC600"/>
<path d="M20.4634 9.1416H16.6807C17.3179 9.1416 17.8344 9.65813 17.8344 10.2953V14.9256L10.041 16.4181V17.1425L21.6171 14.9256V10.2953C21.6171 9.65813 21.1006 9.1416 20.4634 9.1416Z" fill="#FFB300"/>
<path d="M33.4143 33.7061L27.0824 39.0042C26.4832 39.5055 25.7277 39.7801 24.9475 39.7801H3.82407C2.92994 39.7801 2.20508 40.5072 2.20508 41.4041C2.20508 42.3011 2.92994 43.0281 3.82407 43.0281L31.9156 43.0687L33.4143 33.7061Z" fill="#FFC600"/>
<path d="M36.8817 11.2563L1.65773 17.8544C0.557909 18.0216 -0.179622 19.0765 0.0381663 20.1707L2.1943 31.0037C2.50704 32.575 3.88205 33.7061 5.47929 33.7061H33.4152L36.8817 11.2563Z" fill="#E9E8FF"/>
<path d="M32.9867 11.986L29.6328 33.7061H33.4155L36.8821 11.2563L32.9867 11.986Z" fill="#DFDEFF"/>
<path d="M32.3997 40.7759C32.3636 40.7759 32.327 40.7732 32.2901 40.7675C31.9031 40.7074 31.6379 40.345 31.6979 39.9579L36.5911 8.43036C36.8942 6.47603 38.5459 5.05762 40.5187 5.05762C40.9104 5.05762 41.228 5.37517 41.228 5.76687C41.228 6.15857 40.9104 6.47613 40.5187 6.47613C39.2503 6.47613 38.188 7.38946 37.9929 8.64777L33.0997 40.1752C33.0453 40.5255 32.7434 40.7759 32.3997 40.7759Z" fill="#FAE9E6"/>
<path d="M10.6105 46.9997C12.7749 46.9997 14.5295 45.2396 14.5295 43.0685C14.5295 40.8973 12.7749 39.1372 10.6105 39.1372C8.44603 39.1372 6.69141 40.8973 6.69141 43.0685C6.69141 45.2396 8.44603 46.9997 10.6105 46.9997Z" fill="#7561F6"/>
<path d="M32.5499 46.9997C34.7144 46.9997 36.469 45.2396 36.469 43.0685C36.469 40.8973 34.7144 39.1372 32.5499 39.1372C30.3855 39.1372 28.6309 40.8973 28.6309 43.0685C28.6309 45.2396 30.3855 46.9997 32.5499 46.9997Z" fill="#7561F6"/>
<path d="M10.6109 43.7779C11.5237 43.7779 11.5252 42.3594 10.6109 42.3594C9.69816 42.3594 9.69664 43.7779 10.6109 43.7779Z" fill="#FAE9E6"/>
<path d="M32.5504 43.7779C33.4631 43.7779 33.4646 42.3594 32.5504 42.3594C31.6376 42.3594 31.6361 43.7779 32.5504 43.7779Z" fill="#FAE9E6"/>
<path d="M40.5176 5.05762H45.381C46.2751 5.05762 47 5.78475 47 6.68162C47 7.5786 46.2751 8.30563 45.381 8.30563H42.0904C41.2217 8.30563 40.5176 7.59921 40.5176 6.72787V5.05762Z" fill="#FFC600"/>
<path d="M30.0243 29.8829H6.00418C5.61248 29.8829 5.29492 29.5653 5.29492 29.1736C5.29492 28.7819 5.61248 28.4644 6.00418 28.4644H30.0243C30.416 28.4644 30.7336 28.7819 30.7336 29.1736C30.7336 29.5653 30.416 29.8829 30.0243 29.8829Z" fill="white"/>
<path d="M30.7812 26.1006H5.05886C4.66717 26.1006 4.34961 25.7831 4.34961 25.3914C4.34961 24.9997 4.66717 24.6821 5.05886 24.6821H30.7812C31.1729 24.6821 31.4905 24.9997 31.4905 25.3914C31.4905 25.7831 31.1729 26.1006 30.7812 26.1006Z" fill="white"/>
</svg>
