<svg width="63" height="19" viewBox="0 0 63 19" fill="none" xmlns="http://www.w3.org/2000/svg">
<path d="M5.952 11.44V7.336C5.952 5.752 7.176 4.48 8.688 4.48H14.328V1.576C14.328 0.904 13.8 0.375999 13.128 0.375999H8.688C4.392 0.375999 0.888 3.496 0.888 7.336V11.44C0.888 15.616 4.392 19 8.688 19H14.448V16.096C14.448 15.424 13.92 14.896 13.248 14.896H8.688C7.176 14.896 5.952 13.336 5.952 11.44ZM20.1366 16.36H25.7526L26.1126 17.8C26.3046 18.496 26.9046 19 27.6246 19H31.3446L26.5446 1.576C26.3526 0.879999 25.7286 0.375999 25.0086 0.375999H19.8246L15.0246 17.8C15.0006 17.896 14.9766 17.968 14.9766 18.064C14.9766 18.568 15.4806 19 15.8886 19H19.4886L20.1366 16.36ZM21.1686 12.256L22.9446 5.104L24.7206 12.256H21.1686ZM45.9302 14.128C45.9302 8.776 36.9782 7.768 36.9782 5.608C36.9782 5.032 37.7222 4.48 38.4422 4.48H45.2822V1.456C45.2822 0.808 44.7542 0.375999 44.0822 0.375999H38.9222C34.6502 0.375999 32.1062 2.32 32.1062 5.56C32.1062 10.648 40.7462 11.512 40.7462 13.696C40.7462 14.32 40.0262 14.896 39.3062 14.896H31.9862V17.8C31.9862 18.472 32.5142 19 33.1862 19H39.5462C43.4342 19 45.9302 17.08 45.9302 14.128ZM47.9869 0.375999V17.8C47.9869 18.472 48.5149 19 49.1869 19H52.7869V12.04H57.5869V17.8C57.5869 18.472 58.1149 19 58.7869 19H62.3869V1.576C62.3869 0.904 61.8589 0.375999 61.1869 0.375999H57.5869V7.936H52.7869V1.576C52.7869 0.904 52.2589 0.375999 51.5869 0.375999H47.9869Z" fill="#2DA840"/>
</svg>
