<svg width="46" height="46" viewBox="0 0 46 46" fill="none" xmlns="http://www.w3.org/2000/svg">
<path d="M23.0015 2.50674e-05C18.9985 -0.00588817 15.0635 1.03447 11.5866 3.01796C8.10966 5.00145 5.21151 7.85919 3.17948 11.3079C1.14745 14.7566 0.0521024 18.6764 0.00201802 22.6789C-0.0480664 26.6814 0.948855 30.6274 2.89395 34.1259L0.058684 44.0465C-0.0063308 44.2747 -0.0175003 44.5149 0.0260543 44.7481C0.0696089 44.9814 0.166699 45.2013 0.309685 45.3907C0.45267 45.58 0.63765 45.7336 0.850067 45.8393C1.06248 45.9451 1.29654 46.0001 1.53382 46C1.67587 45.9998 1.81723 45.9802 1.95397 45.9417L11.8751 43.1066C14.9456 44.8058 18.3644 45.7796 21.8694 45.9534C25.3745 46.1272 28.8728 45.4964 32.0963 44.1093C35.3199 42.7221 38.1831 40.6156 40.4666 37.9509C42.7502 35.2863 44.3934 32.1343 45.2704 28.7365C46.1475 25.3386 46.235 21.7851 45.5264 18.3483C44.8177 14.9114 43.3317 11.6823 41.1821 8.90845C39.0326 6.13461 36.2766 3.88961 33.1252 2.34547C29.9739 0.801325 26.5109 -0.000979733 23.0015 2.50674e-05ZM32.202 32.2H13.8011C13.3944 32.2 13.0044 32.0385 12.7168 31.7509C12.4292 31.4634 12.2677 31.0733 12.2677 30.6667C12.2677 30.26 12.4292 29.87 12.7168 29.5824C13.0044 29.2949 13.3944 29.1333 13.8011 29.1333H32.202C32.6086 29.1333 32.9987 29.2949 33.2862 29.5824C33.5738 29.87 33.7354 30.26 33.7354 30.6667C33.7354 31.0733 33.5738 31.4634 33.2862 31.7509C32.9987 32.0385 32.6086 32.2 32.202 32.2ZM32.202 24.5333H13.8011C13.3944 24.5333 13.0044 24.3718 12.7168 24.0842C12.4292 23.7967 12.2677 23.4067 12.2677 23C12.2677 22.5933 12.4292 22.2033 12.7168 21.9158C13.0044 21.6282 13.3944 21.4667 13.8011 21.4667H32.202C32.6086 21.4667 32.9987 21.6282 33.2862 21.9158C33.5738 22.2033 33.7354 22.5933 33.7354 23C33.7354 23.4067 33.5738 23.7967 33.2862 24.0842C32.9987 24.3718 32.6086 24.5333 32.202 24.5333ZM32.202 16.8667H13.8011C13.3944 16.8667 13.0044 16.7051 12.7168 16.4176C12.4292 16.13 12.2677 15.74 12.2677 15.3333C12.2677 14.9267 12.4292 14.5367 12.7168 14.2491C13.0044 13.9616 13.3944 13.8 13.8011 13.8H32.202C32.6086 13.8 32.9987 13.9616 33.2862 14.2491C33.5738 14.5367 33.7354 14.9267 33.7354 15.3333C33.7354 15.74 33.5738 16.13 33.2862 16.4176C32.9987 16.7051 32.6086 16.8667 32.202 16.8667Z" fill="url(#paint0_linear_213_4276)"/>
<defs>
<linearGradient id="paint0_linear_213_4276" x1="-7.38601" y1="50.8193" x2="37.5715" y2="9.65785" gradientUnits="userSpaceOnUse">
<stop stop-color="#47ada9"/>
<stop offset="1" stop-color="#FFE8BA"/>
</linearGradient>
</defs>
</svg>
