<svg width="88" height="80" viewBox="0 0 88 80" fill="none" xmlns="http://www.w3.org/2000/svg">
<path d="M21.6386 65.9205H9.21094V12.4792C9.21094 5.58912 14.777 0 21.6386 0V65.9205Z" fill="#D9E5F1"/>
<path d="M82.6991 79.8164H5.30315C3.17972 79.8164 1.31204 78.4073 0.716398 76.3596L0.056821 74.0787C-0.205664 73.1663 0.474104 72.2539 1.41972 72.2539H86.5792C87.5248 72.2539 88.2079 73.1663 87.9421 74.0787L87.2825 76.3596C86.6902 78.4073 84.8226 79.8164 82.6958 79.8164H82.6991Z" fill="#393982"/>
<path d="M17.8922 17.1738H70.1165C77.6714 17.1738 83.8061 23.334 83.8061 30.9202V72.2033H4.19922V30.9202C4.19922 23.334 10.334 17.1738 17.8888 17.1738H17.8922Z" fill="#29275C"/>
<path d="M80.3516 68.7356V20.6367L7.64666 20.6367V68.7356H80.3516Z" fill="white"/>
<path d="M75.5695 6.56231V65.4575H18.156C17.7454 1.75378 19.1151 3.10206 17.0959 1.05767C16.4465 0.405498 15.548 0.0067583 14.5586 0H69.0343C72.6451 0 75.5695 2.93648 75.5695 6.56231Z" fill="#EFF6FF"/>
<path d="M46.1022 21.2382C50.5683 21.2382 54.1887 17.6028 54.1887 13.1181C54.1887 8.63354 50.5683 4.99805 46.1022 4.99805C41.6361 4.99805 38.0156 8.63354 38.0156 13.1181C38.0156 17.6028 41.6361 21.2382 46.1022 21.2382Z" fill="#F24E66"/>
<path d="M49.7786 17.1428C48.7152 17.7274 47.7797 17.9504 46.723 17.9504C43.9501 17.9504 41.8906 16.0513 41.8906 13.1149C41.8906 10.1784 43.9333 8.2793 46.723 8.2793C47.672 8.2793 48.621 8.44488 49.7854 9.09029C50.9363 9.70192 50.0445 11.4253 48.8835 10.8407C48.0994 10.442 47.5206 10.3237 46.8307 10.3237C45.027 10.3237 44.0107 11.4118 44.0107 13.1149C44.0107 14.818 45.0303 15.906 46.8307 15.906C47.5307 15.906 48.0859 15.7878 48.8734 15.389C50.0748 14.8078 50.9228 16.5278 49.7786 17.1462V17.1428Z" fill="white"/>
<path d="M32.3031 28.7415H31.5258L30.5768 26.5214H28.4029V35.6181L29.897 35.9087L29.8398 36.669H25.0478L25.0881 35.929C25.4886 35.7938 25.9193 35.6654 26.5049 35.5573V26.5181H24.331L23.3618 28.7382H22.6046C22.507 27.569 22.5642 26.4403 22.7796 25.3691H32.1315C32.3435 26.4403 32.4041 27.569 32.3065 28.7382L32.3031 28.7415Z" fill="#393982"/>
<path d="M66.8723 24.6289H40.2502C38.0237 24.6289 36.2188 26.4414 36.2188 28.6771C36.2188 30.9129 38.0237 32.7254 40.2502 32.7254H66.8723C69.0988 32.7254 70.9038 30.9129 70.9038 28.6771C70.9038 26.4414 69.0988 24.6289 66.8723 24.6289Z" fill="#D9E5F1"/>
<path d="M71.2436 35.498H36.2188V36.6706H71.2436V35.498Z" fill="#D9E5F1"/>
<path d="M71.2436 39.0098H36.2188V40.1823H71.2436V39.0098Z" fill="#D9E5F1"/>
<path d="M71.2481 42.5195H23.2773V43.6921H71.2481V42.5195Z" fill="#D9E5F1"/>
<path d="M71.2481 46.0254H23.2773V47.198H71.2481V46.0254Z" fill="#D9E5F1"/>
<path d="M71.2481 49.5391H23.2773V50.7116H71.2481V49.5391Z" fill="#D9E5F1"/>
<path d="M71.2481 53.0488H23.2773V54.2214H71.2481V53.0488Z" fill="#D9E5F1"/>
<path d="M71.2481 56.5625H23.2773V57.7351H71.2481V56.5625Z" fill="#D9E5F1"/>
<path d="M71.2481 60.0703H23.2773V61.2429H71.2481V60.0703Z" fill="#D9E5F1"/>
</svg>
