<svg width="16" height="16" viewBox="0 0 16 16" fill="none" xmlns="http://www.w3.org/2000/svg">
<path d="M15.8627 4.39634C16.0355 2.85767 14.9251 1.41074 13.3294 1.42194H2.66272C2.00505 1.42331 1.37372 1.68049 0.902306 2.13907C0.430892 2.59764 0.156377 3.22163 0.136848 3.87901C0.0952481 3.89767 0.151781 12.0182 0.129381 12.047C0.130228 12.7186 0.397404 13.3625 0.872313 13.8374C1.34722 14.3123 1.99109 14.5795 2.66272 14.5803H13.3294C14.001 14.5795 14.6449 14.3123 15.1198 13.8374C15.5947 13.3625 15.8619 12.7186 15.8627 12.047V6.62941C15.8574 6.10674 15.067 6.10567 15.0627 6.62941V12.047C15.0622 12.5065 14.8794 12.9471 14.5544 13.272C14.2295 13.597 13.7889 13.7798 13.3294 13.7803H2.66272C2.20318 13.7798 1.76263 13.597 1.43769 13.272C1.11275 12.9471 0.929946 12.5065 0.929382 12.047V5.16167L6.55072 9.06781C6.97562 9.36089 7.4796 9.51784 7.99578 9.51784C8.51196 9.51784 9.01594 9.36089 9.44085 9.06781L15.691 4.72541C15.7441 4.68858 15.7875 4.63939 15.8175 4.58206C15.8474 4.52474 15.8629 4.461 15.8627 4.39634ZM8.98272 8.40861C8.69209 8.60946 8.34719 8.71704 7.99392 8.71704C7.64064 8.71704 7.29574 8.60946 7.00512 8.40861L0.929382 4.18727C0.830715 3.15527 1.60618 2.21661 2.66272 2.22194H13.3294C14.3849 2.21661 15.163 3.15474 15.0627 4.18727L8.98272 8.40861Z" fill="#828ABA"/>
<path d="M4.09488 10.3333L2.63994 11.6667C2.25594 12.0213 2.79301 12.6085 3.18074 12.2565L4.63621 10.9232C4.99781 10.5685 4.47994 10.0032 4.09488 10.3333ZM11.3306 10.3579C11.2591 10.4362 11.2216 10.5396 11.2262 10.6456C11.2308 10.7515 11.2771 10.8513 11.3551 10.9232L12.8101 12.2565C12.8883 12.3283 12.9918 12.3661 13.0979 12.3615C13.204 12.357 13.3039 12.3105 13.3757 12.2323C13.4475 12.154 13.4852 12.0505 13.4807 11.9444C13.4761 11.8384 13.4296 11.7384 13.3514 11.6667L11.8959 10.3333C11.8176 10.2618 11.7142 10.2243 11.6082 10.2289C11.5023 10.2335 11.4025 10.2799 11.3306 10.3579Z" fill="#828ABA"/>
</svg>
