<svg width="20" height="18" viewBox="0 0 20 18" fill="none" xmlns="http://www.w3.org/2000/svg">
<path d="M19.8274 4.49445C20.0434 2.57111 18.6554 0.762448 16.6608 0.776448H3.32742C2.50534 0.778163 1.71617 1.09964 1.12691 1.67286C0.537638 2.24608 0.194495 3.02606 0.170084 3.84778C0.118084 3.87111 0.18875 14.0218 0.16075 14.0578C0.161809 14.8973 0.495779 15.7021 1.08941 16.2958C1.68305 16.8894 2.48789 17.2234 3.32742 17.2244H16.6608C17.5003 17.2234 18.3051 16.8894 18.8988 16.2958C19.4924 15.7021 19.8264 14.8973 19.8274 14.0578V7.28578C19.8208 6.63245 18.8328 6.63112 18.8274 7.28578V14.0578C18.8267 14.6322 18.5982 15.1829 18.192 15.5891C17.7859 15.9952 17.2352 16.2237 16.6608 16.2245H3.32742C2.753 16.2237 2.20231 15.9952 1.79613 15.5891C1.38996 15.1829 1.16146 14.6322 1.16075 14.0578V5.45112L8.18742 10.3338C8.71855 10.7001 9.34853 10.8963 9.99375 10.8963C10.639 10.8963 11.269 10.7001 11.8001 10.3338L19.6128 4.90578C19.6792 4.85975 19.7334 4.79826 19.7708 4.7266C19.8082 4.65495 19.8277 4.57527 19.8274 4.49445ZM11.2274 9.50978C10.8641 9.76085 10.433 9.89532 9.99142 9.89532C9.54982 9.89532 9.1187 9.76085 8.75542 9.50978L1.16075 4.23311C1.03742 2.94311 2.00675 1.76978 3.32742 1.77645H16.6608C17.9801 1.76978 18.9528 2.94245 18.8274 4.23311L11.2274 9.50978Z" fill="#BDC1DF"/>
<path d="M5.11811 11.9152L3.29944 13.5819C2.81944 14.0252 3.49077 14.7592 3.97544 14.3192L5.79478 12.6525C6.24677 12.2092 5.59944 11.5025 5.11811 11.9152ZM14.1628 11.9459C14.0734 12.0438 14.0265 12.1731 14.0322 12.3055C14.038 12.438 14.0959 12.5627 14.1934 12.6525L16.0121 14.3192C16.1099 14.4089 16.2393 14.4561 16.3719 14.4504C16.5045 14.4448 16.6294 14.3866 16.7191 14.2889C16.8088 14.1911 16.8561 14.0617 16.8504 13.9291C16.8447 13.7965 16.7866 13.6716 16.6888 13.5819L14.8694 11.9152C14.7715 11.8258 14.6422 11.7789 14.5098 11.7847C14.3773 11.7904 14.2526 11.8484 14.1628 11.9459Z" fill="#BDC1DF"/>
</svg>
