<svg width="16" height="12" viewBox="0 0 16 12" fill="none" xmlns="http://www.w3.org/2000/svg">
<path d="M15.8806 5.454C15.2952 4.174 12.9999 0 7.99992 0C2.99991 0 0.704581 4.174 0.119248 5.454C0.040673 5.62553 0 5.81199 0 6.00067C0 6.18934 0.040673 6.3758 0.119248 6.54733C0.704581 7.826 2.99991 12 7.99992 12C12.9999 12 15.2952 7.826 15.8806 6.546C15.959 6.37466 15.9996 6.18843 15.9996 6C15.9996 5.81157 15.959 5.62534 15.8806 5.454ZM7.99992 10.6667C3.79525 10.6667 1.83325 7.08933 1.33325 6.00733C1.83325 4.91067 3.79525 1.33333 7.99992 1.33333C12.1946 1.33333 14.1572 4.89533 14.6666 6C14.1572 7.10467 12.1946 10.6667 7.99992 10.6667Z" fill="currentColor"/>
<path d="M7.99984 2.66797C7.34057 2.66797 6.6961 2.86347 6.14794 3.22974C5.59977 3.59601 5.17253 4.1166 4.92024 4.72569C4.66795 5.33478 4.60194 6.005 4.73055 6.6516C4.85917 7.29821 5.17664 7.89215 5.64282 8.35833C6.10899 8.8245 6.70293 9.14197 7.34954 9.27059C7.99614 9.3992 8.66636 9.33319 9.27545 9.0809C9.88454 8.82861 10.4051 8.40137 10.7714 7.8532C11.1377 7.30504 11.3332 6.66057 11.3332 6.0013C11.3321 5.11757 10.9806 4.27034 10.3557 3.64545C9.7308 3.02056 8.88357 2.66903 7.99984 2.66797ZM7.99984 8.0013C7.60428 8.0013 7.2176 7.884 6.8887 7.66424C6.5598 7.44448 6.30345 7.13212 6.15208 6.76667C6.0007 6.40122 5.9611 5.99908 6.03827 5.61112C6.11544 5.22316 6.30592 4.86679 6.58562 4.58709C6.86533 4.30738 7.2217 4.1169 7.60966 4.03973C7.99762 3.96256 8.39975 4.00217 8.76521 4.15354C9.13066 4.30492 9.44302 4.56126 9.66278 4.89016C9.88254 5.21906 9.99984 5.60574 9.99984 6.0013C9.99984 6.53174 9.78913 7.04044 9.41405 7.41552C9.03898 7.79059 8.53027 8.0013 7.99984 8.0013Z" fill="currentColor"/>
</svg>
