<svg width="11" height="11" viewBox="0 0 11 11" fill="none" xmlns="http://www.w3.org/2000/svg">
<g clip-path="url(#clip0_11_1012)">
<path d="M5.45666 8.71129C5.45674 8.71137 5.45682 8.71142 5.4569 8.7115C5.46653 8.72111 5.47666 8.73023 5.48719 8.73889C5.49202 8.74285 5.49711 8.74629 5.50207 8.75002C5.50799 8.75445 5.51379 8.75904 5.51995 8.76316C5.52588 8.76713 5.53204 8.77057 5.53813 8.7742C5.54372 8.77754 5.54916 8.78103 5.55491 8.7841C5.56112 8.78742 5.5675 8.79023 5.57385 8.79322C5.57983 8.79605 5.58573 8.79904 5.59186 8.80158C5.59801 8.80412 5.6043 8.80619 5.61055 8.80842C5.61713 8.81078 5.62362 8.8133 5.63034 8.81533C5.63659 8.81723 5.64293 8.81861 5.64926 8.82019C5.65612 8.82193 5.6629 8.82385 5.66989 8.82523C5.67721 8.82668 5.68459 8.82754 5.69196 8.82859C5.69803 8.82945 5.70403 8.83062 5.71018 8.83123C5.73752 8.83393 5.76508 8.83393 5.79243 8.83123C5.79858 8.83062 5.80457 8.82947 5.81065 8.82859C5.81801 8.82754 5.8254 8.82668 5.83272 8.82523C5.83971 8.82385 5.84649 8.82193 5.85334 8.82019C5.85965 8.81861 5.86602 8.81723 5.87227 8.81533C5.87899 8.8133 5.88549 8.81078 5.89206 8.80842C5.89831 8.80617 5.90459 8.80412 5.91075 8.80158C5.91688 8.79904 5.92278 8.79605 5.92875 8.79322C5.9351 8.79023 5.94149 8.78742 5.9477 8.7841C5.95344 8.78103 5.95889 8.77752 5.96448 8.7742C5.97057 8.77057 5.97672 8.76713 5.98266 8.76316C5.98881 8.75904 5.99461 8.75445 6.00053 8.75002C6.00549 8.74631 6.01059 8.74285 6.01541 8.73889C6.02594 8.73023 6.03608 8.72113 6.04571 8.7115C6.04579 8.71142 6.04586 8.71137 6.04594 8.71129L8.9626 5.79463C9.12532 5.63191 9.12532 5.36809 8.9626 5.20537C8.79989 5.04266 8.53606 5.04266 8.37334 5.20537L6.16795 7.41074V0.91666C6.16795 0.686543 5.98141 0.5 5.75129 0.5C5.52118 0.5 5.33463 0.686543 5.33463 0.91666V7.41074L3.12926 5.20537C2.96655 5.04266 2.70272 5.04266 2.54 5.20537C2.37729 5.36809 2.37729 5.63191 2.54 5.79463L5.45666 8.71129Z" fill="#FFF"/>
<path d="M8.66697 9.66675H2.83365C2.60354 9.66675 2.41699 9.85329 2.41699 10.0834C2.41699 10.3135 2.60354 10.5001 2.83365 10.5001H8.66699C8.89711 10.5001 9.08365 10.3135 9.08365 10.0834C9.08365 9.85331 8.89709 9.66675 8.66697 9.66675Z" fill="#FFF"/>
</g>
<defs>
<clipPath id="clip0_11_1012">
<rect width="10" height="10" fill="white" transform="translate(0.75 0.5)"/>
</clipPath>
</defs>
</svg>
