<svg width="18" height="18" viewBox="0 0 18 18" fill="none" xmlns="http://www.w3.org/2000/svg">
<path d="M12.0789 0.941406H5.91953C3.17266 0.941406 0.941406 3.17266 0.941406 5.91953V12.0789C0.941406 14.8258 3.17266 17.057 5.91953 17.057H12.0789C14.8258 17.057 17.057 14.8258 17.057 12.0789V5.91953C17.057 3.17734 14.8211 0.941406 12.0789 0.941406ZM15.2617 12.0789C15.2617 13.832 13.832 15.2617 12.0789 15.2617H5.91953C4.16641 15.2617 2.73672 13.832 2.73672 12.0789V5.91953C2.73672 4.16641 4.16641 2.73672 5.91953 2.73672H12.0789C13.832 2.73672 15.2617 4.16641 15.2617 5.91953V12.0789Z" fill="#BDC1DF"/>
<path d="M8.99922 4.87891C6.73047 4.87891 4.87891 6.72578 4.87891 8.99922C4.87891 11.2727 6.72578 13.1195 8.99922 13.1195C11.2727 13.1195 13.1195 11.2727 13.1195 8.99922C13.1195 6.72578 11.268 4.87891 8.99922 4.87891ZM8.99922 11.5023C7.62109 11.5023 6.49609 10.382 6.49609 8.99922C6.49609 7.62109 7.61641 6.49609 8.99922 6.49609C10.3773 6.49609 11.5023 7.61641 11.5023 8.99922C11.5023 10.3773 10.3773 11.5023 8.99922 11.5023Z" fill="#BDC1DF"/>
<path d="M13.4334 5.33285C13.8141 5.27084 14.0725 4.91194 14.0105 4.53122C13.9485 4.1505 13.5896 3.89213 13.2089 3.95414C12.8282 4.01614 12.5698 4.37504 12.6318 4.75576C12.6938 5.13648 13.0527 5.39485 13.4334 5.33285Z" fill="#BDC1DF"/>
</svg>
