<svg width="15" height="20" viewBox="0 0 15 20" fill="none" xmlns="http://www.w3.org/2000/svg">
<g clip-path="url(#clip0_7695_65199)">
<path d="M14.9187 15.1646C14.6687 16.2349 13.8562 16.8365 12.7664 17.0396C11.8093 17.2154 11.0125 17.2583 10.2468 16.6412C9.31325 15.856 9.30153 14.5552 10.1414 13.7349C10.8054 13.1021 11.739 12.9732 13.1414 12.7271C13.3758 12.6841 13.5789 12.6294 13.7508 12.438C14.0008 12.1568 13.9226 12.2779 13.9226 6.06303C13.9226 5.62553 13.7078 5.50444 13.2586 5.58256C12.9383 5.63725 6.00466 6.93412 6.00466 6.93412C5.60622 7.02006 5.48122 7.13725 5.48122 7.58647C5.48122 16.7544 5.52419 16.3326 5.38356 16.9419C5.2195 17.6529 4.782 18.188 4.20388 18.4849C3.54763 18.8482 2.36013 19.0083 1.72731 18.8912C0.0398147 18.5748 -0.553935 16.6255 0.590596 15.5083C1.25466 14.8755 2.18825 14.7466 3.5906 14.5005C3.82497 14.4576 4.0281 14.4029 4.19997 14.2115C4.5945 13.7622 4.27028 4.18803 4.4031 3.65678C4.43435 3.45366 4.52028 3.28178 4.68044 3.15287C4.8445 3.01616 5.14138 2.93803 5.20388 2.93803C13.1726 1.44584 14.1453 1.25444 14.282 1.25444C14.7312 1.22319 14.989 1.48881 14.989 1.94194C14.9968 15.399 15.032 14.6763 14.9187 15.1646Z" fill="#BDC1DF"/>
</g>
<defs>
<clipPath id="clip0_7695_65199">
<rect width="15" height="20" fill="white"/>
</clipPath>
</defs>
</svg>
