<svg width="20" height="21" viewBox="0 0 20 21" fill="none" xmlns="http://www.w3.org/2000/svg">
<g clip-path="url(#clip0_4548_96292)">
<path d="M19.6841 6.26899L17.1901 3.77499L18.7347 2.23033C19.1794 1.76899 18.4927 1.07633 18.0281 1.52299L9.8014 9.74966C9.32806 10.2123 10.0421 10.9337 10.5087 10.4563L13.9521 7.01366L16.4461 9.50699C16.9081 9.93766 17.5834 9.26233 17.1527 8.80033L16.5114 8.15899L18.3361 6.33566L18.9774 6.97699C19.4427 7.43699 20.1454 6.73299 19.6841 6.26899ZM15.8047 7.45233L14.6587 6.30633L16.4827 4.48233L17.6287 5.62766L15.8047 7.45233ZM5.41073 9.60233C4.72168 9.60215 4.03934 9.73774 3.40271 10.0013C2.76608 10.265 2.18762 10.6514 1.70039 11.1386C1.21315 11.6259 0.826692 12.2043 0.563085 12.841C0.299477 13.4776 0.163887 14.1599 0.164063 14.849C0.426729 21.797 10.3981 21.7983 10.6561 14.849C10.6562 14.1601 10.5207 13.4778 10.2572 12.8413C9.99364 12.2047 9.6073 11.6263 9.12021 11.1391C8.63312 10.6519 8.05482 10.2654 7.41834 10.0017C6.78186 9.73805 6.09967 9.60233 5.41073 9.60233ZM5.41073 19.095C-0.212605 18.8997 -0.206604 10.8003 5.4094 10.6023C11.0314 10.7963 11.0287 18.901 5.41073 19.095Z" fill="#BDC1DF"/>
</g>
<defs>
<clipPath id="clip0_4548_96292">
<rect width="20" height="20" fill="white" transform="translate(0 0.71875)"/>
</clipPath>
</defs>
</svg>
