<svg width="18" height="18" viewBox="0 0 18 18" fill="none" xmlns="http://www.w3.org/2000/svg">
<path d="M12.7423 7.28247H5.25732C4.94982 7.28247 4.69482 7.02747 4.69482 6.71997C4.69482 6.41247 4.94982 6.15747 5.25732 6.15747H12.7423C13.0498 6.15747 13.3048 6.41247 13.3048 6.71997C13.3048 7.02747 13.0498 7.28247 12.7423 7.28247Z" fill="#5A6AE8"/>
<path d="M9 7.28252C8.6925 7.28252 8.4375 7.02752 8.4375 6.72002V5.46002C8.4375 5.15252 8.6925 4.89752 9 4.89752C9.3075 4.89752 9.5625 5.15252 9.5625 5.46002V6.72002C9.5625 7.02752 9.3075 7.28252 9 7.28252Z" fill="#5A6AE8"/>
<path d="M5.25 13.1024C4.9425 13.1024 4.6875 12.8474 4.6875 12.5399C4.6875 12.2324 4.9425 11.9774 5.25 11.9774C8.04 11.9774 10.3125 9.61496 10.3125 6.70496C10.3125 6.39746 10.5675 6.14246 10.875 6.14246C11.1825 6.14246 11.4375 6.39746 11.4375 6.70496C11.4375 10.2375 8.6625 13.1024 5.25 13.1024Z" fill="#5A6AE8"/>
<path d="M12.7502 13.1025C11.2727 13.1025 9.90017 12.3675 8.89517 11.025C8.70767 10.7775 8.76019 10.425 9.00769 10.2375C9.25519 10.05 9.60768 10.1025 9.79518 10.35C10.5902 11.4 11.6402 11.9775 12.7577 11.9775C13.0652 11.9775 13.3202 12.2325 13.3202 12.54C13.3202 12.8475 13.0577 13.1025 12.7502 13.1025Z" fill="#5A6AE8"/>
<path d="M9 17.0625C4.5525 17.0625 0.9375 13.4475 0.9375 9C0.9375 4.5525 4.5525 0.9375 9 0.9375C13.4475 0.9375 17.0625 4.5525 17.0625 9C17.0625 13.4475 13.4475 17.0625 9 17.0625ZM9 2.0625C5.175 2.0625 2.0625 5.175 2.0625 9C2.0625 12.825 5.175 15.9375 9 15.9375C12.825 15.9375 15.9375 12.825 15.9375 9C15.9375 5.175 12.825 2.0625 9 2.0625Z" fill="#5A6AE8"/>
</svg>
