<svg width="22" height="17" viewBox="0 0 22 17" fill="none" xmlns="http://www.w3.org/2000/svg">
<path fill-rule="evenodd" clip-rule="evenodd" d="M6.65344 14.1142L9.13724 15.9365C9.19576 15.9795 9.26571 16.0041 9.33825 16.0073C9.41078 16.0104 9.48263 15.992 9.54467 15.9543C9.60672 15.9166 9.65618 15.8613 9.68678 15.7955C9.71739 15.7297 9.72775 15.6562 9.71657 15.5845L9.40857 13.6016L9.4819 13.5737C11.7479 12.6512 13.2292 10.6734 13.2292 8.45135C13.2292 5.32002 10.3179 2.80469 6.75097 2.80469C3.18477 2.80469 0.273438 5.32002 0.273438 8.45135C0.273438 11.4881 3.01757 13.9602 6.4613 14.0922C6.4613 14.0922 6.6505 14.1112 6.65344 14.1142ZM1.00677 8.45135C1.00677 5.75049 3.56757 3.53802 6.75097 3.53802C9.9351 3.53802 12.4959 5.75049 12.4959 8.45135C12.4959 10.3595 11.2082 12.0792 9.2157 12.8902L9.0155 12.965C8.89606 13.0093 8.79558 13.0935 8.73104 13.2033C8.6665 13.3132 8.64187 13.4419 8.6613 13.5678L8.85344 14.8218L7.0861 13.5231C6.94479 13.4254 6.77884 13.3695 6.60724 13.3618L6.48257 13.3596C3.4187 13.2422 1.00677 11.0694 1.00677 8.45135Z" fill="#BDC1DF"/>
<path fill-rule="evenodd" clip-rule="evenodd" d="M6.61245 14.2096L6.60858 14.2091C6.59112 14.207 6.56773 14.2044 6.544 14.2019L6.47909 14.195L6.45277 14.1924C2.96964 14.0574 0.171875 11.5533 0.171875 8.45175C0.171875 5.25249 3.14159 2.70508 6.74941 2.70508C10.358 2.70508 13.3277 5.25249 13.3277 8.45175C13.3277 10.721 11.8153 12.7314 9.51825 13.6666L9.81382 15.5695M6.61245 14.2096L9.07648 16.0175L6.61245 14.2096ZM9.40701 13.6019L9.48034 13.5741C11.7463 12.6515 13.2277 10.6737 13.2277 8.45175C13.2277 5.32041 10.3163 2.80508 6.74941 2.80508C3.18321 2.80508 0.271875 5.32041 0.271875 8.45175C0.271875 11.4885 3.01601 13.9605 6.45974 14.0925C6.45974 14.0925 6.64894 14.1116 6.65188 14.1145L9.13568 15.9369C9.19419 15.9799 9.26415 16.0045 9.33669 16.0077C9.40922 16.0108 9.48106 15.9924 9.54311 15.9547C9.60516 15.917 9.65462 15.8617 9.68522 15.7959C9.71582 15.7301 9.72619 15.6566 9.71501 15.5849L9.40701 13.6019ZM7.08454 13.5235L8.85188 14.8222L8.65974 13.5682C8.6403 13.4423 8.66494 13.3136 8.72948 13.2037C8.79401 13.0939 8.8945 13.0097 9.01394 12.9654L9.21414 12.8906C11.2066 12.0795 12.4943 10.3599 12.4943 8.45175C12.4943 5.75088 9.93354 3.53841 6.74941 3.53841C3.56601 3.53841 1.00521 5.75088 1.00521 8.45175C1.00521 11.0697 3.41714 13.2426 6.48101 13.3599L6.60568 13.3621C6.77727 13.3699 6.94322 13.4258 7.08454 13.5235ZM6.48383 13.26C3.46015 13.1437 1.10521 11.0027 1.10521 8.45175C1.10521 5.81993 3.60632 3.63841 6.74941 3.63841C9.89324 3.63841 12.3943 5.81993 12.3943 8.45175C12.3943 10.3116 11.1389 11.9986 9.17778 12.7974L8.97917 12.8717C8.83813 12.924 8.71947 13.0234 8.64326 13.1531C8.56705 13.2828 8.53796 13.4348 8.56091 13.5835L8.71645 14.5986L7.14376 13.4429L7.14139 13.4412C6.98463 13.3329 6.80055 13.2709 6.6102 13.2622L6.48383 13.26Z" fill="#BDC1DF"/>
<path fill-rule="evenodd" clip-rule="evenodd" d="M11.5945 11.0887C11.9692 11.3403 12.3792 11.5581 12.8177 11.7378L12.8925 11.7656L12.5845 13.7485C12.5733 13.8203 12.5837 13.8937 12.6143 13.9596C12.6449 14.0254 12.6944 14.0807 12.7564 14.1184C12.8185 14.1561 12.8903 14.1745 12.9628 14.1713C13.0354 14.1682 13.1053 14.1435 13.1638 14.1006L15.6476 12.2782C15.6506 12.2753 15.8383 12.2562 15.8383 12.2562C19.2828 12.1242 22.0276 9.65288 22.0276 6.61542C22.0276 3.48408 19.1163 0.96875 15.5494 0.96875C12.9585 0.96875 10.7138 2.29608 9.67904 4.22182C9.89977 4.33402 10.1117 4.45942 10.3119 4.59508C11.2117 2.89375 13.213 1.70208 15.5494 1.70208C18.7328 1.70208 21.2936 3.91455 21.2936 6.61542C21.2936 9.23342 18.8816 11.4063 15.8178 11.5236L15.6931 11.5258C15.5213 11.5335 15.355 11.5894 15.2135 11.6871L13.4469 12.9852L13.639 11.7319C13.6585 11.606 13.6338 11.4772 13.5693 11.3674C13.5048 11.2576 13.4043 11.1734 13.2848 11.1291L13.0846 11.0543C12.6992 10.8981 12.331 10.7023 11.9861 10.4698C11.8717 10.6859 11.7408 10.8928 11.5945 11.0887ZM6.13044 7.77188C6.05347 7.79224 5.97694 7.81425 5.90091 7.83788C5.90531 7.59808 5.92437 7.34948 5.95957 7.09282C6.43844 7.05982 6.93857 6.98282 7.44311 6.87575C7.75516 6.80887 8.06459 6.73035 8.37077 6.64035C8.41676 6.626 8.45947 6.60274 8.49646 6.57188C8.53345 6.54103 8.56401 6.50319 8.58638 6.46053C8.60875 6.41786 8.62249 6.37121 8.62683 6.32324C8.63118 6.27526 8.62602 6.2269 8.61167 6.18092C8.59733 6.13493 8.57406 6.09222 8.5432 6.05523C8.51235 6.01824 8.47451 5.98768 8.43185 5.96531C8.38919 5.94295 8.34254 5.9292 8.29456 5.92486C8.24659 5.92052 8.19823 5.92567 8.15224 5.94002C7.86756 6.02343 7.57989 6.09632 7.28984 6.15855C6.88724 6.24435 6.48831 6.30888 6.10697 6.34482C6.13631 6.22895 6.16857 6.11235 6.20451 5.99282C6.22032 5.9462 6.22659 5.89688 6.22293 5.84779C6.21928 5.79871 6.20578 5.75086 6.18323 5.7071C6.16069 5.66334 6.12957 5.62457 6.09172 5.59309C6.05387 5.56162 6.01008 5.53809 5.96294 5.52391C5.91581 5.50972 5.8663 5.50517 5.81737 5.51053C5.76844 5.51589 5.72108 5.53104 5.67813 5.55509C5.63519 5.57914 5.59752 5.61159 5.56738 5.65051C5.53724 5.68943 5.51525 5.73402 5.50271 5.78162C5.44184 5.98255 5.38977 6.18128 5.34577 6.37562C4.99377 6.36828 4.68431 6.32428 4.42911 6.24362C4.33643 6.21405 4.23581 6.22252 4.14937 6.26714C4.06294 6.31177 3.99777 6.38891 3.96821 6.48158C3.93864 6.57426 3.94711 6.67488 3.99174 6.76132C4.03636 6.84775 4.1135 6.91292 4.20617 6.94248C4.50537 7.03782 4.84417 7.08988 5.21817 7.10528C5.17657 7.44067 5.16039 7.77872 5.16977 8.11655C4.95186 8.21509 4.7424 8.33134 4.54351 8.46415C3.81311 8.96135 3.50657 9.60448 3.89744 10.2894C4.32351 11.0352 5.19031 11.0257 6.01091 10.4148C6.59464 9.98068 7.12557 9.28108 7.51057 8.42602C8.03564 8.54482 8.40011 8.87628 8.40011 9.37788C8.40011 9.76508 8.16764 10.0489 7.74011 10.2593C7.50382 10.3743 7.25172 10.4534 6.99211 10.494C6.89564 10.5067 6.80814 10.5571 6.74887 10.6343C6.6896 10.7114 6.6634 10.8089 6.67604 10.9054C6.68868 11.0019 6.73913 11.0894 6.81628 11.1487C6.89343 11.2079 6.99097 11.2341 7.08744 11.2215C7.4276 11.1725 7.75781 11.0698 8.06571 10.9171C8.71837 10.5945 9.13344 10.0885 9.13344 9.37788C9.13344 8.48908 8.55924 7.93615 7.77897 7.73228C7.79584 7.68168 7.81197 7.63108 7.82737 7.57975C7.85548 7.48659 7.84542 7.38608 7.79942 7.30033C7.75342 7.21458 7.67524 7.15062 7.58207 7.12252C7.48891 7.09441 7.3884 7.10447 7.30265 7.15047C7.21691 7.19647 7.15294 7.27465 7.12484 7.36782C7.09697 7.46168 7.06617 7.55335 7.03464 7.64428C6.80611 7.64648 6.57838 7.67153 6.35484 7.71908C6.27988 7.73494 6.20531 7.75254 6.13117 7.77188H6.13044ZM6.22871 8.50522C6.13337 8.53235 6.03657 8.56315 5.93977 8.59688C5.9704 8.84703 6.02042 9.09442 6.08937 9.33682C6.31524 9.07282 6.52571 8.75748 6.70904 8.40182C6.64117 8.41107 6.57366 8.42281 6.50664 8.43702C6.41644 8.45608 6.32331 8.47882 6.22797 8.50595L6.22871 8.50522ZM5.24237 8.89828C5.27684 9.11315 5.32304 9.31995 5.37877 9.51868C5.41837 9.66022 5.45944 9.78122 5.49684 9.88168C5.02531 10.2073 4.68944 10.197 4.53397 9.92568C4.37557 9.64702 4.50317 9.37862 4.95564 9.07062C5.04364 9.01195 5.13897 8.95328 5.24237 8.89828Z" fill="#BDC1DF"/>
<path fill-rule="evenodd" clip-rule="evenodd" d="M11.4538 11.1136L11.5167 11.0293C11.6599 10.8375 11.7881 10.635 11.9001 10.4234L11.9521 10.3251L12.0443 10.3873C12.3831 10.6156 12.7447 10.808 13.1233 10.9615L13.322 11.0357C13.463 11.088 13.5817 11.1874 13.6579 11.3171C13.7341 11.4468 13.7632 11.5988 13.7402 11.7474M13.7402 11.7474L13.5847 12.7619L15.159 11.6052C15.316 11.4968 15.5004 11.4348 15.691 11.4263L15.6937 11.4262L15.8173 11.424C18.841 11.3078 21.1959 9.16679 21.1959 6.61581C21.1959 3.98399 18.6948 1.80247 15.5517 1.80247C13.2478 1.80247 11.2831 2.97747 10.4026 4.64223L10.3505 4.74083L10.2582 4.67826C10.0614 4.54491 9.85304 4.42164 9.63607 4.31135L9.54487 4.26499L9.5933 4.17488C10.6473 2.21336 12.928 0.869141 15.5517 0.869141C19.1603 0.869141 22.13 3.41655 22.13 6.61581C22.13 9.71808 19.3315 12.2214 15.8477 12.3564L15.8216 12.3591L15.7572 12.3659C15.7337 12.3685 15.7105 12.3711 15.6931 12.3732L15.6895 12.3737L13.2254 14.1815C13.1509 14.2362 13.0619 14.2676 12.9695 14.2716C12.8772 14.2757 12.7858 14.2522 12.7068 14.2042C12.6279 14.1563 12.5649 14.0859 12.526 14.0021C12.487 13.9183 12.4738 13.8249 12.488 13.7336C12.488 13.7336 12.488 13.7336 12.488 13.7336L12.7835 11.8312L12.7821 11.8307C12.3376 11.6486 11.9217 11.4276 11.5411 11.1722L11.4538 11.1136M12.8949 11.766L12.5869 13.7489C12.5757 13.8207 12.586 13.8941 12.6166 13.96C12.6472 14.0258 12.6967 14.0811 12.7587 14.1188C12.8208 14.1565 12.8926 14.1749 12.9652 14.1717C13.0377 14.1686 13.1077 14.1439 13.1662 14.1009L15.65 12.2786C15.6529 12.2757 15.8407 12.2566 15.8407 12.2566C19.2851 12.1246 22.03 9.65327 22.03 6.61581C22.03 3.48447 19.1187 0.969141 15.5517 0.969141C13.0004 0.969141 10.7847 2.2563 9.72957 4.13452C9.71323 4.16361 9.69716 4.19284 9.68138 4.22221C9.71113 4.23733 9.74072 4.25269 9.77015 4.26829C9.92886 4.35241 10.0827 4.44329 10.2306 4.53982C10.2587 4.55817 10.2866 4.57672 10.3143 4.59547C10.3299 4.56589 10.3459 4.53645 10.3622 4.50717C11.2838 2.85305 13.256 1.70247 15.5517 1.70247C18.7351 1.70247 21.2959 3.91494 21.2959 6.61581C21.2959 9.23381 18.884 11.4067 15.8201 11.524L15.6955 11.5262C15.5236 11.5338 15.3574 11.5898 15.2159 11.6875L13.4493 12.9855L13.6414 11.7323C13.6608 11.6064 13.6362 11.4776 13.5717 11.3678C13.5071 11.258 13.4066 11.1738 13.2872 11.1295L13.087 11.0547C12.7326 10.9111 12.3928 10.7339 12.0722 10.5257C12.0442 10.5074 12.0162 10.4889 11.9885 10.4702C11.9728 10.4998 11.9568 10.5292 11.9405 10.5585C11.8541 10.7136 11.7591 10.8638 11.6559 11.0083C11.6365 11.0355 11.6168 11.0624 11.5969 11.0891C11.6245 11.1077 11.6524 11.1261 11.6805 11.1443C12.0323 11.3726 12.4139 11.5717 12.8201 11.7381L12.8949 11.766ZM6.12075 7.67227C6.19225 7.65382 6.26414 7.63694 6.33638 7.62166C6.54332 7.57764 6.75375 7.55235 6.96512 7.54607C6.98837 7.47766 7.0107 7.40919 7.03132 7.33975C7.06708 7.22119 7.1486 7.12128 7.25772 7.06274C7.36684 7.0042 7.49475 6.9914 7.6133 7.02717C7.73185 7.06293 7.83134 7.14433 7.88988 7.25345C7.9484 7.36252 7.96121 7.49036 7.9255 7.60887C7.92549 7.60892 7.92551 7.60883 7.9255 7.60887L7.82972 7.58014C7.85782 7.48698 7.84777 7.38647 7.80176 7.30072C7.75576 7.21497 7.67758 7.15101 7.58442 7.12291C7.49126 7.0948 7.39075 7.10486 7.305 7.15086C7.21925 7.19686 7.15529 7.27505 7.12718 7.36821C7.09932 7.46207 7.06852 7.55374 7.03698 7.64467C6.80846 7.64687 6.58072 7.67193 6.35718 7.71947C6.28223 7.73533 6.20765 7.75293 6.13352 7.77227C6.09042 7.78367 6.04672 7.79559 6.00391 7.80802C5.97026 7.81779 5.93671 7.82787 5.90325 7.83827C5.90389 7.80329 5.90485 7.76812 5.90612 7.73277C5.91356 7.52577 5.93185 7.31243 5.96192 7.09321C6.44078 7.06021 6.94092 6.98321 7.44545 6.87614C7.7575 6.80926 8.06694 6.73074 8.37312 6.64074C8.4191 6.62639 8.46181 6.60313 8.4988 6.57227C8.5358 6.54142 8.56635 6.50358 8.58872 6.46092C8.61109 6.41825 8.62484 6.3716 8.62918 6.32363C8.63352 6.27565 8.62837 6.22729 8.61402 6.18131C8.59967 6.13532 8.5764 6.09261 8.54555 6.05562C8.51469 6.01863 8.47685 5.98808 8.43419 5.96571C8.39153 5.94334 8.34488 5.92959 8.2969 5.92525C8.24893 5.92091 8.20057 5.92606 8.15458 5.94041C7.8699 6.02382 7.58224 6.09672 7.29218 6.15894C6.92671 6.23683 6.56426 6.29719 6.21526 6.33454C6.1798 6.33833 6.14449 6.34189 6.10932 6.34521C6.11799 6.31094 6.12693 6.27661 6.13613 6.24216C6.15806 6.16012 6.18155 6.07739 6.20685 5.99321C6.22267 5.94659 6.22893 5.89727 6.22528 5.84818C6.22162 5.7991 6.20812 5.75125 6.18558 5.70749C6.16303 5.66373 6.13191 5.62496 6.09407 5.59349C6.05622 5.56201 6.01242 5.53848 5.96529 5.5243C5.91815 5.51011 5.86864 5.50556 5.81971 5.51092C5.77078 5.51628 5.72343 5.53143 5.68048 5.55548C5.63753 5.57953 5.59986 5.61198 5.56972 5.6509C5.53958 5.68982 5.51759 5.73441 5.50505 5.78201C5.44418 5.98294 5.39212 6.18167 5.34812 6.37601C4.99612 6.36867 4.68665 6.32467 4.43145 6.24401C4.33878 6.21444 4.23815 6.22291 4.15172 6.26754C4.06528 6.31216 4.00011 6.3893 3.97055 6.48197C3.94099 6.57465 3.94945 6.67527 3.99408 6.76171C4.03871 6.84814 4.11584 6.91331 4.20852 6.94287C4.48079 7.02963 4.78585 7.08055 5.12038 7.10062C5.15347 7.1026 5.18685 7.10429 5.22052 7.10567C5.2164 7.13885 5.21254 7.17205 5.20892 7.20528C5.17596 7.50794 5.16366 7.81253 5.17212 8.11694C4.9542 8.21548 4.74474 8.33173 4.54585 8.46454C3.81545 8.96174 3.50892 9.60487 3.89978 10.2898C4.32585 11.0356 5.19265 11.0261 6.01325 10.4152C6.59698 9.98107 7.12792 9.28147 7.51292 8.42641C8.03798 8.54521 8.40245 8.87667 8.40245 9.37827C8.40245 9.76547 8.16998 10.0493 7.74245 10.2597C7.50617 10.3747 7.25406 10.4538 6.99445 10.4944C6.89798 10.507 6.81049 10.5575 6.75121 10.6346C6.69194 10.7118 6.66574 10.8093 6.67838 10.9058C6.69103 11.0023 6.74147 11.0898 6.81862 11.149C6.89578 11.2083 6.99332 11.2345 7.08978 11.2219C7.42994 11.1729 7.76016 11.0702 8.06805 10.9175C8.72072 10.5949 9.13578 10.0889 9.13578 9.37827C9.13578 8.52646 8.60838 7.98314 7.87764 7.75994C7.8459 7.75025 7.81379 7.74116 7.78132 7.73267C7.79189 7.70097 7.80217 7.66927 7.81216 7.63738C7.81811 7.61838 7.82397 7.59931 7.82972 7.58014M7.90837 7.66477C8.27163 7.77599 8.59119 7.96464 8.82632 8.23268C9.0842 8.52664 9.23578 8.91084 9.23578 9.37827C9.23578 10.1374 8.78855 10.6729 8.11247 11.0071C7.79508 11.1645 7.45468 11.2704 7.10403 11.3209L7.10278 11.321C6.98001 11.3371 6.85588 11.3038 6.7577 11.2283C6.65952 11.1529 6.59532 11.0416 6.57923 10.9188C6.56314 10.796 6.59648 10.6719 6.67191 10.5737C6.74708 10.4759 6.85789 10.4118 6.98013 10.3954C7.22946 10.3563 7.47158 10.2803 7.69853 10.1699C8.10641 9.96904 8.30245 9.71329 8.30245 9.37827C8.30245 8.96286 8.02077 8.66929 7.56922 8.54367C7.18203 9.37591 6.65581 10.0619 6.07296 10.4954C5.65086 10.8096 5.20703 10.9768 4.80468 10.9612C4.39694 10.9453 4.04274 10.7416 3.81295 10.3394C3.60372 9.97276 3.57838 9.60936 3.70905 9.27077C3.83801 8.9366 4.11466 8.63709 4.48958 8.38188C4.67462 8.25832 4.86934 8.14827 5.07064 8.05362C5.0655 7.76858 5.07827 7.48352 5.10889 7.20011C4.77017 7.17943 4.45849 7.12748 4.17816 7.03815C4.06022 7.00053 3.96202 6.91759 3.90522 6.80759C3.84843 6.69758 3.83766 6.56953 3.87528 6.45158C3.9129 6.33364 3.99584 6.23547 4.10584 6.17868C4.2158 6.1219 4.34381 6.11112 4.46172 6.1487C4.68606 6.2196 4.95778 6.2618 5.26916 6.27365C5.30943 6.10327 5.35583 5.92981 5.40885 5.75466C5.42489 5.69478 5.4527 5.63869 5.49066 5.58967C5.52902 5.54014 5.57696 5.49884 5.63162 5.46823C5.68628 5.43762 5.74655 5.41833 5.80882 5.41151C5.8711 5.4047 5.93411 5.41049 5.9941 5.42854C6.05409 5.44659 6.10983 5.47654 6.158 5.5166C6.20617 5.55665 6.24578 5.606 6.27447 5.66169C6.30316 5.71738 6.32035 5.77828 6.325 5.84076C6.32961 5.90261 6.32183 5.96476 6.30215 6.02357C6.28111 6.09358 6.26136 6.16255 6.24273 6.23094C6.576 6.19377 6.92189 6.13561 7.27121 6.06116C7.55859 5.99951 7.8436 5.9273 8.12566 5.84468C8.18392 5.82662 8.24516 5.82016 8.30592 5.82565C8.36697 5.83118 8.42634 5.84867 8.48063 5.87714C8.53492 5.90561 8.58308 5.94449 8.62234 5.99157C8.66161 6.03865 8.69122 6.093 8.70948 6.15152C8.72774 6.21004 8.73429 6.27158 8.72877 6.33264C8.72325 6.39369 8.70575 6.45306 8.67728 6.50735C8.64882 6.56165 8.60993 6.6098 8.56285 6.64907C8.51578 6.68833 8.46143 6.71794 8.4029 6.7362L8.40132 6.73669C8.09275 6.8274 7.78089 6.90652 7.46641 6.97392C6.98692 7.07567 6.50999 7.15075 6.0505 7.18694C6.02853 7.36311 6.01431 7.53521 6.00735 7.70299C6.04055 7.69356 6.07384 7.68442 6.10721 7.6756L6.12075 7.67227M6.02668 8.56856C6.09481 8.54603 6.16272 8.52507 6.22991 8.50593C6.22982 8.50596 6.23 8.50591 6.22991 8.50593C6.2302 8.50585 6.23076 8.50569 6.23105 8.50561C6.23096 8.50563 6.23114 8.50558 6.23105 8.50561C6.29535 8.48733 6.35906 8.47146 6.42113 8.45695C6.4507 8.45004 6.47999 8.44354 6.50898 8.43741C6.53532 8.43183 6.56174 8.42663 6.58822 8.42181C6.62912 8.41436 6.67019 8.40783 6.71138 8.40221C6.69228 8.43926 6.67289 8.47588 6.65321 8.51205C6.50589 8.78283 6.34281 9.02838 6.16953 9.24346C6.14381 9.27539 6.11787 9.30664 6.09172 9.33721C6.08061 9.29816 6.07 9.25899 6.05987 9.21969C6.01484 9.04486 5.97956 8.86766 5.95422 8.68889C5.95223 8.67487 5.9503 8.66084 5.94844 8.6468C5.94625 8.6303 5.94414 8.61379 5.94212 8.59727C5.97032 8.58745 5.99852 8.57787 6.02668 8.56856ZM6.05192 8.66554C6.0989 8.64995 6.14574 8.63512 6.19228 8.62114L6.25769 8.60252C6.34923 8.57647 6.43875 8.55456 6.52556 8.53612C6.40523 8.74943 6.27517 8.94547 6.13847 9.12154C6.10223 8.97106 6.07335 8.81888 6.05192 8.66554ZM5.24472 8.89867C5.213 8.91554 5.18204 8.93276 5.15182 8.95021C5.08352 8.98966 5.01899 9.03034 4.95798 9.07101C4.50552 9.37901 4.37792 9.64741 4.53632 9.92607C4.69178 10.1974 5.02765 10.2077 5.49918 9.88207C5.46178 9.78161 5.42072 9.66061 5.38112 9.51907C5.33444 9.35262 5.29445 9.18051 5.26243 9.00274C5.25623 8.96826 5.25032 8.93357 5.24472 8.89867ZM5.17039 9.05523C5.11588 9.08756 5.06376 9.12068 5.01386 9.15394C4.79271 9.30453 4.66508 9.43654 4.60791 9.55346C4.55481 9.66208 4.55919 9.7639 4.62321 9.87657C4.68255 9.98 4.77092 10.0312 4.89663 10.028C5.01825 10.0248 5.1794 9.96981 5.37841 9.84236C5.34792 9.75598 5.31593 9.65721 5.28483 9.54608" fill="#BDC1DF"/>
<path fill-rule="evenodd" clip-rule="evenodd" d="M15.7704 5.40049L16.8865 8.74889C16.9003 8.79624 16.9235 8.84032 16.9548 8.87848C16.986 8.91665 17.0246 8.94812 17.0683 8.97101C17.112 8.9939 17.1599 9.00774 17.209 9.0117C17.2582 9.01567 17.3076 9.00967 17.3544 8.99407C17.4012 8.97848 17.4444 8.9536 17.4813 8.92093C17.5183 8.88826 17.5483 8.84847 17.5695 8.80395C17.5907 8.75942 17.6027 8.71107 17.6048 8.66179C17.6069 8.61252 17.599 8.56332 17.5817 8.51716L16.115 4.11716C16.0906 4.04433 16.0439 3.98102 15.9815 3.93617C15.9191 3.89132 15.8442 3.86719 15.7674 3.86719C15.6906 3.86719 15.6157 3.89132 15.5533 3.93617C15.491 3.98102 15.4443 4.04433 15.4198 4.11716L13.9532 8.51716C13.9358 8.56332 13.9279 8.61252 13.93 8.66179C13.9321 8.71107 13.9441 8.75942 13.9653 8.80395C13.9866 8.84847 14.0165 8.88826 14.0535 8.92093C14.0904 8.9536 14.1336 8.97848 14.1804 8.99407C14.2272 9.00967 14.2767 9.01567 14.3258 9.0117C14.375 9.00774 14.4228 8.9939 14.4665 8.97101C14.5102 8.94812 14.5488 8.91665 14.5801 8.87848C14.6113 8.84032 14.6345 8.79624 14.6484 8.74889L15.7704 5.40049Z" fill="#BDC1DF"/>
<path fill-rule="evenodd" clip-rule="evenodd" d="M16.1135 4.11755L17.5801 8.51755C17.5975 8.56371 17.6054 8.61291 17.6033 8.66218C17.6012 8.71146 17.5892 8.75981 17.5679 8.80434C17.5467 8.84886 17.5167 8.88865 17.4798 8.92132C17.4428 8.95399 17.3997 8.97887 17.3529 8.99446C17.3061 9.01006 17.2566 9.01606 17.2075 9.01209C17.1583 9.00813 17.1104 8.99429 17.0668 8.9714C17.0231 8.94851 16.9844 8.91704 16.9532 8.87887C16.922 8.84071 16.8987 8.79663 16.8849 8.74928L15.7688 5.40088L14.6468 8.74928C14.633 8.79663 14.6098 8.84071 14.5785 8.87887C14.5473 8.91704 14.5087 8.94851 14.465 8.9714C14.4213 8.99429 14.3734 9.00813 14.3243 9.01209C14.2751 9.01606 14.2256 9.01006 14.1788 8.99446C14.132 8.97887 14.0889 8.95399 14.0519 8.92132C14.015 8.88865 13.985 8.84886 13.9638 8.80434C13.9426 8.75981 13.9306 8.71146 13.9285 8.66218C13.9264 8.61291 13.9342 8.56371 13.9516 8.51755L15.4183 4.11755C15.4427 4.04472 15.4894 3.98141 15.5518 3.93656C15.6142 3.89171 15.689 3.86758 15.7659 3.86758C15.8427 3.86758 15.9176 3.89171 15.9799 3.93656C16.0423 3.98141 16.089 4.04472 16.1135 4.11755ZM13.8573 8.48423L15.3234 4.08592C15.3545 3.99323 15.414 3.91246 15.4934 3.85537C15.5728 3.79829 15.6681 3.76758 15.7659 3.76758C15.8636 3.76758 15.9589 3.79829 16.0383 3.85537C16.1177 3.91246 16.1771 3.99303 16.2083 4.08572L17.6744 8.48423C17.696 8.54244 17.7058 8.60438 17.7032 8.66643C17.7005 8.72915 17.6852 8.79068 17.6582 8.84735C17.6312 8.90402 17.593 8.95466 17.546 8.99624C17.499 9.03782 17.4441 9.06948 17.3845 9.08933C17.3249 9.10918 17.262 9.11681 17.1994 9.11177C17.1369 9.10673 17.0759 9.08911 17.0203 9.05998C16.9647 9.03084 16.9156 8.99079 16.8758 8.94221C16.8365 8.89416 16.8071 8.83874 16.7895 8.7792L15.7685 5.71636L14.7422 8.77929C14.7246 8.83879 14.6952 8.89418 14.6559 8.94221C14.6161 8.99079 14.567 9.03084 14.5114 9.05998C14.4558 9.08911 14.3949 9.10673 14.3323 9.11177C14.2697 9.11681 14.2068 9.10918 14.1472 9.08933C14.0877 9.06948 14.0327 9.03782 13.9857 8.99624C13.9387 8.95466 13.9005 8.90402 13.8735 8.84735C13.8465 8.79068 13.8312 8.72915 13.8285 8.66643C13.8259 8.60438 13.8357 8.54244 13.8573 8.48423Z" fill="#BDC1DF"/>
<path fill-rule="evenodd" clip-rule="evenodd" d="M14.668 6.79883H16.868V7.53216H14.668V6.79883Z" fill="#BDC1DF"/>
<path fill-rule="evenodd" clip-rule="evenodd" d="M14.5664 6.69922H16.9664V7.63255H14.5664V6.69922ZM14.6664 6.79922V7.53255H16.8664V6.79922H14.6664Z" fill="#BDC1DF"/>
</svg>
