<svg width="53" height="51" viewBox="0 0 53 51" fill="none" xmlns="http://www.w3.org/2000/svg">
<path d="M24.1374 12.1923L23.0809 9.96823C22.5654 8.88299 21.6701 8.02423 20.5643 7.55432L19.7599 7.21256L14.8537 4.35611L13.5508 1.29927C13.2149 0.511355 12.4412 0 11.5846 0H11.5783C10.3195 0 9.18522 0.760002 8.70657 1.92429C8.52174 2.37397 8.4266 2.85539 8.4266 3.3416V6.7141C8.4266 7.74852 8.64904 8.77092 9.07879 9.71181L9.81962 11.3337C10.0032 11.7355 9.70947 12.1926 9.26768 12.1926H3.02637C1.35499 12.1923 0 13.5473 0 15.2188C0 16.1828 0.450952 17.0411 1.15332 17.5952C1.38652 17.7792 1.41177 18.1193 1.21383 18.3407C0.76927 18.8377 0.498785 19.4936 0.498785 20.2129C0.498785 21.1616 0.968912 22 1.68875 22.5089C1.95817 22.6994 2.04904 23.0649 1.86879 23.3412C1.6015 23.7512 1.44607 24.2407 1.44607 24.7665C1.44607 26.0152 2.32209 27.0588 3.49288 27.3173C3.57661 27.3359 3.63488 27.4121 3.63488 27.4978C3.63488 27.5646 3.59717 27.6248 3.53858 27.6571C2.71743 28.1098 2.1657 28.9908 2.18594 29.9994C2.21481 31.4316 3.42768 32.5584 4.86033 32.5584H25.5914V17.2784L24.1374 12.1923Z" fill="#FFDFCF"/>
<path d="M8.58035 29.7507C7.7968 29.7507 7.04756 29.4765 6.41156 29.0188C6.40911 29.0171 6.40666 29.0153 6.40421 29.0136C5.73551 28.5409 5.2983 27.7632 5.2983 26.8819C5.2983 26.356 5.45362 25.8665 5.72091 25.4567C5.90106 25.1803 5.81018 24.8147 5.54076 24.6242C4.82093 24.1153 4.3508 23.2769 4.3508 22.3282C4.3508 21.6125 4.61862 20.9595 5.05924 20.4634C5.25739 20.2403 5.2396 19.8953 5.00533 19.7104C4.31586 19.1665 3.86853 18.3292 3.85255 17.3865C3.82357 15.6845 5.24098 14.3076 6.94326 14.3076H11.3377C12.6227 14.3076 13.4527 12.9784 12.9222 11.8081C12.4981 10.8724 12.2786 9.85682 12.2786 8.82931V5.45671C12.2786 4.9706 12.3738 4.48908 12.5586 4.0394C12.8494 3.33192 13.3833 2.77508 14.0392 2.446L13.5476 1.29279C13.2145 0.511053 12.4476 -0.0033922 11.5979 1.68402e-05C10.364 0.00491733 9.22923 0.721454 8.7362 1.85325C8.53155 2.32306 8.42619 2.82973 8.42619 3.34151V6.71411C8.42619 7.74854 8.64863 8.77083 9.07839 9.71172L9.81921 11.3336C10.0028 11.7354 9.70906 12.1925 9.26727 12.1925H3.09116C1.38877 12.1925 -0.0287469 13.5695 0.000442917 15.2716C0.0165293 16.2142 0.463859 17.0513 1.15334 17.5952C1.3876 17.7801 1.40539 18.1251 1.20724 18.3482C0.766624 18.8442 0.498801 19.4971 0.498801 20.2129C0.498801 21.1616 0.968929 21.9999 1.68877 22.5089C1.95819 22.6994 2.04906 23.065 1.86881 23.3414C1.60152 23.7513 1.44619 24.2408 1.44619 24.7667C1.44619 26.0153 2.32221 27.0589 3.493 27.3175C3.57673 27.336 3.63501 27.4122 3.63501 27.4979C3.63501 27.5647 3.59729 27.6249 3.5387 27.6572C3.39627 27.7357 3.26353 27.8289 3.13921 27.932C3.13899 27.9313 3.13878 27.9308 3.13857 27.9301C2.5488 28.4158 2.17509 29.154 2.18574 29.9802C2.20438 31.4198 3.41928 32.5585 4.85906 32.5585H25.5915V29.7507H8.58035Z" fill="#FFCEBF"/>
<path d="M27.897 23.5299V34.0223H24.1758V23.4276V11.5109C24.1758 10.3156 25.1452 9.34619 26.3405 9.34619H27.897V23.5299Z" fill="#A2E62E"/>
<path d="M35.1109 10.2555V34.0218H27.8965V23.5294V9.3457H34.2C34.7028 9.3457 35.1109 9.75266 35.1109 10.2555Z" fill="#BBEC6C"/>
<path d="M28.8612 48.3235L30.4767 49.277C31.0981 49.6438 31.8065 49.8372 32.5281 49.8372H44.2556H48.1383C49.5708 49.8372 50.7838 48.7104 50.8127 47.2782C50.833 46.2696 50.2812 45.3886 49.46 44.9359C49.4014 44.9036 49.3637 44.8434 49.3637 44.7766C49.3637 44.6909 49.422 44.6147 49.5057 44.5962C50.6765 44.3375 51.5525 43.2939 51.5525 42.0453C51.5525 41.5195 51.3972 41.03 51.1298 40.62C50.9496 40.3437 51.0405 39.9781 51.3098 39.7877C52.0297 39.2788 52.4998 38.4404 52.4998 37.4917C52.4998 36.7724 52.2293 36.1165 51.7848 35.6195C51.5867 35.3982 51.6121 35.058 51.8453 34.874C52.5476 34.3199 52.9986 33.4616 52.9986 32.4976C52.9986 30.8262 51.6436 29.4712 49.9722 29.4712H43.7309C43.2891 29.4712 42.9954 29.0142 43.179 28.6123L43.9198 26.9905C44.3496 26.0496 44.572 25.0272 44.572 23.9928V20.6203C44.572 20.1342 44.4769 19.6527 44.292 19.203C43.8134 18.0388 42.6791 17.2788 41.4203 17.2788H41.4139C40.5574 17.2788 39.7836 17.7902 39.4478 18.5781L38.1449 21.6349L33.2388 24.4914L32.4344 24.8331C31.3286 25.303 30.4333 26.1618 29.9178 27.247L28.8613 29.4711L25.5898 35.5388V46.0889L28.8612 48.3235Z" fill="#FFDFCF"/>
<path d="M28.4443 37.8116L31.7158 31.744L32.7723 29.5199C33.2878 28.4347 34.1831 27.5759 35.2889 27.106L36.0932 26.7642L40.9993 23.9078L42.3022 20.8509C42.6381 20.063 43.4119 19.5517 44.2684 19.5517H44.2748C44.3225 19.5517 44.3696 19.5549 44.4169 19.557C44.3812 19.4372 44.3398 19.319 44.292 19.203C43.8134 18.0388 42.6791 17.2788 41.4203 17.2788H41.4139C40.5574 17.2788 39.7837 17.7902 39.4478 18.5781L38.1449 21.6349L33.2388 24.4914L32.4344 24.8331C31.3286 25.303 30.4333 26.1618 29.9178 27.247L28.8613 29.4711L25.5898 35.5388V46.0889L28.4443 48.0385V37.8116Z" fill="#FFCEBF"/>
<path d="M48.1296 46.8654H44.247H32.5196C31.7979 46.8654 31.0896 46.672 30.4682 46.3052L28.8527 45.3517L25.5898 43.123V46.0887L28.8613 48.3233L30.4768 49.2769C31.0982 49.6437 31.8066 49.8371 32.5282 49.8371H44.2557H48.1384C49.5709 49.8371 50.7839 48.7104 50.8128 47.2781C50.8244 46.6987 50.6466 46.1618 50.338 45.7236C49.8513 46.4155 49.0345 46.8654 48.1296 46.8654Z" fill="#FFCEBF"/>
<path d="M26.6593 26.6235H25.1029L22.1816 30.0747V48.7811L25.1029 50.8362H26.6593C27.8546 50.8362 28.824 49.8668 28.824 48.6715V28.7893C28.824 27.593 27.8546 26.6235 26.6593 26.6235Z" fill="#FE646F"/>
<path d="M26.6593 46.4807H25.1029L22.1816 44.4255V48.7813L25.1029 50.8364H26.6593C27.8546 50.8364 28.824 49.867 28.824 48.6717V44.3159C28.824 45.5112 27.8546 46.4807 26.6593 46.4807Z" fill="#FD4755"/>
<path d="M25.103 26.6235V50.8362H18.7995C18.2967 50.8362 17.8887 50.4293 17.8887 49.9254V27.5344C17.8887 27.0316 18.2967 26.6235 18.7995 26.6235H25.103Z" fill="#FD8087"/>
<path d="M17.8867 45.5693V49.9251C17.8867 50.429 18.2947 50.836 18.7976 50.836H25.1011V46.4802H18.7976C18.2947 46.4802 17.8867 46.0732 17.8867 45.5693Z" fill="#FE646F"/>
<path d="M46.1747 5.69998C45.6012 5.34086 45.118 4.87776 44.7307 4.30451C44.5066 3.97298 44.0143 4.00334 43.8251 4.35586C43.513 4.93763 43.0241 5.39988 42.3568 5.74302C41.9967 5.92817 41.9707 6.43228 42.3092 6.65429C42.877 7.02673 43.3524 7.51081 43.7287 8.11507C43.937 8.44958 44.4189 8.44446 44.6289 8.11102C45.0117 7.50336 45.5288 6.99946 46.1777 6.5973C46.5106 6.39084 46.5068 5.90793 46.1747 5.69998Z" fill="#FEF056"/>
<path d="M9.11302 40.1245C8.28239 39.6043 7.58247 38.9336 7.02137 38.1033C6.69687 37.623 5.98374 37.667 5.70974 38.1777C5.25762 39.0203 4.5495 39.69 3.58293 40.187C3.06145 40.4551 3.02363 41.1853 3.514 41.5069C4.33643 42.0463 5.02516 42.7475 5.57018 43.6226C5.87188 44.1071 6.56988 44.0997 6.87403 43.6168C7.42843 42.7366 8.17746 42.0067 9.11729 41.4242C9.59956 41.1252 9.59391 40.4257 9.11302 40.1245Z" fill="#FEDF30"/>
</svg>
