<svg width="16" height="16" viewBox="0 0 16 16" fill="none" xmlns="http://www.w3.org/2000/svg">
<path d="M0.699219 5.50508H4.23555V15.3836H0.699219V5.50508ZM11.7293 5.49219C9.20703 5.49219 8.78594 6.87578 8.78594 6.87578V5.50508H6.05742V15.3836H8.81602V9.68594C8.81602 8.87812 9.28438 7.8125 10.7711 7.8125C12.2578 7.8125 12.434 9.26484 12.4168 9.44102C12.3996 9.61719 12.3824 15.3793 12.3824 15.3793H15.2957V8.52578C15.3 6.3043 13.809 5.49219 11.7293 5.49219Z" fill="#BDC1DF"/>
<path d="M2.46523 4.14922C3.44058 4.14922 4.23125 3.35855 4.23125 2.3832C4.23125 1.40786 3.44058 0.617188 2.46523 0.617188C1.48989 0.617188 0.699219 1.40786 0.699219 2.3832C0.699219 3.35855 1.48989 4.14922 2.46523 4.14922Z" fill="#BDC1DF"/>
</svg>
