<svg width="18" height="24" viewBox="0 0 18 24" fill="none" xmlns="http://www.w3.org/2000/svg">
<path d="M8.98442 12.1127C12.9884 12.0759 13.0828 6.20946 9.08282 6.04306C8.72042 6.00306 8.38122 6.26786 8.38442 6.64306C8.38442 6.97426 8.65322 7.24306 8.98442 7.24306C11.4044 7.30386 11.4044 10.8527 8.98442 10.9135C8.49769 10.9135 8.0309 10.7201 7.68674 10.3759C7.34257 10.0318 7.14922 9.56498 7.14922 9.07826C7.14922 8.91913 7.08601 8.76651 6.97348 8.65399C6.86096 8.54147 6.70835 8.47826 6.54922 8.47826C6.39009 8.47826 6.23748 8.54147 6.12495 8.65399C6.01243 8.76651 5.94922 8.91913 5.94922 9.07826C5.9507 9.88271 6.27098 10.6538 6.83989 11.2225C7.40881 11.7913 8.17996 12.1114 8.98442 12.1127Z" fill="#5A6AE8"/>
<path d="M4.18949 16.5358C5.42309 17.1694 6.41669 19.0806 7.16469 20.1878C7.96389 21.4774 10.0111 21.4974 10.8039 20.1902C11.6479 18.9622 12.4439 17.2862 13.7847 16.5286C17.9095 13.8758 19.1031 8.38136 16.4503 4.25656C13.7975 0.131755 8.30309 -1.06184 4.17829 1.59096C-1.22571 4.90296 -1.19371 13.2302 4.18949 16.5358ZM2.51029 4.95415C6.61589 -1.42345 16.6167 1.42935 16.6631 9.05015C16.6673 10.3378 16.3465 11.6057 15.7305 12.7364C15.1145 13.8671 14.2232 14.8242 13.1391 15.519C12.3686 15.9953 11.7084 16.6302 11.2023 17.3814L9.80149 19.5334C9.44789 20.1166 8.52469 20.1182 8.17029 19.535C7.30549 18.227 6.26709 16.2886 4.83909 15.5246C1.27749 13.2486 0.234288 8.51576 2.51029 4.95415Z" fill="#5A6AE8"/>
<path d="M14.3359 18.7413C13.9655 18.4733 13.3511 18.1981 13.0695 18.7357C13.0314 18.8076 13.0083 18.8865 13.0016 18.9675C12.9949 19.0486 13.0047 19.1302 13.0305 19.2073C13.0563 19.2845 13.0976 19.3556 13.1517 19.4163C13.2059 19.477 13.2718 19.5261 13.3455 19.5605C16.2031 20.9749 12.8783 22.5893 8.9855 22.6261C5.6551 22.6261 3.5295 21.4701 3.5295 20.6741C3.5263 19.9077 4.9463 19.7533 4.4631 18.9237C3.6647 17.9541 2.2655 19.8213 2.3303 20.6685C2.3303 22.4653 5.1919 23.8205 8.9863 23.8205C12.7807 23.8205 15.6423 22.4653 15.6423 20.6685C15.615 20.2603 15.4796 19.8667 15.25 19.5281C15.0205 19.1894 14.705 18.9179 14.3359 18.7413Z" fill="#5A6AE8"/>
</svg>
