<svg width="16" height="16" viewBox="0 0 16 16" fill="none" xmlns="http://www.w3.org/2000/svg">
<path d="M7.99222 8.07494C10.6615 8.05041 10.7245 4.13947 8.05782 4.02854C7.81622 4.00187 7.59008 4.17841 7.59222 4.42854C7.59222 4.64934 7.77142 4.82854 7.99222 4.82854C9.60555 4.86907 9.60555 7.23494 7.99222 7.27548C7.66773 7.27548 7.35654 7.14657 7.12709 6.91713C6.89765 6.68769 6.76875 6.37649 6.76875 6.05201C6.76875 5.94592 6.72661 5.84418 6.65159 5.76917C6.57658 5.69415 6.47484 5.65201 6.36875 5.65201C6.26266 5.65201 6.16092 5.69415 6.08591 5.76917C6.01089 5.84418 5.96875 5.94592 5.96875 6.05201C5.96974 6.58831 6.18326 7.10236 6.56253 7.48154C6.94181 7.86071 7.45591 8.0741 7.99222 8.07494Z" fill="#828ABA"/>
<path d="M4.79429 11.0238C5.61669 11.4462 6.27909 12.7204 6.77776 13.4585C7.31056 14.3182 8.67536 14.3316 9.20389 13.4601C9.76656 12.6414 10.2972 11.5241 11.1911 11.019C13.941 9.2505 14.7367 5.58757 12.9682 2.8377C11.1996 0.0878367 7.53669 -0.707897 4.78683 1.06064C1.18416 3.26864 1.20549 8.8201 4.79429 11.0238ZM3.67483 3.30277C6.41189 -0.948964 13.0791 0.952903 13.11 6.03344C13.1128 6.89186 12.899 7.73711 12.4883 8.49094C12.0777 9.24477 11.4834 9.8828 10.7607 10.346C10.2471 10.6635 9.80691 11.0868 9.46949 11.5876L8.53563 13.0222C8.29989 13.411 7.68443 13.4121 7.44816 13.0233C6.87163 12.1513 6.17936 10.859 5.22736 10.3497C2.85296 8.83237 2.15749 5.67717 3.67483 3.30277Z" fill="#828ABA"/>
<path d="M11.5599 12.4942C11.3129 12.3156 10.9033 12.1321 10.7156 12.4905C10.6902 12.5384 10.6748 12.591 10.6703 12.645C10.6658 12.6991 10.6724 12.7535 10.6896 12.8049C10.7068 12.8563 10.7343 12.9037 10.7704 12.9442C10.8065 12.9847 10.8505 13.0174 10.8996 13.0404C12.8047 13.9833 10.5881 15.0596 7.99294 15.0841C5.77267 15.0841 4.3556 14.3134 4.3556 13.7828C4.35347 13.2718 5.30014 13.1689 4.978 12.6158C4.44574 11.9694 3.51294 13.2142 3.55614 13.779C3.55614 14.9769 5.46387 15.8804 7.99347 15.8804C10.5231 15.8804 12.4308 14.9769 12.4308 13.779C12.4126 13.5069 12.3223 13.2445 12.1693 13.0187C12.0162 12.7929 11.8059 12.6119 11.5599 12.4942Z" fill="#828ABA"/>
</svg>
