<svg width="27" height="27" viewBox="0 0 27 27" fill="none" xmlns="http://www.w3.org/2000/svg">
<path d="M22.6583 17.7793H16.2975C15.4453 19.1276 14.5103 20.4218 13.498 21.6544C12.4856 20.4218 11.5506 19.1276 10.6984 17.7793H4.33757L1.32812 25.6694H25.6678L22.6583 17.7793Z" fill="#DFEEF4"/>
<path d="M13.5015 1.33008C11.7835 1.33013 10.1358 2.01264 8.92099 3.22747C7.70617 4.4423 7.02366 6.08994 7.0236 7.80797C6.98563 13.9884 13.5015 21.6539 13.5015 21.6539C13.5015 21.6539 20.0174 13.9884 19.9794 7.80797C19.9793 6.08994 19.2968 4.4423 18.082 3.22747C16.8672 2.01264 15.2195 1.33013 13.5015 1.33008ZM13.5015 10.5565C12.9579 10.5565 12.4265 10.3953 11.9745 10.0933C11.5225 9.79127 11.1702 9.36201 10.9622 8.85978C10.7542 8.35755 10.6997 7.80492 10.8058 7.27176C10.9118 6.7386 11.1736 6.24886 11.558 5.86448C11.9424 5.48009 12.4321 5.21832 12.9653 5.11227C13.4984 5.00621 14.0511 5.06064 14.5533 5.26867C15.0555 5.4767 15.4848 5.82898 15.7868 6.28098C16.0888 6.73297 16.25 7.26436 16.25 7.80797C16.2501 8.16895 16.1791 8.52642 16.0411 8.85994C15.903 9.19347 15.7005 9.49652 15.4453 9.75177C15.19 10.007 14.887 10.2095 14.5535 10.3475C14.2199 10.4856 13.8625 10.5566 13.5015 10.5565Z" fill="#F45858"/>
<path d="M23.3558 19.6081L11.21 23.9281L6.47656 17.7793H10.6974C11.5494 19.1276 12.4843 20.4217 13.4966 21.6542C14.5089 20.4217 15.4437 19.1276 16.2957 17.7793H22.6576L23.3558 19.6081Z" fill="#F2DA30"/>
<path d="M6.32031 25.6691L18.3429 21.3926L21.6344 25.6691H6.32031Z" fill="#3EA2E5"/>
</svg>
