<svg width="22" height="22" viewBox="0 0 22 22" fill="none" xmlns="http://www.w3.org/2000/svg">
<path d="M10.8012 10.0936C10.439 10.0936 10.1387 9.79332 10.1387 9.43115V6.48965C10.1387 6.12748 10.439 5.82715 10.8012 5.82715C11.1633 5.82715 11.4637 6.12748 11.4637 6.48965V9.43115C11.4637 9.80215 11.1633 10.0936 10.8012 10.0936Z" fill="#5A6AE8"/>
<path d="M10.8185 18.777C8.53954 18.777 6.26938 18.4148 4.10521 17.6905C3.30138 17.4255 2.69188 16.8513 2.42688 16.127C2.16188 15.4027 2.25021 14.5723 2.68304 13.848L3.80488 11.9753C4.05221 11.5602 4.27304 10.7828 4.27304 10.297V8.44199C4.27304 4.82915 7.20571 1.89648 10.8185 1.89648C14.4314 1.89648 17.364 4.82915 17.364 8.44199V10.297C17.364 10.774 17.5849 11.5602 17.8322 11.9753L18.954 13.848C19.3692 14.537 19.4399 15.3585 19.166 16.1093C18.8922 16.8602 18.2915 17.4343 17.5319 17.6905C15.3677 18.4237 13.0975 18.777 10.8185 18.777ZM10.8185 3.23032C7.93888 3.23032 5.59804 5.57115 5.59804 8.45082V10.3058C5.59804 11.0213 5.31538 12.0548 4.94438 12.6643L3.82254 14.5458C3.59288 14.9257 3.53988 15.332 3.67238 15.6853C3.80488 16.0387 4.10521 16.3037 4.52921 16.445C8.59254 17.7965 13.0622 17.7965 17.1255 16.445C17.5054 16.3213 17.7969 16.0387 17.9294 15.6677C18.0707 15.2967 18.0265 14.8903 17.8234 14.5458L16.7015 12.6732C16.3305 12.0637 16.0479 11.0302 16.0479 10.3147V8.45965C16.039 5.57115 13.6982 3.23032 10.8185 3.23032Z" fill="#5A6AE8"/>
<path d="M10.7993 21.0288C9.85415 21.0288 8.92665 20.6401 8.25531 19.9688C7.58398 19.2975 7.19531 18.37 7.19531 17.4248H8.52031C8.52031 18.0255 8.76765 18.6085 9.19165 19.0325C9.61565 19.4565 10.1986 19.7038 10.7993 19.7038C12.0536 19.7038 13.0783 18.6791 13.0783 17.4248H14.4033C14.4033 19.4123 12.7868 21.0288 10.7993 21.0288Z" fill="#5A6AE8"/>
</svg>
