<svg width="16" height="16" viewBox="0 0 16 16" fill="none" xmlns="http://www.w3.org/2000/svg">
<path d="M1.33334 11.3337H14.6667V12.667H1.33334V11.3337ZM2.10001 8.63366L2.66667 7.64699L3.23334 8.63366L4.10001 8.13366L3.53334 7.14699H4.66667V6.14699H3.53334L4.10001 5.16699L3.23334 4.66699L2.66667 5.64699L2.10001 4.66699L1.23334 5.16699L1.80001 6.14699H0.666672V7.14699H1.80001L1.23334 8.13366L2.10001 8.63366ZM6.56667 8.13366L7.43334 8.63366L8.00001 7.64699L8.56667 8.63366L9.43334 8.13366L8.86667 7.14699H10V6.14699H8.86667L9.43334 5.16699L8.56667 4.66699L8.00001 5.64699L7.43334 4.66699L6.56667 5.16699L7.13334 6.14699H6.00001V7.14699H7.13334L6.56667 8.13366ZM15.3333 6.14699H14.2L14.7667 5.16699L13.9 4.66699L13.3333 5.64699L12.7667 4.66699L11.9 5.16699L12.4667 6.14699H11.3333V7.14699H12.4667L11.9 8.13366L12.7667 8.63366L13.3333 7.64699L13.9 8.63366L14.7667 8.13366L14.2 7.14699H15.3333V6.14699Z" fill="#828ABA"/>
</svg>
