<svg width="29" height="30" viewBox="0 0 29 30" fill="cuurentColor" xmlns="http://www.w3.org/2000/svg">
<path d="M13.6853 9.27776L11.2667 6.34296C11.1478 6.19796 10.9767 6.10806 10.7911 6.09066C10.6055 6.07036 10.4199 6.12836 10.2778 6.24726L7.37775 8.63686C6.08435 9.70116 5.89875 11.621 6.96305 12.9115L15.2948 23.0267C15.8951 23.7546 16.7651 24.1316 17.6409 24.1316C18.3195 24.1316 19.0039 23.9054 19.5694 23.4414L22.4694 21.0518C22.7681 20.8053 22.8116 20.3616 22.5651 20.0629L20.1465 17.1281C20.0073 16.957 19.7985 16.8613 19.5723 16.8729C17.7801 16.9512 16.0923 16.203 14.9526 14.8168C13.8129 13.4306 13.4011 11.6355 13.8216 9.88966C13.8767 9.67506 13.8245 9.44886 13.6853 9.27776ZM13.8709 15.71C15.2194 17.3456 17.174 18.2707 19.2794 18.2823L21.0339 20.4138L18.6762 22.3568C17.9802 22.9281 16.9507 22.8295 16.3765 22.1335L8.04765 12.0212C7.47635 11.3252 7.57495 10.2957 8.27095 9.72146L10.6287 7.77846L12.3832 9.90996C11.9917 11.9777 12.5253 14.0715 13.8709 15.71Z" fill="cuurentColor"/>
</svg>
