<svg width="18" height="18" viewBox="0 0 18 18" fill="none" xmlns="http://www.w3.org/2000/svg">
<path d="M8.99593 1.23679C0.934932 1.21759 -2.92727 11.2574 3.04033 16.6508C3.27193 16.8716 3.68533 16.757 3.77053 16.4486C5.10553 13.145 10.3483 12.9542 12.9631 14.8028C13.5448 15.2032 13.9816 15.7806 14.2087 16.4492C14.2445 16.563 14.324 16.658 14.4297 16.7133C14.5355 16.7685 14.6589 16.7795 14.7727 16.7438C15.7615 16.3256 14.0347 14.3864 13.4947 14.0798C10.3837 11.969 5.33053 12.182 3.18313 15.5336C-3.71327 7.54639 7.28953 -2.74061 14.7955 4.67479C17.0155 7.00159 17.5825 10.6754 16.1479 13.5572C15.9079 14.078 16.6945 14.4632 16.9573 13.9502C19.8451 8.27419 15.3871 1.09999 8.99593 1.23679Z" fill="#5A6AE8"/>
<path d="M5.77966 7.88782C5.91046 12.131 12.0695 12.1298 12.1997 7.88782C12.0677 3.64462 5.91406 3.64762 5.77966 7.88782ZM11.2997 7.88782C11.2223 10.9346 6.75646 10.934 6.67966 7.88782C6.75826 4.84102 11.2199 4.84342 11.2997 7.88782Z" fill="#5A6AE8"/>
</svg>
