<svg width="20" height="20" viewBox="0 0 20 20" fill="none" xmlns="http://www.w3.org/2000/svg">
<path d="M8.42394 15.1249H5.26562C4.92396 15.1249 4.64062 14.8415 4.64062 14.4999V10.2332C4.64062 9.36655 5.34895 8.6582 6.21561 8.6582H8.42394C8.76561 8.6582 9.04894 8.94154 9.04894 9.2832V14.4915C9.04894 14.8415 8.76561 15.1249 8.42394 15.1249ZM5.89062 13.8749H7.79894V9.91654H6.21561C6.04061 9.91654 5.89062 10.0582 5.89062 10.2415V13.8749Z" fill="#5A6AE8"/>
<path d="M11.5763 15.125H8.41797C8.0763 15.125 7.79297 14.8417 7.79297 14.5V6.45001C7.79297 5.58335 8.50129 4.875 9.36796 4.875H10.6346C11.5013 4.875 12.2096 5.58335 12.2096 6.45001V14.5C12.2013 14.8417 11.9263 15.125 11.5763 15.125ZM9.05128 13.875H10.9596V6.45001C10.9596 6.27501 10.818 6.125 10.6346 6.125H9.36796C9.19296 6.125 9.04297 6.26668 9.04297 6.45001V13.875H9.05128Z" fill="#5A6AE8"/>
<path d="M14.7325 15.1247H11.5742C11.2326 15.1247 10.9492 14.8414 10.9492 14.4997V10.708C10.9492 10.3663 11.2326 10.083 11.5742 10.083H13.7825C14.6492 10.083 15.3575 10.7914 15.3575 11.658V14.4997C15.3575 14.8414 15.0825 15.1247 14.7325 15.1247ZM12.1992 13.8747H14.1075V11.658C14.1075 11.483 13.9659 11.333 13.7825 11.333H12.1992V13.8747Z" fill="#5A6AE8"/>
<path d="M12.5013 18.9587H7.5013C2.9763 18.9587 1.04297 17.0253 1.04297 12.5003V7.50033C1.04297 2.97533 2.9763 1.04199 7.5013 1.04199H12.5013C17.0263 1.04199 18.9596 2.97533 18.9596 7.50033V12.5003C18.9596 17.0253 17.0263 18.9587 12.5013 18.9587ZM7.5013 2.29199C3.65964 2.29199 2.29297 3.65866 2.29297 7.50033V12.5003C2.29297 16.342 3.65964 17.7087 7.5013 17.7087H12.5013C16.343 17.7087 17.7096 16.342 17.7096 12.5003V7.50033C17.7096 3.65866 16.343 2.29199 12.5013 2.29199H7.5013Z" fill="#5A6AE8"/>
</svg>
