<svg width="17" height="17" viewBox="0 0 17 17" fill="none" xmlns="http://www.w3.org/2000/svg">
<path d="M2.00556 1.60035C1.70966 1.67101 1.50831 1.99613 1.61297 2.29098C1.61297 2.29098 6.12063 15.0628 6.12222 15.0649C6.195 15.2609 6.382 15.4049 6.5961 15.4155C6.80169 15.4251 7.01578 15.2981 7.10291 15.1106L9.41225 10.1636C9.41225 10.1636 7.00197 7.75329 6.99772 7.74904C6.5196 7.27092 7.2591 6.50751 7.74891 6.99785L10.1634 9.41239C10.1634 9.41239 15.1051 7.10623 15.1131 7.10198C15.2937 7.00795 15.4085 6.82413 15.4175 6.62226C15.4276 6.40285 15.2597 6.19992 15.0632 6.12129C15.0632 6.12129 2.29881 1.61629 2.29085 1.61364C2.19894 1.58017 2.0996 1.57804 2.00556 1.60035Z" fill="white"/>
</svg>
