<svg width="20" height="20" viewBox="0 0 20 20" fill="none" xmlns="http://www.w3.org/2000/svg">
<g clip-path="url(#clip0_3585_74571)">
<path d="M19.7419 5.33391C19.7081 4.54265 19.6598 3.75207 19.5972 2.96257C19.5526 2.29973 19.2691 1.67556 18.7993 1.20579C18.3296 0.736028 17.7054 0.452544 17.0425 0.407906C14.8639 0.111906 5.14721 0.108573 2.96788 0.40724C0.303208 0.711906 0.271208 3.19791 0.296542 5.47124C0.345875 5.68457 0.559208 5.82057 0.768542 5.83324H18.7625C18.9185 8.62124 18.8032 15.2426 18.6012 16.9566C18.5719 17.3817 18.3898 17.7819 18.0885 18.0832C17.7872 18.3845 17.387 18.5666 16.9619 18.5959C14.8185 18.8892 5.19254 18.8886 3.04854 18.5959C2.62345 18.5669 2.22328 18.3848 1.92212 18.0834C1.62096 17.782 1.43922 17.3817 1.41054 16.9566C1.23454 14.6919 1.17321 12.4459 1.17188 9.99991C1.17188 9.47924 1.17521 8.98457 1.18121 8.51324L1.18654 8.06057C1.18725 7.9944 1.17484 7.92875 1.15005 7.86739C1.12525 7.80604 1.08855 7.7502 1.04207 7.7031C0.995591 7.656 0.940243 7.61856 0.879223 7.59296C0.818203 7.56735 0.752717 7.55408 0.686542 7.55391C0.146542 7.57457 0.170542 8.09791 0.181208 8.50257C0.174542 8.97657 0.171875 9.47591 0.171875 9.99991C0.174542 12.4712 0.232542 14.7479 0.412542 17.0372C0.464761 17.6975 0.75077 18.3175 1.21916 18.7857C1.68755 19.254 2.30761 19.5399 2.96788 19.5919C5.14721 19.8879 14.8632 19.8912 17.0425 19.5919C17.7029 19.5402 18.3231 19.2545 18.7914 18.7861C19.2598 18.3178 19.5455 17.6976 19.5972 17.0372C19.8165 15.2032 19.9212 8.12791 19.7419 5.33391ZM1.29321 4.83324C1.35787 3.34591 1.25587 1.57791 3.04854 1.40391C4.38521 1.29591 6.67721 1.16657 10.0052 1.16657C13.3332 1.16657 15.6285 1.29591 16.9619 1.40391C18.7565 1.58991 18.6472 3.31857 18.7172 4.83324H1.29321Z" fill="#BDC1DF"/>
<path d="M3.8907 2.49429C3.0827 2.56895 3.1907 3.79295 3.99804 3.72829C4.80537 3.65295 4.69737 2.42962 3.8907 2.49429ZM6.7247 2.49295C5.9167 2.56829 6.0267 3.79495 6.83337 3.72829C7.6407 3.65362 7.5327 2.42495 6.7247 2.49295ZM16.3094 2.61095H11.806C11.1534 2.61362 11.1514 3.60829 11.806 3.61095H16.3094C16.962 3.60829 16.9647 2.61362 16.3094 2.61095Z" fill="#BDC1DF"/>
</g>
<defs>
<clipPath id="clip0_3585_74571">
<rect width="20" height="20" fill="white"/>
</clipPath>
</defs>
</svg>
