<svg width="19" height="19" viewBox="0 0 19 19" fill="none" xmlns="http://www.w3.org/2000/svg">
<path d="M9.63057 2.375C10.2607 2.375 12.3974 2.55154 13.406 4.80779C13.7433 5.567 13.6625 6.85742 13.596 7.89371L13.5944 7.93092C13.5857 8.0465 13.5802 8.151 13.5754 8.2555C13.6537 8.29718 13.7418 8.31687 13.8304 8.3125C14.0212 8.30221 14.2499 8.2365 14.4882 8.12171C14.5799 8.0763 14.6812 8.05349 14.7835 8.05521C14.8991 8.05521 15.0123 8.07342 15.1073 8.11221C15.3931 8.20721 15.5744 8.417 15.5744 8.64579C15.5847 8.93158 15.3266 9.18017 14.8025 9.38917C14.7463 9.40737 14.6687 9.43746 14.584 9.46517C14.2966 9.55146 13.8581 9.69396 13.7346 9.98054C13.6776 10.1238 13.6958 10.3138 13.8122 10.5323L13.8217 10.5426C13.8596 10.6289 14.7938 12.7553 16.8727 13.0989C16.949 13.1112 17.0181 13.1509 17.0672 13.2105C17.1163 13.2701 17.142 13.3455 17.1395 13.4227C17.1395 13.4702 17.1292 13.5169 17.111 13.566C16.9582 13.9278 16.3011 14.1954 15.1081 14.3743C15.0709 14.4321 15.0321 14.6134 15.0036 14.7377C14.9862 14.8517 14.9561 14.9665 14.9189 15.0892C14.8706 15.2618 14.7471 15.3465 14.5658 15.3465H14.5468C14.4314 15.3411 14.3167 15.3255 14.204 15.2998C13.9377 15.2423 13.6659 15.2136 13.3934 15.2143C13.2034 15.2143 13.0134 15.2238 12.8139 15.2618C12.4315 15.3282 12.0982 15.557 11.7166 15.8238C11.1727 16.2046 10.5537 16.644 9.61948 16.644C9.58148 16.644 9.54348 16.6345 9.5039 16.6345H9.40969C8.47473 16.6345 7.86515 16.2046 7.32207 15.8143C6.94128 15.5468 6.61748 15.3187 6.23511 15.2515C6.03981 15.2223 5.84276 15.2064 5.64532 15.204C5.30094 15.204 5.03494 15.261 4.83544 15.299C4.70086 15.3267 4.58686 15.3457 4.49107 15.3457C4.40758 15.352 4.32453 15.3287 4.25649 15.28C4.18845 15.2312 4.13977 15.16 4.11898 15.0789C4.08098 14.957 4.06278 14.8311 4.03428 14.7179C4.00419 14.6023 3.96698 14.4044 3.92898 14.3553C2.70744 14.2136 2.05036 13.946 1.89836 13.5747C1.87736 13.5297 1.86552 13.481 1.86353 13.4314C1.86048 13.3541 1.88599 13.2784 1.93519 13.2187C1.9844 13.1589 2.05385 13.1194 2.13032 13.1076C4.20844 12.764 5.14261 10.6384 5.1814 10.549L5.19169 10.5308C5.30648 10.3115 5.33419 10.1191 5.26769 9.97738C5.14419 9.70108 4.70482 9.55858 4.42061 9.46279C4.34499 9.44369 4.2711 9.41827 4.19973 9.38679C3.49515 9.10971 3.39936 8.79463 3.43815 8.57613C3.49515 8.27213 3.86644 8.07183 4.18153 8.07183C4.27415 8.07183 4.35332 8.09004 4.42536 8.11933C4.69215 8.24204 4.92807 8.31012 5.12836 8.31012C5.23098 8.31389 5.33279 8.29069 5.42365 8.24283L5.39119 7.88025C5.32786 6.84554 5.24711 5.55671 5.58673 4.80146C6.56523 2.55629 8.69719 2.38371 9.32657 2.38371L9.59178 2.375H9.63057Z" fill="#BDC1DF"/>
</svg>
