<svg width="16" height="16" viewBox="0 0 16 16" fill="none" xmlns="http://www.w3.org/2000/svg">
<g clip-path="url(#clip0_2132_31992)">
<path d="M9.0165 8.10645C7.2293 8.15125 7.2293 10.7704 9.01597 10.8158C10.8016 10.7694 10.8026 8.15231 9.0165 8.10645ZM8.46184 9.46165C8.47357 8.73258 9.55837 8.73151 9.57117 9.46058C9.55944 10.1896 8.47464 10.1907 8.46184 9.46165ZM6.66717 13.108C6.4805 13.5896 7.20477 13.8856 7.40797 13.4099C7.5315 13.0638 7.75526 12.7623 8.05075 12.5439C8.34624 12.3254 8.70007 12.1999 9.06717 12.1832C9.43469 12.1995 9.78905 12.3249 10.085 12.5433C10.381 12.7618 10.6052 13.0635 10.729 13.4099C10.808 13.6126 11.0538 13.7144 11.2533 13.6291C11.3514 13.589 11.4296 13.5116 11.4707 13.4139C11.5118 13.3162 11.5125 13.2062 11.4725 13.108C10.6405 10.8467 7.49864 10.8472 6.66717 13.108Z" fill="#828ABA"/>
<path d="M13.3328 3.56892H9.25175C8.9615 3.56967 8.67575 3.49725 8.42089 3.35836C8.16604 3.21946 7.9503 3.01857 7.79361 2.77425L7.24961 1.92839C7.02106 1.57093 6.70605 1.2769 6.33371 1.07348C5.96138 0.870069 5.54375 0.76385 5.11948 0.764653H2.66615C1.99452 0.7655 1.35065 1.03268 0.875744 1.50758C0.400835 1.98249 0.133659 2.62636 0.132812 3.29799V11.1039C0.138146 11.6255 0.928546 11.6287 0.932813 11.1039V3.29799C0.933377 2.83845 1.11618 2.3979 1.44112 2.07296C1.76606 1.74802 2.20661 1.56522 2.66615 1.56465H5.11948C5.40967 1.56415 5.69531 1.63673 5.95005 1.77571C6.20479 1.91469 6.42043 2.11558 6.57708 2.35985L7.12108 3.20625C7.34977 3.56362 7.66492 3.85752 8.03735 4.06075C8.40979 4.26398 8.82747 4.36998 9.25175 4.36892H13.3328C13.7923 4.36948 14.2329 4.55228 14.5578 4.87722C14.8828 5.20217 15.0656 5.64272 15.0661 6.10225V12.1705C15.0654 12.7715 14.8264 13.3476 14.4015 13.7725C13.9765 14.1974 13.4004 14.4365 12.7995 14.4372H2.86401C2.43628 14.4388 2.11201 14.0143 2.22401 13.602L3.51948 8.62439C3.6168 8.25306 3.8345 7.92447 4.13849 7.69006C4.44248 7.45565 4.81561 7.32865 5.19948 7.32892H13.8661C14.3851 7.32839 14.3925 6.53052 13.8661 6.52892H5.19948C4.63873 6.52871 4.09373 6.71444 3.6498 7.05704C3.20588 7.39963 2.88807 7.87976 2.74615 8.42225L1.44855 13.3983C1.19735 14.3071 1.91735 15.2415 2.85868 15.2351H12.7995C13.6126 15.2342 14.3921 14.9108 14.967 14.3359C15.5419 13.761 15.8653 12.9815 15.8661 12.1684V6.10225C15.8653 5.43063 15.5981 4.78676 15.1232 4.31185C14.6483 3.83694 14.0044 3.56977 13.3328 3.56892Z" fill="#828ABA"/>
</g>
<defs>
<clipPath id="clip0_2132_31992">
<rect width="16" height="16" fill="white"/>
</clipPath>
</defs>
</svg>
