<svg width="16" height="16" viewBox="0 0 16 16" fill="none" xmlns="http://www.w3.org/2000/svg">
<path d="M9.0165 8.10938C7.2293 8.15418 7.2293 10.7734 9.01597 10.8187C10.8016 10.7723 10.8026 8.15524 9.0165 8.10938ZM8.46184 9.46457C8.47357 8.73551 9.55837 8.73444 9.57117 9.46351C9.55944 10.1926 8.47464 10.1936 8.46184 9.46457ZM6.66717 13.111C6.4805 13.5926 7.20477 13.8886 7.40797 13.4128C7.5315 13.0668 7.75526 12.7653 8.05075 12.5468C8.34624 12.3284 8.70007 12.2028 9.06717 12.1862C9.43469 12.2024 9.78905 12.3278 10.085 12.5463C10.381 12.7647 10.6052 13.0664 10.729 13.4128C10.808 13.6155 11.0538 13.7174 11.2533 13.632C11.3514 13.592 11.4296 13.5146 11.4707 13.4169C11.5118 13.3192 11.5125 13.2091 11.4725 13.111C10.6405 10.8496 7.49864 10.8502 6.66717 13.111Z" fill="#828ABA"/>
<path d="M13.3328 3.5699H9.25175C8.9615 3.57064 8.67575 3.49823 8.42089 3.35933C8.16604 3.22044 7.9503 3.01955 7.79361 2.77523L7.24961 1.92936C7.02106 1.57191 6.70605 1.27787 6.33371 1.07446C5.96138 0.871046 5.54375 0.764827 5.11948 0.76563H2.66615C1.99452 0.766476 1.35065 1.03365 0.875744 1.50856C0.400835 1.98347 0.133659 2.62734 0.132812 3.29896V11.1048C0.138146 11.6264 0.928546 11.6296 0.932813 11.1048V3.29896C0.933377 2.83943 1.11618 2.39888 1.44112 2.07393C1.76606 1.74899 2.20661 1.56619 2.66615 1.56563H5.11948C5.40967 1.56513 5.69531 1.63771 5.95005 1.77669C6.20479 1.91566 6.42043 2.11655 6.57708 2.36083L7.12108 3.20723C7.34977 3.5646 7.66492 3.8585 8.03735 4.06173C8.40979 4.26496 8.82747 4.37095 9.25175 4.3699H13.3328C13.7923 4.37046 14.2329 4.55326 14.5578 4.8782C14.8828 5.20314 15.0656 5.64369 15.0661 6.10323V12.1715C15.0654 12.7724 14.8264 13.3486 14.4015 13.7735C13.9765 14.1984 13.4004 14.4375 12.7995 14.4382H2.86401C2.43628 14.4398 2.11201 14.0152 2.22401 13.603L3.51948 8.62536C3.6168 8.25403 3.8345 7.92545 4.13849 7.69104C4.44248 7.45663 4.81561 7.32962 5.19948 7.3299H13.8661C14.3851 7.32936 14.3925 6.5315 13.8661 6.5299H5.19948C4.63873 6.52969 4.09373 6.71542 3.6498 7.05801C3.20588 7.40061 2.88807 7.88073 2.74615 8.42323L1.44855 13.3992C1.19735 14.308 1.91735 15.2424 2.85868 15.236H12.7995C13.6126 15.2352 14.3921 14.9118 14.967 14.3369C15.5419 13.762 15.8653 12.9824 15.8661 12.1694V6.10323C15.8653 5.43161 15.5981 4.78774 15.1232 4.31283C14.6483 3.83792 14.0044 3.57074 13.3328 3.5699Z" fill="#828ABA"/>
</svg>
