<svg width="20" height="20" viewBox="0 0 20 20" fill="none" xmlns="http://www.w3.org/2000/svg">
<path d="M9.99801 1.37421C1.04135 1.35288 -3.24999 12.5082 3.38068 18.5009C3.63801 18.7462 4.09735 18.6189 4.19201 18.2762C5.67535 14.6055 11.5007 14.3935 14.406 16.4475C15.0523 16.8924 15.5377 17.534 15.79 18.2769C15.8297 18.4034 15.918 18.5089 16.0356 18.5703C16.1531 18.6317 16.2902 18.6439 16.4167 18.6042C17.5153 18.1395 15.5967 15.9849 14.9967 15.6442C11.54 13.2989 5.92535 13.5355 3.53935 17.2595C-4.12332 8.38488 8.10201 -3.04512 16.442 5.19421C18.9087 7.77954 19.5387 11.8615 17.9447 15.0635C17.678 15.6422 18.552 16.0702 18.844 15.5002C22.0527 9.19354 17.0993 1.22221 9.99801 1.37421Z" fill="currentColor"/>
<path d="M6.42267 8.76424C6.568 13.4789 13.4113 13.4776 13.556 8.76424C13.4093 4.04958 6.572 4.05291 6.42267 8.76424ZM12.556 8.76424C12.47 12.1496 7.508 12.1489 7.42267 8.76424C7.51 5.37891 12.4673 5.38158 12.556 8.76424Z" fill="currentColor"/>
</svg>
