<svg width="64" height="35" viewBox="0 0 64 35" fill="none" xmlns="http://www.w3.org/2000/svg">
<path d="M62.8169 15.5315C54.3918 6.37638 43.6335 0.839355 31.8725 0.839355C20.1114 0.839355 9.35322 6.37638 0.928152 15.5315C0.878795 15.5851 0.831231 15.6401 0.785873 15.6959C0.262115 16.3406 0.517169 17.1302 0.517169 17.9197C0.517169 18.7778 0.309541 18.3835 0.928152 19.0558C9.35322 28.2108 20.1116 33.7479 31.8726 33.7479C43.6336 33.7479 54.3918 28.2108 62.817 19.0558C63.4358 18.3835 63.1894 18.7778 63.1894 17.9197C63.1894 17.1242 63.4791 16.3289 62.9476 15.6815C62.9055 15.6306 62.8621 15.5805 62.8169 15.5315Z" fill="#EDF4FF"/>
<path d="M44.397 17.9197C44.397 11.0019 38.7891 5.39404 31.8713 5.39404C28.9495 5.39404 26.2612 6.39454 24.1306 8.07156C21.2167 10.3648 20.0586 13.9238 20.0586 17.9197C20.0586 24.8375 24.9536 29.5795 31.8713 29.5795C35.8645 29.5795 39.4212 28.5767 41.7149 25.6662C43.3947 23.5346 44.397 20.8441 44.397 17.9197Z" fill="#8BB3EA"/>
<path d="M37.5651 17.9196C37.5651 14.7751 35.016 12.2261 31.8716 12.2261C30.8134 12.2261 29.8227 12.5148 28.9739 13.0176C27.3003 14.0091 26.8145 15.8332 26.8145 17.9194C26.8145 21.0639 28.7272 22.8698 31.8717 22.8698C33.9572 22.8698 35.7808 22.4917 36.7725 20.8192C37.276 19.9699 37.5651 18.9785 37.5651 17.9196Z" fill="#5D5360"/>
<path d="M33.9589 28.358C27.0412 28.358 21.4333 22.7501 21.4333 15.8323C21.4333 12.9058 22.4488 10.204 24.1307 8.07178C21.2228 10.3655 19.3457 13.9288 19.3457 17.92C19.3457 24.8378 24.9536 30.4457 31.8714 30.4457C35.8626 30.4457 39.4211 28.5747 41.7149 25.6667C39.5826 27.3485 36.8855 28.358 33.9589 28.358Z" fill="#739AD6"/>
<path d="M33.8283 21.6559C30.6838 21.6559 28.1348 19.1069 28.1348 15.9624C28.1348 14.8937 28.4612 13.8721 28.9734 13.0176C27.3138 14.0124 26.1777 15.8439 26.1777 17.9195C26.1777 21.0639 28.7268 23.613 31.8712 23.613C33.947 23.613 35.7772 22.4787 36.772 20.8192C35.9175 21.3314 34.897 21.6559 33.8283 21.6559Z" fill="#4B3F4E"/>
<path d="M62.9473 15.6816C62.836 16.3226 62.5478 16.9526 62.0906 17.4614C53.8631 26.6164 43.3573 32.1535 31.8723 32.1535C20.3873 32.1535 9.88164 26.6166 1.65413 17.4614C1.19696 16.9526 0.896827 16.3371 0.785568 15.696C0.258363 16.342 0 17.1277 0 17.9199C0 18.778 0.309374 19.6361 0.927985 20.3082C9.35305 29.4633 20.1114 35.0003 31.8724 35.0003C43.6335 35.0003 54.3917 29.4633 62.8169 20.3082C63.4356 19.6359 63.7449 18.778 63.7449 17.9199C63.7447 17.1277 63.4744 16.3275 62.9473 15.6816Z" fill="#DBEAFF"/>
</svg>
