<svg width="72" height="25" viewBox="0 0 72 25" fill="none" xmlns="http://www.w3.org/2000/svg">
<path d="M23.7856 24.5336H29.8909L33.7084 0.763672H27.6052L23.7856 24.5336Z" fill="#47ada9"/>
<path d="M25.1442 0.766357L15.5445 24.5108H9.08423L4.37221 6.93283C3.88636 5.11956 2.62975 3.61182 0.934619 2.80418C0.809127 2.7437 0.682081 2.68463 0.555176 2.62852C0.735358 2.00092 0.933205 1.38081 1.14589 0.767911H6.06607C8.08609 0.794479 9.57164 2.01717 10.0383 3.82903L12.0997 13.9086C12.0924 13.888 12.082 13.8658 12.0745 13.8452L12.7021 16.9137L18.6841 0.763672V0.766639L25.1442 0.766357Z" fill="#47ada9"/>
<path d="M67.6821 0.836914H62.9583C61.5023 0.836914 60.3964 1.25621 59.7658 2.74911L50.6978 24.5341H57.1049L58.8695 19.8177H66.0387L66.9542 24.5517H69.5014C70.2752 22.3264 70.8378 20.0036 71.1626 17.6056L67.6821 0.836914ZM60.6458 15.057C60.7728 15.057 63.1059 7.35923 63.1059 7.35923L64.9649 15.057C64.9651 15.057 61.8522 15.057 60.6458 15.057Z" fill="#47ada9"/>
<path d="M46.0214 10.4463C43.8878 9.3928 42.58 8.68154 42.58 7.60412C42.6061 6.62435 43.686 5.62056 46.0977 5.62056C48.0813 5.57081 49.5391 6.03688 50.6452 6.50069L51.1992 6.748L52.0292 1.77469C50.8232 1.30848 48.9111 0.794922 46.5494 0.794922C40.5201 0.794922 36.2748 3.92967 36.2483 8.41303C36.1986 11.7215 39.2878 13.5573 41.5998 14.6588C43.9615 15.7886 44.7656 16.521 44.7656 17.5247C44.7395 19.066 42.8559 19.7771 41.0983 19.7771C38.6629 19.7771 37.3547 19.4109 35.3688 18.5521L34.5648 18.186L33.7109 23.3543C35.1452 23.9918 37.7826 24.5528 40.5203 24.5817C46.9277 24.5817 51.097 21.4944 51.1495 16.7164C51.1704 14.0949 49.5414 12.0875 46.0214 10.4463Z" fill="#47ada9"/>
</svg>
