<svg width="102" height="102" viewBox="0 0 102 102" fill="none" xmlns="http://www.w3.org/2000/svg">
<path d="M82.9175 24.8625L57.6725 10.285C53.55 7.905 48.45 7.905 44.285 10.285L19.0825 24.8625C14.96 27.2425 12.41 31.6625 12.41 36.465V65.535C12.41 70.295 14.96 74.715 19.0825 77.1375L44.3275 91.715C48.45 94.095 53.55 94.095 57.715 91.715L82.96 77.1375C87.0825 74.7575 89.6325 70.3375 89.6325 65.535V36.465C89.59 31.6625 87.04 27.285 82.9175 24.8625ZM47.8125 32.9375C47.8125 31.195 49.2575 29.75 51 29.75C52.7425 29.75 54.1875 31.195 54.1875 32.9375V55.25C54.1875 56.9925 52.7425 58.4375 51 58.4375C49.2575 58.4375 47.8125 56.9925 47.8125 55.25V32.9375ZM54.91 70.6775C54.6975 71.1875 54.4 71.655 54.0175 72.08C53.21 72.8875 52.1475 73.3125 51 73.3125C50.4475 73.3125 49.895 73.185 49.385 72.9725C48.8325 72.76 48.4075 72.4625 47.9825 72.08C47.6 71.655 47.3025 71.1875 47.0475 70.6775C46.835 70.1675 46.75 69.615 46.75 69.0625C46.75 67.9575 47.175 66.8525 47.9825 66.045C48.4075 65.6625 48.8325 65.365 49.385 65.1525C50.9575 64.4725 52.8275 64.855 54.0175 66.045C54.4 66.47 54.6975 66.895 54.91 67.4475C55.1225 67.9575 55.25 68.51 55.25 69.0625C55.25 69.615 55.1225 70.1675 54.91 70.6775Z" fill="#FCC230"/>
</svg>
