<svg width="16" height="16" viewBox="0 0 16 16" fill="none" xmlns="http://www.w3.org/2000/svg">
<g clip-path="url(#clip0_7695_65207)">
<path fill-rule="evenodd" clip-rule="evenodd" d="M7.9987 1.33398C4.3167 1.33398 1.33203 4.31865 1.33203 8.00065C1.33203 9.26065 1.68203 10.4407 2.2907 11.446L1.69603 13.4673C1.66189 13.5834 1.65964 13.7065 1.68953 13.8237C1.71941 13.9409 1.78033 14.0479 1.86587 14.1335C1.95141 14.219 2.05842 14.2799 2.17564 14.3098C2.29287 14.3397 2.41598 14.3375 2.53203 14.3033L4.55336 13.7087C5.59248 14.3374 6.78418 14.669 7.9987 14.6673C11.6807 14.6673 14.6654 11.6827 14.6654 8.00065C14.6654 4.31865 11.6807 1.33398 7.9987 1.33398ZM6.4907 9.50932C7.83936 10.8573 9.1267 11.0353 9.58136 11.052C10.2727 11.0773 10.946 10.5493 11.208 9.93665C11.2411 9.86044 11.2531 9.77674 11.2428 9.69429C11.2325 9.61185 11.2002 9.5337 11.1494 9.46799C10.784 9.00132 10.29 8.66598 9.80736 8.33265C9.70659 8.26297 9.58275 8.23502 9.46181 8.25466C9.34088 8.2743 9.23225 8.34 9.1587 8.43798L8.7587 9.04798C8.73767 9.08078 8.7049 9.10429 8.6671 9.11371C8.62929 9.12313 8.58932 9.11774 8.55536 9.09865C8.28403 8.94332 7.8887 8.67932 7.6047 8.39532C7.3207 8.11132 7.0727 7.73398 6.93336 7.47998C6.91609 7.44771 6.91109 7.41028 6.91931 7.37461C6.92752 7.33894 6.94838 7.30745 6.97803 7.28598L7.59403 6.82865C7.68194 6.75221 7.73867 6.64612 7.75343 6.53056C7.76818 6.415 7.73992 6.29806 7.67403 6.20198C7.37536 5.76465 7.02736 5.20865 6.5227 4.83998C6.45757 4.79279 6.38127 4.76336 6.30132 4.75459C6.22137 4.74582 6.14051 4.75802 6.0667 4.78998C5.45336 5.05265 4.9227 5.72598 4.94803 6.41865C4.9647 6.87332 5.1427 8.16065 6.4907 9.50932Z" fill="#BDC1DF"/>
</g>
<defs>
<clipPath id="clip0_7695_65207">
<rect width="16" height="16" fill="white"/>
</clipPath>
</defs>
</svg>
