<svg width="96" height="80" viewBox="0 0 96 80" fill="none" xmlns="http://www.w3.org/2000/svg">
<g clip-path="url(#clip0_2023_40851)">
<path d="M29.5899 46.5259C29.526 46.5259 29.4682 46.4459 29.4414 46.2845V45.874C29.468 45.7126 29.5257 45.6328 29.5915 45.6328C29.6572 45.6328 29.7132 45.7126 29.7416 45.874V46.2845C29.7135 46.4461 29.6572 46.5259 29.5899 46.5259Z" fill="#D1DCF8"/>
<path d="M29.5899 48.315C29.526 48.315 29.4682 48.235 29.4414 48.0736V47.6631C29.468 47.5017 29.5257 47.4219 29.5915 47.4219C29.6572 47.4219 29.7132 47.5017 29.7416 47.6631V48.0736C29.7135 48.2352 29.6572 48.315 29.5899 48.315Z" fill="#D1DCF8"/>
<path d="M29.5899 50.0962C29.526 50.0962 29.4682 50.0162 29.4414 49.8548V49.4443C29.468 49.2829 29.5257 49.2031 29.5915 49.2031C29.6572 49.2031 29.7132 49.2829 29.7416 49.4443V49.8548C29.7135 50.0164 29.6572 50.0962 29.5899 50.0962Z" fill="#D1DCF8"/>
<path d="M29.5899 51.8892C29.526 51.8892 29.4682 51.8092 29.4414 51.6478V51.2373C29.468 51.0759 29.5257 50.9961 29.5915 50.9961C29.6572 50.9961 29.7132 51.0759 29.7416 51.2373V51.6478C29.7135 51.8094 29.6572 51.8892 29.5899 51.8892Z" fill="#D1DCF8"/>
<path d="M29.5899 53.6705C29.526 53.6705 29.4682 53.5904 29.4414 53.4291V53.0185C29.468 52.8571 29.5257 52.7773 29.5915 52.7773C29.6572 52.7773 29.7132 52.8571 29.7416 53.0185V53.4291C29.7135 53.5907 29.6572 53.6705 29.5899 53.6705Z" fill="#D1DCF8"/>
<path d="M29.5899 55.4595C29.526 55.4595 29.4682 55.3795 29.4414 55.2181V54.8076C29.468 54.6462 29.5257 54.5664 29.5915 54.5664C29.6572 54.5664 29.7132 54.6462 29.7416 54.8076V55.2181C29.7135 55.3797 29.6572 55.4595 29.5899 55.4595Z" fill="#D1DCF8"/>
<path d="M29.5899 57.2447C29.526 57.2447 29.4682 57.1647 29.4414 57.0033V56.5927C29.468 56.4314 29.5257 56.3516 29.5915 56.3516C29.6572 56.3516 29.7132 56.4314 29.7416 56.5927V57.0033C29.7135 57.1649 29.6572 57.2447 29.5899 57.2447Z" fill="#D1DCF8"/>
<path d="M29.5899 59.0298C29.526 59.0298 29.4682 58.9498 29.4414 58.7884V58.3779C29.468 58.2165 29.5257 58.1367 29.5915 58.1367C29.6572 58.1367 29.7132 58.2165 29.7416 58.3779V58.7884C29.7135 58.95 29.6572 59.0298 29.5899 59.0298Z" fill="#D1DCF8"/>
<path d="M29.5899 60.815C29.526 60.815 29.4682 60.735 29.4414 60.5736V60.1631C29.468 60.0017 29.5257 59.9219 29.5915 59.9219C29.6572 59.9219 29.7132 60.0017 29.7416 60.1631V60.5736C29.7135 60.7352 29.6572 60.815 29.5899 60.815Z" fill="#D1DCF8"/>
<path d="M29.5899 62.6041C29.526 62.6041 29.4682 62.524 29.4414 62.3626V61.9521C29.468 61.7907 29.5257 61.7109 29.5915 61.7109C29.6572 61.7109 29.7132 61.7907 29.7416 61.9521V62.3626C29.7135 62.5242 29.6572 62.6041 29.5899 62.6041Z" fill="#D1DCF8"/>
<path d="M30.8335 63.1482C30.8335 63.2122 30.7538 63.2701 30.5924 63.2967H30.1825C30.0213 63.2701 29.9414 63.2122 29.9414 63.1464C29.9414 63.0806 30.0211 63.0245 30.1825 62.9961H30.5924C30.7538 63.0242 30.8335 63.0806 30.8335 63.1479V63.1482Z" fill="#D1DCF8"/>
<path d="M32.6186 63.1482C32.6186 63.2122 32.5389 63.2701 32.3776 63.2967H31.9676C31.8065 63.2701 31.7266 63.2122 31.7266 63.1464C31.7266 63.0806 31.8063 63.0245 31.9676 62.9961H32.3776C32.5389 63.0242 32.6186 63.0806 32.6186 63.1479V63.1482Z" fill="#D1DCF8"/>
<path d="M34.4038 63.1482C34.4038 63.2122 34.3241 63.2701 34.1627 63.2967H33.7528C33.5916 63.2701 33.5117 63.2122 33.5117 63.1464C33.5117 63.0806 33.5914 63.0245 33.7528 62.9961H34.1627C34.3241 63.0242 34.4038 63.0806 34.4038 63.1479V63.1482Z" fill="#D1DCF8"/>
<path d="M36.1889 63.1482C36.1889 63.2122 36.1092 63.2701 35.9479 63.2967H35.5379C35.3768 63.2701 35.2969 63.2122 35.2969 63.1464C35.2969 63.0806 35.3766 63.0245 35.5379 62.9961H35.9479C36.1092 63.0242 36.1889 63.0806 36.1889 63.1479V63.1482Z" fill="#D1DCF8"/>
<path d="M37.9702 63.1482C37.9702 63.2122 37.8905 63.2701 37.7291 63.2967H37.3192C37.158 63.2701 37.0781 63.2122 37.0781 63.1464C37.0781 63.0806 37.1578 63.0245 37.3192 62.9961H37.7291C37.8905 63.0242 37.9702 63.0806 37.9702 63.1479V63.1482Z" fill="#D1DCF8"/>
<path d="M39.7553 63.1482C39.7553 63.2122 39.6757 63.2701 39.5143 63.2967H39.1043C38.9432 63.2701 38.8633 63.2122 38.8633 63.1464C38.8633 63.0806 38.943 63.0245 39.1043 62.9961H39.5143C39.6757 63.0242 39.7553 63.0806 39.7553 63.1479V63.1482Z" fill="#D1DCF8"/>
<path d="M41.5405 63.1482C41.5405 63.2122 41.4608 63.2701 41.2994 63.2967H40.8895C40.7283 63.2701 40.6484 63.2122 40.6484 63.1464C40.6484 63.0806 40.7281 63.0245 40.8895 62.9961H41.2994C41.4608 63.0242 41.5405 63.0806 41.5405 63.1479V63.1482Z" fill="#D1DCF8"/>
<path d="M43.3218 63.1482C43.3218 63.2122 43.2421 63.2701 43.0807 63.2967H42.6707C42.5096 63.2701 42.4297 63.2122 42.4297 63.1464C42.4297 63.0806 42.5094 63.0245 42.6707 62.9961H43.0807C43.2421 63.0242 43.3218 63.0806 43.3218 63.1479V63.1482Z" fill="#D1DCF8"/>
<path d="M43.8862 61.9219C43.9502 61.9219 44.008 62.0019 44.0345 62.1633V62.5738C44.008 62.7352 43.9502 62.815 43.8845 62.815C43.8187 62.815 43.7627 62.7352 43.7344 62.5738V62.1633C43.7625 62.0017 43.8187 61.9219 43.886 61.9219H43.8862Z" fill="#D1DCF8"/>
<path d="M43.8862 60.1367C43.9502 60.1367 44.008 60.2167 44.0345 60.3781V60.7887C44.008 60.95 43.9502 61.0298 43.8845 61.0298C43.8187 61.0298 43.7627 60.95 43.7344 60.7887V60.3781C43.7625 60.2165 43.8187 60.1367 43.886 60.1367H43.8862Z" fill="#D1DCF8"/>
<path d="M43.8862 58.3516C43.9502 58.3516 44.008 58.4316 44.0345 58.593V59.0035C44.008 59.1649 43.9502 59.2447 43.8845 59.2447C43.8187 59.2447 43.7627 59.1649 43.7344 59.0035V58.593C43.7625 58.4314 43.8187 58.3516 43.886 58.3516H43.8862Z" fill="#D1DCF8"/>
<path d="M43.8862 56.5625C43.9502 56.5625 44.008 56.6425 44.0345 56.8039V57.2144C44.008 57.3758 43.9502 57.4556 43.8845 57.4556C43.8187 57.4556 43.7627 57.3758 43.7344 57.2144V56.8039C43.7625 56.6423 43.8187 56.5625 43.886 56.5625H43.8862Z" fill="#D1DCF8"/>
<path d="M43 55.6641C43 55.6001 43.0797 55.5422 43.2411 55.5156H43.651C43.7905 55.5387 43.869 55.585 43.8874 55.6398L43.9133 55.6659C43.9049 55.669 43.8963 55.6706 43.8874 55.6706C43.8786 55.6706 43.8699 55.6692 43.8615 55.6659L43.8874 55.6919C43.869 55.7462 43.7905 55.7918 43.651 55.8162H43.2411C43.0797 55.7881 43 55.7318 43 55.6644V55.6641Z" fill="#D1DCF8"/>
<path d="M41.2148 55.6641C41.2148 55.6001 41.2945 55.5422 41.4559 55.5156H41.8659C42.027 55.5422 42.1069 55.6001 42.1069 55.6659C42.1069 55.7318 42.0272 55.7878 41.8659 55.8162H41.4559C41.2945 55.7881 41.2148 55.7318 41.2148 55.6644V55.6641Z" fill="#D1DCF8"/>
<path d="M39.4297 55.6641C39.4297 55.6001 39.5094 55.5422 39.6707 55.5156H40.0807C40.2418 55.5422 40.3218 55.6001 40.3218 55.6659C40.3218 55.7318 40.2421 55.7878 40.0807 55.8162H39.6707C39.5094 55.7881 39.4297 55.7318 39.4297 55.6644V55.6641Z" fill="#D1DCF8"/>
<path d="M39.0624 57.0845C38.9984 57.0845 38.9404 57.0045 38.9141 56.8431V56.4326C38.9406 56.2712 38.9984 56.1914 39.0641 56.1914C39.1299 56.1914 39.1859 56.2712 39.2142 56.4326V56.8431C39.1861 57.0047 39.1299 57.0845 39.0626 57.0845H39.0624Z" fill="#D1DCF8"/>
<path d="M39.0624 58.8736C38.9984 58.8736 38.9404 58.7936 38.9141 58.6322V58.2216C38.9406 58.0603 38.9984 57.9805 39.0641 57.9805C39.1299 57.9805 39.1859 58.0603 39.2142 58.2216V58.6322C39.1861 58.7938 39.1299 58.8736 39.0626 58.8736H39.0624Z" fill="#D1DCF8"/>
<path d="M39.7019 60.0219C39.7019 60.0859 39.6222 60.1438 39.4608 60.1704H38.9141V60.1438C38.9273 59.9713 38.9484 59.845 38.9745 59.8257C39.0004 59.7856 39.0314 59.7656 39.0641 59.7656C39.0969 59.7656 39.1274 59.7856 39.1531 59.8257C39.1788 59.8864 39.2001 59.8818 39.214 59.8698H39.4608C39.6222 59.898 39.7019 59.9543 39.7019 60.0217V60.0219Z" fill="#D1DCF8"/>
<path d="M41.4858 60.0232C41.4858 60.0872 41.4061 60.1451 41.2448 60.1717H40.8348C40.6737 60.1451 40.5938 60.0872 40.5938 60.0214C40.5938 59.9556 40.6734 59.8995 40.8348 59.8711H41.2448C41.4061 59.8992 41.4858 59.9556 41.4858 60.0229V60.0232Z" fill="#D1DCF8"/>
<path d="M43.271 60.0232C43.271 60.0872 43.1913 60.1451 43.0299 60.1717H42.62C42.4588 60.1451 42.3789 60.0872 42.3789 60.0214C42.3789 59.9556 42.4586 59.8995 42.62 59.8711H43.0299C43.1913 59.8992 43.271 59.9556 43.271 60.0229V60.0232Z" fill="#D1DCF8"/>
<path d="M45.0561 60.0232C45.0561 60.0872 44.9764 60.1451 44.8151 60.1717H44.4051C44.244 60.1451 44.1641 60.0872 44.1641 60.0214C44.1641 59.9556 44.2438 59.8995 44.4051 59.8711H44.8151C44.9764 59.8992 45.0561 59.9556 45.0561 60.0229V60.0232Z" fill="#D1DCF8"/>
<path d="M46.8374 60.0232C46.8374 60.0872 46.7577 60.1451 46.5963 60.1717H46.1864C46.0252 60.1451 45.9453 60.0872 45.9453 60.0214C45.9453 59.9556 46.025 59.8995 46.1864 59.8711H46.5963C46.7577 59.8992 46.8374 59.9556 46.8374 60.0229V60.0232Z" fill="#D1DCF8"/>
<path d="M48.6225 60.0232C48.6225 60.0872 48.5428 60.1451 48.3815 60.1717H47.9715C47.8104 60.1451 47.7305 60.0872 47.7305 60.0214C47.7305 59.9556 47.8102 59.8995 47.9715 59.8711H48.3815C48.5428 59.8992 48.6225 59.9556 48.6225 60.0229V60.0232Z" fill="#D1DCF8"/>
<path d="M50.4077 60.0232C50.4077 60.0872 50.328 60.1451 50.1666 60.1717H49.7567C49.5955 60.1451 49.5156 60.0872 49.5156 60.0214C49.5156 59.9556 49.5953 59.8995 49.7567 59.8711H50.1666C50.328 59.8992 50.4077 59.9556 50.4077 60.0229V60.0232Z" fill="#D1DCF8"/>
<path d="M52.1889 60.0232C52.1889 60.0872 52.1093 60.1451 51.9479 60.1717H51.5379C51.3768 60.1451 51.2969 60.0872 51.2969 60.0214C51.2969 59.9556 51.3766 59.8995 51.5379 59.8711H51.9479C52.1093 59.8992 52.1889 59.9556 52.1889 60.0229V60.0232Z" fill="#D1DCF8"/>
<path d="M52.6014 61.3931C52.5375 61.3931 52.4795 61.3131 52.4531 61.1517V60.7412C52.4797 60.5798 52.5375 60.5 52.6032 60.5C52.6689 60.5 52.7249 60.5798 52.7533 60.7412V61.1517C52.7252 61.3133 52.6689 61.3931 52.6017 61.3931H52.6014Z" fill="#D1DCF8"/>
<path d="M52.6014 63.1822C52.5375 63.1822 52.4795 63.1022 52.4531 62.9408V62.5302C52.4797 62.3689 52.5375 62.2891 52.6032 62.2891C52.6689 62.2891 52.7249 62.3689 52.7533 62.5302V62.9408C52.7252 63.1024 52.6689 63.1822 52.6017 63.1822H52.6014Z" fill="#D1DCF8"/>
<path d="M52.6014 64.9634C52.5375 64.9634 52.4795 64.8834 52.4531 64.722V64.3115C52.4797 64.1501 52.5375 64.0703 52.6032 64.0703C52.6689 64.0703 52.7249 64.1501 52.7533 64.3115V64.722C52.7252 64.8836 52.6689 64.9634 52.6017 64.9634H52.6014Z" fill="#D1DCF8"/>
<path d="M52.6014 66.7564C52.5375 66.7564 52.4795 66.6764 52.4531 66.515V66.1045C52.4797 65.9431 52.5375 65.8633 52.6032 65.8633C52.6689 65.8633 52.7249 65.9431 52.7533 66.1045V66.515C52.7252 66.6766 52.6689 66.7564 52.6017 66.7564H52.6014Z" fill="#D1DCF8"/>
<path d="M52.6014 68.5376C52.5375 68.5376 52.4795 68.4576 52.4531 68.2962V67.8857C52.4797 67.7243 52.5375 67.6445 52.6032 67.6445C52.6689 67.6445 52.7249 67.7243 52.7533 67.8857V68.2962C52.7252 68.4578 52.6689 68.5376 52.6017 68.5376H52.6014Z" fill="#D1DCF8"/>
<path d="M52.8595 70.0752C52.8595 70.1074 52.8396 70.1378 52.7995 70.1637C52.7796 70.1896 52.6579 70.2107 52.4839 70.224H52.4531V69.6787C52.4797 69.5173 52.5375 69.4375 52.6032 69.4375C52.6689 69.4375 52.7249 69.5173 52.7533 69.6787V69.9236C52.74 69.9378 52.7398 69.9589 52.7998 69.9848C52.8398 70.0107 52.8598 70.0418 52.8598 70.0755L52.8595 70.0752Z" fill="#D1DCF8"/>
<path d="M54.6421 70.0739C54.6421 70.138 54.5624 70.1959 54.401 70.2225H53.9911C53.8299 70.1959 53.75 70.138 53.75 70.0722C53.75 70.0063 53.8297 69.9502 53.9911 69.9219H54.401C54.5624 69.95 54.6421 70.0063 54.6421 70.0737V70.0739Z" fill="#D1DCF8"/>
<path d="M56.4272 70.0739C56.4272 70.138 56.3475 70.1959 56.1862 70.2225H55.7762C55.6151 70.1959 55.5352 70.138 55.5352 70.0722C55.5352 70.0063 55.6148 69.9502 55.7762 69.9219H56.1862C56.3475 69.95 56.4272 70.0063 56.4272 70.0737V70.0739Z" fill="#D1DCF8"/>
<path d="M58.2124 70.0739C58.2124 70.138 58.1327 70.1959 57.9713 70.2225H57.5614C57.4002 70.1959 57.3203 70.138 57.3203 70.0722C57.3203 70.0063 57.4 69.9502 57.5614 69.9219H57.9713C58.1327 69.95 58.2124 70.0063 58.2124 70.0737V70.0739Z" fill="#D1DCF8"/>
<path d="M59.9975 70.0739C59.9975 70.138 59.9178 70.1959 59.7565 70.2225H59.3465C59.1854 70.1959 59.1055 70.138 59.1055 70.0722C59.1055 70.0063 59.1852 69.9502 59.3465 69.9219H59.7565C59.9178 69.95 59.9975 70.0063 59.9975 70.0737V70.0739Z" fill="#D1DCF8"/>
<path d="M61.7788 70.0739C61.7788 70.138 61.6991 70.1959 61.5377 70.2225H61.1278C60.9666 70.1959 60.8867 70.138 60.8867 70.0722C60.8867 70.0063 60.9664 69.9502 61.1278 69.9219H61.5377C61.6991 69.95 61.7788 70.0063 61.7788 70.0737V70.0739Z" fill="#D1DCF8"/>
<path d="M62.9397 70.0739C62.9397 70.138 62.9158 70.1959 62.8673 70.2225H62.7443C62.6958 70.1959 62.6719 70.138 62.6719 70.0722C62.6719 70.0063 62.6958 69.9502 62.7443 69.9219H62.8673C62.9158 69.95 62.9397 70.0063 62.9397 70.0737V70.0739Z" fill="#D1DCF8"/>
<path d="M18.307 72.2188H15.5312V76.7455H18.307V72.2188Z" fill="#FEC9AC"/>
<path d="M15.5312 72.2188V73.8197C16.4587 73.8749 17.3933 73.8101 18.307 73.6255V72.2188H15.5312Z" fill="#FFAB90"/>
<path d="M14.4659 78.4132H23.28C23.4901 78.4132 23.6822 78.3246 23.8214 78.1785C23.9607 78.0324 24.0477 77.8311 24.0477 77.6106C24.0477 77.2752 23.8489 76.9755 23.5496 76.8558C22.6221 76.4916 21.0001 76.0866 20.6572 75.727C20.1979 75.2478 19.3961 74.4449 18.8226 74.4859C18.2491 74.5267 17.9064 75.4874 17.0267 76.0482C16.4029 76.4459 15.7291 75.4635 15.3931 74.8596C15.2789 74.6559 14.9934 74.6535 14.886 74.8596C14.1732 76.2087 14.4656 78.4132 14.4656 78.4132H14.4659Z" fill="#2E363A"/>
<path d="M11.1781 72.2188H8.40234V76.7455H11.1781V72.2188Z" fill="#FEC9AC"/>
<path d="M8.40234 72.2188V73.8197C9.32982 73.8749 10.2644 73.8101 11.1781 73.6255V72.2188H8.40234Z" fill="#FFAB90"/>
<path d="M7.33696 78.4132H16.1511C16.3612 78.4132 16.5533 78.3246 16.6925 78.1785C16.8318 78.0324 16.9188 77.8311 16.9188 77.6106C16.9188 77.2752 16.72 76.9755 16.4207 76.8558C15.4932 76.4916 13.8711 76.0866 13.5283 75.727C13.069 75.2478 12.2672 74.4449 11.6937 74.4859C11.1201 74.5267 10.7775 75.4874 9.89782 76.0482C9.27404 76.4459 8.60024 75.4635 8.26422 74.8596C8.15 74.6559 7.86445 74.6535 7.75709 74.8596C7.04433 76.2087 7.33674 78.4132 7.33674 78.4132H7.33696Z" fill="#3A4146"/>
<path d="M21.3191 40.6408C21.3191 40.6428 21.3171 40.6448 21.3191 40.6468C21.2282 41.2221 21.5299 72.7029 20.1426 73.1208C19.0363 73.4511 16.2638 73.1228 15.1442 72.9696C15.0778 72.9616 15.0171 72.9516 14.962 72.9437C14.9563 72.9437 14.9525 72.9437 14.9468 72.9417C14.7683 72.9177 14.6641 72.8998 14.6641 72.8998L14.6338 71.8488L14.4762 66.3432C14.4762 66.3432 14.1764 67.5493 13.7948 68.9148C13.6317 69.5 13.4533 70.1169 13.2749 70.6784C12.9351 71.7613 12.6013 72.6451 12.4001 72.7406C11.8518 72.9993 7.06385 72.3844 6.8892 72.0678C6.8 71.9067 6.95561 64.0425 7.13402 56.2399C7.31044 48.4771 7.50789 40.7761 7.50789 40.7761L21.3189 40.6406L21.3191 40.6408Z" fill="#3A4146"/>
<path d="M17.4603 45.5744C17.4603 45.5744 17.3919 64.0496 14.9629 72.9429C14.9592 72.9508 14.9572 72.9608 14.9554 72.9688L14.9479 72.9409L14.6347 71.848L14.4771 66.3424C14.4771 66.3424 14.1774 67.5485 13.7957 68.914L13.6875 68.5338C14.2095 61.2628 15.5416 53.5717 17.4601 45.5742L17.4603 45.5744Z" fill="#2E363A"/>
<path d="M12.3058 72.8002L12.1172 72.6807C12.6994 71.7608 13.2094 68.4249 13.9155 63.8079C14.6654 58.9028 15.6925 52.1852 17.3323 44.9805L17.5497 45.0301C15.9119 52.2269 14.8852 58.94 14.1359 63.8416C13.3995 68.6585 12.913 71.8408 12.306 72.8002H12.3058Z" fill="#2E363A"/>
<path d="M7.13281 56.239C8.94992 52.2063 11.4636 48.5162 14.5252 45.4183C16.4919 43.4308 18.7894 41.6446 21.3179 40.6462C21.3161 40.6444 21.3179 40.6424 21.3179 40.6406L7.50779 40.7763C7.50779 40.7763 7.31034 48.476 7.13303 56.239H7.13281Z" fill="#2E363A"/>
<path d="M33.7897 35.0483C33.7897 35.0483 33.1 34.7161 31.4312 35.0984C30.6836 35.2685 29.0146 35.3886 27.2816 35.2926C25.1449 35.1705 22.9121 34.7161 22.2006 33.6152C20.9155 31.6195 20.8555 29.9162 20.8555 29.9162L25.6788 29.1016C25.6788 29.1016 26.4383 30.841 26.8801 31.0432C27.012 31.1033 27.6117 31.2573 28.3993 31.4475C28.4012 31.4475 28.4032 31.4495 28.4032 31.4495C30.2682 31.896 33.1765 32.5344 33.3824 32.5423C33.6761 32.5543 35.669 31.2673 35.9149 31.8357C36.1589 32.4062 35.4111 32.7784 35.4111 32.7784C35.4111 32.7784 38.1475 32.6864 38.2555 33.2129C38.3636 33.7354 37.5499 35.6189 33.7901 35.0483H33.7897Z" fill="#FEC9AC"/>
<g opacity="0.5">
<path d="M26.2404 31.9438C25.7886 32.5803 26.1244 33.4632 26.5222 34.1357C26.7579 34.5321 27.0118 34.9184 27.2816 35.2926C25.1449 35.1705 22.9121 34.7161 22.2006 33.6152C20.9155 31.6195 20.8555 29.9162 20.8555 29.9162L25.6788 29.1016C25.6788 29.1016 26.4383 30.841 26.8801 31.0432C27.012 31.1033 27.6117 31.2573 28.3993 31.4475C27.6216 31.3373 26.6904 31.3074 26.2406 31.9438H26.2404Z" fill="#FFAB90"/>
</g>
<path d="M21.0587 31.0649L21.0855 31.1789L21.4334 32.6483L21.4401 32.6707L21.6519 33.5596L22.5418 41.577H6.58759C6.58981 41.5435 6.58981 41.5056 6.59202 41.4675C6.61217 40.8734 6.65223 40.1812 6.70359 39.4485C6.86185 37.2085 7.12283 34.6292 7.23661 33.5527C7.27225 33.2267 7.29018 33.0391 7.29018 33.0391C6.11279 33.3898 5.06688 33.4814 4.17482 33.4277C1.78396 33.2936 0.472656 32.1256 0.472656 32.1256C0.488372 32.072 0.503867 32.0161 0.519584 31.9649C0.791629 31.0224 1.19073 30.1179 1.75497 29.3164C2.29242 28.5594 2.62024 27.6436 2.76745 26.7124C3.46095 26.0625 3.6283 25.2206 3.61037 24.2044C3.60594 23.8963 3.67722 23.6192 3.79542 23.3603C3.9092 23.157 4.02519 22.9606 4.14339 22.7684C4.46015 22.3173 4.84819 21.8908 5.10451 21.406C6.0165 20.2848 7.06262 19.4542 8.28473 19.0277C8.81332 18.7664 9.6071 18.5141 10.5594 18.2951C12.5531 17.8351 15.2315 17.5179 17.573 17.5359C19.7897 17.5492 21.7008 17.8642 22.4391 18.6391C23.659 19.9255 24.667 23.4742 25.258 26.1944C25.287 26.3327 25.316 26.469 25.3428 26.6031C25.3897 26.8153 25.4298 27.023 25.4676 27.2196C25.6638 28.2269 25.7866 29.0286 25.8178 29.4015C25.936 30.8107 21.0589 31.0654 21.0589 31.0654L21.0587 31.0649Z" fill="#71C687"/>
<path d="M25.4694 27.2176C25.666 28.2251 25.7867 29.026 25.8179 29.4002C25.9365 30.8091 21.0601 31.0645 21.0601 31.0645L21.0873 31.1776L21.4357 32.647L21.4415 32.6685L21.6535 33.5572L22.5429 41.5764C18.4186 42.974 12.6995 42.491 6.58984 41.5764C6.59184 41.5414 6.59184 41.5043 6.59383 41.4673L6.71646 41.4731C10.441 41.0191 13.6849 38.6882 16.3005 35.9971C17.4524 34.8123 18.5501 33.4872 18.9917 31.8931C19.5929 29.7223 18.8943 27.4109 19.0521 25.1641C19.2662 26.0352 19.5679 26.9512 20.2703 27.5065C21.3815 28.3834 22.983 28.0287 24.3392 27.6313C24.7246 27.5182 25.1175 27.4032 25.4699 27.2181L25.4694 27.2176Z" fill="#61BA76"/>
<path d="M18.0422 9.28019C17.18 10.9341 16.6476 12.7808 16.49 14.6639C16.3882 15.8829 16.452 17.1584 16.9693 18.2517C17.7026 19.8016 19.2329 20.7515 20.7804 21.3048C21.3444 21.5065 21.9316 21.6687 22.5264 21.6479C23.1212 21.6271 23.7299 21.4041 24.1297 20.9359C24.5297 20.4677 24.6731 19.7327 24.3838 19.1803C24.2091 18.8466 23.9079 18.6143 23.6445 18.3548C23.3811 18.0952 23.1362 17.7636 23.1376 17.3818C23.1402 16.6927 23.9143 16.2533 24.0097 15.5717C24.0918 14.986 23.6469 14.4724 23.1978 14.1217C22.7486 13.771 22.2278 13.4405 22.0359 12.8846C21.8006 12.2025 22.1497 11.4701 22.2975 10.7607C22.4983 9.79669 22.3046 8.7473 21.7758 7.93531C21.45 7.43478 20.2918 6.20628 19.6213 6.5246C19.3123 6.67134 19.0956 7.40751 18.9325 7.69901C18.6367 8.22703 18.322 8.74286 18.0417 9.28042L18.0422 9.28019Z" fill="#2E363A"/>
<path d="M18.208 19.4023V19.4067C18.208 19.4402 18.2013 19.4737 18.19 19.5094C18.1878 19.5138 18.1878 19.5182 18.1878 19.5229C18.1141 20.9165 17.3916 23.3507 15.0902 23.3507C15.0211 23.3507 14.9518 23.3485 14.8828 23.3441C12.0928 23.172 10.6702 19.1186 10.5586 18.2924C10.7014 18.2589 10.8486 18.2277 11.0002 18.1964C11.0203 18.192 11.0405 18.1875 11.0626 18.1829H11.067C11.1295 18.1694 11.1941 18.1561 11.259 18.1428C13.0163 17.7921 15.1617 17.5531 17.1218 17.5352C17.0906 17.7741 17.0682 17.9929 17.0817 18.0869C17.0884 18.1292 17.1107 18.1895 17.1419 18.2656C17.3046 18.6364 18.1254 19.3398 18.208 19.4023Z" fill="#2E363A"/>
<path d="M19.9148 14.2123C19.413 16.3942 17.7228 16.6464 17.3391 16.6733C17.29 16.6799 17.2612 16.6799 17.2612 16.6799C17.2612 16.6799 17.1787 17.1354 17.1229 17.5351C17.0917 17.7741 17.0693 17.9929 17.0828 18.0869C17.0895 18.1292 17.1118 18.1895 17.143 18.2655C17.3057 18.6364 18.1265 19.3397 18.2091 19.4022V19.4067C18.2069 19.4178 18.2002 19.4537 18.1911 19.5093C18.1889 19.5137 18.1889 19.5182 18.1889 19.5228C18.0641 20.1504 17.3571 23.0492 14.9107 22.8996C12.2947 22.7388 10.9522 18.5291 11.0013 18.1964C11.0013 18.1806 11.0079 18.174 11.017 18.1762C11.0305 18.1806 11.046 18.1828 11.0639 18.1828H11.0684C11.1175 18.1828 11.1821 18.1693 11.2603 18.1427C11.5702 18.0421 12.072 17.7652 12.489 17.5531C13.0555 17.274 12.8279 13.5734 12.8279 13.5734C11.1352 13.1915 11.5523 11.7577 11.5948 11.3022C11.6348 10.8398 12.0364 10.5205 12.9574 9.35478C13.8763 8.18901 18.7045 7.70443 19.4447 8.57095C20.1873 9.43968 20.4862 11.7422 19.9153 14.2123H19.9148Z" fill="#FEC9AC"/>
<path d="M17.4173 15.2204C17.4272 15.2614 17.2725 15.3589 16.9263 15.35C16.7818 15.3358 16.639 15.305 16.5015 15.2574C16.3654 15.2084 16.2301 15.153 16.104 15.0501C15.9592 14.9198 15.9236 14.7509 15.9419 14.6575C15.9592 14.5587 16.007 14.5274 16.0269 14.5367C16.077 14.5502 16.0334 14.7194 16.2483 14.8772C16.334 14.9488 16.4548 15.0022 16.5748 15.0443C16.6954 15.086 16.8212 15.1133 16.9484 15.1257C17.2471 15.1729 17.4078 15.1658 17.4175 15.2204H17.4173Z" fill="#4F2D2A"/>
<path d="M15.571 10.9684C15.5547 10.958 15.552 10.9194 15.5781 10.8556C15.6045 10.7928 15.6611 10.7035 15.7694 10.6208C15.9584 10.4918 16.2019 10.4512 16.419 10.5122C16.5459 10.5556 16.6256 10.6221 16.6685 10.6733C16.7117 10.7259 16.7201 10.7636 16.7072 10.7791C16.6778 10.8161 16.5795 10.7436 16.3737 10.7035C16.2019 10.6561 16.0175 10.6869 15.8679 10.7879C15.6833 10.8935 15.6107 10.9945 15.5713 10.9684H15.571Z" fill="#4F2D2A"/>
<path d="M18.2678 10.5044C18.2503 10.4727 18.3373 10.3617 18.5834 10.3047C18.792 10.2748 19.0062 10.3023 19.2021 10.3843C19.4281 10.5018 19.4877 10.6315 19.4629 10.6587C19.4343 10.6951 19.3354 10.6343 19.1344 10.5678C18.9686 10.4982 18.7844 10.4745 18.6078 10.5002C18.3975 10.514 18.2877 10.5479 18.2678 10.5044Z" fill="#4F2D2A"/>
<path d="M17.3204 13.893C17.3361 13.8779 17.3884 13.9223 17.4862 13.9947C17.5349 14.0293 17.5982 14.0699 17.6728 14.0867C17.7436 14.1031 17.8448 14.089 17.897 14.0273C17.9913 13.9371 17.9236 13.6647 17.9004 13.4528C17.8671 13.2309 17.8233 13.0107 17.7695 12.7935C17.6558 12.2775 17.5834 12.0219 17.6248 12.0046C17.6586 11.9897 17.7985 12.2205 17.9491 12.7432C18.0044 12.9669 18.0495 13.1934 18.0836 13.4217C18.1011 13.5365 18.1151 13.6492 18.127 13.7671C18.1321 13.8276 18.1354 13.893 18.1239 13.9637C18.1131 14.034 18.0823 14.1107 18.0279 14.1674C17.8902 14.2944 17.7359 14.2803 17.6305 14.2437C17.5227 14.2013 17.4583 14.1353 17.4132 14.0825C17.3257 13.9735 17.3065 13.9063 17.3206 13.893H17.3204Z" fill="#4F2D2A"/>
<path d="M18.8416 12.281C18.9591 12.281 19.0544 12.0991 19.0544 11.8749C19.0544 11.6506 18.9591 11.4688 18.8416 11.4688C18.7241 11.4688 18.6289 11.6506 18.6289 11.8749C18.6289 12.0991 18.7241 12.281 18.8416 12.281Z" fill="#4F2D2A"/>
<path d="M16.3494 12.5036C16.4669 12.5036 16.5622 12.3218 16.5622 12.0975C16.5622 11.8732 16.4669 11.6914 16.3494 11.6914C16.232 11.6914 16.1367 11.8732 16.1367 12.0975C16.1367 12.3218 16.232 12.5036 16.3494 12.5036Z" fill="#4F2D2A"/>
<path d="M18.9059 5.46864C17.4678 4.45627 15.6628 4.00383 13.9531 4.23504C13.946 4.23592 13.9389 4.23703 13.932 4.23792C12.7679 4.39907 11.7729 5.15675 11.2452 6.20836C11.2231 6.25225 11.201 6.29636 11.1782 6.34025C10.5424 7.57407 9.31923 8.40246 8.87474 9.75044C8.40768 11.1674 8.55245 12.5719 7.6491 13.8474C6.87104 14.9462 5.43754 15.5791 5.20534 17.0186C4.98221 18.4025 5.774 19.7259 5.24607 21.1042C4.82151 22.2124 3.58856 22.9685 3.6107 24.2045C3.62885 25.2211 3.4604 26.0635 2.76645 26.7149C2.70557 27.0982 2.61703 27.479 2.49219 27.8472C3.1578 27.9745 3.85242 27.8747 4.39961 27.4669C5.56925 26.5919 5.62835 24.8234 6.04428 23.3701C6.54232 21.6234 7.72657 20.1107 9.25127 19.2721C10.1869 18.7574 11.5775 18.4912 12.3673 17.7495C13.5657 16.6216 13.4444 14.4727 12.4784 13.1163C12.1707 12.6825 11.7506 12.2979 11.6481 11.7657C11.5514 11.2682 11.794 10.7187 12.2141 10.4786C12.6358 10.237 13.2002 10.3255 13.5383 10.6855C13.7736 10.9342 13.8358 12.389 14.1505 12.5016C14.1924 12.4974 14.2371 12.4655 14.2849 12.4163C14.6127 11.2104 15.2075 10.0592 16.152 9.29291C16.9332 8.65805 17.9324 8.3211 18.9216 8.35591C18.9938 8.35879 19.131 8.37918 19.2494 8.42529C19.9786 7.48252 20.2055 6.38348 18.9059 5.4682V5.46864Z" fill="#2E363A"/>
<g opacity="0.5">
<path d="M11.9997 11.3691C12.0653 11.0805 12.2953 10.8416 12.5684 10.7784C12.6848 10.7516 12.8225 10.762 12.8996 10.8584C12.9899 10.9715 12.9529 11.151 12.8661 11.2672C12.7794 11.3833 12.6545 11.4591 12.5503 11.5576C12.446 11.656 12.3572 11.7979 12.3829 11.9435C12.4 12.0413 12.4721 12.1922 12.3344 12.2297C12.2322 12.2574 12.2103 12.1579 12.1664 12.084C12.0329 11.8599 11.938 11.642 11.9997 11.3689V11.3691Z" fill="#FFAB90"/>
</g>
<g opacity="0.5">
<path d="M13.9846 15.4297C14.3992 16.4281 15.127 17.2718 16.0255 17.7994C16.3799 18.0044 16.7564 18.1625 17.1458 18.2666C17.1141 18.1893 17.092 18.1288 17.0856 18.0886C17.0508 17.8366 17.2629 16.6804 17.2629 16.6804C17.2629 16.6804 17.2912 16.6804 17.3419 16.6737C16.1457 16.583 14.9749 16.1492 13.9844 15.4299L13.9846 15.4297Z" fill="#FFAB90"/>
</g>
<path d="M23.8835 15.2275C23.9979 15.4366 23.945 15.6993 23.843 15.9147C23.7409 16.1302 23.5937 16.3237 23.5134 16.5483C23.3064 17.1275 23.5928 17.7748 23.9935 18.2409C24.3941 18.7073 24.9084 19.0682 25.288 19.5519C25.6676 20.0356 25.896 20.7197 25.6143 21.2663C25.4482 21.5886 25.1282 21.8174 24.9929 22.1537C24.8335 22.5507 24.9677 23.0042 25.1554 23.3888C25.3429 23.7734 25.5864 24.1425 25.6565 24.5646C25.7267 24.9868 25.5547 25.4931 25.149 25.6277C25.0177 25.6711 24.8676 25.6698 24.7468 25.6026C24.6412 25.5441 24.5675 25.4426 24.4964 25.3451C23.7907 24.377 22.8834 23.4039 21.6938 23.2722C21.2004 23.2177 20.6913 23.3152 20.2105 23.1922C19.6301 23.0437 19.1496 22.5564 19.0084 21.9734C18.9402 21.6917 18.9459 21.3938 18.8574 21.1178C18.6593 20.5013 18.024 20.0863 17.8834 19.4541C17.7387 18.8029 18.1776 18.156 18.7035 17.7466C19.2295 17.3372 19.8592 17.0685 20.3515 16.619C20.866 16.1492 21.2044 15.4904 21.2868 14.7979C21.7286 14.7181 22.2023 14.8358 22.5556 15.1136" fill="#2E363A"/>
<path d="M2.02068 31.0862C2.12959 31.0862 5.61372 31.4861 6.08543 32.3583C6.55714 33.2306 11.1664 36.4289 11.5657 36.3562C11.9651 36.2835 12.1101 34.648 12.6546 34.3208C13.1989 33.9936 13.5256 35.9563 13.5256 35.9563C13.5256 35.9563 15.4169 34.796 16.542 35.068C17.6672 35.34 17.6267 38.0278 16.0298 39.0091C14.433 39.9905 12.4731 40.0268 11.5657 39.9178C10.6584 39.8087 2.6376 38.8274 1.51267 34.9749C0.387524 31.1223 2.02068 31.0859 2.02068 31.0859V31.0862Z" fill="#FEC9AC"/>
<path d="M16.0303 39.0087C14.4333 39.9891 12.4738 40.0266 11.5669 39.9169C10.6587 39.8085 2.6388 38.8265 1.51254 34.9743C0.387616 31.1221 2.02077 31.0859 2.02077 31.0859C2.13057 31.0859 5.61492 31.4849 6.08552 32.357C6.18513 32.5421 6.47112 32.8314 6.86226 33.1696C8.32077 34.4378 11.252 36.4116 11.5667 36.3553C11.9652 36.283 12.111 34.6475 12.6556 34.3208C13.1999 33.9925 13.5264 35.9563 13.5264 35.9563C13.5264 35.9563 15.4179 34.7952 16.5428 35.0669C16.8691 35.145 17.0973 35.4269 17.217 35.8102C17.513 36.7516 17.165 38.3118 16.0301 39.0089L16.0303 39.0087Z" fill="#FEC9AC"/>
<g opacity="0.5">
<path d="M16.0303 39.0087C14.4333 39.9891 12.4738 40.0266 11.5669 39.9169C10.6587 39.8085 2.6388 38.8265 1.51254 34.9743C0.387616 31.1221 2.02077 31.0859 2.02077 31.0859C2.13057 31.0859 5.61492 31.4849 6.08552 32.357C6.18513 32.5421 6.47112 32.8314 6.86226 33.1696C6.57781 34.0922 6.84056 35.1767 7.43557 35.9634C8.15763 36.9192 9.27658 37.4991 10.4117 37.8837C11.4312 38.2293 12.5126 38.4419 13.5826 38.3306C14.654 38.2178 15.7138 37.7523 16.3998 36.9221C16.6929 36.5679 16.9109 36.1558 17.217 35.8102C17.513 36.7516 17.165 38.3118 16.0301 39.0089L16.0303 39.0087Z" fill="#FFAB90"/>
</g>
<path d="M8.215 26.6289C7.23727 27.6697 6.20509 28.7465 4.8836 29.1899C3.95657 29.5009 2.84935 29.3838 2.06929 28.8252C1.99514 28.9602 1.91523 29.0912 1.82979 29.2183C1.2744 30.0435 0.81952 30.9318 0.542826 31.8876C0.519362 31.9685 0.49612 32.0497 0.472656 32.1308C0.472656 32.1308 2.94697 34.3311 7.29217 33.0423C7.29217 33.0423 7.27114 33.2303 7.23705 33.5564C8.05651 31.3674 8.40581 28.9766 8.21478 26.6289H8.215Z" fill="#61BA76"/>
<path d="M21.5942 29.795C21.6022 29.72 21.9672 29.7504 22.6675 29.6347C23.2628 29.5538 23.8416 29.3452 24.3518 29.0278C24.9648 28.6704 25.2266 28.4144 25.2818 28.468C25.3231 28.5017 25.1381 28.8498 24.5094 29.2834C23.9631 29.623 23.3458 29.8455 22.7085 29.9322C21.9473 29.9991 21.5834 29.8491 21.594 29.795H21.5942Z" fill="white"/>
<path d="M7.32041 31.1934C7.35074 31.2245 6.95186 31.68 5.85615 32.0912C4.92269 32.4051 3.91641 32.4949 2.94245 32.3505C1.79273 32.1395 1.31947 31.7618 1.34471 31.7245C1.37791 31.6456 1.88725 31.9076 2.98561 32.0533C3.91265 32.1907 4.87333 32.1052 5.76141 31.8061C6.81771 31.4683 7.27304 31.1203 7.32041 31.1934Z" fill="white"/>
<path d="M5.91031 17.0528C6.31429 18.4112 6.08408 19.9449 5.29893 21.1242C4.8011 21.8719 4.10892 22.4638 3.46235 23.0869C2.81577 23.71 2.19177 24.3988 1.89117 25.2453C1.59057 26.0921 1.68243 27.1333 2.32679 27.7586C2.82418 28.2414 3.54469 28.3984 4.22779 28.513C4.61959 28.5786 5.02024 28.6373 5.41271 28.5753C5.80517 28.5132 6.19431 28.3119 6.39154 27.9665C6.67288 27.4738 6.50399 26.8303 6.73287 26.3109C7.01466 25.6711 7.78386 25.4289 8.46918 25.2945C9.1545 25.1604 9.92083 25.0181 10.329 24.4506C10.8348 23.7473 10.549 22.7174 10.9654 21.9575C11.3433 21.2679 12.1968 20.9777 12.6672 20.3477C13.1382 19.7171 13.1469 18.8654 13.136 18.078C13.1243 17.2352 13.0957 16.3363 12.6156 15.6441C12.3059 15.1974 11.8378 14.8846 11.5013 14.4579C11.0192 13.847 10.8412 13.0392 10.8569 12.2607C10.8727 11.4822 11.0661 10.7194 11.2583 9.96484" fill="#2E363A"/>
<path d="M21.097 33.2645C21.19 33.3177 21.2666 33.3795 21.3286 33.4496C21.3895 33.5205 21.426 33.5901 21.4377 33.6613L21.1236 33.6936C21.1187 33.6458 21.0913 33.5941 21.0439 33.5376C20.9943 33.4808 20.9337 33.4321 20.8617 33.3911C20.7911 33.3507 20.7174 33.325 20.6437 33.3164C20.5689 33.307 20.5023 33.319 20.4434 33.3534C20.3845 33.3877 20.3639 33.4274 20.3787 33.472C20.3925 33.5159 20.4569 33.5912 20.5704 33.6974C20.6853 33.8042 20.7475 33.8978 20.7584 33.9785C20.7692 34.0605 20.7132 34.1376 20.5868 34.2119C20.4615 34.2855 20.3115 34.3179 20.1375 34.3097C19.9635 34.3001 19.7981 34.2516 19.6423 34.1625C19.4147 34.0321 19.2903 33.8712 19.2695 33.6792L19.6071 33.6591C19.6277 33.8173 19.718 33.9423 19.8763 34.0328C19.9548 34.0778 20.0341 34.1039 20.1144 34.1113C20.1959 34.1179 20.2625 34.1048 20.3181 34.0722C20.3734 34.0397 20.3953 34.002 20.3827 33.9588C20.3701 33.9155 20.3225 33.8563 20.2404 33.7796C20.1594 33.7036 20.1007 33.6431 20.0669 33.5994C20.033 33.5544 20.0113 33.5099 20.0031 33.4653C19.981 33.3782 20.0372 33.2957 20.17 33.2175C20.303 33.1392 20.4542 33.1062 20.6249 33.1204C20.7944 33.1339 20.9521 33.1816 21.0968 33.2645H21.097Z" fill="white"/>
<path d="M23.1355 34.4756L22.3286 34.9499C22.1214 35.0718 21.9047 35.1328 21.6772 35.1326C21.4499 35.1324 21.2453 35.0807 21.0647 34.9774C20.8843 34.8741 20.7926 34.7562 20.7891 34.6243C20.7867 34.4931 20.8881 34.3658 21.0952 34.2439L21.9021 33.7695L22.1476 33.9101L21.3509 34.3785C21.219 34.456 21.1486 34.5365 21.1393 34.6199C21.1278 34.7032 21.1789 34.7775 21.2931 34.8429C21.4076 34.9083 21.536 34.9369 21.6807 34.9298C21.8233 34.9227 21.9612 34.8808 22.0931 34.8032L22.8898 34.3348L23.1352 34.4753L23.1355 34.4756Z" fill="white"/>
<path d="M54.3977 46.5818C54.3999 46.9101 54.1345 47.1781 53.6973 47.1804L42.3506 47.2318L39.0635 47.2453L13.966 47.357C13.7453 47.357 13.4777 47.0912 13.4777 46.763L13.4264 35.4291L13.375 24.064C13.375 23.7335 13.6404 23.4677 13.9682 23.4655L53.6995 23.2891C54.0273 23.2869 54.2949 23.5526 54.2972 23.8809L54.3419 33.9306L54.3977 46.5821V46.5818Z" fill="#FE4C40"/>
<path d="M44.2686 28.3655C44.006 28.0496 43.875 27.6477 43.875 27.1599C43.875 26.672 44.006 26.2701 44.2686 25.9542C44.5311 25.6383 44.9025 25.4805 45.3835 25.4805C45.8645 25.4805 46.2362 25.6385 46.4983 25.9542C46.7608 26.2701 46.8919 26.672 46.8919 27.1599C46.8919 27.6477 46.7608 28.0499 46.4983 28.3655C46.236 28.6814 45.8643 28.8392 45.3835 28.8392C44.9028 28.8392 44.5309 28.6814 44.2686 28.3655ZM46.0113 27.929C46.1614 27.7289 46.2362 27.4726 46.2362 27.1596C46.2362 26.8466 46.1614 26.5904 46.0113 26.3902C45.8614 26.19 45.652 26.0898 45.3838 26.0898C45.1155 26.0898 44.9056 26.19 44.756 26.3902C44.6061 26.5904 44.5313 26.8469 44.5313 27.1596C44.5313 27.4724 44.6061 27.7289 44.756 27.929C44.9059 28.1294 45.115 28.2294 45.3838 28.2294C45.6525 28.2294 45.8617 28.1294 46.0113 27.929ZM45.1679 32.1936C45.1055 32.1342 45.0743 32.0608 45.0743 31.973C45.0743 31.9167 45.0898 31.8637 45.1212 31.8134L48.9345 25.7052C48.9969 25.6053 49.0846 25.5552 49.197 25.5552C49.2907 25.5552 49.367 25.5802 49.4266 25.6301C49.4859 25.6802 49.5156 25.7491 49.5156 25.8365C49.5156 25.9054 49.4937 25.9741 49.4498 26.0428L45.6647 32.1138C45.6332 32.1639 45.5927 32.2044 45.5429 32.2357C45.4929 32.2669 45.44 32.2827 45.3838 32.2827C45.3025 32.2827 45.2304 32.253 45.1682 32.1936H45.1679ZM48.0726 31.8839C47.8103 31.568 47.679 31.1661 47.679 30.6782C47.679 30.1903 47.8103 29.7884 48.0726 29.4725C48.3351 29.1567 48.7065 28.9988 49.1875 28.9988C49.6685 28.9988 50.0402 29.1569 50.3025 29.4725C50.5648 29.7884 50.6958 30.1903 50.6958 30.6782C50.6958 31.1661 50.5648 31.5682 50.3025 31.8839C50.04 32.1995 49.6683 32.3576 49.1875 32.3576C48.7067 32.3576 48.3349 32.1995 48.0726 31.8839ZM49.8153 31.4474C49.9654 31.2472 50.0402 30.991 50.0402 30.678C50.0402 30.365 49.9654 30.109 49.8153 29.9086C49.6654 29.7084 49.4563 29.6084 49.1877 29.6084C48.9192 29.6084 48.7098 29.7086 48.56 29.9086C48.4101 30.109 48.3353 30.3652 48.3353 30.678C48.3353 30.9908 48.4101 31.2472 48.56 31.4474C48.7101 31.6478 48.919 31.7478 49.1877 31.7478C49.4565 31.7478 49.6657 31.6478 49.8153 31.4474Z" fill="white"/>
<g opacity="0.52">
<path d="M39.0629 47.3105L13.9654 47.4222C13.7448 47.4222 13.4771 47.1564 13.4771 46.8281L13.4258 35.4943C16.1152 33.4219 19.4827 32.1914 23.1355 32.1914C31.659 32.1914 38.6191 38.8868 39.0629 47.3107V47.3105Z" fill="#EA241F"/>
</g>
<path d="M22.816 26.9879L22.8322 30.6411C22.8333 30.9006 22.6239 31.1126 22.3574 31.1139L16.472 31.1401C16.2054 31.1412 15.9941 30.9312 15.9927 30.6717L15.9766 27.0185C15.9755 26.7585 16.1849 26.547 16.4516 26.5457L22.337 26.5195C22.6035 26.5184 22.8149 26.7281 22.816 26.9879Z" fill="#FFC536"/>
<path d="M22.8133 27.3295L15.9766 27.3594L15.9773 27.5349L22.814 27.5051L22.8133 27.3295Z" fill="#2A2E33"/>
<path d="M22.825 28.7904L15.9883 28.8203L15.989 28.9959L22.8258 28.966L22.825 28.7904Z" fill="#2A2E33"/>
<path d="M22.825 30.1303L15.9883 30.1602L15.989 30.3357L22.8258 30.3058L22.825 30.1303Z" fill="#2A2E33"/>
<path d="M21.0308 26.5226L20.8555 26.5234L20.8595 27.4203L21.0348 27.4195L21.0308 26.5226Z" fill="#2A2E33"/>
<path d="M17.937 26.5422L17.7617 26.543L17.7658 27.4398L17.9411 27.439L17.937 26.5422Z" fill="#2A2E33"/>
<path d="M21.0503 30.218L20.875 30.2188L20.8791 31.1156L21.0544 31.1148L21.0503 30.218Z" fill="#2A2E33"/>
<path d="M17.9566 30.2375L17.7812 30.2383L17.7853 31.1352L17.9606 31.1344L17.9566 30.2375Z" fill="#2A2E33"/>
<path d="M20.6154 28.8186C20.6189 29.5913 20.0815 30.2186 19.415 30.2217C18.7416 30.2248 18.1986 29.6022 18.1953 28.8294C18.192 28.0567 18.7292 27.4289 19.4026 27.4258C20.0691 27.4229 20.6119 28.0458 20.6154 28.8186Z" fill="#FEE182"/>
<path d="M19.413 30.3184C18.6958 30.3215 18.1092 29.6543 18.1055 28.831C18.1017 28.0077 18.6826 27.3351 19.3998 27.332C20.1169 27.3289 20.7035 27.9962 20.7073 28.8195C20.7111 29.6427 20.1302 30.3153 19.413 30.3184ZM19.4006 27.5162C18.7848 27.5189 18.2859 28.1086 18.2892 28.8303C18.2923 29.5521 18.7966 30.1373 19.4124 30.1344C20.0282 30.1318 20.5271 29.5421 20.5238 28.8203C20.5207 28.0986 20.0164 27.5134 19.4006 27.5162Z" fill="#2A2E33"/>
<path d="M17.2142 35.8116C17.0944 35.4283 16.8662 35.1463 16.5399 35.0683C15.415 34.7965 13.5235 35.9577 13.5235 35.9577C13.5235 35.9577 13.1972 33.9939 12.6527 34.3222C12.1084 34.6489 11.9625 36.2844 11.5639 36.3567C11.4472 36.3775 10.9708 36.1193 10.3438 35.7218V39.7431C10.9474 39.8433 11.3885 39.8972 11.5639 39.918C12.4708 40.028 14.4302 39.9903 16.0273 39.0098C17.1622 38.3129 17.5101 36.7526 17.2142 35.8111V35.8116Z" fill="#FEC9AC"/>
<g opacity="0.5">
<path d="M17.214 35.8125C16.9078 36.1581 16.6898 36.5702 16.3967 36.9246C15.7107 37.7546 14.6509 38.2203 13.5795 38.3331C12.5095 38.4446 11.4279 38.2318 10.4086 37.8862C10.3869 37.8789 10.3654 37.8703 10.3438 37.8627V39.7445C10.9474 39.8447 11.3885 39.8986 11.5639 39.9194C12.4708 40.0294 14.4302 39.9917 16.0273 39.0112C17.1622 38.3143 17.5101 36.7539 17.2142 35.8125H17.214Z" fill="#FFAB90"/>
</g>
<g opacity="0.52">
<path d="M54.3986 46.6514C54.4008 46.9797 54.1354 47.2477 53.6982 47.25L42.3516 47.3014C43.2525 40.7936 48.0694 35.5386 54.3428 34L54.3986 46.6514Z" fill="#EA241F"/>
</g>
<path d="M26.5851 43.6964L25.9175 44.1815C25.8916 44.2003 25.8823 44.2333 25.8916 44.2639L26.1455 45.0477C26.1689 45.116 26.0914 45.1725 26.035 45.1302L25.3674 44.6452C25.3415 44.6264 25.3087 44.6264 25.2828 44.6452L24.6152 45.1302C24.5588 45.1725 24.4813 45.116 24.5048 45.0477L24.7587 44.2639C24.768 44.2333 24.7587 44.2003 24.7328 44.1815L24.0652 43.6964C24.0087 43.6565 24.037 43.5648 24.1074 43.5648H24.9324C24.963 43.5648 24.9911 43.5459 25.0006 43.5153L25.2567 42.7291C25.278 42.6632 25.3718 42.6632 25.3931 42.7291L25.6492 43.5153C25.6585 43.5459 25.6868 43.5648 25.7174 43.5648H26.5423C26.613 43.5648 26.6411 43.6565 26.5846 43.6964H26.5851Z" fill="#FFCF3D"/>
<path d="M18.796 43.6964L18.1284 44.1815C18.1025 44.2003 18.0932 44.2333 18.1025 44.2639L18.3564 45.0477C18.3799 45.116 18.3024 45.1725 18.2459 45.1302L17.5783 44.6452C17.5524 44.6264 17.5197 44.6264 17.4938 44.6452L16.8262 45.1302C16.7697 45.1725 16.6922 45.116 16.7157 45.0477L16.9696 44.2639C16.9791 44.2333 16.9696 44.2003 16.9437 44.1815L16.2761 43.6964C16.2196 43.6565 16.248 43.5648 16.3184 43.5648H17.1434C17.1739 43.5648 17.202 43.5459 17.2115 43.5153L17.4679 42.7291C17.4889 42.6632 17.583 42.6632 17.6042 42.7291L17.8603 43.5153C17.8699 43.5459 17.898 43.5648 17.9285 43.5648H18.7535C18.8241 43.5648 18.8522 43.6565 18.7958 43.6964H18.796Z" fill="#FFCF3D"/>
<path d="M22.6906 43.6964L22.023 44.1815C21.9971 44.2003 21.9878 44.2333 21.9971 44.2639L22.251 45.0477C22.2744 45.116 22.197 45.1725 22.1405 45.1302L21.4729 44.6452C21.447 44.6264 21.4143 44.6264 21.3884 44.6452L20.7208 45.1302C20.6643 45.1725 20.5868 45.116 20.6103 45.0477L20.8642 44.2639C20.8737 44.2333 20.8642 44.2003 20.8383 44.1815L20.1707 43.6964C20.1142 43.6565 20.1424 43.5648 20.213 43.5648H21.038C21.0685 43.5648 21.0966 43.5459 21.1061 43.5153L21.3622 42.7291C21.3835 42.6632 21.4773 42.6632 21.4986 42.7291L21.7549 43.5153C21.7642 43.5459 21.7926 43.5648 21.8231 43.5648H22.6481C22.7187 43.5648 22.7468 43.6565 22.6904 43.6964H22.6906Z" fill="#FFCF3D"/>
<path d="M29.812 44.1815C29.7861 44.2003 29.7768 44.2333 29.7861 44.2639L30.04 45.0477C30.0634 45.116 29.986 45.1725 29.9295 45.1302L29.2619 44.6452C29.236 44.6264 29.2033 44.6264 29.1774 44.6452L28.5098 45.1302C28.4533 45.1725 28.3758 45.116 28.3993 45.0477L28.6532 44.2639C28.6627 44.2333 28.6532 44.2003 28.6273 44.1815L27.9597 43.6964C27.9032 43.6565 27.9316 43.5648 28.002 43.5648H28.827C28.8575 43.5648 28.8856 43.5459 28.8951 43.5153L29.1515 42.7291C29.1727 42.6632 29.2666 42.6632 29.2878 42.7291L29.5439 43.5153C29.5534 43.5459 29.5816 43.5648 29.6121 43.5648H30.4371C30.5077 43.5648 30.5358 43.6565 30.4794 43.6964L29.8118 44.1815H29.812Z" fill="#FFCF3D"/>
<path d="M33.6167 44.1815C33.5908 44.2003 33.5815 44.2333 33.5908 44.2639L33.8447 45.0477C33.8681 45.116 33.7907 45.1725 33.7342 45.1302L33.0666 44.6452C33.0407 44.6264 33.008 44.6264 32.9821 44.6452L32.3144 45.1302C32.258 45.1725 32.1805 45.116 32.204 45.0477L32.4579 44.2639C32.4674 44.2333 32.4579 44.2003 32.432 44.1815L31.7644 43.6964C31.7079 43.6565 31.7363 43.5648 31.8067 43.5648H32.6316C32.6622 43.5648 32.6903 43.5459 32.6998 43.5153L32.9562 42.7291C32.9774 42.6632 33.0713 42.6632 33.0925 42.7291L33.3488 43.5153C33.3584 43.5459 33.3865 43.5648 33.417 43.5648H34.242C34.3126 43.5648 34.3407 43.6565 34.2843 43.6964L33.6167 44.1815Z" fill="#FFCF3D"/>
<path d="M78.0555 73.6016H75.4453V77.8583H78.0555V73.6016Z" fill="#FEC9AC"/>
<path d="M78.0555 74.2109V75.7163C77.1834 75.7682 76.3046 75.7072 75.4453 75.5339V74.2112H78.0555V74.2109Z" fill="#FFAB90"/>
<path d="M79.0571 79.4249H70.7687C70.571 79.4249 70.3906 79.3416 70.2596 79.2041C70.1286 79.0667 70.0469 78.8774 70.0469 78.6701C70.0469 78.3547 70.2337 78.073 70.5153 77.9604C71.3874 77.6179 72.9128 77.237 73.2351 76.899C73.6669 76.4483 74.4209 75.6933 74.9603 75.7319C75.4995 75.7702 75.8218 76.6738 76.649 77.2011C77.2356 77.5751 77.8693 76.6512 78.185 76.0835C78.2924 75.8919 78.5609 75.8895 78.662 76.0835C79.3323 77.3521 79.0574 79.4252 79.0574 79.4252L79.0571 79.4249Z" fill="#2E363A"/>
<path d="M87.6219 73.6016H85.0117V77.8583H87.6219V73.6016Z" fill="#FEC9AC"/>
<path d="M85.0117 73.3281V75.7118C85.8839 75.7636 86.7626 75.7027 87.6219 75.5293V73.3283H85.0117V73.3281Z" fill="#FFAB90"/>
<path d="M84.0092 79.4249H92.2976C92.4953 79.4249 92.6757 79.3416 92.8067 79.2041C92.9378 79.0667 93.0194 78.8774 93.0194 78.6701C93.0194 78.3547 92.8326 78.073 92.5511 77.9604C91.6789 77.6179 90.1536 77.237 89.8313 76.899C89.3994 76.4483 88.6455 75.6933 88.106 75.7319C87.5668 75.7702 87.2445 76.6738 86.4173 77.2011C85.8307 77.5751 85.197 76.6512 84.8813 76.0835C84.774 75.8919 84.5055 75.8895 84.4043 76.0835C83.734 77.3521 84.009 79.4252 84.009 79.4252L84.0092 79.4249Z" fill="#2E363A"/>
<path d="M73.6788 74.4534C73.6788 74.4534 75.7492 74.6181 77.5008 74.5398C77.7454 74.5296 77.984 74.513 78.21 74.4924C78.8493 74.4285 79.386 74.3215 79.6738 74.1404C80.7901 73.4426 80.7018 50.367 80.7018 50.367C80.7018 50.367 83.3992 74.1053 83.8514 74.3441C84.0159 74.4305 84.6698 74.3955 85.4715 74.2845C86.8798 74.0867 88.7465 73.6483 89.2153 73.216C89.7107 72.7589 89.1146 57.0047 88.6726 46.7724C88.5101 42.9738 88.3662 39.9349 88.3086 38.7244C88.2923 38.356 88.2819 38.1562 88.2819 38.1562L87.3258 38.1953L73.1341 38.7882C73.0046 39.1733 72.9388 40.5835 72.9203 42.6382C72.8339 51.9462 73.6788 74.4534 73.6788 74.4534Z" fill="#3A4146"/>
<path d="M72.918 42.6383C76.2485 42.9903 79.5544 43.577 82.8028 44.3904C84.5668 44.833 86.3328 45.3498 87.9015 46.2701C88.1647 46.4246 88.4217 46.5913 88.6705 46.7724C88.508 42.9739 88.3641 39.935 88.3066 38.7244C88.1401 38.6278 87.9734 38.5329 87.805 38.4445C87.6467 38.36 87.4862 38.2778 87.324 38.1953L73.1322 38.7883C73.0027 39.1733 72.937 40.5836 72.9184 42.6383H72.918Z" fill="#2E363A"/>
<path d="M72.316 32.6721L70.9978 39.9569C80.5511 41.2149 89.382 38.8986 89.382 38.8986L88.9338 34.2624L88.6843 31.6841C90.5856 31.0845 92.736 25.2293 92.736 25.2293C92.736 25.2293 91.3944 23.2606 88.9026 20.879C86.8956 18.9589 84.3688 17.6455 81.6266 17.2119C79.0664 16.8064 76.5326 17.1604 74.2814 18.5654C73.9649 18.7625 73.6382 18.999 73.305 19.2656C69.6921 22.156 65.3438 28.6412 65.3438 28.6412C68.4113 32.9024 72.3162 32.6721 72.3162 32.6721H72.316Z" fill="#71C687"/>
<path d="M72.4062 32.3455C72.4062 32.3455 78.032 34.2527 82.9065 34.2031C85.2499 34.1794 87.4208 33.7037 88.7084 32.3455L88.1227 27.1094C88.1227 27.1094 82.9246 28.6686 76.2797 27.6913C75.3366 27.5523 74.365 27.3625 73.3742 27.1094L72.4062 32.3455Z" fill="white"/>
<path d="M72.316 32.6719L70.9978 39.9569C78.1387 41.746 89.3331 39.5058 89.382 38.8986L88.9338 34.2624C88.4687 34.369 87.9988 34.4552 87.5251 34.5175C85.4521 34.7884 83.2746 34.5656 81.4141 33.6084C79.4914 32.62 78.0155 30.9085 76.9547 29.0218C75.8949 27.1352 75.2122 25.0648 74.536 23.0081C74.126 21.761 73.715 20.5127 73.305 19.2656C69.6921 22.156 65.3438 28.6412 65.3438 28.6412C68.4113 32.9024 72.3162 32.6721 72.3162 32.6721L72.316 32.6719Z" fill="#61BA76"/>
<path d="M77.2346 17.3331C77.4918 18.0959 78.4465 18.6201 79.1697 18.8189C79.8557 19.0076 80.5824 19.0236 81.2706 18.8416C82.8209 18.4315 82.8592 17.4699 82.8592 17.4699C82.5974 17.3852 82.4699 16.7162 82.4101 15.9964C82.3344 15.0891 82.3638 14.1016 82.3638 14.1016H78.2466C78.2466 14.1016 78.126 15.3547 77.995 16.3196C77.9679 16.514 77.9002 16.7004 77.7942 16.862C77.7005 17.0079 77.5775 17.1356 77.4285 17.2316C77.3167 17.3038 77.2344 17.3333 77.2344 17.3333L77.2346 17.3331Z" fill="#FEC9AC"/>
<g opacity="0.5">
<path d="M77.7969 16.8618C79.2038 17.3714 80.8649 17.2054 82.0562 16.3014C82.1815 16.2066 82.2999 16.1048 82.4128 15.9964C82.3371 15.0891 82.3665 14.1016 82.3665 14.1016H78.2493C78.2493 14.1016 78.1287 15.3547 77.9976 16.3196C77.9706 16.514 77.9029 16.7004 77.7969 16.862V16.8618Z" fill="#FFAB90"/>
</g>
<path d="M76.9881 18.5306C77.0136 18.5071 77.1393 18.6115 77.3932 18.8057C77.648 18.997 78.0383 19.2803 78.6211 19.5312C79.5979 19.9761 80.7313 20.055 81.7639 19.764C82.3819 19.6084 82.7976 19.3827 83.0207 19.1739C83.2474 18.9675 83.305 18.8104 83.3428 18.8257C83.3665 18.8292 83.3689 19.0203 83.1513 19.2963C82.9386 19.5727 82.4866 19.8642 81.8447 20.0535C80.7461 20.3634 79.539 20.2792 78.498 19.8052C77.8891 19.5122 77.5039 19.1772 77.2746 18.9396C77.0459 18.698 76.9651 18.5512 76.9881 18.5306Z" fill="white"/>
<path d="M70.7938 30.996C70.7832 31.047 70.2818 31.0222 69.3736 30.6236C68.6192 30.261 67.9228 29.7784 67.3179 29.1994C66.6259 28.4896 66.4256 28.0285 66.4709 27.9997C66.5331 27.9543 66.8229 28.3398 67.5246 28.9819C68.1068 29.5394 68.7777 30.0043 69.5037 30.3532C70.352 30.7848 70.8146 30.9205 70.7936 30.9963L70.7938 30.996Z" fill="white"/>
<path d="M89.2354 29.2171C89.1898 29.1613 89.4627 28.905 89.9327 28.3362C90.3448 27.8665 90.6899 27.3374 90.9536 26.7706C91.2845 26.1115 91.4091 25.7584 91.48 25.7781C91.5355 25.7914 91.5209 26.1829 91.2252 26.898C90.9494 27.4905 90.589 28.0432 90.1582 28.5342C89.623 29.0932 89.2708 29.2641 89.2354 29.2171Z" fill="white"/>
<path d="M72.4062 32.3492C72.4062 32.3492 78.032 34.2564 82.9065 34.2068C82.3931 34.0543 81.8933 33.8565 81.4147 33.6102C79.4921 32.6227 78.0163 30.9107 76.9555 29.0239C76.7118 28.5901 76.4874 28.1458 76.2797 27.6952C75.3366 27.5562 74.365 27.3664 73.3742 27.1133L72.4062 32.3494V32.3492Z" fill="#E4ECF9"/>
<path d="M78.207 74.4909C78.8463 74.4271 79.3831 74.32 79.6709 74.1389C80.7872 73.4411 80.6988 50.3656 80.6988 50.3656C80.6988 50.3656 83.3963 74.1039 83.8485 74.3426C84.013 74.4291 84.6668 74.3941 85.4686 74.283C84.2206 66.0641 81.0607 47.3329 80.1933 47.3125L78.2073 74.4912L78.207 74.4909Z" fill="#2E363A"/>
<path d="M57.3861 23.8672C56.8775 23.976 57.08 27.065 57.994 29.0095C58.2082 29.4633 58.6266 30.0487 59.1831 30.6782C61.0108 32.7449 64.315 35.2919 66.6828 35.2739C67.0388 35.2708 67.3673 35.232 67.6656 35.1635C69.9697 34.6426 70.6734 32.4516 70.6734 32.4516C70.0359 32.2166 68.4357 31.2156 65.5723 28.9064C65.5502 29.0381 65.1309 30.1447 64.8854 30.5317C64.8801 30.5401 64.8741 30.5468 64.8655 30.5488C64.452 30.8545 60.223 28.2002 60.223 28.2002C60.223 28.2002 59.8835 27.8371 59.9295 27.2306C59.9751 26.6223 60.0723 25.4752 59.5501 25.4472C59.0268 25.4215 58.9423 28.0053 58.8272 27.0313C58.73 26.2238 58.1536 24.5087 57.6677 24.0053C57.5692 23.9015 57.4725 23.8483 57.3861 23.8669V23.8672Z" fill="#FEC9AC"/>
<path d="M57.3861 23.8669C56.8775 23.9758 57.08 27.0648 57.994 29.0093C58.2082 29.463 58.6266 30.0485 59.1831 30.678C58.4509 29.2961 57.9163 27.8076 57.6177 26.2716C57.4736 25.5233 57.3972 24.6951 57.6677 24.0053C57.5692 23.9015 57.4725 23.8483 57.3861 23.8669Z" fill="#FFAB90"/>
<g opacity="0.5">
<path d="M65.574 28.9062C65.5518 29.0379 65.1326 30.1445 64.8871 30.5315C64.8818 30.54 64.8758 30.5466 64.8672 30.5486C65.8113 31.2952 66.58 32.2612 67.0867 33.3532C67.3548 33.9295 67.5482 34.5383 67.6676 35.1634C69.9716 34.6424 70.6753 32.4514 70.6753 32.4514C70.0378 32.2165 68.4376 31.2154 65.5742 28.9062H65.574Z" fill="#FFAB90"/>
</g>
<path d="M57.3859 23.8669C57.4725 23.8483 57.569 23.9015 57.6675 24.0053C58.1531 24.5089 58.7295 26.2238 58.8269 27.0313C58.942 28.0053 59.0266 25.4213 59.5499 25.4472C60.0718 25.4752 59.9749 26.6223 59.9293 27.2306C59.8835 27.8371 60.2228 28.2002 60.2228 28.2002C60.2228 28.2002 62.2447 29.4688 63.629 30.1509V34.3046C61.9627 33.3775 60.2981 31.9389 59.1831 30.678C58.6266 30.0485 58.2082 29.463 57.994 29.0091C57.08 27.0648 56.8775 23.9758 57.3861 23.8667L57.3859 23.8669Z" fill="#FEC9AC"/>
<path d="M57.3861 23.8669C56.8775 23.9758 57.08 27.0648 57.994 29.0093C58.2082 29.463 58.6266 30.0485 59.1831 30.678C58.4509 29.2961 57.9163 27.8076 57.6177 26.2716C57.4736 25.5233 57.3972 24.6951 57.6677 24.0053C57.5692 23.9015 57.4725 23.8483 57.3861 23.8669Z" fill="#FFAB90"/>
<path d="M76.8669 12.7046C76.9778 13.4942 77.1378 14.327 77.6764 14.9142C78.1543 15.4349 78.8739 15.6827 79.5798 15.7162C79.963 15.7346 80.351 15.6951 80.7132 15.5681C81.4474 15.3116 82.0154 14.7267 82.5254 14.1408C82.7149 13.9244 82.9013 13.7036 83.0772 13.4751C83.2592 13.2386 83.4867 13.0439 83.7307 12.8724C83.7318 12.8715 83.7329 12.8708 83.734 12.8699C83.9286 12.7329 84.0875 12.5503 84.2378 12.3678C84.3584 12.2222 84.4804 12.0682 84.5114 11.8842C84.5397 11.7177 84.4879 11.5437 84.3919 11.4067C84.3328 11.3253 84.2613 11.2548 84.18 11.1957C84.3376 10.342 84.2467 9.43891 83.9078 8.63801C83.4569 7.57199 82.5734 6.69728 81.503 6.25948L77.515 5.63281C77.4978 6.22999 77.2428 6.78883 77.0617 7.35631C76.5123 9.06872 76.6181 10.9219 76.8671 12.7046H76.8669Z" fill="#FEC9AC"/>
<path d="M75.2535 7.54184C75.4133 7.91336 75.6139 8.27601 75.9111 8.55088C76.2082 8.82576 76.6139 9.00243 77.0153 8.95122C77.3486 8.90733 77.6412 8.71559 77.9503 8.5797C78.1555 8.48749 78.4328 8.5163 78.6818 8.59633C78.9532 8.68699 79.2383 8.73221 79.5234 8.7065L79.7738 8.68544C79.7362 8.50411 79.4796 8.49657 79.3364 8.37887C80.3469 8.27158 81.3921 8.9029 81.7691 9.84855C81.9063 10.1959 82.2317 12.243 82.2317 12.243C82.2317 12.243 82.7464 11.1566 82.929 11.0857C83.1718 10.9921 83.4478 10.9241 83.7057 10.989C83.9078 11.0389 84.1881 11.1651 84.2666 11.2852C84.3631 10.8789 84.4519 10.6501 84.6259 10.2972C84.8867 9.76808 84.9759 9.1658 84.9214 8.57837C84.9004 8.34429 84.8596 8.11308 84.8083 7.88365C84.7315 7.53785 84.6288 7.19647 84.5263 6.85665C84.3693 6.34171 84.208 5.81901 83.9125 5.36901C83.4992 4.74058 82.8446 4.29502 82.1359 4.04275C81.4284 3.79049 80.6667 3.71956 79.9157 3.72709C79.4331 3.73308 78.9475 3.77099 78.4859 3.91441C78.026 4.05783 77.5917 4.31608 77.2975 4.69979C77.2054 4.8206 77.1286 4.95205 77.0562 5.08638C76.9491 5.28722 76.8526 5.49714 76.7335 5.69199C76.4408 6.1708 76.0006 6.55895 75.4892 6.7886C75.3987 6.82938 75.3022 6.86707 75.2373 6.94421C75.1016 7.10426 75.1694 7.34898 75.2539 7.54228L75.2535 7.54184Z" fill="#2E363A"/>
<g opacity="0.5">
<path d="M83.1062 12.5753C83.0972 12.666 83.1695 12.7566 83.2585 12.767C83.3024 12.773 83.3444 12.7626 83.3851 12.746C83.5268 12.6901 83.6355 12.5724 83.7291 12.4516C83.8996 12.2326 84.0503 11.9788 84.0565 11.7008C84.0581 11.6132 84.043 11.5197 83.9841 11.4545C83.9011 11.3623 83.7548 11.3563 83.6342 11.3896C83.3913 11.4545 83.1908 11.6554 83.1228 11.897L83.1062 12.5751V12.5753Z" fill="#FFAB90"/>
</g>
<path d="M77.3779 6.85355C77.6781 7.04086 78.0672 6.97591 78.4097 6.8868C78.9436 6.74781 79.485 6.56205 80.0324 6.63165C80.5754 6.69815 81.0777 7.03199 81.3537 7.50304C81.4216 7.62075 81.4774 7.74622 81.5589 7.85506C81.7579 8.11929 82.0943 8.24919 82.4231 8.27335C82.7533 8.29751 83.0807 8.22791 83.4034 8.15852C83.7202 8.09202 84.0354 8.02419 84.3506 7.95614C84.5029 7.92289 84.6523 7.89119 84.8077 7.88365C84.7309 7.53785 84.6282 7.19647 84.5257 6.85665C84.3688 6.34171 84.2074 5.81901 83.9119 5.36901C83.4986 4.74058 82.8441 4.29502 82.1353 4.04275C81.4278 3.79049 80.6662 3.71956 79.9151 3.72709C79.4325 3.73308 78.9469 3.77099 78.4854 3.91441C78.0254 4.05783 77.5911 4.31607 77.2969 4.69979C77.2048 4.8206 77.128 4.95205 77.0556 5.08638C77.0284 5.30983 76.9832 5.53482 76.9666 5.76004C76.935 6.16925 77.03 6.63764 77.3784 6.85355H77.3779Z" fill="#3A4146"/>
<path d="M81.0692 10.4914C81.0852 10.4819 81.0878 10.4464 81.0624 10.3879C81.0367 10.3302 80.9816 10.2482 80.876 10.1722C80.6918 10.0538 80.4547 10.0164 80.2431 10.0724C80.1196 10.1123 80.0419 10.1733 80.0001 10.2203C79.958 10.2684 79.9498 10.3032 79.9624 10.3174C79.991 10.3513 80.0868 10.2848 80.2874 10.248C80.4547 10.2043 80.6343 10.2327 80.7801 10.3256C80.9599 10.4225 81.0307 10.5153 81.0692 10.4914Z" fill="#4F2D2A"/>
<path d="M78.4849 9.97343C78.5093 9.94993 78.4555 9.8289 78.239 9.71318C78.0511 9.63139 77.8432 9.5988 77.6391 9.6192C77.3978 9.66287 77.3097 9.76195 77.3261 9.79254C77.3438 9.83222 77.4516 9.80474 77.6568 9.79941C77.8297 9.7819 78.0081 9.80983 78.1673 9.87944C78.361 9.94727 78.4553 10.0065 78.4849 9.97343Z" fill="#4F2D2A"/>
<path d="M79.3295 13.0555C79.3142 13.0416 79.2631 13.0823 79.1679 13.1488C79.1205 13.1805 79.0588 13.218 78.9861 13.2333C78.9171 13.2484 78.8186 13.2353 78.7677 13.1788C78.6758 13.0959 78.7418 12.8456 78.7646 12.651C78.7969 12.4473 78.8396 12.2451 78.8921 12.0454C79.003 11.5714 79.0734 11.3367 79.0331 11.3209C79.0001 11.3072 78.8637 11.5193 78.717 11.9993C78.6632 12.2047 78.6191 12.4127 78.5859 12.6224C78.5689 12.7279 78.5554 12.8312 78.5437 12.9396C78.5386 12.9952 78.5355 13.0553 78.5468 13.1202C78.5574 13.1848 78.5873 13.2552 78.6404 13.3073C78.7745 13.4239 78.9248 13.4111 79.0275 13.3774C79.1325 13.3386 79.1953 13.2779 79.2394 13.2295C79.3246 13.1293 79.3434 13.0677 79.3295 13.0553V13.0555Z" fill="#4F2D2A"/>
<path d="M78.9847 14.0836C78.9803 14.1009 79.0184 14.1328 79.1076 14.1614C79.1961 14.1887 79.338 14.2166 79.527 14.1958C79.8445 14.1475 80.1482 14.0031 80.3722 13.7604C80.4972 13.6095 80.54 13.4538 80.5344 13.3541C80.5296 13.2528 80.4944 13.2111 80.4775 13.2151C80.4326 13.2204 80.4694 13.4046 80.2374 13.6398C80.0508 13.8431 79.7787 13.9759 79.5007 14.0167C79.1711 14.0772 78.9951 14.0368 78.9849 14.0836H78.9847Z" fill="#4F2D2A"/>
<path d="M77.848 11.5738C77.9626 11.5738 78.0554 11.4069 78.0554 11.201C78.0554 10.9951 77.9626 10.8281 77.848 10.8281C77.7335 10.8281 77.6406 10.9951 77.6406 11.201C77.6406 11.4069 77.7335 11.5738 77.848 11.5738Z" fill="#4F2D2A"/>
<path d="M80.2777 11.7809C80.3923 11.7809 80.4851 11.6139 80.4851 11.408C80.4851 11.2021 80.3923 11.0352 80.2777 11.0352C80.1632 11.0352 80.0703 11.2021 80.0703 11.408C80.0703 11.6139 80.1632 11.7809 80.2777 11.7809Z" fill="#4F2D2A"/>
<path d="M80.5828 12.5169C79.831 12.3979 79.3162 11.6888 79.435 10.936C79.5539 10.1832 80.262 9.66758 81.0137 9.78662C81.7652 9.90566 82.2801 10.6148 82.1615 11.3674C82.0426 12.1202 81.3345 12.6358 80.583 12.5167L80.5828 12.5169ZM80.9881 9.94933C80.326 9.84448 79.7022 10.2987 79.5975 10.9617C79.4928 11.6247 79.9464 12.2494 80.6084 12.3542C81.2705 12.4591 81.8943 12.0049 81.999 11.3419C82.1037 10.6788 81.6501 10.0542 80.9881 9.94933Z" fill="white"/>
<path d="M77.4812 12.2435C76.7295 12.1245 76.2146 11.4153 76.3335 10.6625C76.4523 9.90975 77.1604 9.39414 77.9122 9.51318C78.6637 9.63222 79.1785 10.3413 79.0599 11.0939C78.941 11.8467 78.2329 12.3623 77.4814 12.2433L77.4812 12.2435ZM77.8865 9.67589C77.2244 9.57104 76.6006 10.0252 76.4959 10.6883C76.3912 11.3513 76.8448 11.9759 77.5069 12.0808C78.1689 12.1857 78.7927 11.7314 78.8974 11.0684C79.0021 10.4054 78.5486 9.78074 77.8865 9.67589Z" fill="white"/>
<path d="M78.9601 10.7171C78.9335 10.7129 78.9094 10.6956 78.8977 10.6692C78.8793 10.6276 78.8981 10.579 78.9395 10.5606C78.9594 10.5518 79.43 10.3478 79.6948 10.6894C79.7227 10.7253 79.716 10.777 79.6802 10.8049C79.6443 10.8328 79.5925 10.8262 79.5648 10.7903C79.378 10.5493 79.0099 10.7094 79.0061 10.7111C78.9911 10.7178 78.9751 10.7196 78.9601 10.7173V10.7171Z" fill="white"/>
<path d="M69.2797 35.6094L59.1992 50.3108L60.1692 50.317L61.0717 50.3235L62.9558 50.3341L63.662 52.1305L63.9898 52.9751L64.3302 53.839L74.4105 39.1375L69.2797 35.6094Z" fill="#DB1616"/>
<path d="M69.9404 36.0664L60.168 50.319L61.0704 50.3254L70.5568 36.4905L69.9404 36.0664Z" fill="#EA241F"/>
<path d="M73.1585 38.2812L63.6602 52.1339L63.988 52.9785L73.7748 38.7051L73.1585 38.2812Z" fill="#EA241F"/>
<path d="M74.1974 35.6094L84.2777 50.3108L83.308 50.317L82.4053 50.3235L80.5211 50.3341L79.8152 52.1305L79.4874 52.9751L79.1467 53.839L69.0664 39.1375L74.1974 35.6094Z" fill="#DB1616"/>
<path d="M73.5342 36.0664L83.3068 50.319L82.4041 50.3254L72.918 36.4905L73.5342 36.0664Z" fill="#EA241F"/>
<path d="M70.3157 38.2812L79.814 52.1339L79.4862 52.9785L69.6992 38.7051L70.3157 38.2812Z" fill="#EA241F"/>
<path d="M72.6396 20.3984L76.0867 22.9064H80.3474L81.6642 26.9646L85.1112 29.4725L83.7945 33.5307L85.1112 37.5888L81.6642 40.0968L80.3474 44.1549H76.0867L72.6396 46.6629L69.1924 44.1549H64.9318L63.6149 40.0968L60.168 37.5888L61.4846 33.5307L60.168 29.4725L63.6149 26.9646L64.9318 22.9064H69.1924L72.6396 20.3984Z" fill="#FFB612"/>
<path d="M72.6393 23.3125L75.3208 25.2637H78.6353L79.6596 28.4205L82.3411 30.3714L81.3168 33.5282L82.3411 36.685L79.6596 38.636L78.6353 41.7928H75.3208L72.6393 43.7439L69.9578 41.7928H66.6432L65.619 38.636L62.9375 36.685L63.9617 33.5282L62.9375 30.3714L65.619 28.4205L66.6432 25.2637H69.9578L72.6393 23.3125Z" fill="#FFC536"/>
<path d="M72.639 40.407C76.4307 40.407 79.5045 37.3288 79.5045 33.5316C79.5045 29.7345 76.4307 26.6562 72.639 26.6562C68.8473 26.6562 65.7734 29.7345 65.7734 33.5316C65.7734 37.3288 68.8473 40.407 72.639 40.407Z" fill="#FFB612"/>
<path d="M73.685 29.168V36.159C73.685 36.6844 73.7076 37.0196 73.7545 37.1648C73.8006 37.3095 73.8967 37.4283 74.0436 37.5208C74.1904 37.6134 74.4257 37.6595 74.7491 37.6595H74.9443V37.8927H70.4495V37.6595H70.6759C71.0407 37.6595 71.3008 37.6172 71.4564 37.5332C71.6118 37.4494 71.7165 37.3337 71.7712 37.1867C71.8259 37.0397 71.8533 36.697 71.8533 36.1593V31.7276C71.8533 31.3326 71.8345 31.0856 71.7962 30.9868C71.7588 30.8881 71.6884 30.8041 71.5853 30.735C71.483 30.6654 71.3641 30.631 71.2298 30.631C71.0157 30.631 70.7556 30.6982 70.4493 30.8325L70.3359 30.6057L73.477 29.1686H73.6848L73.685 29.168Z" fill="white"/>
<path d="M95.5618 33.0534C95.4682 33.346 95.3321 33.6497 95.1514 33.9556C93.9473 35.999 90.0669 37.5265 87.3573 38.0313C86.7262 38.1496 86.1598 38.2121 85.7047 38.2121C85.2363 38.4622 84.7413 38.6544 84.2216 38.7661C83.189 38.9871 82.0651 38.8687 81.1596 38.3194C80.9654 38.2033 80.7627 38.0246 80.7826 37.7967C80.7959 37.6538 80.9008 37.5332 81.0234 37.4618C81.1483 37.3904 81.2911 37.3614 81.4316 37.3345C81.9268 37.2363 82.4217 37.1357 82.9147 37.0375C83.0619 37.0085 83.2157 36.9772 83.3295 36.8812C83.4433 36.7852 83.5013 36.6041 83.4143 36.4835C83.2917 36.3093 82.955 36.3406 82.9058 36.1329C82.8791 36.0189 82.9771 35.905 83.0887 35.8693C83.2002 35.8336 83.3207 35.856 83.4344 35.8782C83.8716 35.9631 84.3086 36.048 84.7457 36.1351C85.0959 36.0457 85.7693 35.8671 85.7693 35.8671C85.7693 35.8671 90.2183 33.6003 90.1692 33.0867C90.1714 33.0778 90.1692 33.0711 90.1647 33.0598C89.9595 32.6511 89.284 31.5478 89.1835 31.4609C90.5326 30.429 91.3667 28.3342 92.417 26.1836C92.417 26.1836 96.2996 30.8088 95.5614 33.0532L95.5618 33.0534Z" fill="#FEC9AC"/>
<path d="M40.856 0.801204V7.10354C40.856 7.54932 40.4972 7.90865 40.052 7.90865H31.4971L30.2145 9.7718L28.932 7.90865H27.7258C27.2807 7.90865 26.9219 7.54932 26.9219 7.10354V0.801204C26.9219 0.355423 27.2807 -0.00390625 27.7258 -0.00390625H40.0518C40.4969 -0.00390625 40.8557 0.355423 40.8557 0.801204H40.856Z" fill="#64D3FF"/>
<path d="M34.9487 3.09778H34.9483C34.7017 3.09778 34.4746 2.94926 34.3085 2.68015C34.1888 2.48552 34.04 2.38111 33.8869 2.38111C33.7337 2.38111 33.5849 2.48552 33.4683 2.67505C33.3 2.94815 33.0727 3.09645 32.8261 3.09645C32.5793 3.09645 32.352 2.94815 32.186 2.67882C32.0693 2.48929 31.9208 2.38488 31.7676 2.38466H31.7672C31.6144 2.38466 31.4659 2.48862 31.3492 2.67771C31.1812 2.94992 30.9541 3.09778 30.708 3.09778H30.7075C30.4609 3.09778 30.2338 2.94926 30.0678 2.68015C29.9503 2.48929 29.8017 2.38488 29.6486 2.38488C29.4956 2.38488 29.3473 2.48885 29.2306 2.67793C29.0626 2.95014 28.8355 3.098 28.5892 3.098H28.5887C28.3421 3.098 28.115 2.94948 27.949 2.68037C27.9114 2.61919 27.9304 2.53894 27.9915 2.50126C28.0524 2.46313 28.1325 2.48264 28.1704 2.5436C28.287 2.73313 28.4355 2.83754 28.5887 2.83754C28.7417 2.83754 28.89 2.73357 29.0066 2.54471C29.1746 2.2725 29.4018 2.12464 29.6481 2.12464H29.6486C29.8952 2.12464 30.1223 2.27316 30.2883 2.54249C30.4058 2.73313 30.5544 2.83754 30.7075 2.83776H30.708C30.8607 2.83776 31.0092 2.73379 31.1259 2.54471C31.2939 2.2725 31.521 2.12464 31.7672 2.12464H31.7676C32.0142 2.12464 32.2413 2.27316 32.4073 2.54249C32.5242 2.73202 32.6727 2.83643 32.8259 2.83643C32.9791 2.83643 33.1276 2.73202 33.2445 2.54249C33.4127 2.26939 33.64 2.12109 33.8869 2.12109C34.1337 2.12109 34.361 2.26939 34.527 2.53872C34.6468 2.73313 34.7953 2.83754 34.9485 2.83776C35.1014 2.83776 35.2497 2.73379 35.3664 2.54471C35.5344 2.2725 35.7615 2.12464 36.0077 2.12464H36.0081C36.2547 2.12464 36.4818 2.27316 36.6478 2.54249C36.7654 2.73313 36.9139 2.83776 37.0671 2.83776H37.0675C37.2202 2.83776 37.3688 2.73379 37.4854 2.54471C37.6534 2.2725 37.8805 2.12464 38.1267 2.12464H38.1271C38.3737 2.12464 38.6008 2.27316 38.7669 2.54249C38.8837 2.73202 39.0323 2.83643 39.1854 2.83643C39.3386 2.83643 39.4874 2.73202 39.604 2.54249C39.6419 2.48153 39.722 2.46202 39.7829 2.50015C39.844 2.53784 39.863 2.61808 39.8254 2.67926C39.6594 2.94859 39.432 3.09689 39.1852 3.09689C38.9384 3.09689 38.7113 2.94859 38.5453 2.67926C38.4286 2.48973 38.2801 2.38533 38.1269 2.3851H38.1265C37.9737 2.3851 37.8252 2.48907 37.7086 2.67815C37.5405 2.95037 37.3134 3.09822 37.0673 3.09822H37.0668C36.8203 3.09822 36.5931 2.9497 36.4271 2.68059C36.3096 2.48973 36.1611 2.38533 36.0079 2.38533C35.8549 2.38533 35.7066 2.48929 35.59 2.67838C35.422 2.95059 35.1948 3.09844 34.9485 3.09844L34.9487 3.09778Z" fill="white"/>
<path d="M28.5892 5.69588C28.337 5.70253 28.115 5.54758 27.949 5.27825C27.9114 5.21707 27.9304 5.13682 27.9915 5.09914C28.0524 5.06101 28.1325 5.08052 28.1704 5.14148C28.287 5.33101 28.4355 5.43541 28.5887 5.43541C28.7417 5.43541 28.89 5.33145 29.0066 5.14259C29.1746 4.87037 29.4018 4.72252 29.6479 4.72252H29.6483C29.8949 4.72252 30.122 4.87104 30.2881 5.14015C30.4056 5.33078 30.5541 5.43519 30.7073 5.43541H30.7078C30.8605 5.43541 31.009 5.33145 31.1257 5.14236C31.2937 4.87015 31.5208 4.7223 31.7669 4.7223H31.7674C32.014 4.7223 32.2411 4.87082 32.4071 5.14015C32.524 5.32968 32.6725 5.43408 32.8257 5.43408C32.9789 5.43408 33.1274 5.32968 33.2443 5.14015C33.4125 4.86705 33.6398 4.71875 33.8866 4.71875C34.0538 4.71875 34.212 4.7868 34.3482 4.91449C34.4571 5.01645 34.4334 5.1969 34.3083 5.27803L34.3052 5.27315C34.1883 5.08362 34.0398 4.97921 33.8866 4.97921C33.7335 4.97921 33.5847 5.08362 33.4681 5.27315C33.2998 5.54625 33.0725 5.69455 32.8259 5.69455C32.5791 5.69455 32.3518 5.54625 32.1857 5.27692C32.0691 5.08739 31.9206 4.98298 31.7674 4.98298H31.7669C31.6142 4.98298 31.4657 5.08695 31.349 5.27603C31.181 5.54824 30.9539 5.6961 30.7078 5.6961H30.7073C30.4607 5.6961 30.2336 5.54758 30.0676 5.27825C29.9501 5.08761 29.8015 4.9832 29.6483 4.98298C29.4954 4.98298 29.3471 5.08695 29.2304 5.27581C29.0622 5.54802 28.8353 5.69588 28.5892 5.69588Z" fill="white"/>
<path d="M62.3479 2.45847V7.36273C62.3479 7.70965 62.6272 7.98917 62.9736 7.98917H69.6309L70.6288 9.4389L71.6266 7.98917H72.5652C72.9116 7.98917 73.191 7.70942 73.191 7.36273V2.45847C73.191 2.11156 72.9118 1.83203 72.5652 1.83203H62.9734C62.627 1.83203 62.3477 2.11178 62.3477 2.45847H62.3479Z" fill="#FFCF3D"/>
<path d="M66.9426 4.24817H66.9429C67.1348 4.24817 67.3114 4.13268 67.4407 3.9232C67.5339 3.7718 67.6497 3.69067 67.769 3.69067C67.8883 3.69067 68.0038 3.7718 68.0948 3.91943C68.2258 4.13201 68.4025 4.24728 68.5946 4.24728C68.7868 4.24728 68.9634 4.13179 69.0927 3.92231C69.1834 3.7749 69.2992 3.69355 69.4183 3.69355H69.4185C69.5374 3.69355 69.6529 3.77446 69.7437 3.92165C69.8745 4.13334 70.0511 4.24839 70.2428 4.24839H70.2433C70.4352 4.24839 70.6118 4.1329 70.7411 3.92342C70.8325 3.7749 70.9483 3.69377 71.0674 3.69355C71.1862 3.69355 71.3018 3.77446 71.3925 3.92143C71.5234 4.13334 71.7 4.24839 71.8917 4.24839H71.8919C72.0838 4.24839 72.2605 4.1329 72.3898 3.92342C72.419 3.87576 72.4041 3.81325 72.3568 3.78399C72.3094 3.75451 72.247 3.76958 72.2175 3.81702C72.1268 3.96443 72.011 4.04578 71.8919 4.04578C71.7731 4.04578 71.6575 3.96487 71.5668 3.81791C71.4359 3.60599 71.2593 3.49094 71.0676 3.49094H71.0674C70.8755 3.49094 70.6988 3.60643 70.5695 3.81613C70.4781 3.96465 70.3624 4.04578 70.2433 4.04578H70.243C70.1242 4.04578 70.0086 3.96487 69.9179 3.81791C69.7871 3.60621 69.6104 3.49094 69.4187 3.49094H69.4183C69.2264 3.49094 69.0497 3.60665 68.9205 3.81613C68.8295 3.96377 68.7139 4.0449 68.5946 4.0449C68.4753 4.0449 68.3598 3.96377 68.269 3.81613C68.138 3.60355 67.9613 3.48828 67.7692 3.48828C67.577 3.48828 67.4004 3.60377 67.2711 3.81325C67.1779 3.96465 67.0624 4.04578 66.9433 4.04601C66.8244 4.04601 66.7089 3.9651 66.6181 3.81813C66.4873 3.60621 66.3107 3.49116 66.119 3.49116H66.1185C65.9266 3.49116 65.75 3.60665 65.6207 3.81635C65.5293 3.96487 65.4135 4.04601 65.2944 4.04601H65.2942C65.1753 4.04601 65.0598 3.9651 64.969 3.81813C64.8382 3.60621 64.6616 3.49116 64.4699 3.49116H64.4694C64.2775 3.49116 64.1009 3.60688 63.9716 3.81635C63.8806 3.96399 63.7651 4.04512 63.646 4.04512C63.5269 4.04512 63.4111 3.96377 63.3202 3.81635C63.2907 3.76892 63.2283 3.75384 63.1809 3.78333C63.1333 3.81281 63.1185 3.8751 63.1479 3.92276C63.2772 4.13246 63.4541 4.24773 63.646 4.24773C63.8379 4.24773 64.0148 4.13224 64.144 3.92276C64.2348 3.77535 64.3506 3.69399 64.4697 3.69399H64.4699C64.5887 3.69399 64.7043 3.7749 64.7951 3.92187C64.9259 4.13379 65.1025 4.24884 65.2942 4.24884H65.2947C65.4866 4.24884 65.6632 4.13334 65.7925 3.92387C65.8839 3.77535 65.9997 3.69421 66.1188 3.69399C66.2376 3.69399 66.3532 3.7749 66.4439 3.92187C66.5747 4.13379 66.7514 4.24884 66.9431 4.24884L66.9426 4.24817Z" fill="white"/>
<path d="M71.8915 6.27205C72.0877 6.27737 72.2603 6.15678 72.3896 5.94708C72.4188 5.89942 72.404 5.83713 72.3566 5.80765C72.3092 5.77817 72.2468 5.79302 72.2174 5.84068C72.1266 5.98809 72.0108 6.06944 71.8918 6.06944C71.7729 6.06944 71.6573 5.98853 71.5666 5.84157C71.4358 5.62965 71.2591 5.5146 71.0674 5.5146H71.067C70.8751 5.5146 70.6984 5.63009 70.5692 5.83957C70.4777 5.98787 70.362 6.06922 70.2429 6.06922H70.2427C70.1238 6.06922 70.0082 5.98831 69.9175 5.84134C69.7867 5.62965 69.61 5.51438 69.4183 5.51438H69.4179C69.226 5.51438 69.0493 5.63009 68.9201 5.83957C68.8291 5.9872 68.7135 6.06834 68.5942 6.06834C68.4749 6.06834 68.3594 5.9872 68.2686 5.83957C68.1376 5.62699 67.9609 5.51172 67.7688 5.51172C67.6386 5.51172 67.5156 5.5647 67.4095 5.66401C67.3248 5.74337 67.3431 5.8839 67.4405 5.94708L67.443 5.94331C67.5339 5.7959 67.6495 5.71455 67.7688 5.71455C67.8881 5.71455 68.0037 5.7959 68.0946 5.94331C68.2257 6.1559 68.4023 6.27116 68.5945 6.27116C68.7866 6.27116 68.9632 6.15567 69.0925 5.94619C69.1833 5.79878 69.299 5.71743 69.4181 5.71743H69.4183C69.5372 5.71743 69.6527 5.79834 69.7435 5.94531C69.8743 6.157 70.051 6.27205 70.2427 6.27205H70.2431C70.435 6.27205 70.6117 6.15634 70.7409 5.94686C70.8324 5.79834 70.9481 5.71721 71.0672 5.71721C71.1861 5.71721 71.3016 5.79812 71.3924 5.94509C71.5234 6.157 71.6998 6.27205 71.8915 6.27205Z" fill="white"/>
<path d="M63.3675 71.1072C63.9387 70.8703 64.2099 70.2145 63.9733 69.6425C63.7367 69.0706 63.0819 68.7989 62.5107 69.0359C61.9396 69.2728 61.6684 69.9285 61.9049 70.5005C62.1415 71.0725 62.7963 71.3441 63.3675 71.1072Z" fill="#D1DCF8"/>
<path d="M37.9436 64.031C38.5618 64.031 39.063 63.5292 39.063 62.9101C39.063 62.2909 38.5618 61.7891 37.9436 61.7891C37.3254 61.7891 36.8242 62.2909 36.8242 62.9101C36.8242 63.5292 37.3254 64.031 37.9436 64.031Z" fill="#D1DCF8"/>
</g>
<defs>
<clipPath id="clip0_2023_40851">
<rect width="95.1827" height="79.4284" fill="white" transform="translate(0.472656)"/>
</clipPath>
</defs>
</svg>
